M48
; DRILL file KiCad 10.0.1 date 2026-07-16T18:28:55
; FORMAT={-:-/ absolute / metric / decimal}
; #@! TF.CreationDate,2026-07-16T18:28:55+02:00
; #@! TF.GenerationSoftware,Kicad,Pcbnew,10.0.1
; #@! TF.FileFunction,Plated,1,4,PTH
FMAT,2
METRIC
; #@! TA.AperFunction,Plated,PTH,ViaDrill
T1C0.300
; #@! TA.AperFunction,Plated,PTH,ComponentDrill
T2C0.305
; #@! TA.AperFunction,Plated,PTH,ViaDrill
T3C0.400
; #@! TA.AperFunction,Plated,PTH,ComponentDrill
T4C0.500
; #@! TA.AperFunction,Plated,PTH,ComponentDrill
T5C0.600
; #@! TA.AperFunction,Plated,PTH,ComponentDrill
T6C1.000
; #@! TA.AperFunction,Plated,PTH,ComponentDrill
T7C1.020
; #@! TA.AperFunction,Plated,PTH,ComponentDrill
T8C1.800
; #@! TA.AperFunction,Plated,PTH,ComponentDrill
T9C3.200
%
G90
G05
T1
X102.26Y-113.03
X102.49Y-46.4
X102.61Y-55.89
X102.68Y-110.38
X102.7Y-65.37
X102.96Y-97.36
X102.97Y-74.63
X102.97Y-95.69
X103.12Y-70.57
X103.48Y-104.005
X103.81Y-80.32
X103.9Y-60.18
X104.34Y-87.79
X104.654Y-72.175
X104.85Y-99.56
X105.02Y-109.96
X105.76Y-95.24
X106.02Y-79.17
X106.29Y-74.55
X106.38Y-64.88
X106.665Y-86.242
X107.09Y-100.18
X107.16Y-87.25
X107.62Y-46.85
X107.625Y-63.845
X108.122Y-78.795
X108.35Y-74.401
X108.38Y-65.8
X108.54Y-60.16
X108.638Y-44.818
X108.69Y-54.75
X108.71Y-77.595
X108.74Y-82.96
X108.81Y-114.15
X108.83Y-49.64
X108.86Y-104.46
X108.99Y-64.53
X109.0Y-72.4
X109.04Y-55.911
X109.256Y-70.364
X109.485Y-44.82
X109.57Y-90.95
X109.64Y-53.96
X109.68Y-75.29
X109.68Y-80.06
X109.805Y-84.7
X109.88Y-63.79
X110.01Y-73.59
X110.33Y-53.32
X110.424Y-44.73
X110.43Y-85.2
X110.44Y-52.13
X110.48Y-77.4
X110.95Y-87.93
X110.96Y-40.87
X110.98Y-68.96
X110.98Y-118.0
X111.07Y-82.76
X111.36Y-79.951
X111.58Y-73.33
X111.59Y-39.05
X111.67Y-56.19
X111.77Y-59.7
X111.88Y-58.66
X112.004Y-88.706
X112.17Y-82.72
X112.35Y-81.04
X112.54Y-84.3
X112.54Y-85.12
X112.55Y-91.56
X112.705Y-78.215
X112.73Y-100.08
X113.04Y-68.203
X113.15Y-66.94
X113.33Y-72.37
X113.38Y-73.51
X113.42Y-98.91
X113.45Y-78.52
X113.455Y-80.19
X113.46Y-88.23
X113.59Y-81.04
X113.78Y-79.249
X113.94Y-81.78
X114.02Y-60.42
X114.077Y-67.603
X114.2Y-52.09
X114.23Y-71.79
X114.47Y-90.324
X114.675Y-73.73
X115.1Y-65.45
X115.17Y-83.34
X115.275Y-72.12
X115.31Y-98.79
X115.316Y-61.374
X115.41Y-39.07
X115.46Y-53.99
X115.61Y-56.21
X115.706Y-64.928
X115.73Y-59.68
X116.1Y-62.75
X116.27Y-99.98
X116.305Y-64.397
X116.4Y-86.15
X116.8Y-45.45
X116.89Y-41.82
X116.89Y-43.7
X116.89Y-47.47
X116.98Y-50.01
X117.0Y-70.43
X117.01Y-40.13
X117.03Y-57.23
X117.07Y-54.88
X117.08Y-63.66
X117.13Y-60.43
X117.21Y-52.3
X117.31Y-93.3
X117.65Y-96.88
X117.75Y-103.88
X118.1Y-76.13
X118.16Y-68.03
X118.2Y-81.85
X118.22Y-84.82
X118.34Y-109.88
X118.6Y-73.24
X118.6Y-79.53
X118.66Y-66.49
X118.67Y-62.42
X118.689Y-87.651
X118.74Y-88.68
X118.85Y-112.03
X118.91Y-61.09
X118.99Y-39.07
X119.11Y-83.17
X119.13Y-64.7
X119.16Y-67.96
X119.16Y-84.6
X119.42Y-105.35
X119.88Y-110.45
X120.28Y-69.46
X120.361Y-81.109
X120.47Y-75.95
X120.6Y-57.06
X120.66Y-45.39
X120.66Y-54.9
X120.69Y-49.96
X120.75Y-41.76
X120.75Y-43.64
X120.75Y-47.41
X120.81Y-52.38
X120.87Y-40.07
X121.06Y-87.67
X121.14Y-86.17
X121.28Y-84.96
X121.309Y-82.161
X121.57Y-98.01
X122.0Y-94.97
X122.11Y-105.4
X122.19Y-61.64
X122.512Y-65.082
X122.68Y-112.49
X122.76Y-96.505
X122.95Y-38.98
X123.122Y-67.602
X123.7Y-105.78
X123.72Y-72.76
X123.77Y-88.21
X123.878Y-68.147
X124.0Y-95.75
X124.01Y-65.797
X124.03Y-91.92
X124.07Y-64.207
X124.13Y-85.83
X124.14Y-52.21
X124.17Y-45.74
X124.2Y-49.84
X124.26Y-42.11
X124.26Y-43.99
X124.26Y-47.76
X124.38Y-40.42
X124.44Y-54.87
X124.475Y-68.744
X124.49Y-57.3
X124.58Y-77.95
X124.674Y-66.564
X124.86Y-105.92
X124.87Y-65.17
X125.19Y-104.48
X125.22Y-56.1
X125.34Y-60.05
X125.36Y-84.75
X125.434Y-69.874
X125.621Y-63.52
X125.68Y-53.71
X125.91Y-99.89
X125.96Y-97.13
X126.04Y-39.11
X126.05Y-79.31
X126.079Y-69.15
X126.09Y-83.55
X126.25Y-52.0
X126.38Y-111.49
X126.804Y-71.674
X127.074Y-69.15
X127.16Y-113.68
X127.379Y-67.85
X127.44Y-59.46
X127.525Y-60.255
X127.56Y-62.3
X127.62Y-77.53
X127.73Y-82.61
X127.87Y-99.04
X127.95Y-70.01
X128.0Y-74.01
X128.03Y-117.97
X128.3Y-67.4
X128.32Y-86.27
X128.4Y-104.89
X128.4Y-111.39
X128.44Y-81.55
X128.44Y-100.98
X128.45Y-78.48
X128.52Y-38.84
X128.785Y-47.315
X128.89Y-109.97
X128.93Y-41.07
X129.0Y-104.165
X129.415Y-66.905
X129.43Y-65.939
X129.507Y-47.659
X129.53Y-39.83
X129.6Y-55.79
X129.69Y-100.58
X129.75Y-59.59
X129.84Y-51.02
X129.97Y-54.75
X130.05Y-44.68
X130.14Y-73.58
X130.259Y-47.933
X130.52Y-77.98
X130.71Y-59.8
X130.71Y-79.52
X130.88Y-60.8
X131.46Y-39.97
X131.52Y-67.13
X131.68Y-104.05
X131.72Y-92.55
X131.76Y-70.85
X131.97Y-64.13
X132.02Y-101.69
X132.46Y-104.84
X132.6Y-103.62
X132.835Y-100.055
X133.05Y-97.06
X133.29Y-102.71
X133.74Y-106.49
X134.52Y-49.6
X134.67Y-78.88
X134.73Y-84.82
X136.56Y-101.82
X136.8Y-53.84
X136.84Y-81.86
X137.59Y-102.18
X137.94Y-104.89
X138.26Y-98.04
X138.3Y-91.13
T2
X123.8Y-108.685
X123.8Y-107.695
X124.79Y-108.686
X124.79Y-107.695
T3
X125.96Y-93.851
X126.889Y-85.61
X126.89Y-100.74
T4
X102.875Y-42.13
X102.875Y-116.595
X103.578Y-40.433
X103.578Y-43.827
X103.578Y-114.898
X103.578Y-118.292
X105.275Y-39.73
X105.275Y-44.53
X105.275Y-114.195
X105.275Y-118.995
X106.972Y-40.433
X106.972Y-43.827
X106.972Y-114.898
X106.972Y-118.292
X107.675Y-42.13
X107.675Y-116.595
X132.875Y-42.13
X132.875Y-116.595
X133.578Y-40.433
X133.578Y-43.827
X133.578Y-114.898
X133.578Y-118.292
X135.275Y-39.73
X135.275Y-44.53
X135.275Y-114.195
X135.275Y-118.995
X136.972Y-40.433
X136.972Y-43.827
X136.972Y-114.898
X136.972Y-118.292
X137.675Y-42.13
X137.675Y-116.595
T6
X134.86Y-67.1
X134.86Y-69.64
X134.86Y-72.18
X134.86Y-74.72
T7
X106.91Y-102.515
X109.91Y-102.515
X119.773Y-94.911
X119.773Y-97.911
T8
X116.42Y-116.685
X121.42Y-116.685
T9
X105.275Y-42.13
X105.275Y-116.595
X135.275Y-42.13
X135.275Y-116.595
T5
G00X131.985Y-77.6
M15
G01X133.085Y-77.6
M16
G05
G00X131.985Y-86.24
M15
G01X133.085Y-86.24
M16
G05
G00X136.415Y-77.6
M15
G01X137.015Y-77.6
M16
G05
G00X136.415Y-86.24
M15
G01X137.015Y-86.24
M16
G05
M30
