%TF.GenerationSoftware,KiCad,Pcbnew,10.0.1*%
%TF.CreationDate,2026-07-16T18:28:58+02:00*%
%TF.ProjectId,Horizon,486f7269-7a6f-46e2-9e6b-696361645f70,rev?*%
%TF.SameCoordinates,Original*%
%TF.FileFunction,Soldermask,Top*%
%TF.FilePolarity,Negative*%
%FSLAX46Y46*%
G04 Gerber Fmt 4.6, Leading zero omitted, Abs format (unit mm)*
G04 Created by KiCad (PCBNEW 10.0.1) date 2026-07-16 18:28:58*
%MOMM*%
%LPD*%
G01*
G04 APERTURE LIST*
G04 Aperture macros list*
%AMRoundRect*
0 Rectangle with rounded corners*
0 $1 Rounding radius*
0 $2 $3 $4 $5 $6 $7 $8 $9 X,Y pos of 4 corners*
0 Add a 4 corners polygon primitive as box body*
4,1,4,$2,$3,$4,$5,$6,$7,$8,$9,$2,$3,0*
0 Add four circle primitives for the rounded corners*
1,1,$1+$1,$2,$3*
1,1,$1+$1,$4,$5*
1,1,$1+$1,$6,$7*
1,1,$1+$1,$8,$9*
0 Add four rect primitives between the rounded corners*
20,1,$1+$1,$2,$3,$4,$5,0*
20,1,$1+$1,$4,$5,$6,$7,0*
20,1,$1+$1,$6,$7,$8,$9,0*
20,1,$1+$1,$8,$9,$2,$3,0*%
G04 Aperture macros list end*
%ADD10C,1.020000*%
%ADD11RoundRect,0.250001X0.499999X-0.499999X0.499999X0.499999X-0.499999X0.499999X-0.499999X-0.499999X0*%
%ADD12C,1.500000*%
%ADD13RoundRect,0.140000X-0.170000X0.140000X-0.170000X-0.140000X0.170000X-0.140000X0.170000X0.140000X0*%
%ADD14RoundRect,0.140000X0.219203X0.021213X0.021213X0.219203X-0.219203X-0.021213X-0.021213X-0.219203X0*%
%ADD15RoundRect,0.140000X0.140000X0.170000X-0.140000X0.170000X-0.140000X-0.170000X0.140000X-0.170000X0*%
%ADD16RoundRect,0.218750X-0.218750X-0.256250X0.218750X-0.256250X0.218750X0.256250X-0.218750X0.256250X0*%
%ADD17RoundRect,0.218750X0.335876X0.026517X0.026517X0.335876X-0.335876X-0.026517X-0.026517X-0.335876X0*%
%ADD18RoundRect,0.075000X-0.548008X0.441942X0.441942X-0.548008X0.548008X-0.441942X-0.441942X0.548008X0*%
%ADD19RoundRect,0.075000X-0.548008X-0.441942X-0.441942X-0.548008X0.548008X0.441942X0.441942X0.548008X0*%
%ADD20RoundRect,0.150000X0.625000X-0.150000X0.625000X0.150000X-0.625000X0.150000X-0.625000X-0.150000X0*%
%ADD21RoundRect,0.250000X0.650000X-0.350000X0.650000X0.350000X-0.650000X0.350000X-0.650000X-0.350000X0*%
%ADD22C,0.609600*%
%ADD23O,1.910600X0.451600*%
%ADD24RoundRect,0.050800X-1.325000X1.500000X-1.325000X-1.500000X1.325000X-1.500000X1.325000X1.500000X0*%
%ADD25RoundRect,0.140000X-0.140000X-0.170000X0.140000X-0.170000X0.140000X0.170000X-0.140000X0.170000X0*%
%ADD26RoundRect,0.050800X0.292500X0.140000X-0.292500X0.140000X-0.292500X-0.140000X0.292500X-0.140000X0*%
%ADD27RoundRect,0.050800X0.140000X0.292500X-0.140000X0.292500X-0.140000X-0.292500X0.140000X-0.292500X0*%
%ADD28RoundRect,0.135000X0.226274X0.035355X0.035355X0.226274X-0.226274X-0.035355X-0.035355X-0.226274X0*%
%ADD29RoundRect,0.140000X0.170000X-0.140000X0.170000X0.140000X-0.170000X0.140000X-0.170000X-0.140000X0*%
%ADD30RoundRect,0.250000X-0.250000X-0.475000X0.250000X-0.475000X0.250000X0.475000X-0.250000X0.475000X0*%
%ADD31RoundRect,0.140000X-0.021213X0.219203X-0.219203X0.021213X0.021213X-0.219203X0.219203X-0.021213X0*%
%ADD32RoundRect,0.050800X-1.000000X1.000000X-1.000000X-1.000000X1.000000X-1.000000X1.000000X1.000000X0*%
%ADD33RoundRect,0.050000X-0.150000X-0.150000X0.150000X-0.150000X0.150000X0.150000X-0.150000X0.150000X0*%
%ADD34RoundRect,0.135000X-0.226274X-0.035355X-0.035355X-0.226274X0.226274X0.035355X0.035355X0.226274X0*%
%ADD35R,0.750000X1.000000*%
%ADD36RoundRect,0.050800X1.000000X-1.000000X1.000000X1.000000X-1.000000X1.000000X-1.000000X-1.000000X0*%
%ADD37R,2.474000X5.020000*%
%ADD38RoundRect,0.050800X-1.400000X-0.650000X1.400000X-0.650000X1.400000X0.650000X-1.400000X0.650000X0*%
%ADD39RoundRect,0.050800X-3.250000X-3.000000X3.250000X-3.000000X3.250000X3.000000X-3.250000X3.000000X0*%
%ADD40C,0.650000*%
%ADD41RoundRect,0.150000X0.500000X-0.150000X0.500000X0.150000X-0.500000X0.150000X-0.500000X-0.150000X0*%
%ADD42RoundRect,0.075000X0.575000X-0.075000X0.575000X0.075000X-0.575000X0.075000X-0.575000X-0.075000X0*%
%ADD43O,2.100000X1.000000*%
%ADD44O,1.600000X1.000000*%
%ADD45C,0.800000*%
%ADD46C,6.400000*%
%ADD47RoundRect,0.135000X0.135000X0.185000X-0.135000X0.185000X-0.135000X-0.185000X0.135000X-0.185000X0*%
%ADD48RoundRect,0.140000X0.021213X-0.219203X0.219203X-0.021213X-0.021213X0.219203X-0.219203X0.021213X0*%
%ADD49RoundRect,0.135000X-0.185000X0.135000X-0.185000X-0.135000X0.185000X-0.135000X0.185000X0.135000X0*%
%ADD50RoundRect,0.225000X-0.225000X-0.250000X0.225000X-0.250000X0.225000X0.250000X-0.225000X0.250000X0*%
%ADD51R,1.700000X1.700000*%
%ADD52C,1.700000*%
%ADD53RoundRect,0.050800X0.140000X-0.337500X0.140000X0.337500X-0.140000X0.337500X-0.140000X-0.337500X0*%
%ADD54RoundRect,0.050800X0.337500X-0.140000X0.337500X0.140000X-0.337500X0.140000X-0.337500X-0.140000X0*%
%ADD55R,2.400000X2.400000*%
%ADD56RoundRect,0.225000X0.335876X0.017678X0.017678X0.335876X-0.335876X-0.017678X-0.017678X-0.335876X0*%
%ADD57RoundRect,0.250000X0.250000X0.475000X-0.250000X0.475000X-0.250000X-0.475000X0.250000X-0.475000X0*%
%ADD58RoundRect,0.225000X-0.225000X-0.375000X0.225000X-0.375000X0.225000X0.375000X-0.225000X0.375000X0*%
%ADD59RoundRect,0.250001X-0.499999X-0.499999X0.499999X-0.499999X0.499999X0.499999X-0.499999X0.499999X0*%
%ADD60RoundRect,0.750000X-0.750000X-0.750000X0.750000X-0.750000X0.750000X0.750000X-0.750000X0.750000X0*%
%ADD61C,3.000000*%
%ADD62RoundRect,0.218750X0.256250X-0.218750X0.256250X0.218750X-0.256250X0.218750X-0.256250X-0.218750X0*%
%ADD63RoundRect,0.135000X0.185000X-0.135000X0.185000X0.135000X-0.185000X0.135000X-0.185000X-0.135000X0*%
%ADD64RoundRect,0.050800X-0.300000X0.750000X-0.300000X-0.750000X0.300000X-0.750000X0.300000X0.750000X0*%
%ADD65RoundRect,0.140000X-0.219203X-0.021213X-0.021213X-0.219203X0.219203X0.021213X0.021213X0.219203X0*%
%ADD66RoundRect,0.135000X-0.135000X-0.185000X0.135000X-0.185000X0.135000X0.185000X-0.135000X0.185000X0*%
%ADD67RoundRect,0.050800X-0.900000X-0.450000X0.900000X-0.450000X0.900000X0.450000X-0.900000X0.450000X0*%
%ADD68RoundRect,0.225000X-0.250000X0.225000X-0.250000X-0.225000X0.250000X-0.225000X0.250000X0.225000X0*%
%ADD69RoundRect,0.250000X-0.475000X0.250000X-0.475000X-0.250000X0.475000X-0.250000X0.475000X0.250000X0*%
%ADD70RoundRect,0.250000X0.141421X-1.202082X1.202082X-0.141421X-0.141421X1.202082X-1.202082X0.141421X0*%
%ADD71RoundRect,0.150000X0.150000X-0.587500X0.150000X0.587500X-0.150000X0.587500X-0.150000X-0.587500X0*%
%ADD72RoundRect,0.225000X0.225000X0.250000X-0.225000X0.250000X-0.225000X-0.250000X0.225000X-0.250000X0*%
%ADD73O,0.731600X2.351600*%
%ADD74RoundRect,0.250000X0.475000X-0.250000X0.475000X0.250000X-0.475000X0.250000X-0.475000X-0.250000X0*%
G04 APERTURE END LIST*
D10*
%TO.C,J9*%
X110850000Y-105515000D03*
X110850000Y-99515000D03*
D11*
X106910000Y-102515000D03*
D12*
X109910000Y-102515000D03*
%TD*%
D13*
%TO.C,R26*%
X103480000Y-98965000D03*
X103480000Y-99925000D03*
%TD*%
%TO.C,R19*%
X125090000Y-96515000D03*
X125090000Y-97475000D03*
%TD*%
D14*
%TO.C,C6*%
X114979411Y-62249411D03*
X114300589Y-61570589D03*
%TD*%
D15*
%TO.C,C62*%
X127720000Y-63920000D03*
X126760000Y-63920000D03*
%TD*%
D16*
%TO.C,D7*%
X119302500Y-104060000D03*
X120877500Y-104060000D03*
%TD*%
D17*
%TO.C,D2*%
X123966847Y-83606847D03*
X122853153Y-82493153D03*
%TD*%
D18*
%TO.C,U6*%
X117228819Y-66370519D03*
X116875266Y-66724072D03*
X116521713Y-67077625D03*
X116168159Y-67431179D03*
X115814606Y-67784732D03*
X115461052Y-68138286D03*
X115107499Y-68491839D03*
X114753946Y-68845392D03*
X114400392Y-69198946D03*
X114046839Y-69552499D03*
X113693286Y-69906052D03*
X113339732Y-70259606D03*
X112986179Y-70613159D03*
X112632625Y-70966713D03*
X112279072Y-71320266D03*
X111925519Y-71673819D03*
D19*
X111925519Y-74396181D03*
X112279072Y-74749734D03*
X112632625Y-75103287D03*
X112986179Y-75456841D03*
X113339732Y-75810394D03*
X113693286Y-76163948D03*
X114046839Y-76517501D03*
X114400392Y-76871054D03*
X114753946Y-77224608D03*
X115107499Y-77578161D03*
X115461052Y-77931714D03*
X115814606Y-78285268D03*
X116168159Y-78638821D03*
X116521713Y-78992375D03*
X116875266Y-79345928D03*
X117228819Y-79699481D03*
D18*
X119951181Y-79699481D03*
X120304734Y-79345928D03*
X120658287Y-78992375D03*
X121011841Y-78638821D03*
X121365394Y-78285268D03*
X121718948Y-77931714D03*
X122072501Y-77578161D03*
X122426054Y-77224608D03*
X122779608Y-76871054D03*
X123133161Y-76517501D03*
X123486714Y-76163948D03*
X123840268Y-75810394D03*
X124193821Y-75456841D03*
X124547375Y-75103287D03*
X124900928Y-74749734D03*
X125254481Y-74396181D03*
D19*
X125254481Y-71673819D03*
X124900928Y-71320266D03*
X124547375Y-70966713D03*
X124193821Y-70613159D03*
X123840268Y-70259606D03*
X123486714Y-69906052D03*
X123133161Y-69552499D03*
X122779608Y-69198946D03*
X122426054Y-68845392D03*
X122072501Y-68491839D03*
X121718948Y-68138286D03*
X121365394Y-67784732D03*
X121011841Y-67431179D03*
X120658287Y-67077625D03*
X120304734Y-66724072D03*
X119951181Y-66370519D03*
%TD*%
D13*
%TO.C,R24*%
X103480000Y-105185000D03*
X103480000Y-106145000D03*
%TD*%
D17*
%TO.C,D6*%
X126036847Y-81535812D03*
X124923153Y-80422118D03*
%TD*%
D14*
%TO.C,C50*%
X117879411Y-65719411D03*
X117200589Y-65040589D03*
%TD*%
D20*
%TO.C,J11*%
X132720000Y-62800000D03*
X132720000Y-61800000D03*
X132720000Y-60800000D03*
X132720000Y-59800000D03*
X132720000Y-58800000D03*
X132720000Y-57800000D03*
D21*
X136595000Y-64100000D03*
X136595000Y-56500000D03*
%TD*%
D14*
%TO.C,C5*%
X109879411Y-67349411D03*
X109200589Y-66670589D03*
%TD*%
D13*
%TO.C,C57*%
X118430000Y-85690000D03*
X118430000Y-86650000D03*
%TD*%
D22*
%TO.C,U14*%
X123800000Y-107695000D03*
X124790300Y-107695300D03*
X123799700Y-108685300D03*
X124790000Y-108685600D03*
D23*
X121640400Y-106240300D03*
X121640400Y-106890300D03*
X121640400Y-107540300D03*
X121640400Y-108190300D03*
X121640400Y-108840300D03*
X121640400Y-109490300D03*
X121640400Y-110140300D03*
X126949600Y-110140300D03*
X126949600Y-109490300D03*
X126949600Y-108840300D03*
X126949600Y-108190300D03*
X126949600Y-107540300D03*
X126949600Y-106890300D03*
X126949600Y-106240300D03*
D24*
X124295000Y-108190300D03*
%TD*%
D25*
%TO.C,C59*%
X125090000Y-98475000D03*
X126050000Y-98475000D03*
%TD*%
D26*
%TO.C,U9*%
X111610100Y-86070000D03*
X111610100Y-85569900D03*
X111610100Y-85070000D03*
X111610100Y-84569900D03*
X111610100Y-84070000D03*
D27*
X110579900Y-83652400D03*
X110080000Y-83652400D03*
X109579900Y-83652400D03*
D26*
X108549900Y-84070000D03*
X108549900Y-84569900D03*
X108549900Y-85070000D03*
X108549900Y-85569900D03*
X108549900Y-86070000D03*
D27*
X109579900Y-86487600D03*
X110080000Y-86487600D03*
X110579900Y-86487600D03*
%TD*%
D28*
%TO.C,R8*%
X124140624Y-79640624D03*
X123419376Y-78919376D03*
%TD*%
D29*
%TO.C,C63*%
X128885000Y-43000000D03*
X128885000Y-42040000D03*
%TD*%
D30*
%TO.C,C28*%
X114470000Y-103665000D03*
X116370000Y-103665000D03*
%TD*%
D13*
%TO.C,R30*%
X103480000Y-101475000D03*
X103480000Y-102435000D03*
%TD*%
D31*
%TO.C,C47*%
X117860000Y-80330000D03*
X117181178Y-81008822D03*
%TD*%
D32*
%TO.C,D4*%
X125960000Y-92179900D03*
X125960000Y-87780100D03*
%TD*%
D33*
%TO.C,U1*%
X126761701Y-65017163D03*
X126261901Y-65017163D03*
X125731801Y-65297063D03*
X125731801Y-65797163D03*
X125731801Y-66297063D03*
X126261901Y-66577163D03*
X126761701Y-66577163D03*
X127291801Y-66297063D03*
X127291801Y-65797163D03*
X127291801Y-65297063D03*
%TD*%
D28*
%TO.C,R1*%
X123900624Y-67250624D03*
X123179376Y-66529376D03*
%TD*%
%TO.C,R5*%
X122090624Y-81690624D03*
X121369376Y-80969376D03*
%TD*%
D34*
%TO.C,R2*%
X120949376Y-64579376D03*
X121670624Y-65300624D03*
%TD*%
D35*
%TO.C,Reset2*%
X102560000Y-63180000D03*
X102560000Y-57180000D03*
X106310000Y-63180000D03*
X106310000Y-57180000D03*
%TD*%
D14*
%TO.C,C48*%
X111639411Y-76370000D03*
X110960589Y-75691178D03*
%TD*%
D29*
%TO.C,C64*%
X102430000Y-76770000D03*
X102430000Y-75810000D03*
%TD*%
%TO.C,C58*%
X119430000Y-109140000D03*
X119430000Y-108180000D03*
%TD*%
D36*
%TO.C,D1*%
X116420000Y-107905100D03*
X116420000Y-112304900D03*
%TD*%
D37*
%TO.C,L1*%
X130780000Y-108825000D03*
X135986000Y-108825000D03*
%TD*%
D38*
%TO.C,Q5*%
X105023000Y-107595600D03*
D39*
X111607000Y-109868400D03*
D38*
X105023000Y-112141200D03*
%TD*%
D25*
%TO.C,C56*%
X125990000Y-105305000D03*
X126950000Y-105305000D03*
%TD*%
D40*
%TO.C,J1*%
X133035000Y-84810000D03*
X133035000Y-79030000D03*
D41*
X131895000Y-85120000D03*
X131895000Y-84320000D03*
D42*
X131895000Y-83170000D03*
X131895000Y-82170000D03*
X131895000Y-81670000D03*
X131895000Y-80670000D03*
D41*
X131895000Y-79520000D03*
X131895000Y-78720000D03*
X131895000Y-78720000D03*
X131895000Y-79520000D03*
D42*
X131895000Y-80170000D03*
X131895000Y-81170000D03*
X131895000Y-82670000D03*
X131895000Y-83670000D03*
D41*
X131895000Y-84320000D03*
X131895000Y-85120000D03*
D43*
X132535000Y-86240000D03*
D44*
X136715000Y-86240000D03*
D43*
X132535000Y-77600000D03*
D44*
X136715000Y-77600000D03*
%TD*%
D13*
%TO.C,R20*%
X125090000Y-99445000D03*
X125090000Y-100405000D03*
%TD*%
D45*
%TO.C,H5*%
X102875000Y-116595000D03*
X103577944Y-114897944D03*
X103577944Y-118292056D03*
X105275000Y-114195000D03*
D46*
X105275000Y-116595000D03*
D45*
X105275000Y-118995000D03*
X106972056Y-114897944D03*
X106972056Y-118292056D03*
X107675000Y-116595000D03*
%TD*%
D17*
%TO.C,D3*%
X125007471Y-82567471D03*
X123893777Y-81453777D03*
%TD*%
D13*
%TO.C,C66*%
X112670000Y-86070000D03*
X112670000Y-87030000D03*
%TD*%
D25*
%TO.C,C53*%
X126890000Y-103470000D03*
X127850000Y-103470000D03*
%TD*%
D47*
%TO.C,R12*%
X104945000Y-55920000D03*
X103925000Y-55920000D03*
%TD*%
D48*
%TO.C,C51*%
X119340589Y-65759411D03*
X120019411Y-65080589D03*
%TD*%
D49*
%TO.C,R9*%
X122210000Y-103520000D03*
X122210000Y-104540000D03*
%TD*%
D47*
%TO.C,R3*%
X119949700Y-106240300D03*
X118929700Y-106240300D03*
%TD*%
D45*
%TO.C,H6*%
X132875000Y-116595000D03*
X133577944Y-114897944D03*
X133577944Y-118292056D03*
X135275000Y-114195000D03*
D46*
X135275000Y-116595000D03*
D45*
X135275000Y-118995000D03*
X136972056Y-114897944D03*
X136972056Y-118292056D03*
X137675000Y-116595000D03*
%TD*%
D50*
%TO.C,C26*%
X108030000Y-88760000D03*
X109580000Y-88760000D03*
%TD*%
D29*
%TO.C,C61*%
X128380000Y-66260000D03*
X128380000Y-65300000D03*
%TD*%
D51*
%TO.C,J6*%
X134860000Y-67100000D03*
D52*
X134860000Y-69640000D03*
X134860000Y-72180000D03*
X134860000Y-74720000D03*
%TD*%
D49*
%TO.C,R25*%
X102810000Y-107600000D03*
X102810000Y-108620000D03*
%TD*%
D53*
%TO.C,U5*%
X115579900Y-87411750D03*
X116080100Y-87411750D03*
X116579900Y-87411750D03*
X117080100Y-87411750D03*
D54*
X117342400Y-86649750D03*
X117342400Y-86149850D03*
X117342400Y-85649750D03*
D53*
X117080100Y-84887750D03*
X116579900Y-84887750D03*
X116080100Y-84887750D03*
X115579900Y-84887750D03*
D54*
X115317600Y-85649750D03*
X115317600Y-86149850D03*
X115317600Y-86649750D03*
%TD*%
D47*
%TO.C,R10*%
X130820000Y-101690000D03*
X129800000Y-101690000D03*
%TD*%
D29*
%TO.C,C68*%
X118910000Y-59770000D03*
X118910000Y-58810000D03*
%TD*%
D55*
%TO.C,BZ1*%
X129250000Y-95930000D03*
X136450000Y-95930000D03*
X136449500Y-88730500D03*
X129250000Y-88730000D03*
%TD*%
D56*
%TO.C,C7*%
X116548008Y-82008008D03*
X115451992Y-80911992D03*
%TD*%
D57*
%TO.C,C34*%
X135986000Y-104455000D03*
X134086000Y-104455000D03*
%TD*%
D58*
%TO.C,D5*%
X131222500Y-98530000D03*
X134522500Y-98530000D03*
%TD*%
D35*
%TO.C,Flash1*%
X102560000Y-54670000D03*
X102560000Y-48670000D03*
X106310000Y-54670000D03*
X106310000Y-48670000D03*
%TD*%
D10*
%TO.C,J7*%
X116773000Y-98851200D03*
X122773000Y-98851200D03*
D59*
X119773000Y-94911200D03*
D12*
X119773000Y-97911200D03*
%TD*%
D60*
%TO.C,J2*%
X116420000Y-116685000D03*
D61*
X121420000Y-116685000D03*
%TD*%
D50*
%TO.C,C8*%
X126890000Y-102200000D03*
X128440000Y-102200000D03*
%TD*%
D15*
%TO.C,C65*%
X109580000Y-87520000D03*
X108620000Y-87520000D03*
%TD*%
D30*
%TO.C,C27*%
X114470000Y-105625000D03*
X116370000Y-105625000D03*
%TD*%
D62*
%TO.C,D8*%
X130100000Y-104477500D03*
X130100000Y-102902500D03*
%TD*%
D63*
%TO.C,R11*%
X117660000Y-106175000D03*
X117660000Y-105155000D03*
%TD*%
D64*
%TO.C,U3*%
X124069900Y-60360100D03*
X122820000Y-60360099D03*
X121569800Y-60360099D03*
X120319900Y-60360100D03*
X120319900Y-62960000D03*
X121569800Y-62960000D03*
X122820000Y-62960000D03*
X124069900Y-62960000D03*
%TD*%
D63*
%TO.C,R16*%
X108710000Y-81760000D03*
X108710000Y-80740000D03*
%TD*%
D65*
%TO.C,C52*%
X125860589Y-73790589D03*
X126539411Y-74469411D03*
%TD*%
D15*
%TO.C,C67*%
X135986000Y-103015000D03*
X135026000Y-103015000D03*
%TD*%
D49*
%TO.C,R17*%
X129370000Y-77350000D03*
X129370000Y-78370000D03*
%TD*%
D28*
%TO.C,R7*%
X123120624Y-80650624D03*
X122399376Y-79929376D03*
%TD*%
D66*
%TO.C,R14*%
X129180000Y-83170000D03*
X130200000Y-83170000D03*
%TD*%
D45*
%TO.C,H7*%
X132875000Y-42130000D03*
X133577944Y-40432944D03*
X133577944Y-43827056D03*
X135275000Y-39730000D03*
D46*
X135275000Y-42130000D03*
D45*
X135275000Y-44530000D03*
X136972056Y-40432944D03*
X136972056Y-43827056D03*
X137675000Y-42130000D03*
%TD*%
D13*
%TO.C,C2*%
X128830000Y-106395000D03*
X128830000Y-107355000D03*
%TD*%
D45*
%TO.C,H8*%
X102875000Y-42130000D03*
X103577944Y-40432944D03*
X103577944Y-43827056D03*
X105275000Y-39730000D03*
D46*
X105275000Y-42130000D03*
D45*
X105275000Y-44530000D03*
X106972056Y-40432944D03*
X106972056Y-43827056D03*
X107675000Y-42130000D03*
%TD*%
D25*
%TO.C,R23*%
X113493000Y-91381200D03*
X114453000Y-91381200D03*
%TD*%
D49*
%TO.C,R21*%
X103420000Y-92920000D03*
X103420000Y-93940000D03*
%TD*%
D67*
%TO.C,U2*%
X127275000Y-57460000D03*
X127275000Y-56190000D03*
X127275000Y-54920000D03*
X127275000Y-49350000D03*
X127275000Y-48080000D03*
X127275000Y-46810000D03*
X127275000Y-45540000D03*
X127275000Y-44270000D03*
X127275000Y-43000000D03*
X127275000Y-41730000D03*
X127275000Y-40460000D03*
X113275000Y-40460000D03*
X113275000Y-41730000D03*
X113275000Y-43000000D03*
X113275000Y-44270000D03*
X113275000Y-45540000D03*
X113275000Y-46810000D03*
X113275000Y-48080000D03*
X113275000Y-49350000D03*
X113275000Y-54920000D03*
X113275000Y-56190000D03*
X113275000Y-57460000D03*
%TD*%
D68*
%TO.C,C25*%
X130175000Y-41450000D03*
X130175000Y-43000000D03*
%TD*%
D15*
%TO.C,R4*%
X108340000Y-90950000D03*
X107380000Y-90950000D03*
%TD*%
D25*
%TO.C,C60*%
X117080000Y-83820000D03*
X118040000Y-83820000D03*
%TD*%
D57*
%TO.C,C24*%
X123959999Y-90174003D03*
X122060001Y-90174003D03*
%TD*%
D69*
%TO.C,C37*%
X114720000Y-100040000D03*
X114720000Y-101940000D03*
%TD*%
D38*
%TO.C,Q1*%
X105593000Y-92915600D03*
D39*
X112177000Y-95188400D03*
D38*
X105593000Y-97461200D03*
%TD*%
D49*
%TO.C,R15*%
X103471250Y-85720000D03*
X103471250Y-86740000D03*
%TD*%
D70*
%TO.C,Y2*%
X111151852Y-66078148D03*
X113768148Y-63461852D03*
%TD*%
D48*
%TO.C,C49*%
X111710000Y-69650000D03*
X112388822Y-68971178D03*
%TD*%
D71*
%TO.C,Q2*%
X136030000Y-100307500D03*
X137930000Y-100307500D03*
X136980000Y-98432500D03*
%TD*%
D72*
%TO.C,C4*%
X128455000Y-75850000D03*
X126905000Y-75850000D03*
%TD*%
D66*
%TO.C,R6*%
X133840000Y-100310000D03*
X134860000Y-100310000D03*
%TD*%
D13*
%TO.C,C1*%
X118370000Y-107540000D03*
X118370000Y-108500000D03*
%TD*%
D47*
%TO.C,R13*%
X104945000Y-47370000D03*
X103925000Y-47370000D03*
%TD*%
D73*
%TO.C,U4*%
X103475000Y-83830100D03*
X104745000Y-83830100D03*
X106015000Y-83830100D03*
X107285000Y-83830100D03*
X107285000Y-76769900D03*
X106015000Y-76769900D03*
X104745000Y-76769900D03*
X103475000Y-76769900D03*
%TD*%
D25*
%TO.C,R22*%
X116143000Y-91381200D03*
X117103000Y-91381200D03*
%TD*%
D74*
%TO.C,C36*%
X123690000Y-104560000D03*
X123690000Y-102660000D03*
%TD*%
D15*
%TO.C,C35*%
X104915000Y-64470000D03*
X103955000Y-64470000D03*
%TD*%
M02*
