%TF.GenerationSoftware,KiCad,Pcbnew,10.0.1*%
%TF.CreationDate,2026-07-16T18:28:58+02:00*%
%TF.ProjectId,Horizon,486f7269-7a6f-46e2-9e6b-696361645f70,rev?*%
%TF.SameCoordinates,Original*%
%TF.FileFunction,Copper,L3,Inr*%
%TF.FilePolarity,Positive*%
%FSLAX46Y46*%
G04 Gerber Fmt 4.6, Leading zero omitted, Abs format (unit mm)*
G04 Created by KiCad (PCBNEW 10.0.1) date 2026-07-16 18:28:58*
%MOMM*%
%LPD*%
G01*
G04 APERTURE LIST*
G04 Aperture macros list*
%AMRoundRect*
0 Rectangle with rounded corners*
0 $1 Rounding radius*
0 $2 $3 $4 $5 $6 $7 $8 $9 X,Y pos of 4 corners*
0 Add a 4 corners polygon primitive as box body*
4,1,4,$2,$3,$4,$5,$6,$7,$8,$9,$2,$3,0*
0 Add four circle primitives for the rounded corners*
1,1,$1+$1,$2,$3*
1,1,$1+$1,$4,$5*
1,1,$1+$1,$6,$7*
1,1,$1+$1,$8,$9*
0 Add four rect primitives between the rounded corners*
20,1,$1+$1,$2,$3,$4,$5,0*
20,1,$1+$1,$4,$5,$6,$7,0*
20,1,$1+$1,$6,$7,$8,$9,0*
20,1,$1+$1,$8,$9,$2,$3,0*%
G04 Aperture macros list end*
%TA.AperFunction,ComponentPad*%
%ADD10RoundRect,0.250001X0.499999X-0.499999X0.499999X0.499999X-0.499999X0.499999X-0.499999X-0.499999X0*%
%TD*%
%TA.AperFunction,ComponentPad*%
%ADD11C,1.500000*%
%TD*%
%TA.AperFunction,ComponentPad*%
%ADD12C,0.609600*%
%TD*%
%TA.AperFunction,ComponentPad*%
%ADD13O,2.100000X1.000000*%
%TD*%
%TA.AperFunction,ComponentPad*%
%ADD14O,1.600000X1.000000*%
%TD*%
%TA.AperFunction,ComponentPad*%
%ADD15C,0.800000*%
%TD*%
%TA.AperFunction,ComponentPad*%
%ADD16C,6.400000*%
%TD*%
%TA.AperFunction,ComponentPad*%
%ADD17R,1.700000X1.700000*%
%TD*%
%TA.AperFunction,ComponentPad*%
%ADD18C,1.700000*%
%TD*%
%TA.AperFunction,ComponentPad*%
%ADD19RoundRect,0.250001X-0.499999X-0.499999X0.499999X-0.499999X0.499999X0.499999X-0.499999X0.499999X0*%
%TD*%
%TA.AperFunction,ComponentPad*%
%ADD20RoundRect,0.750000X-0.750000X-0.750000X0.750000X-0.750000X0.750000X0.750000X-0.750000X0.750000X0*%
%TD*%
%TA.AperFunction,ComponentPad*%
%ADD21C,3.000000*%
%TD*%
%TA.AperFunction,ViaPad*%
%ADD22C,0.600000*%
%TD*%
%TA.AperFunction,ViaPad*%
%ADD23C,0.800000*%
%TD*%
G04 APERTURE END LIST*
D10*
%TO.N,Net-(J9-Pin_1)*%
%TO.C,J9*%
X106910000Y-102515000D03*
D11*
%TO.N,7.4V{slash}VBAT*%
X109910000Y-102515000D03*
%TD*%
D12*
%TO.N,*%
%TO.C,U14*%
X123800000Y-107695000D03*
X124790300Y-107695300D03*
X123799700Y-108685300D03*
X124790000Y-108685600D03*
%TD*%
D13*
%TO.N,GND*%
%TO.C,J1*%
X132535000Y-86240000D03*
D14*
X136715000Y-86240000D03*
D13*
X132535000Y-77600000D03*
D14*
X136715000Y-77600000D03*
%TD*%
D15*
%TO.N,GND*%
%TO.C,H5*%
X102875000Y-116595000D03*
X103577944Y-114897944D03*
X103577944Y-118292056D03*
X105275000Y-114195000D03*
D16*
X105275000Y-116595000D03*
D15*
X105275000Y-118995000D03*
X106972056Y-114897944D03*
X106972056Y-118292056D03*
X107675000Y-116595000D03*
%TD*%
%TO.N,GND*%
%TO.C,H6*%
X132875000Y-116595000D03*
X133577944Y-114897944D03*
X133577944Y-118292056D03*
X135275000Y-114195000D03*
D16*
X135275000Y-116595000D03*
D15*
X135275000Y-118995000D03*
X136972056Y-114897944D03*
X136972056Y-118292056D03*
X137675000Y-116595000D03*
%TD*%
D17*
%TO.N,+3V3*%
%TO.C,J6*%
X134860000Y-67100000D03*
D18*
%TO.N,/SWCLK*%
X134860000Y-69640000D03*
%TO.N,/SWDIO*%
X134860000Y-72180000D03*
%TO.N,GND*%
X134860000Y-74720000D03*
%TD*%
D19*
%TO.N,Net-(J7-Pin_1)*%
%TO.C,J7*%
X119773000Y-94911200D03*
D11*
%TO.N,7.4V{slash}VBAT*%
X119773000Y-97911200D03*
%TD*%
D20*
%TO.N,Net-(D1-A)*%
%TO.C,J2*%
X116420000Y-116685000D03*
D21*
%TO.N,GND*%
X121420000Y-116685000D03*
%TD*%
D15*
%TO.N,GND*%
%TO.C,H7*%
X132875000Y-42130000D03*
X133577944Y-40432944D03*
X133577944Y-43827056D03*
X135275000Y-39730000D03*
D16*
X135275000Y-42130000D03*
D15*
X135275000Y-44530000D03*
X136972056Y-40432944D03*
X136972056Y-43827056D03*
X137675000Y-42130000D03*
%TD*%
%TO.N,GND*%
%TO.C,H8*%
X102875000Y-42130000D03*
X103577944Y-40432944D03*
X103577944Y-43827056D03*
X105275000Y-39730000D03*
D16*
X105275000Y-42130000D03*
D15*
X105275000Y-44530000D03*
X106972056Y-40432944D03*
X106972056Y-43827056D03*
X107675000Y-42130000D03*
%TD*%
D22*
%TO.N,GND*%
X108740000Y-82960000D03*
X112170000Y-82720000D03*
X118220000Y-84820000D03*
X121140000Y-86170000D03*
%TO.N,/PYRO_FIRE1*%
X118600000Y-79530000D03*
X109570000Y-90950000D03*
D23*
%TO.N,7.4V{slash}VBAT*%
X125960000Y-93850860D03*
X126890000Y-100740000D03*
D22*
%TO.N,GND*%
X132460000Y-104840000D03*
X111670000Y-56190000D03*
X115730000Y-59680000D03*
X120810000Y-52380000D03*
X124860000Y-105920000D03*
X106290000Y-74550000D03*
X123720000Y-72760000D03*
X115170000Y-83340000D03*
X131760000Y-70850000D03*
X130520000Y-77980000D03*
X120660000Y-45390000D03*
X108690000Y-54750000D03*
X119129706Y-64700000D03*
X118600000Y-73240000D03*
X124000000Y-95750000D03*
X115310000Y-98790000D03*
X102610000Y-55890000D03*
X120750000Y-47410000D03*
X114230000Y-71790000D03*
X125960000Y-97130000D03*
X108860000Y-104460000D03*
X138260000Y-98040000D03*
X128440000Y-81550000D03*
X127730000Y-82610000D03*
X118990000Y-39070000D03*
X128000000Y-74010000D03*
X108810000Y-114150000D03*
X117010000Y-40130000D03*
X112730000Y-100080000D03*
X120870000Y-40070000D03*
X128320000Y-86270000D03*
X114200000Y-52090000D03*
X121309265Y-82160735D03*
X128030000Y-117970000D03*
X124580000Y-77950000D03*
X133290000Y-102710000D03*
X124490000Y-57300000D03*
X129000000Y-104165000D03*
X124260000Y-42110000D03*
X124440000Y-54870000D03*
X118740000Y-88680000D03*
X121280000Y-84960000D03*
X102700000Y-65370000D03*
X103120000Y-70570000D03*
X105760000Y-95240000D03*
X120600000Y-57060000D03*
X120280000Y-69460000D03*
X133740000Y-106490000D03*
X129600000Y-55790000D03*
X125360000Y-84750000D03*
X118160000Y-68030000D03*
X110980000Y-118000000D03*
X117070000Y-54880000D03*
X124870000Y-65170000D03*
X105020000Y-109960000D03*
X125340000Y-60050000D03*
X120470000Y-75950000D03*
X130050000Y-44680000D03*
X102680000Y-110380000D03*
X124170000Y-45740000D03*
X102960000Y-97360000D03*
X126250000Y-52000000D03*
X103810000Y-80320000D03*
X120750000Y-41760000D03*
X116270000Y-99980000D03*
X116980000Y-50010000D03*
X128300000Y-67400000D03*
X126090000Y-83550000D03*
X127620000Y-77530000D03*
X130140000Y-73580000D03*
X111880000Y-58660000D03*
X131460000Y-39970000D03*
X112003704Y-88706298D03*
X123770000Y-88210000D03*
X131520000Y-67130000D03*
X112550000Y-91560000D03*
X128400000Y-111390000D03*
X104340000Y-87790000D03*
X107090000Y-100180000D03*
X107160000Y-87250000D03*
X137940000Y-104890000D03*
X116100000Y-62750000D03*
X114020000Y-60420000D03*
X129970000Y-54750000D03*
X108990000Y-64530000D03*
X124200000Y-49840000D03*
X116800000Y-45450000D03*
X102970000Y-74630000D03*
X116400000Y-86150000D03*
X102970000Y-95690000D03*
X122190000Y-61640000D03*
X117750000Y-103880000D03*
X119110000Y-83170000D03*
X117310000Y-93300000D03*
X118660000Y-66490000D03*
X116890000Y-43700000D03*
X111580000Y-73330000D03*
X133050000Y-97060000D03*
X110960000Y-40870000D03*
X126050000Y-79310000D03*
X117650000Y-96880000D03*
X124674363Y-66564363D03*
X134730000Y-84820000D03*
X127870000Y-99040000D03*
X113460000Y-88230000D03*
X127560000Y-62300000D03*
X117030000Y-57230000D03*
X117130000Y-60430000D03*
X110330000Y-53320000D03*
X116890000Y-41820000D03*
X117080000Y-63660000D03*
X128440000Y-100980000D03*
X124260000Y-43990000D03*
X120750000Y-43640000D03*
X125190000Y-104480000D03*
X119880000Y-110450000D03*
X125220000Y-56100000D03*
X102260000Y-113030000D03*
X110980000Y-68960000D03*
X108540000Y-60160000D03*
X115410000Y-39070000D03*
X112540000Y-85120000D03*
X129840000Y-51020000D03*
X138300000Y-91130000D03*
X137590000Y-102180000D03*
X118200000Y-81850000D03*
X128930000Y-41070000D03*
X110480000Y-77400000D03*
X128450000Y-78480000D03*
X106665000Y-86241639D03*
X109680000Y-80060000D03*
X113420000Y-98910000D03*
X118100000Y-76130000D03*
X134670000Y-78880000D03*
X127160000Y-113680000D03*
X122000000Y-94970000D03*
X128890000Y-109970000D03*
X124260000Y-47760000D03*
X108380000Y-65800000D03*
X102490000Y-46400000D03*
X118850000Y-112030000D03*
X134520000Y-49600000D03*
X109000000Y-72400000D03*
X123700000Y-105780000D03*
X119160000Y-84600000D03*
X129750000Y-59590000D03*
X126040000Y-39110000D03*
X122950000Y-38980000D03*
X115315735Y-61374265D03*
X110950000Y-87930000D03*
X115460000Y-53990000D03*
X131970000Y-64130000D03*
X113590000Y-81040000D03*
X136560000Y-101820000D03*
X121060000Y-87670000D03*
X118670000Y-62420000D03*
X128520000Y-38840000D03*
X113150000Y-66940000D03*
X124030000Y-91920000D03*
X122680000Y-112490000D03*
X118340000Y-109880000D03*
X103900000Y-60180000D03*
X132600000Y-103620000D03*
X125680000Y-53710000D03*
X136800000Y-53840000D03*
X106380000Y-64880000D03*
X126380000Y-111490000D03*
X121570000Y-98010000D03*
X120660000Y-54900000D03*
X117210000Y-52300000D03*
X109880000Y-63790000D03*
X124380000Y-40420000D03*
X109680000Y-75290000D03*
X131720000Y-92550000D03*
X129415380Y-66905380D03*
X129530000Y-39830000D03*
X124140000Y-52210000D03*
X117000000Y-70430000D03*
X129690000Y-100580000D03*
X129430001Y-65938827D03*
X115610000Y-56210000D03*
X136840000Y-81860000D03*
X127950000Y-70010000D03*
X128400000Y-104890000D03*
X110430000Y-85200000D03*
X107620000Y-46850000D03*
X106020000Y-79170000D03*
X131680000Y-104050000D03*
X118910000Y-61090000D03*
X119420000Y-105350000D03*
X104653761Y-72174524D03*
X111590000Y-39050000D03*
X125910000Y-99890000D03*
X120690000Y-49960000D03*
X116890000Y-47470000D03*
%TO.N,/PYRO_CONT2*%
X104850000Y-99560000D03*
X108350355Y-74401115D03*
%TO.N,/VBAT{slash}ADC*%
X113330000Y-72370000D03*
X122760000Y-96505000D03*
%TO.N,+3V3*%
X132020000Y-101690000D03*
X122110000Y-105400000D03*
%TO.N,/LORA_NRST*%
X110423605Y-44730135D03*
X116304742Y-64397155D03*
%TO.N,/LORA_BUSY*%
X115706078Y-64927821D03*
X109484726Y-44820486D03*
%TO.N,/LORA_DIO1*%
X108638273Y-44818409D03*
X115100000Y-65450000D03*
%TO.N,/NRST*%
X107625380Y-63845380D03*
X114077118Y-67602882D03*
%TO.N,/LORA_NSS*%
X113040000Y-68202882D03*
X109040000Y-55911473D03*
%TO.N,/PYRO_FIRE2*%
X109255735Y-70364265D03*
X103480000Y-104005000D03*
%TO.N,/PYRO_CONT1*%
X110010000Y-73590000D03*
X114470000Y-90324065D03*
%TO.N,/SPI_SCK*%
X112540000Y-84300000D03*
X113380000Y-73510000D03*
X113940000Y-81780000D03*
X110440000Y-52130000D03*
%TO.N,/SPI_MISO*%
X108830000Y-49640000D03*
X114674547Y-73730000D03*
%TO.N,/SPI_MOSI*%
X109640000Y-53960000D03*
X112704937Y-78215063D03*
X112350000Y-81040000D03*
X108710000Y-77594900D03*
X115274547Y-72120000D03*
X111070000Y-82760000D03*
%TO.N,/FLASH_CS*%
X113450000Y-78520000D03*
X108121673Y-78794900D03*
%TO.N,/ADXL_CS*%
X113780000Y-79248768D03*
X111360000Y-79951470D03*
%TO.N,/ADXL_INT1*%
X109805303Y-84700242D03*
X113454808Y-80189786D03*
%TO.N,/BUZZER*%
X132835000Y-100055000D03*
X124130000Y-85830000D03*
%TO.N,/ICM_INT*%
X120360735Y-81109265D03*
X118688734Y-87651266D03*
%TO.N,/SWCLK*%
X126803819Y-71673819D03*
%TO.N,/BMP_INT*%
X127073514Y-69150000D03*
X127379265Y-67850000D03*
%TO.N,/MCU_TX_to_GPS_RX*%
X125434265Y-69874265D03*
X130710000Y-59800000D03*
%TO.N,/MCU_RX_to_GPS_TX*%
X130880000Y-60800000D03*
X126079265Y-69150000D03*
%TO.N,/LORA_DIO2*%
X124474694Y-68743934D03*
X130258835Y-47933228D03*
%TO.N,/LORA_TXEN*%
X129507420Y-47658675D03*
X123878081Y-68147320D03*
%TO.N,/LORA_RXEN*%
X123121916Y-67601616D03*
X128785000Y-47315000D03*
%TO.N,/BOOT0*%
X119160000Y-67960000D03*
X111770380Y-59700000D03*
%TO.N,/I2C_SCL*%
X124069900Y-64206610D03*
X127440000Y-59460000D03*
%TO.N,/I2C_SDA*%
X127524739Y-60255499D03*
X124010000Y-65797163D03*
X125620775Y-63520000D03*
X122512245Y-65082245D03*
%TO.N,Net-(D4-A)*%
X130710000Y-79520000D03*
D23*
X126889040Y-85610000D03*
%TD*%
%TA.AperFunction,Conductor*%
%TO.N,GND*%
G36*
X137234594Y-38280502D02*
G01*
X137296066Y-38280500D01*
X137304903Y-38280815D01*
X137505039Y-38295126D01*
X137522547Y-38297642D01*
X137714294Y-38339351D01*
X137731244Y-38344328D01*
X137915095Y-38412898D01*
X137931180Y-38420244D01*
X138103401Y-38514282D01*
X138118282Y-38523846D01*
X138275352Y-38641427D01*
X138288723Y-38653013D01*
X138427462Y-38791752D01*
X138439048Y-38805123D01*
X138556629Y-38962193D01*
X138566195Y-38977077D01*
X138660230Y-39149293D01*
X138667579Y-39165386D01*
X138736144Y-39349222D01*
X138741127Y-39366192D01*
X138782832Y-39557926D01*
X138785349Y-39575438D01*
X138799659Y-39775568D01*
X138799975Y-39784414D01*
X138799974Y-39854505D01*
X138799976Y-39854534D01*
X138799976Y-118615572D01*
X138799660Y-118624419D01*
X138785345Y-118824557D01*
X138782827Y-118842068D01*
X138741121Y-119033790D01*
X138736137Y-119050765D01*
X138667569Y-119234605D01*
X138660219Y-119250699D01*
X138566185Y-119422908D01*
X138556620Y-119437791D01*
X138439037Y-119594864D01*
X138427451Y-119608235D01*
X138288711Y-119746975D01*
X138275340Y-119758561D01*
X138118267Y-119876144D01*
X138103384Y-119885709D01*
X137931175Y-119979743D01*
X137915081Y-119987093D01*
X137731241Y-120055661D01*
X137714266Y-120060645D01*
X137522544Y-120102351D01*
X137505033Y-120104869D01*
X137324255Y-120117799D01*
X137304893Y-120119184D01*
X137296048Y-120119500D01*
X103014058Y-120119500D01*
X103014029Y-120119498D01*
X103005406Y-120119498D01*
X102997757Y-120119498D01*
X102943938Y-120119499D01*
X102935092Y-120119183D01*
X102734962Y-120104873D01*
X102717450Y-120102356D01*
X102525716Y-120060651D01*
X102508746Y-120055668D01*
X102324910Y-119987103D01*
X102308817Y-119979754D01*
X102136601Y-119885719D01*
X102121717Y-119876153D01*
X101964647Y-119758572D01*
X101951276Y-119746986D01*
X101812537Y-119608247D01*
X101800951Y-119594876D01*
X101683370Y-119437806D01*
X101673804Y-119422922D01*
X101673796Y-119422908D01*
X101579768Y-119250704D01*
X101572422Y-119234619D01*
X101503851Y-119050765D01*
X101498875Y-119033818D01*
X101457166Y-118842068D01*
X101454650Y-118824561D01*
X101440340Y-118624431D01*
X101440024Y-118615587D01*
X101440024Y-118615572D01*
X101440026Y-118554118D01*
X101440024Y-118554110D01*
X101440024Y-115879863D01*
X114719500Y-115879863D01*
X114719500Y-117490136D01*
X114729582Y-117603548D01*
X114782762Y-117789405D01*
X114787531Y-117798534D01*
X114872266Y-117960751D01*
X114919518Y-118018700D01*
X114994428Y-118110571D01*
X115069339Y-118171652D01*
X115144249Y-118232734D01*
X115315594Y-118322237D01*
X115501448Y-118375417D01*
X115614862Y-118385500D01*
X115614870Y-118385500D01*
X117225130Y-118385500D01*
X117225138Y-118385500D01*
X117338552Y-118375417D01*
X117524406Y-118322237D01*
X117695751Y-118232734D01*
X117832949Y-118120863D01*
X117832951Y-118120862D01*
X117845569Y-118110573D01*
X117845571Y-118110571D01*
X117967734Y-117960751D01*
X118057237Y-117789406D01*
X118110417Y-117603552D01*
X118120500Y-117490138D01*
X118120500Y-116553905D01*
X119420000Y-116553905D01*
X119420000Y-116816094D01*
X119454220Y-117076009D01*
X119454222Y-117076020D01*
X119522075Y-117329255D01*
X119622404Y-117571471D01*
X119622409Y-117571482D01*
X119753488Y-117798516D01*
X119753494Y-117798524D01*
X119840080Y-117911365D01*
X120629521Y-117121923D01*
X120720924Y-117258717D01*
X120846283Y-117384076D01*
X120983074Y-117475477D01*
X120193633Y-118264917D01*
X120193633Y-118264918D01*
X120306475Y-118351505D01*
X120306483Y-118351511D01*
X120533517Y-118482590D01*
X120533528Y-118482595D01*
X120775744Y-118582924D01*
X121028979Y-118650777D01*
X121028990Y-118650779D01*
X121288905Y-118684999D01*
X121288920Y-118685000D01*
X121551080Y-118685000D01*
X121551094Y-118684999D01*
X121811009Y-118650779D01*
X121811020Y-118650777D01*
X122064255Y-118582924D01*
X122306471Y-118482595D01*
X122306482Y-118482590D01*
X122533516Y-118351511D01*
X122533534Y-118351499D01*
X122646365Y-118264919D01*
X122646365Y-118264917D01*
X121856924Y-117475477D01*
X121993717Y-117384076D01*
X122119076Y-117258717D01*
X122210477Y-117121925D01*
X122999917Y-117911365D01*
X122999919Y-117911365D01*
X123086499Y-117798534D01*
X123086511Y-117798516D01*
X123217590Y-117571482D01*
X123217595Y-117571471D01*
X123317924Y-117329255D01*
X123385777Y-117076020D01*
X123385779Y-117076009D01*
X123419999Y-116816094D01*
X123420000Y-116816080D01*
X123420000Y-116553919D01*
X123419999Y-116553905D01*
X123385779Y-116293990D01*
X123385777Y-116293979D01*
X123317924Y-116040744D01*
X123217595Y-115798528D01*
X123217590Y-115798517D01*
X123086511Y-115571483D01*
X123086505Y-115571475D01*
X122999918Y-115458633D01*
X122999917Y-115458633D01*
X122210476Y-116248074D01*
X122119076Y-116111283D01*
X121993717Y-115985924D01*
X121856923Y-115894521D01*
X122646365Y-115105080D01*
X122533524Y-115018494D01*
X122533516Y-115018488D01*
X122306482Y-114887409D01*
X122306471Y-114887404D01*
X122064255Y-114787075D01*
X121811020Y-114719222D01*
X121811009Y-114719220D01*
X121551094Y-114685000D01*
X121288905Y-114685000D01*
X121028990Y-114719220D01*
X121028979Y-114719222D01*
X120775744Y-114787075D01*
X120533528Y-114887404D01*
X120533517Y-114887409D01*
X120306471Y-115018496D01*
X120193633Y-115105079D01*
X120193633Y-115105080D01*
X120983075Y-115894522D01*
X120846283Y-115985924D01*
X120720924Y-116111283D01*
X120629522Y-116248075D01*
X119840080Y-115458633D01*
X119840079Y-115458633D01*
X119753496Y-115571471D01*
X119622409Y-115798517D01*
X119622404Y-115798528D01*
X119522075Y-116040744D01*
X119454222Y-116293979D01*
X119454220Y-116293990D01*
X119420000Y-116553905D01*
X118120500Y-116553905D01*
X118120500Y-115879862D01*
X118110417Y-115766448D01*
X118057237Y-115580594D01*
X117967734Y-115409249D01*
X117845571Y-115259429D01*
X117845570Y-115259428D01*
X117832946Y-115249134D01*
X117766396Y-115194869D01*
X117695751Y-115137266D01*
X117634132Y-115105079D01*
X117524405Y-115047762D01*
X117369845Y-115003537D01*
X117338552Y-114994583D01*
X117338551Y-114994582D01*
X117338548Y-114994582D01*
X117249662Y-114986680D01*
X117225138Y-114984500D01*
X115614862Y-114984500D01*
X115602599Y-114985590D01*
X115501451Y-114994582D01*
X115315594Y-115047762D01*
X115144250Y-115137265D01*
X114994428Y-115259428D01*
X114872265Y-115409250D01*
X114782762Y-115580594D01*
X114729582Y-115766451D01*
X114719500Y-115879863D01*
X101440024Y-115879863D01*
X101440024Y-108618776D01*
X123294400Y-108618776D01*
X123294400Y-108751824D01*
X123304590Y-108789853D01*
X123328836Y-108880340D01*
X123328837Y-108880341D01*
X123375595Y-108961327D01*
X123395360Y-108995561D01*
X123489439Y-109089640D01*
X123570428Y-109136399D01*
X123604658Y-109156162D01*
X123604659Y-109156163D01*
X123604661Y-109156163D01*
X123604662Y-109156164D01*
X123733176Y-109190600D01*
X123733178Y-109190600D01*
X123866222Y-109190600D01*
X123866224Y-109190600D01*
X123994738Y-109156164D01*
X124109961Y-109089640D01*
X124204040Y-108995561D01*
X124204040Y-108995560D01*
X124207019Y-108992582D01*
X124268342Y-108959097D01*
X124338034Y-108964081D01*
X124382381Y-108992582D01*
X124385660Y-108995861D01*
X124479739Y-109089940D01*
X124560728Y-109136699D01*
X124594958Y-109156462D01*
X124594959Y-109156463D01*
X124594961Y-109156463D01*
X124594962Y-109156464D01*
X124723476Y-109190900D01*
X124723478Y-109190900D01*
X124856522Y-109190900D01*
X124856524Y-109190900D01*
X124985038Y-109156464D01*
X125100261Y-109089940D01*
X125194340Y-108995861D01*
X125260864Y-108880638D01*
X125295300Y-108752124D01*
X125295300Y-108619076D01*
X125260864Y-108490562D01*
X125260863Y-108490561D01*
X125260863Y-108490559D01*
X125260862Y-108490558D01*
X125241099Y-108456328D01*
X125194340Y-108375339D01*
X125100261Y-108281260D01*
X125097282Y-108278281D01*
X125063797Y-108216958D01*
X125068781Y-108147266D01*
X125097282Y-108102919D01*
X125100861Y-108099340D01*
X125194640Y-108005561D01*
X125261164Y-107890338D01*
X125295600Y-107761824D01*
X125295600Y-107628776D01*
X125261164Y-107500262D01*
X125261163Y-107500261D01*
X125261163Y-107500259D01*
X125261162Y-107500258D01*
X125212815Y-107416519D01*
X125194640Y-107385039D01*
X125100561Y-107290960D01*
X125066327Y-107271195D01*
X124985341Y-107224437D01*
X124985340Y-107224436D01*
X124921081Y-107207218D01*
X124856824Y-107190000D01*
X124723776Y-107190000D01*
X124672370Y-107203774D01*
X124595259Y-107224436D01*
X124595258Y-107224437D01*
X124480042Y-107290958D01*
X124480036Y-107290962D01*
X124382981Y-107388018D01*
X124321658Y-107421503D01*
X124251966Y-107416519D01*
X124207619Y-107388018D01*
X124110263Y-107290662D01*
X124110261Y-107290660D01*
X124076027Y-107270895D01*
X123995041Y-107224137D01*
X123995040Y-107224136D01*
X123930781Y-107206918D01*
X123866524Y-107189700D01*
X123733476Y-107189700D01*
X123682070Y-107203474D01*
X123604959Y-107224136D01*
X123604958Y-107224137D01*
X123489742Y-107290658D01*
X123489736Y-107290662D01*
X123395662Y-107384736D01*
X123395658Y-107384742D01*
X123329137Y-107499958D01*
X123329136Y-107499959D01*
X123304810Y-107590746D01*
X123294700Y-107628476D01*
X123294700Y-107761524D01*
X123304890Y-107799553D01*
X123329136Y-107890040D01*
X123329137Y-107890041D01*
X123375895Y-107971027D01*
X123395660Y-108005261D01*
X123395662Y-108005263D01*
X123492718Y-108102319D01*
X123526203Y-108163642D01*
X123521219Y-108233334D01*
X123492718Y-108277681D01*
X123395362Y-108375036D01*
X123395358Y-108375042D01*
X123328837Y-108490258D01*
X123328836Y-108490259D01*
X123304510Y-108581046D01*
X123294400Y-108618776D01*
X101440024Y-108618776D01*
X101440024Y-105440092D01*
X110089500Y-105440092D01*
X110089500Y-105589907D01*
X110118723Y-105736822D01*
X110118725Y-105736830D01*
X110176051Y-105875229D01*
X110176056Y-105875238D01*
X110259280Y-105999790D01*
X110259283Y-105999794D01*
X110365205Y-106105716D01*
X110365209Y-106105719D01*
X110489761Y-106188943D01*
X110489767Y-106188946D01*
X110489768Y-106188947D01*
X110628170Y-106246275D01*
X110775092Y-106275499D01*
X110775096Y-106275500D01*
X110775097Y-106275500D01*
X110924904Y-106275500D01*
X110924905Y-106275499D01*
X111071830Y-106246275D01*
X111210232Y-106188947D01*
X111334791Y-106105719D01*
X111440719Y-105999791D01*
X111523947Y-105875232D01*
X111581275Y-105736830D01*
X111610500Y-105589903D01*
X111610500Y-105440097D01*
X111592613Y-105350171D01*
X111592613Y-105350168D01*
X111589418Y-105334108D01*
X121609500Y-105334108D01*
X121609500Y-105465891D01*
X121643608Y-105593187D01*
X121676554Y-105650250D01*
X121709500Y-105707314D01*
X121802686Y-105800500D01*
X121916814Y-105866392D01*
X122044108Y-105900500D01*
X122044110Y-105900500D01*
X122175890Y-105900500D01*
X122175892Y-105900500D01*
X122303186Y-105866392D01*
X122417314Y-105800500D01*
X122510500Y-105707314D01*
X122576392Y-105593186D01*
X122610500Y-105465892D01*
X122610500Y-105334108D01*
X122576392Y-105206814D01*
X122510500Y-105092686D01*
X122417314Y-104999500D01*
X122360250Y-104966554D01*
X122303187Y-104933608D01*
X122239539Y-104916554D01*
X122175892Y-104899500D01*
X122044108Y-104899500D01*
X121916812Y-104933608D01*
X121802686Y-104999500D01*
X121802683Y-104999502D01*
X121709502Y-105092683D01*
X121709500Y-105092686D01*
X121643608Y-105206812D01*
X121609500Y-105334108D01*
X111589418Y-105334108D01*
X111581276Y-105293177D01*
X111581275Y-105293170D01*
X111523947Y-105154768D01*
X111523946Y-105154767D01*
X111523943Y-105154761D01*
X111440719Y-105030209D01*
X111440716Y-105030205D01*
X111334794Y-104924283D01*
X111334790Y-104924280D01*
X111210238Y-104841056D01*
X111210229Y-104841051D01*
X111071830Y-104783725D01*
X111071822Y-104783723D01*
X110924907Y-104754500D01*
X110924903Y-104754500D01*
X110775097Y-104754500D01*
X110775092Y-104754500D01*
X110628177Y-104783723D01*
X110628169Y-104783725D01*
X110489770Y-104841051D01*
X110489761Y-104841056D01*
X110365209Y-104924280D01*
X110365205Y-104924283D01*
X110259283Y-105030205D01*
X110259280Y-105030209D01*
X110176056Y-105154761D01*
X110176051Y-105154770D01*
X110118725Y-105293169D01*
X110118723Y-105293177D01*
X110089500Y-105440092D01*
X101440024Y-105440092D01*
X101440024Y-103939108D01*
X102979500Y-103939108D01*
X102979500Y-104070891D01*
X103013608Y-104198187D01*
X103046554Y-104255250D01*
X103079500Y-104312314D01*
X103172686Y-104405500D01*
X103286814Y-104471392D01*
X103414108Y-104505500D01*
X103414110Y-104505500D01*
X103545890Y-104505500D01*
X103545892Y-104505500D01*
X103673186Y-104471392D01*
X103787314Y-104405500D01*
X103880500Y-104312314D01*
X103946392Y-104198186D01*
X103980500Y-104070892D01*
X103980500Y-103939108D01*
X103946392Y-103811814D01*
X103880500Y-103697686D01*
X103787314Y-103604500D01*
X103730250Y-103571554D01*
X103673187Y-103538608D01*
X103609539Y-103521554D01*
X103545892Y-103504500D01*
X103414108Y-103504500D01*
X103286812Y-103538608D01*
X103172686Y-103604500D01*
X103172683Y-103604502D01*
X103079502Y-103697683D01*
X103079500Y-103697686D01*
X103013608Y-103811812D01*
X102979500Y-103939108D01*
X101440024Y-103939108D01*
X101440024Y-101960731D01*
X105959500Y-101960731D01*
X105959500Y-103069258D01*
X105962354Y-103099698D01*
X105962354Y-103099699D01*
X106007206Y-103227881D01*
X106007207Y-103227882D01*
X106087850Y-103337150D01*
X106197118Y-103417793D01*
X106325302Y-103462646D01*
X106325301Y-103462646D01*
X106329271Y-103463018D01*
X106355735Y-103465500D01*
X107464264Y-103465499D01*
X107494698Y-103462646D01*
X107622882Y-103417793D01*
X107732150Y-103337150D01*
X107812793Y-103227882D01*
X107857646Y-103099698D01*
X107860500Y-103069265D01*
X107860499Y-102421379D01*
X108959500Y-102421379D01*
X108959500Y-102608620D01*
X108996025Y-102792243D01*
X108996027Y-102792251D01*
X109067676Y-102965228D01*
X109067681Y-102965237D01*
X109171697Y-103120907D01*
X109171700Y-103120911D01*
X109304088Y-103253299D01*
X109304092Y-103253302D01*
X109459762Y-103357318D01*
X109459768Y-103357321D01*
X109459769Y-103357322D01*
X109632749Y-103428973D01*
X109802031Y-103462645D01*
X109816379Y-103465499D01*
X109816383Y-103465500D01*
X109816384Y-103465500D01*
X110003617Y-103465500D01*
X110003618Y-103465499D01*
X110187251Y-103428973D01*
X110360231Y-103357322D01*
X110515908Y-103253302D01*
X110648302Y-103120908D01*
X110752322Y-102965231D01*
X110823973Y-102792251D01*
X110860500Y-102608616D01*
X110860500Y-102421384D01*
X110823973Y-102237749D01*
X110752322Y-102064769D01*
X110752321Y-102064768D01*
X110752318Y-102064762D01*
X110648302Y-101909092D01*
X110648299Y-101909088D01*
X110515911Y-101776700D01*
X110515907Y-101776697D01*
X110429682Y-101719083D01*
X110360237Y-101672681D01*
X110360228Y-101672676D01*
X110242974Y-101624108D01*
X131519500Y-101624108D01*
X131519500Y-101755892D01*
X131531886Y-101802118D01*
X131553608Y-101883187D01*
X131586554Y-101940250D01*
X131619500Y-101997314D01*
X131712686Y-102090500D01*
X131826814Y-102156392D01*
X131954108Y-102190500D01*
X131954110Y-102190500D01*
X132085890Y-102190500D01*
X132085892Y-102190500D01*
X132213186Y-102156392D01*
X132327314Y-102090500D01*
X132420500Y-101997314D01*
X132486392Y-101883186D01*
X132520500Y-101755892D01*
X132520500Y-101624108D01*
X132486392Y-101496814D01*
X132420500Y-101382686D01*
X132327314Y-101289500D01*
X132270250Y-101256554D01*
X132213187Y-101223608D01*
X132149539Y-101206554D01*
X132085892Y-101189500D01*
X131954108Y-101189500D01*
X131826812Y-101223608D01*
X131712686Y-101289500D01*
X131712683Y-101289502D01*
X131619502Y-101382683D01*
X131619500Y-101382686D01*
X131553608Y-101496812D01*
X131535472Y-101564500D01*
X131519500Y-101624108D01*
X110242974Y-101624108D01*
X110187251Y-101601027D01*
X110187243Y-101601025D01*
X110003620Y-101564500D01*
X110003616Y-101564500D01*
X109816384Y-101564500D01*
X109816379Y-101564500D01*
X109632756Y-101601025D01*
X109632748Y-101601027D01*
X109459771Y-101672676D01*
X109459762Y-101672681D01*
X109304092Y-101776697D01*
X109304088Y-101776700D01*
X109171700Y-101909088D01*
X109171697Y-101909092D01*
X109067681Y-102064762D01*
X109067676Y-102064771D01*
X108996027Y-102237748D01*
X108996025Y-102237756D01*
X108959500Y-102421379D01*
X107860499Y-102421379D01*
X107860499Y-101960736D01*
X107857646Y-101930302D01*
X107812793Y-101802118D01*
X107732150Y-101692850D01*
X107639010Y-101624110D01*
X107622881Y-101612206D01*
X107494695Y-101567353D01*
X107494698Y-101567353D01*
X107464268Y-101564500D01*
X106355741Y-101564500D01*
X106325301Y-101567354D01*
X106325300Y-101567354D01*
X106197118Y-101612206D01*
X106087850Y-101692850D01*
X106007206Y-101802118D01*
X105962353Y-101930302D01*
X105959500Y-101960731D01*
X101440024Y-101960731D01*
X101440024Y-100660943D01*
X126289500Y-100660943D01*
X126289500Y-100819056D01*
X126330423Y-100971783D01*
X126330426Y-100971790D01*
X126409475Y-101108709D01*
X126409479Y-101108714D01*
X126409480Y-101108716D01*
X126521284Y-101220520D01*
X126521286Y-101220521D01*
X126521290Y-101220524D01*
X126640762Y-101289500D01*
X126658216Y-101299577D01*
X126810943Y-101340500D01*
X126810945Y-101340500D01*
X126969055Y-101340500D01*
X126969057Y-101340500D01*
X127121784Y-101299577D01*
X127258716Y-101220520D01*
X127370520Y-101108716D01*
X127449577Y-100971784D01*
X127490500Y-100819057D01*
X127490500Y-100660943D01*
X127449577Y-100508216D01*
X127419140Y-100455497D01*
X127370524Y-100371290D01*
X127370518Y-100371282D01*
X127258717Y-100259481D01*
X127258709Y-100259475D01*
X127121790Y-100180426D01*
X127121786Y-100180424D01*
X127121784Y-100180423D01*
X126969057Y-100139500D01*
X126810943Y-100139500D01*
X126658216Y-100180423D01*
X126658209Y-100180426D01*
X126521290Y-100259475D01*
X126521282Y-100259481D01*
X126409481Y-100371282D01*
X126409475Y-100371290D01*
X126330426Y-100508209D01*
X126330423Y-100508216D01*
X126289500Y-100660943D01*
X101440024Y-100660943D01*
X101440024Y-99494108D01*
X104349500Y-99494108D01*
X104349500Y-99625892D01*
X104357166Y-99654502D01*
X104383608Y-99753187D01*
X104416554Y-99810250D01*
X104449500Y-99867314D01*
X104542686Y-99960500D01*
X104656814Y-100026392D01*
X104784108Y-100060500D01*
X104784110Y-100060500D01*
X104915890Y-100060500D01*
X104915892Y-100060500D01*
X105043186Y-100026392D01*
X105157314Y-99960500D01*
X105250500Y-99867314D01*
X105316392Y-99753186D01*
X105350500Y-99625892D01*
X105350500Y-99494108D01*
X105336027Y-99440092D01*
X110089500Y-99440092D01*
X110089500Y-99589907D01*
X110118723Y-99736822D01*
X110118725Y-99736830D01*
X110176051Y-99875229D01*
X110176056Y-99875238D01*
X110259280Y-99999790D01*
X110259283Y-99999794D01*
X110365205Y-100105716D01*
X110365209Y-100105719D01*
X110489761Y-100188943D01*
X110489767Y-100188946D01*
X110489768Y-100188947D01*
X110628170Y-100246275D01*
X110775092Y-100275499D01*
X110775096Y-100275500D01*
X110775097Y-100275500D01*
X110924904Y-100275500D01*
X110924905Y-100275499D01*
X111071830Y-100246275D01*
X111210232Y-100188947D01*
X111334791Y-100105719D01*
X111440719Y-99999791D01*
X111447857Y-99989108D01*
X132334500Y-99989108D01*
X132334500Y-100120891D01*
X132368608Y-100248187D01*
X132401554Y-100305250D01*
X132434500Y-100362314D01*
X132527686Y-100455500D01*
X132641814Y-100521392D01*
X132769108Y-100555500D01*
X132769110Y-100555500D01*
X132900890Y-100555500D01*
X132900892Y-100555500D01*
X133028186Y-100521392D01*
X133142314Y-100455500D01*
X133235500Y-100362314D01*
X133301392Y-100248186D01*
X133335500Y-100120892D01*
X133335500Y-99989108D01*
X133301392Y-99861814D01*
X133235500Y-99747686D01*
X133142314Y-99654500D01*
X133085250Y-99621554D01*
X133028187Y-99588608D01*
X132964539Y-99571554D01*
X132900892Y-99554500D01*
X132769108Y-99554500D01*
X132641812Y-99588608D01*
X132527686Y-99654500D01*
X132527683Y-99654502D01*
X132434502Y-99747683D01*
X132434500Y-99747686D01*
X132368608Y-99861812D01*
X132334500Y-99989108D01*
X111447857Y-99989108D01*
X111466975Y-99960497D01*
X111499320Y-99912090D01*
X111523943Y-99875238D01*
X111523943Y-99875237D01*
X111523947Y-99875232D01*
X111581275Y-99736830D01*
X111610500Y-99589903D01*
X111610500Y-99440097D01*
X111581275Y-99293170D01*
X111523947Y-99154768D01*
X111523946Y-99154767D01*
X111523943Y-99154761D01*
X111440719Y-99030209D01*
X111440716Y-99030205D01*
X111334794Y-98924283D01*
X111334790Y-98924280D01*
X111258504Y-98873307D01*
X111210238Y-98841056D01*
X111210229Y-98841051D01*
X111071830Y-98783725D01*
X111071822Y-98783723D01*
X111034464Y-98776292D01*
X116012500Y-98776292D01*
X116012500Y-98926107D01*
X116041723Y-99073022D01*
X116041725Y-99073030D01*
X116099051Y-99211429D01*
X116099056Y-99211438D01*
X116182280Y-99335990D01*
X116182283Y-99335994D01*
X116288205Y-99441916D01*
X116288209Y-99441919D01*
X116412761Y-99525143D01*
X116412767Y-99525146D01*
X116412768Y-99525147D01*
X116551170Y-99582475D01*
X116698092Y-99611699D01*
X116698096Y-99611700D01*
X116698097Y-99611700D01*
X116847904Y-99611700D01*
X116847905Y-99611699D01*
X116994830Y-99582475D01*
X117133232Y-99525147D01*
X117257791Y-99441919D01*
X117363719Y-99335991D01*
X117446947Y-99211432D01*
X117504275Y-99073030D01*
X117533500Y-98926103D01*
X117533500Y-98776297D01*
X117504275Y-98629370D01*
X117446947Y-98490968D01*
X117446946Y-98490967D01*
X117446943Y-98490961D01*
X117363719Y-98366409D01*
X117363716Y-98366405D01*
X117257794Y-98260483D01*
X117257790Y-98260480D01*
X117133238Y-98177256D01*
X117133229Y-98177251D01*
X116994830Y-98119925D01*
X116994822Y-98119923D01*
X116847907Y-98090700D01*
X116847903Y-98090700D01*
X116698097Y-98090700D01*
X116698092Y-98090700D01*
X116551177Y-98119923D01*
X116551169Y-98119925D01*
X116412770Y-98177251D01*
X116412761Y-98177256D01*
X116288209Y-98260480D01*
X116288205Y-98260483D01*
X116182283Y-98366405D01*
X116182280Y-98366409D01*
X116099056Y-98490961D01*
X116099051Y-98490970D01*
X116041725Y-98629369D01*
X116041723Y-98629377D01*
X116012500Y-98776292D01*
X111034464Y-98776292D01*
X110924907Y-98754500D01*
X110924903Y-98754500D01*
X110775097Y-98754500D01*
X110775092Y-98754500D01*
X110628177Y-98783723D01*
X110628169Y-98783725D01*
X110489770Y-98841051D01*
X110489761Y-98841056D01*
X110365209Y-98924280D01*
X110365205Y-98924283D01*
X110259283Y-99030205D01*
X110259280Y-99030209D01*
X110176056Y-99154761D01*
X110176051Y-99154770D01*
X110118725Y-99293169D01*
X110118723Y-99293177D01*
X110089500Y-99440092D01*
X105336027Y-99440092D01*
X105316392Y-99366814D01*
X105250500Y-99252686D01*
X105157314Y-99159500D01*
X105100250Y-99126554D01*
X105043187Y-99093608D01*
X104966357Y-99073022D01*
X104915892Y-99059500D01*
X104784108Y-99059500D01*
X104656812Y-99093608D01*
X104542686Y-99159500D01*
X104542683Y-99159502D01*
X104449502Y-99252683D01*
X104449500Y-99252686D01*
X104383608Y-99366812D01*
X104363484Y-99441919D01*
X104349500Y-99494108D01*
X101440024Y-99494108D01*
X101440024Y-97817579D01*
X118822500Y-97817579D01*
X118822500Y-98004820D01*
X118859025Y-98188443D01*
X118859027Y-98188451D01*
X118930676Y-98361428D01*
X118930681Y-98361437D01*
X119034697Y-98517107D01*
X119034700Y-98517111D01*
X119167088Y-98649499D01*
X119167092Y-98649502D01*
X119322762Y-98753518D01*
X119322768Y-98753521D01*
X119322769Y-98753522D01*
X119495749Y-98825173D01*
X119679379Y-98861699D01*
X119679383Y-98861700D01*
X119679384Y-98861700D01*
X119866617Y-98861700D01*
X119866618Y-98861699D01*
X120050251Y-98825173D01*
X120168260Y-98776292D01*
X122012500Y-98776292D01*
X122012500Y-98926107D01*
X122041723Y-99073022D01*
X122041725Y-99073030D01*
X122099051Y-99211429D01*
X122099056Y-99211438D01*
X122182280Y-99335990D01*
X122182283Y-99335994D01*
X122288205Y-99441916D01*
X122288209Y-99441919D01*
X122412761Y-99525143D01*
X122412767Y-99525146D01*
X122412768Y-99525147D01*
X122551170Y-99582475D01*
X122698092Y-99611699D01*
X122698096Y-99611700D01*
X122698097Y-99611700D01*
X122847904Y-99611700D01*
X122847905Y-99611699D01*
X122994830Y-99582475D01*
X123133232Y-99525147D01*
X123257791Y-99441919D01*
X123363719Y-99335991D01*
X123446947Y-99211432D01*
X123504275Y-99073030D01*
X123533500Y-98926103D01*
X123533500Y-98776297D01*
X123504275Y-98629370D01*
X123446947Y-98490968D01*
X123446946Y-98490967D01*
X123446943Y-98490961D01*
X123363719Y-98366409D01*
X123363716Y-98366405D01*
X123257794Y-98260483D01*
X123257790Y-98260480D01*
X123133238Y-98177256D01*
X123133229Y-98177251D01*
X122994830Y-98119925D01*
X122994822Y-98119923D01*
X122847907Y-98090700D01*
X122847903Y-98090700D01*
X122698097Y-98090700D01*
X122698092Y-98090700D01*
X122551177Y-98119923D01*
X122551169Y-98119925D01*
X122412770Y-98177251D01*
X122412761Y-98177256D01*
X122288209Y-98260480D01*
X122288205Y-98260483D01*
X122182283Y-98366405D01*
X122182280Y-98366409D01*
X122099056Y-98490961D01*
X122099051Y-98490970D01*
X122041725Y-98629369D01*
X122041723Y-98629377D01*
X122012500Y-98776292D01*
X120168260Y-98776292D01*
X120223231Y-98753522D01*
X120223237Y-98753518D01*
X120352567Y-98667103D01*
X120364022Y-98659448D01*
X120378908Y-98649502D01*
X120511302Y-98517108D01*
X120615322Y-98361431D01*
X120686973Y-98188451D01*
X120723500Y-98004816D01*
X120723500Y-97817584D01*
X120686973Y-97633949D01*
X120615322Y-97460969D01*
X120615321Y-97460968D01*
X120615318Y-97460962D01*
X120511302Y-97305292D01*
X120511299Y-97305288D01*
X120378911Y-97172900D01*
X120378907Y-97172897D01*
X120223237Y-97068881D01*
X120223228Y-97068876D01*
X120050251Y-96997227D01*
X120050243Y-96997225D01*
X119866620Y-96960700D01*
X119866616Y-96960700D01*
X119679384Y-96960700D01*
X119679379Y-96960700D01*
X119495756Y-96997225D01*
X119495748Y-96997227D01*
X119322771Y-97068876D01*
X119322762Y-97068881D01*
X119167092Y-97172897D01*
X119167088Y-97172900D01*
X119034700Y-97305288D01*
X119034697Y-97305292D01*
X118930681Y-97460962D01*
X118930676Y-97460971D01*
X118859027Y-97633948D01*
X118859025Y-97633956D01*
X118822500Y-97817579D01*
X101440024Y-97817579D01*
X101440024Y-96439108D01*
X122259500Y-96439108D01*
X122259500Y-96570891D01*
X122293608Y-96698187D01*
X122326554Y-96755250D01*
X122359500Y-96812314D01*
X122452686Y-96905500D01*
X122566814Y-96971392D01*
X122694108Y-97005500D01*
X122694110Y-97005500D01*
X122825890Y-97005500D01*
X122825892Y-97005500D01*
X122953186Y-96971392D01*
X123067314Y-96905500D01*
X123160500Y-96812314D01*
X123226392Y-96698186D01*
X123260500Y-96570892D01*
X123260500Y-96439108D01*
X123226392Y-96311814D01*
X123160500Y-96197686D01*
X123067314Y-96104500D01*
X123010250Y-96071554D01*
X122953187Y-96038608D01*
X122889539Y-96021554D01*
X122825892Y-96004500D01*
X122694108Y-96004500D01*
X122566812Y-96038608D01*
X122452686Y-96104500D01*
X122452683Y-96104502D01*
X122359502Y-96197683D01*
X122359500Y-96197686D01*
X122293608Y-96311812D01*
X122259500Y-96439108D01*
X101440024Y-96439108D01*
X101440024Y-94356931D01*
X118822500Y-94356931D01*
X118822500Y-95465458D01*
X118825354Y-95495898D01*
X118825354Y-95495899D01*
X118870206Y-95624081D01*
X118870207Y-95624082D01*
X118950850Y-95733350D01*
X119060118Y-95813993D01*
X119188302Y-95858846D01*
X119188301Y-95858846D01*
X119192271Y-95859218D01*
X119218735Y-95861700D01*
X120327264Y-95861699D01*
X120357698Y-95858846D01*
X120485882Y-95813993D01*
X120595150Y-95733350D01*
X120675793Y-95624082D01*
X120720646Y-95495898D01*
X120723500Y-95465465D01*
X120723499Y-94356936D01*
X120720646Y-94326502D01*
X120675793Y-94198318D01*
X120595150Y-94089050D01*
X120485882Y-94008407D01*
X120485881Y-94008406D01*
X120357695Y-93963553D01*
X120357698Y-93963553D01*
X120327268Y-93960700D01*
X119218741Y-93960700D01*
X119188301Y-93963554D01*
X119188300Y-93963554D01*
X119060118Y-94008406D01*
X118950850Y-94089050D01*
X118870206Y-94198318D01*
X118825353Y-94326502D01*
X118822500Y-94356931D01*
X101440024Y-94356931D01*
X101440024Y-93771803D01*
X125359500Y-93771803D01*
X125359500Y-93929917D01*
X125380532Y-94008407D01*
X125400423Y-94082643D01*
X125400426Y-94082650D01*
X125479475Y-94219569D01*
X125479479Y-94219574D01*
X125479480Y-94219576D01*
X125591284Y-94331380D01*
X125591286Y-94331381D01*
X125591290Y-94331384D01*
X125635557Y-94356941D01*
X125728216Y-94410437D01*
X125880943Y-94451360D01*
X125880945Y-94451360D01*
X126039055Y-94451360D01*
X126039057Y-94451360D01*
X126191784Y-94410437D01*
X126328716Y-94331380D01*
X126440520Y-94219576D01*
X126519577Y-94082644D01*
X126560500Y-93929917D01*
X126560500Y-93771803D01*
X126519577Y-93619076D01*
X126519573Y-93619069D01*
X126440524Y-93482150D01*
X126440518Y-93482142D01*
X126328717Y-93370341D01*
X126328709Y-93370335D01*
X126191790Y-93291286D01*
X126191786Y-93291284D01*
X126191784Y-93291283D01*
X126039057Y-93250360D01*
X125880943Y-93250360D01*
X125728216Y-93291283D01*
X125728209Y-93291286D01*
X125591290Y-93370335D01*
X125591282Y-93370341D01*
X125479481Y-93482142D01*
X125479475Y-93482150D01*
X125400426Y-93619069D01*
X125400423Y-93619076D01*
X125359500Y-93771803D01*
X101440024Y-93771803D01*
X101440024Y-90884108D01*
X109069500Y-90884108D01*
X109069500Y-91015891D01*
X109103608Y-91143187D01*
X109136554Y-91200250D01*
X109169500Y-91257314D01*
X109262686Y-91350500D01*
X109376814Y-91416392D01*
X109504108Y-91450500D01*
X109504110Y-91450500D01*
X109635890Y-91450500D01*
X109635892Y-91450500D01*
X109763186Y-91416392D01*
X109877314Y-91350500D01*
X109970500Y-91257314D01*
X110036392Y-91143186D01*
X110070500Y-91015892D01*
X110070500Y-90884108D01*
X110036392Y-90756814D01*
X109970500Y-90642686D01*
X109877314Y-90549500D01*
X109820250Y-90516554D01*
X109763187Y-90483608D01*
X109699539Y-90466554D01*
X109635892Y-90449500D01*
X109504108Y-90449500D01*
X109376812Y-90483608D01*
X109262686Y-90549500D01*
X109262683Y-90549502D01*
X109169502Y-90642683D01*
X109169500Y-90642686D01*
X109103608Y-90756812D01*
X109069500Y-90884108D01*
X101440024Y-90884108D01*
X101440024Y-90258173D01*
X113969500Y-90258173D01*
X113969500Y-90389956D01*
X114003608Y-90517252D01*
X114022227Y-90549500D01*
X114069500Y-90631379D01*
X114162686Y-90724565D01*
X114276814Y-90790457D01*
X114404108Y-90824565D01*
X114404110Y-90824565D01*
X114535890Y-90824565D01*
X114535892Y-90824565D01*
X114663186Y-90790457D01*
X114777314Y-90724565D01*
X114870500Y-90631379D01*
X114936392Y-90517251D01*
X114970500Y-90389957D01*
X114970500Y-90258173D01*
X114936392Y-90130879D01*
X114870500Y-90016751D01*
X114777314Y-89923565D01*
X114720250Y-89890619D01*
X114663187Y-89857673D01*
X114599539Y-89840619D01*
X114535892Y-89823565D01*
X114404108Y-89823565D01*
X114276812Y-89857673D01*
X114162686Y-89923565D01*
X114162683Y-89923567D01*
X114069502Y-90016748D01*
X114069500Y-90016751D01*
X114003608Y-90130877D01*
X113969500Y-90258173D01*
X101440024Y-90258173D01*
X101440024Y-87585374D01*
X118188234Y-87585374D01*
X118188234Y-87717157D01*
X118222342Y-87844453D01*
X118255288Y-87901516D01*
X118288234Y-87958580D01*
X118381420Y-88051766D01*
X118495548Y-88117658D01*
X118622842Y-88151766D01*
X118622844Y-88151766D01*
X118754624Y-88151766D01*
X118754626Y-88151766D01*
X118881920Y-88117658D01*
X118996048Y-88051766D01*
X119089234Y-87958580D01*
X119155126Y-87844452D01*
X119189234Y-87717158D01*
X119189234Y-87585374D01*
X119155126Y-87458080D01*
X119089234Y-87343952D01*
X118996048Y-87250766D01*
X118910837Y-87201569D01*
X118881921Y-87184874D01*
X118818273Y-87167820D01*
X118754626Y-87150766D01*
X118622842Y-87150766D01*
X118495546Y-87184874D01*
X118381420Y-87250766D01*
X118381417Y-87250768D01*
X118288236Y-87343949D01*
X118288234Y-87343952D01*
X118222342Y-87458078D01*
X118188234Y-87585374D01*
X101440024Y-87585374D01*
X101440024Y-85764108D01*
X123629500Y-85764108D01*
X123629500Y-85895891D01*
X123663608Y-86023187D01*
X123682435Y-86055795D01*
X123729500Y-86137314D01*
X123822686Y-86230500D01*
X123936814Y-86296392D01*
X124064108Y-86330500D01*
X124064110Y-86330500D01*
X124195890Y-86330500D01*
X124195892Y-86330500D01*
X124323186Y-86296392D01*
X124437314Y-86230500D01*
X124530500Y-86137314D01*
X124596392Y-86023186D01*
X124630500Y-85895892D01*
X124630500Y-85764108D01*
X124596392Y-85636814D01*
X124535267Y-85530943D01*
X126288540Y-85530943D01*
X126288540Y-85689057D01*
X126308651Y-85764110D01*
X126329463Y-85841783D01*
X126329466Y-85841790D01*
X126408515Y-85978709D01*
X126408519Y-85978714D01*
X126408520Y-85978716D01*
X126520324Y-86090520D01*
X126520326Y-86090521D01*
X126520330Y-86090524D01*
X126657249Y-86169573D01*
X126657256Y-86169577D01*
X126809983Y-86210500D01*
X126809985Y-86210500D01*
X126968095Y-86210500D01*
X126968097Y-86210500D01*
X127120824Y-86169577D01*
X127257756Y-86090520D01*
X127358276Y-85990000D01*
X131015138Y-85990000D01*
X131818012Y-85990000D01*
X131800795Y-85999940D01*
X131744940Y-86055795D01*
X131705444Y-86124204D01*
X131685000Y-86200504D01*
X131685000Y-86279496D01*
X131705444Y-86355796D01*
X131744940Y-86424205D01*
X131800795Y-86480060D01*
X131818012Y-86490000D01*
X131015138Y-86490000D01*
X131023430Y-86531690D01*
X131023430Y-86531692D01*
X131098807Y-86713671D01*
X131098814Y-86713684D01*
X131208248Y-86877462D01*
X131208251Y-86877466D01*
X131347533Y-87016748D01*
X131347537Y-87016751D01*
X131511315Y-87126185D01*
X131511328Y-87126192D01*
X131693306Y-87201569D01*
X131693318Y-87201572D01*
X131886504Y-87239999D01*
X131886508Y-87240000D01*
X132285000Y-87240000D01*
X132285000Y-86540000D01*
X132785000Y-86540000D01*
X132785000Y-87240000D01*
X133183492Y-87240000D01*
X133183495Y-87239999D01*
X133376681Y-87201572D01*
X133376693Y-87201569D01*
X133558671Y-87126192D01*
X133558684Y-87126185D01*
X133722462Y-87016751D01*
X133722466Y-87016748D01*
X133861748Y-86877466D01*
X133861751Y-86877462D01*
X133971185Y-86713684D01*
X133971192Y-86713671D01*
X134046569Y-86531692D01*
X134046569Y-86531690D01*
X134054862Y-86490000D01*
X133251988Y-86490000D01*
X133269205Y-86480060D01*
X133325060Y-86424205D01*
X133364556Y-86355796D01*
X133385000Y-86279496D01*
X133385000Y-86200504D01*
X133364556Y-86124204D01*
X133325060Y-86055795D01*
X133269205Y-85999940D01*
X133251988Y-85990000D01*
X134054862Y-85990000D01*
X135445138Y-85990000D01*
X136248012Y-85990000D01*
X136230795Y-85999940D01*
X136174940Y-86055795D01*
X136135444Y-86124204D01*
X136115000Y-86200504D01*
X136115000Y-86279496D01*
X136135444Y-86355796D01*
X136174940Y-86424205D01*
X136230795Y-86480060D01*
X136248012Y-86490000D01*
X135445138Y-86490000D01*
X135453430Y-86531690D01*
X135453430Y-86531692D01*
X135528807Y-86713671D01*
X135528814Y-86713684D01*
X135638248Y-86877462D01*
X135638251Y-86877466D01*
X135777533Y-87016748D01*
X135777537Y-87016751D01*
X135941315Y-87126185D01*
X135941328Y-87126192D01*
X136123306Y-87201569D01*
X136123318Y-87201572D01*
X136316504Y-87239999D01*
X136316508Y-87240000D01*
X136465000Y-87240000D01*
X136465000Y-86540000D01*
X136965000Y-86540000D01*
X136965000Y-87240000D01*
X137113492Y-87240000D01*
X137113495Y-87239999D01*
X137306681Y-87201572D01*
X137306693Y-87201569D01*
X137488671Y-87126192D01*
X137488684Y-87126185D01*
X137652462Y-87016751D01*
X137652466Y-87016748D01*
X137791748Y-86877466D01*
X137791751Y-86877462D01*
X137901185Y-86713684D01*
X137901192Y-86713671D01*
X137976569Y-86531692D01*
X137976569Y-86531690D01*
X137984862Y-86490000D01*
X137181988Y-86490000D01*
X137199205Y-86480060D01*
X137255060Y-86424205D01*
X137294556Y-86355796D01*
X137315000Y-86279496D01*
X137315000Y-86200504D01*
X137294556Y-86124204D01*
X137255060Y-86055795D01*
X137199205Y-85999940D01*
X137181988Y-85990000D01*
X137984862Y-85990000D01*
X137976569Y-85948309D01*
X137976569Y-85948307D01*
X137901192Y-85766328D01*
X137901185Y-85766315D01*
X137791751Y-85602537D01*
X137791748Y-85602533D01*
X137652466Y-85463251D01*
X137652462Y-85463248D01*
X137488684Y-85353814D01*
X137488671Y-85353807D01*
X137306693Y-85278430D01*
X137306681Y-85278427D01*
X137113495Y-85240000D01*
X136965000Y-85240000D01*
X136965000Y-85940000D01*
X136465000Y-85940000D01*
X136465000Y-85240000D01*
X136316504Y-85240000D01*
X136123318Y-85278427D01*
X136123306Y-85278430D01*
X135941328Y-85353807D01*
X135941315Y-85353814D01*
X135777537Y-85463248D01*
X135777533Y-85463251D01*
X135638251Y-85602533D01*
X135638248Y-85602537D01*
X135528814Y-85766315D01*
X135528807Y-85766328D01*
X135453430Y-85948307D01*
X135453430Y-85948309D01*
X135445138Y-85990000D01*
X134054862Y-85990000D01*
X134046569Y-85948309D01*
X134046569Y-85948307D01*
X133971192Y-85766328D01*
X133971185Y-85766315D01*
X133861751Y-85602537D01*
X133861748Y-85602533D01*
X133722466Y-85463251D01*
X133722462Y-85463248D01*
X133558684Y-85353814D01*
X133558674Y-85353809D01*
X133549157Y-85349867D01*
X133494754Y-85306026D01*
X133472689Y-85239731D01*
X133489969Y-85172032D01*
X133493648Y-85166597D01*
X133495512Y-85163367D01*
X133495515Y-85163365D01*
X133571281Y-85032135D01*
X133610500Y-84885766D01*
X133610500Y-84734234D01*
X133571281Y-84587865D01*
X133495515Y-84456635D01*
X133388365Y-84349485D01*
X133322750Y-84311602D01*
X133257136Y-84273719D01*
X133183950Y-84254109D01*
X133110766Y-84234500D01*
X132959234Y-84234500D01*
X132812863Y-84273719D01*
X132681635Y-84349485D01*
X132681632Y-84349487D01*
X132574487Y-84456632D01*
X132574485Y-84456635D01*
X132498719Y-84587863D01*
X132486263Y-84634352D01*
X132459500Y-84734234D01*
X132459500Y-84885766D01*
X132479109Y-84958950D01*
X132498719Y-85032136D01*
X132509279Y-85050426D01*
X132574485Y-85163365D01*
X132681635Y-85270515D01*
X132723000Y-85294397D01*
X132771216Y-85344964D01*
X132785000Y-85401784D01*
X132785000Y-85940000D01*
X132285000Y-85940000D01*
X132285000Y-85240000D01*
X131886504Y-85240000D01*
X131693318Y-85278427D01*
X131693306Y-85278430D01*
X131511328Y-85353807D01*
X131511315Y-85353814D01*
X131347537Y-85463248D01*
X131347533Y-85463251D01*
X131208251Y-85602533D01*
X131208248Y-85602537D01*
X131098814Y-85766315D01*
X131098807Y-85766328D01*
X131023430Y-85948307D01*
X131023430Y-85948309D01*
X131015138Y-85990000D01*
X127358276Y-85990000D01*
X127369560Y-85978716D01*
X127448617Y-85841784D01*
X127489540Y-85689057D01*
X127489540Y-85530943D01*
X127448617Y-85378216D01*
X127432250Y-85349867D01*
X127369564Y-85241290D01*
X127369558Y-85241282D01*
X127257757Y-85129481D01*
X127257749Y-85129475D01*
X127120830Y-85050426D01*
X127120826Y-85050424D01*
X127120824Y-85050423D01*
X126968097Y-85009500D01*
X126809983Y-85009500D01*
X126657256Y-85050423D01*
X126657249Y-85050426D01*
X126520330Y-85129475D01*
X126520322Y-85129481D01*
X126408521Y-85241282D01*
X126408515Y-85241290D01*
X126329466Y-85378209D01*
X126329463Y-85378216D01*
X126288540Y-85530943D01*
X124535267Y-85530943D01*
X124530500Y-85522686D01*
X124437314Y-85429500D01*
X124348476Y-85378209D01*
X124323187Y-85363608D01*
X124253605Y-85344964D01*
X124195892Y-85329500D01*
X124064108Y-85329500D01*
X123936812Y-85363608D01*
X123822686Y-85429500D01*
X123822683Y-85429502D01*
X123729502Y-85522683D01*
X123729500Y-85522686D01*
X123663608Y-85636812D01*
X123629500Y-85764108D01*
X101440024Y-85764108D01*
X101440024Y-84634350D01*
X109304803Y-84634350D01*
X109304803Y-84766133D01*
X109338911Y-84893429D01*
X109371857Y-84950492D01*
X109404803Y-85007556D01*
X109497989Y-85100742D01*
X109612117Y-85166634D01*
X109739411Y-85200742D01*
X109739413Y-85200742D01*
X109871193Y-85200742D01*
X109871195Y-85200742D01*
X109998489Y-85166634D01*
X110112617Y-85100742D01*
X110205803Y-85007556D01*
X110271695Y-84893428D01*
X110305803Y-84766134D01*
X110305803Y-84634350D01*
X110271695Y-84507056D01*
X110205803Y-84392928D01*
X110112617Y-84299742D01*
X110055553Y-84266796D01*
X109998937Y-84234108D01*
X112039500Y-84234108D01*
X112039500Y-84365892D01*
X112046744Y-84392928D01*
X112073608Y-84493187D01*
X112106554Y-84550250D01*
X112139500Y-84607314D01*
X112232686Y-84700500D01*
X112331521Y-84757563D01*
X112346363Y-84766132D01*
X112346814Y-84766392D01*
X112474108Y-84800500D01*
X112474110Y-84800500D01*
X112605890Y-84800500D01*
X112605892Y-84800500D01*
X112733186Y-84766392D01*
X112847314Y-84700500D01*
X112940500Y-84607314D01*
X113006392Y-84493186D01*
X113040500Y-84365892D01*
X113040500Y-84234108D01*
X113006392Y-84106814D01*
X112940500Y-83992686D01*
X112847314Y-83899500D01*
X112790250Y-83866554D01*
X112733187Y-83833608D01*
X112669539Y-83816554D01*
X112605892Y-83799500D01*
X112474108Y-83799500D01*
X112346812Y-83833608D01*
X112232686Y-83899500D01*
X112232683Y-83899502D01*
X112139502Y-83992683D01*
X112139500Y-83992686D01*
X112073608Y-84106812D01*
X112048708Y-84199742D01*
X112039500Y-84234108D01*
X109998937Y-84234108D01*
X109998490Y-84233850D01*
X109934842Y-84216796D01*
X109871195Y-84199742D01*
X109739411Y-84199742D01*
X109612115Y-84233850D01*
X109497989Y-84299742D01*
X109497986Y-84299744D01*
X109404805Y-84392925D01*
X109404803Y-84392928D01*
X109338911Y-84507054D01*
X109304803Y-84634350D01*
X101440024Y-84634350D01*
X101440024Y-82694108D01*
X110569500Y-82694108D01*
X110569500Y-82825891D01*
X110603608Y-82953187D01*
X110636554Y-83010250D01*
X110669500Y-83067314D01*
X110762686Y-83160500D01*
X110876814Y-83226392D01*
X111004108Y-83260500D01*
X111004110Y-83260500D01*
X111135890Y-83260500D01*
X111135892Y-83260500D01*
X111263186Y-83226392D01*
X111377314Y-83160500D01*
X111470500Y-83067314D01*
X111536392Y-82953186D01*
X111570500Y-82825892D01*
X111570500Y-82694108D01*
X111536392Y-82566814D01*
X111470500Y-82452686D01*
X111377314Y-82359500D01*
X111320250Y-82326554D01*
X111263187Y-82293608D01*
X111199539Y-82276554D01*
X111135892Y-82259500D01*
X111004108Y-82259500D01*
X110876812Y-82293608D01*
X110762686Y-82359500D01*
X110762683Y-82359502D01*
X110669502Y-82452683D01*
X110669500Y-82452686D01*
X110603608Y-82566812D01*
X110569500Y-82694108D01*
X101440024Y-82694108D01*
X101440024Y-81714108D01*
X113439500Y-81714108D01*
X113439500Y-81845891D01*
X113473608Y-81973187D01*
X113506554Y-82030250D01*
X113539500Y-82087314D01*
X113632686Y-82180500D01*
X113746814Y-82246392D01*
X113874108Y-82280500D01*
X113874110Y-82280500D01*
X114005890Y-82280500D01*
X114005892Y-82280500D01*
X114133186Y-82246392D01*
X114247314Y-82180500D01*
X114340500Y-82087314D01*
X114406392Y-81973186D01*
X114440500Y-81845892D01*
X114440500Y-81714108D01*
X114406392Y-81586814D01*
X114399950Y-81575657D01*
X114397563Y-81571521D01*
X114340500Y-81472686D01*
X114247314Y-81379500D01*
X114190250Y-81346554D01*
X114133187Y-81313608D01*
X114069539Y-81296554D01*
X114005892Y-81279500D01*
X113874108Y-81279500D01*
X113746812Y-81313608D01*
X113632686Y-81379500D01*
X113632683Y-81379502D01*
X113539502Y-81472683D01*
X113539500Y-81472686D01*
X113473608Y-81586812D01*
X113439500Y-81714108D01*
X101440024Y-81714108D01*
X101440024Y-80974108D01*
X111849500Y-80974108D01*
X111849500Y-81105891D01*
X111883608Y-81233187D01*
X111910347Y-81279500D01*
X111949500Y-81347314D01*
X112042686Y-81440500D01*
X112156814Y-81506392D01*
X112284108Y-81540500D01*
X112284110Y-81540500D01*
X112415890Y-81540500D01*
X112415892Y-81540500D01*
X112543186Y-81506392D01*
X112657314Y-81440500D01*
X112750500Y-81347314D01*
X112816392Y-81233186D01*
X112850500Y-81105892D01*
X112850500Y-81043373D01*
X119860235Y-81043373D01*
X119860235Y-81175156D01*
X119894343Y-81302452D01*
X119920244Y-81347313D01*
X119960235Y-81416579D01*
X120053421Y-81509765D01*
X120167549Y-81575657D01*
X120294843Y-81609765D01*
X120294845Y-81609765D01*
X120426625Y-81609765D01*
X120426627Y-81609765D01*
X120553921Y-81575657D01*
X120668049Y-81509765D01*
X120761235Y-81416579D01*
X120827127Y-81302451D01*
X120861235Y-81175157D01*
X120861235Y-81043373D01*
X120827127Y-80916079D01*
X120761235Y-80801951D01*
X120668049Y-80708765D01*
X120576966Y-80656178D01*
X120553922Y-80642873D01*
X120490274Y-80625819D01*
X120426627Y-80608765D01*
X120294843Y-80608765D01*
X120167547Y-80642873D01*
X120053421Y-80708765D01*
X120053418Y-80708767D01*
X119960237Y-80801948D01*
X119960235Y-80801951D01*
X119894343Y-80916077D01*
X119860235Y-81043373D01*
X112850500Y-81043373D01*
X112850500Y-80974108D01*
X112816392Y-80846814D01*
X112750500Y-80732686D01*
X112657314Y-80639500D01*
X112600250Y-80606554D01*
X112543187Y-80573608D01*
X112479539Y-80556554D01*
X112415892Y-80539500D01*
X112284108Y-80539500D01*
X112156812Y-80573608D01*
X112042686Y-80639500D01*
X112042683Y-80639502D01*
X111949502Y-80732683D01*
X111949500Y-80732686D01*
X111883608Y-80846812D01*
X111849500Y-80974108D01*
X101440024Y-80974108D01*
X101440024Y-79885578D01*
X110859500Y-79885578D01*
X110859500Y-80017361D01*
X110893608Y-80144657D01*
X110926554Y-80201720D01*
X110959500Y-80258784D01*
X111052686Y-80351970D01*
X111166814Y-80417862D01*
X111294108Y-80451970D01*
X111294110Y-80451970D01*
X111425890Y-80451970D01*
X111425892Y-80451970D01*
X111553186Y-80417862D01*
X111667314Y-80351970D01*
X111760500Y-80258784D01*
X111826392Y-80144656D01*
X111860500Y-80017362D01*
X111860500Y-79885578D01*
X111826392Y-79758284D01*
X111760500Y-79644156D01*
X111667314Y-79550970D01*
X111610250Y-79518024D01*
X111553187Y-79485078D01*
X111474924Y-79464108D01*
X111425892Y-79450970D01*
X111294108Y-79450970D01*
X111166812Y-79485078D01*
X111052686Y-79550970D01*
X111052683Y-79550972D01*
X110959502Y-79644153D01*
X110959500Y-79644156D01*
X110893608Y-79758282D01*
X110859500Y-79885578D01*
X101440024Y-79885578D01*
X101440024Y-78729008D01*
X107621173Y-78729008D01*
X107621173Y-78860791D01*
X107655281Y-78988087D01*
X107679191Y-79029500D01*
X107721173Y-79102214D01*
X107814359Y-79195400D01*
X107928487Y-79261292D01*
X108055781Y-79295400D01*
X108055783Y-79295400D01*
X108187563Y-79295400D01*
X108187565Y-79295400D01*
X108314859Y-79261292D01*
X108428987Y-79195400D01*
X108522173Y-79102214D01*
X108588065Y-78988086D01*
X108622173Y-78860792D01*
X108622173Y-78729008D01*
X108588065Y-78601714D01*
X108587075Y-78600000D01*
X108569459Y-78569487D01*
X108522173Y-78487586D01*
X108428987Y-78394400D01*
X108371923Y-78361454D01*
X108314860Y-78328508D01*
X108251212Y-78311454D01*
X108187565Y-78294400D01*
X108055781Y-78294400D01*
X107928485Y-78328508D01*
X107814359Y-78394400D01*
X107814356Y-78394402D01*
X107721175Y-78487583D01*
X107721173Y-78487586D01*
X107655281Y-78601712D01*
X107621173Y-78729008D01*
X101440024Y-78729008D01*
X101440024Y-78149171D01*
X112204437Y-78149171D01*
X112204437Y-78280954D01*
X112238545Y-78408250D01*
X112255846Y-78438215D01*
X112304437Y-78522377D01*
X112397623Y-78615563D01*
X112489009Y-78668325D01*
X112503402Y-78676635D01*
X112511751Y-78681455D01*
X112639045Y-78715563D01*
X112639047Y-78715563D01*
X112770825Y-78715563D01*
X112770829Y-78715563D01*
X112864388Y-78690494D01*
X112934231Y-78692157D01*
X112992094Y-78731319D01*
X113003863Y-78748269D01*
X113049500Y-78827314D01*
X113142686Y-78920500D01*
X113239655Y-78976485D01*
X113287869Y-79027051D01*
X113301093Y-79095658D01*
X113297429Y-79115962D01*
X113279500Y-79182876D01*
X113279500Y-79314660D01*
X113297909Y-79383365D01*
X113313609Y-79441956D01*
X113313609Y-79441957D01*
X113366563Y-79533675D01*
X113383036Y-79601575D01*
X113360184Y-79667602D01*
X113305263Y-79710792D01*
X113291271Y-79715449D01*
X113261623Y-79723393D01*
X113261622Y-79723393D01*
X113147494Y-79789286D01*
X113147491Y-79789288D01*
X113054310Y-79882469D01*
X113054308Y-79882472D01*
X112988416Y-79996598D01*
X112954308Y-80123894D01*
X112954308Y-80255677D01*
X112988416Y-80382973D01*
X113008559Y-80417861D01*
X113054308Y-80497100D01*
X113147494Y-80590286D01*
X113261622Y-80656178D01*
X113388916Y-80690286D01*
X113388918Y-80690286D01*
X113520698Y-80690286D01*
X113520700Y-80690286D01*
X113647994Y-80656178D01*
X113762122Y-80590286D01*
X113855308Y-80497100D01*
X113921200Y-80382972D01*
X113955308Y-80255678D01*
X113955308Y-80123894D01*
X113921200Y-79996600D01*
X113868243Y-79904876D01*
X113851771Y-79836979D01*
X113874623Y-79770952D01*
X113929544Y-79727761D01*
X113943531Y-79723105D01*
X113973186Y-79715160D01*
X114087314Y-79649268D01*
X114180500Y-79556082D01*
X114233601Y-79464108D01*
X118099500Y-79464108D01*
X118099500Y-79595892D01*
X118112431Y-79644153D01*
X118133608Y-79723187D01*
X118148666Y-79749268D01*
X118199500Y-79837314D01*
X118292686Y-79930500D01*
X118406814Y-79996392D01*
X118534108Y-80030500D01*
X118534110Y-80030500D01*
X118665890Y-80030500D01*
X118665892Y-80030500D01*
X118793186Y-79996392D01*
X118907314Y-79930500D01*
X119000500Y-79837314D01*
X119066392Y-79723186D01*
X119100500Y-79595892D01*
X119100500Y-79464108D01*
X119097821Y-79454108D01*
X130209500Y-79454108D01*
X130209500Y-79585892D01*
X130213702Y-79601575D01*
X130243608Y-79713187D01*
X130258291Y-79738618D01*
X130309500Y-79827314D01*
X130402686Y-79920500D01*
X130516814Y-79986392D01*
X130644108Y-80020500D01*
X130644110Y-80020500D01*
X130775890Y-80020500D01*
X130775892Y-80020500D01*
X130903186Y-79986392D01*
X131017314Y-79920500D01*
X131110500Y-79827314D01*
X131176392Y-79713186D01*
X131210500Y-79585892D01*
X131210500Y-79454108D01*
X131176392Y-79326814D01*
X131110500Y-79212686D01*
X131017314Y-79119500D01*
X130960250Y-79086554D01*
X130903187Y-79053608D01*
X130839539Y-79036554D01*
X130775892Y-79019500D01*
X130644108Y-79019500D01*
X130516812Y-79053608D01*
X130402686Y-79119500D01*
X130402683Y-79119502D01*
X130309502Y-79212683D01*
X130309500Y-79212686D01*
X130243608Y-79326812D01*
X130217597Y-79423889D01*
X130209500Y-79454108D01*
X119097821Y-79454108D01*
X119066392Y-79336814D01*
X119060618Y-79326814D01*
X119053600Y-79314657D01*
X119000500Y-79222686D01*
X118907314Y-79129500D01*
X118848698Y-79095658D01*
X118793187Y-79063608D01*
X118729539Y-79046554D01*
X118665892Y-79029500D01*
X118534108Y-79029500D01*
X118406812Y-79063608D01*
X118292686Y-79129500D01*
X118292683Y-79129502D01*
X118199502Y-79222683D01*
X118199500Y-79222686D01*
X118133608Y-79336812D01*
X118105435Y-79441957D01*
X118099500Y-79464108D01*
X114233601Y-79464108D01*
X114246392Y-79441954D01*
X114280500Y-79314660D01*
X114280500Y-79182876D01*
X114246392Y-79055582D01*
X114180500Y-78941454D01*
X114087314Y-78848268D01*
X114085098Y-78846988D01*
X113990345Y-78792281D01*
X113942130Y-78741714D01*
X113928908Y-78673107D01*
X113932569Y-78652811D01*
X113950500Y-78585892D01*
X113950500Y-78454108D01*
X113916392Y-78326814D01*
X113850500Y-78212686D01*
X113757314Y-78119500D01*
X113677936Y-78073671D01*
X113643187Y-78053608D01*
X113550328Y-78028727D01*
X113515892Y-78019500D01*
X113384108Y-78019500D01*
X113290552Y-78044567D01*
X113265264Y-78043965D01*
X113240212Y-78047443D01*
X113230928Y-78043148D01*
X113220703Y-78042905D01*
X113199755Y-78028727D01*
X113176799Y-78018107D01*
X113167698Y-78007029D01*
X113162841Y-78003742D01*
X113153817Y-77991321D01*
X113152406Y-77989102D01*
X113105437Y-77907749D01*
X113012251Y-77814563D01*
X112955187Y-77781617D01*
X112898124Y-77748671D01*
X112834476Y-77731617D01*
X112770829Y-77714563D01*
X112639045Y-77714563D01*
X112511749Y-77748671D01*
X112397623Y-77814563D01*
X112397620Y-77814565D01*
X112304439Y-77907746D01*
X112304437Y-77907749D01*
X112238545Y-78021875D01*
X112204437Y-78149171D01*
X101440024Y-78149171D01*
X101440024Y-77529008D01*
X108209500Y-77529008D01*
X108209500Y-77660791D01*
X108243608Y-77788087D01*
X108273615Y-77840060D01*
X108309500Y-77902214D01*
X108402686Y-77995400D01*
X108468949Y-78033657D01*
X108516810Y-78061290D01*
X108516814Y-78061292D01*
X108644108Y-78095400D01*
X108644110Y-78095400D01*
X108775890Y-78095400D01*
X108775892Y-78095400D01*
X108903186Y-78061292D01*
X109017314Y-77995400D01*
X109110500Y-77902214D01*
X109176392Y-77788086D01*
X109210500Y-77660792D01*
X109210500Y-77529008D01*
X109176392Y-77401714D01*
X109146535Y-77350000D01*
X131015138Y-77350000D01*
X131818012Y-77350000D01*
X131800795Y-77359940D01*
X131744940Y-77415795D01*
X131705444Y-77484204D01*
X131685000Y-77560504D01*
X131685000Y-77639496D01*
X131705444Y-77715796D01*
X131744940Y-77784205D01*
X131800795Y-77840060D01*
X131818012Y-77850000D01*
X131015138Y-77850000D01*
X131023430Y-77891690D01*
X131023430Y-77891692D01*
X131098807Y-78073671D01*
X131098814Y-78073684D01*
X131208248Y-78237462D01*
X131208251Y-78237466D01*
X131347533Y-78376748D01*
X131347537Y-78376751D01*
X131511315Y-78486185D01*
X131511328Y-78486192D01*
X131693306Y-78561569D01*
X131693318Y-78561572D01*
X131886504Y-78599999D01*
X131886508Y-78600000D01*
X132285000Y-78600000D01*
X132285000Y-77900000D01*
X132785000Y-77900000D01*
X132785000Y-78438215D01*
X132765315Y-78505254D01*
X132723002Y-78545601D01*
X132681638Y-78569483D01*
X132681632Y-78569487D01*
X132574487Y-78676632D01*
X132574485Y-78676635D01*
X132498719Y-78807863D01*
X132484537Y-78860792D01*
X132459500Y-78954234D01*
X132459500Y-79105766D01*
X132465860Y-79129502D01*
X132498719Y-79252136D01*
X132523698Y-79295400D01*
X132574485Y-79383365D01*
X132681635Y-79490515D01*
X132812865Y-79566281D01*
X132959234Y-79605500D01*
X132959236Y-79605500D01*
X133110764Y-79605500D01*
X133110766Y-79605500D01*
X133257135Y-79566281D01*
X133388365Y-79490515D01*
X133495515Y-79383365D01*
X133571281Y-79252135D01*
X133610500Y-79105766D01*
X133610500Y-78954234D01*
X133571281Y-78807865D01*
X133495515Y-78676635D01*
X133495513Y-78676633D01*
X133491451Y-78669597D01*
X133493654Y-78668325D01*
X133473041Y-78615022D01*
X133487073Y-78546576D01*
X133535882Y-78496582D01*
X133549163Y-78490129D01*
X133558682Y-78486186D01*
X133558684Y-78486185D01*
X133722462Y-78376751D01*
X133722466Y-78376748D01*
X133861748Y-78237466D01*
X133861751Y-78237462D01*
X133971185Y-78073684D01*
X133971192Y-78073671D01*
X134046569Y-77891692D01*
X134046569Y-77891690D01*
X134054862Y-77850000D01*
X133251988Y-77850000D01*
X133269205Y-77840060D01*
X133325060Y-77784205D01*
X133364556Y-77715796D01*
X133385000Y-77639496D01*
X133385000Y-77560504D01*
X133364556Y-77484204D01*
X133325060Y-77415795D01*
X133269205Y-77359940D01*
X133251988Y-77350000D01*
X134054862Y-77350000D01*
X135445138Y-77350000D01*
X136248012Y-77350000D01*
X136230795Y-77359940D01*
X136174940Y-77415795D01*
X136135444Y-77484204D01*
X136115000Y-77560504D01*
X136115000Y-77639496D01*
X136135444Y-77715796D01*
X136174940Y-77784205D01*
X136230795Y-77840060D01*
X136248012Y-77850000D01*
X135445138Y-77850000D01*
X135453430Y-77891690D01*
X135453430Y-77891692D01*
X135528807Y-78073671D01*
X135528814Y-78073684D01*
X135638248Y-78237462D01*
X135638251Y-78237466D01*
X135777533Y-78376748D01*
X135777537Y-78376751D01*
X135941315Y-78486185D01*
X135941328Y-78486192D01*
X136123306Y-78561569D01*
X136123318Y-78561572D01*
X136316504Y-78599999D01*
X136316508Y-78600000D01*
X136465000Y-78600000D01*
X136465000Y-77900000D01*
X136965000Y-77900000D01*
X136965000Y-78600000D01*
X137113492Y-78600000D01*
X137113495Y-78599999D01*
X137306681Y-78561572D01*
X137306693Y-78561569D01*
X137488671Y-78486192D01*
X137488684Y-78486185D01*
X137652462Y-78376751D01*
X137652466Y-78376748D01*
X137791748Y-78237466D01*
X137791751Y-78237462D01*
X137901185Y-78073684D01*
X137901192Y-78073671D01*
X137976569Y-77891692D01*
X137976569Y-77891690D01*
X137984862Y-77850000D01*
X137181988Y-77850000D01*
X137199205Y-77840060D01*
X137255060Y-77784205D01*
X137294556Y-77715796D01*
X137315000Y-77639496D01*
X137315000Y-77560504D01*
X137294556Y-77484204D01*
X137255060Y-77415795D01*
X137199205Y-77359940D01*
X137181988Y-77350000D01*
X137984862Y-77350000D01*
X137976569Y-77308309D01*
X137976569Y-77308307D01*
X137901192Y-77126328D01*
X137901185Y-77126315D01*
X137791751Y-76962537D01*
X137791748Y-76962533D01*
X137652466Y-76823251D01*
X137652462Y-76823248D01*
X137488684Y-76713814D01*
X137488671Y-76713807D01*
X137306693Y-76638430D01*
X137306681Y-76638427D01*
X137113495Y-76600000D01*
X136965000Y-76600000D01*
X136965000Y-77300000D01*
X136465000Y-77300000D01*
X136465000Y-76600000D01*
X136316504Y-76600000D01*
X136123318Y-76638427D01*
X136123306Y-76638430D01*
X135941328Y-76713807D01*
X135941315Y-76713814D01*
X135777537Y-76823248D01*
X135777533Y-76823251D01*
X135638251Y-76962533D01*
X135638248Y-76962537D01*
X135528814Y-77126315D01*
X135528807Y-77126328D01*
X135453430Y-77308307D01*
X135453430Y-77308309D01*
X135445138Y-77350000D01*
X134054862Y-77350000D01*
X134046569Y-77308309D01*
X134046569Y-77308307D01*
X133971192Y-77126328D01*
X133971185Y-77126315D01*
X133861751Y-76962537D01*
X133861748Y-76962533D01*
X133722466Y-76823251D01*
X133722462Y-76823248D01*
X133558684Y-76713814D01*
X133558671Y-76713807D01*
X133376693Y-76638430D01*
X133376681Y-76638427D01*
X133183495Y-76600000D01*
X132785000Y-76600000D01*
X132785000Y-77300000D01*
X132285000Y-77300000D01*
X132285000Y-76600000D01*
X131886504Y-76600000D01*
X131693318Y-76638427D01*
X131693306Y-76638430D01*
X131511328Y-76713807D01*
X131511315Y-76713814D01*
X131347537Y-76823248D01*
X131347533Y-76823251D01*
X131208251Y-76962533D01*
X131208248Y-76962537D01*
X131098814Y-77126315D01*
X131098807Y-77126328D01*
X131023430Y-77308307D01*
X131023430Y-77308309D01*
X131015138Y-77350000D01*
X109146535Y-77350000D01*
X109110500Y-77287586D01*
X109017314Y-77194400D01*
X108960250Y-77161454D01*
X108903187Y-77128508D01*
X108839539Y-77111454D01*
X108775892Y-77094400D01*
X108644108Y-77094400D01*
X108516812Y-77128508D01*
X108402686Y-77194400D01*
X108402683Y-77194402D01*
X108309502Y-77287583D01*
X108309500Y-77287586D01*
X108243608Y-77401712D01*
X108209500Y-77529008D01*
X101440024Y-77529008D01*
X101440024Y-74335223D01*
X107849855Y-74335223D01*
X107849855Y-74467006D01*
X107883963Y-74594302D01*
X107916909Y-74651365D01*
X107949855Y-74708429D01*
X108043041Y-74801615D01*
X108157169Y-74867507D01*
X108284463Y-74901615D01*
X108284465Y-74901615D01*
X108416245Y-74901615D01*
X108416247Y-74901615D01*
X108543541Y-74867507D01*
X108657669Y-74801615D01*
X108750855Y-74708429D01*
X108805516Y-74613753D01*
X133510000Y-74613753D01*
X133510000Y-74826246D01*
X133543242Y-75036127D01*
X133543242Y-75036130D01*
X133608904Y-75238217D01*
X133705375Y-75427550D01*
X133744728Y-75481716D01*
X134377037Y-74849408D01*
X134394075Y-74912993D01*
X134459901Y-75027007D01*
X134552993Y-75120099D01*
X134667007Y-75185925D01*
X134730590Y-75202962D01*
X134098282Y-75835269D01*
X134098282Y-75835270D01*
X134152449Y-75874624D01*
X134341782Y-75971095D01*
X134543870Y-76036757D01*
X134753754Y-76070000D01*
X134966246Y-76070000D01*
X135176127Y-76036757D01*
X135176130Y-76036757D01*
X135378217Y-75971095D01*
X135567554Y-75874622D01*
X135621716Y-75835270D01*
X135621717Y-75835270D01*
X134989408Y-75202962D01*
X135052993Y-75185925D01*
X135167007Y-75120099D01*
X135260099Y-75027007D01*
X135325925Y-74912993D01*
X135342962Y-74849408D01*
X135975270Y-75481717D01*
X135975270Y-75481716D01*
X136014622Y-75427554D01*
X136111095Y-75238217D01*
X136176757Y-75036130D01*
X136176757Y-75036127D01*
X136210000Y-74826246D01*
X136210000Y-74613753D01*
X136176757Y-74403872D01*
X136176757Y-74403869D01*
X136111095Y-74201782D01*
X136014624Y-74012449D01*
X135975270Y-73958282D01*
X135975269Y-73958282D01*
X135342962Y-74590590D01*
X135325925Y-74527007D01*
X135260099Y-74412993D01*
X135167007Y-74319901D01*
X135052993Y-74254075D01*
X134989409Y-74237037D01*
X135621716Y-73604728D01*
X135567550Y-73565375D01*
X135378216Y-73468904D01*
X135202026Y-73411656D01*
X135144350Y-73372218D01*
X135117152Y-73307860D01*
X135129067Y-73239013D01*
X135176311Y-73187538D01*
X135192882Y-73179168D01*
X135357598Y-73110941D01*
X135529655Y-72995977D01*
X135675977Y-72849655D01*
X135790941Y-72677598D01*
X135870130Y-72486420D01*
X135910500Y-72283465D01*
X135910500Y-72076535D01*
X135870130Y-71873580D01*
X135790941Y-71682402D01*
X135675977Y-71510345D01*
X135675975Y-71510342D01*
X135529657Y-71364024D01*
X135393906Y-71273319D01*
X135357598Y-71249059D01*
X135166420Y-71169870D01*
X135166412Y-71169868D01*
X134963469Y-71129500D01*
X134963465Y-71129500D01*
X134756535Y-71129500D01*
X134756530Y-71129500D01*
X134553587Y-71169868D01*
X134553579Y-71169870D01*
X134362403Y-71249058D01*
X134190342Y-71364024D01*
X134044024Y-71510342D01*
X133929058Y-71682403D01*
X133849870Y-71873579D01*
X133849868Y-71873587D01*
X133809500Y-72076530D01*
X133809500Y-72283469D01*
X133849868Y-72486412D01*
X133849870Y-72486420D01*
X133929058Y-72677596D01*
X134044024Y-72849657D01*
X134190342Y-72995975D01*
X134362405Y-73110943D01*
X134465043Y-73153456D01*
X134527108Y-73179164D01*
X134581511Y-73223005D01*
X134603576Y-73289299D01*
X134586297Y-73356998D01*
X134535160Y-73404609D01*
X134517974Y-73411656D01*
X134341781Y-73468905D01*
X134152439Y-73565380D01*
X134098282Y-73604727D01*
X134098282Y-73604728D01*
X134730591Y-74237037D01*
X134667007Y-74254075D01*
X134552993Y-74319901D01*
X134459901Y-74412993D01*
X134394075Y-74527007D01*
X134377037Y-74590591D01*
X133744728Y-73958282D01*
X133744727Y-73958282D01*
X133705380Y-74012439D01*
X133608904Y-74201782D01*
X133543242Y-74403869D01*
X133543242Y-74403872D01*
X133510000Y-74613753D01*
X108805516Y-74613753D01*
X108816747Y-74594301D01*
X108850855Y-74467007D01*
X108850855Y-74335223D01*
X108816747Y-74207929D01*
X108750855Y-74093801D01*
X108657669Y-74000615D01*
X108600605Y-73967669D01*
X108543542Y-73934723D01*
X108479894Y-73917669D01*
X108416247Y-73900615D01*
X108284463Y-73900615D01*
X108157167Y-73934723D01*
X108043041Y-74000615D01*
X108043038Y-74000617D01*
X107949857Y-74093798D01*
X107949855Y-74093801D01*
X107883963Y-74207927D01*
X107849855Y-74335223D01*
X101440024Y-74335223D01*
X101440024Y-73524108D01*
X109509500Y-73524108D01*
X109509500Y-73655892D01*
X109511702Y-73664110D01*
X109543608Y-73783187D01*
X109563311Y-73817313D01*
X109609500Y-73897314D01*
X109702686Y-73990500D01*
X109816814Y-74056392D01*
X109944108Y-74090500D01*
X109944110Y-74090500D01*
X110075890Y-74090500D01*
X110075892Y-74090500D01*
X110203186Y-74056392D01*
X110317314Y-73990500D01*
X110410500Y-73897314D01*
X110476392Y-73783186D01*
X110510500Y-73655892D01*
X110510500Y-73524108D01*
X110476392Y-73396814D01*
X110410500Y-73282686D01*
X110317314Y-73189500D01*
X110260250Y-73156554D01*
X110203187Y-73123608D01*
X110139539Y-73106554D01*
X110075892Y-73089500D01*
X109944108Y-73089500D01*
X109816812Y-73123608D01*
X109702686Y-73189500D01*
X109702683Y-73189502D01*
X109609502Y-73282683D01*
X109609500Y-73282686D01*
X109543608Y-73396812D01*
X109524291Y-73468905D01*
X109509500Y-73524108D01*
X101440024Y-73524108D01*
X101440024Y-72304108D01*
X112829500Y-72304108D01*
X112829500Y-72435891D01*
X112863608Y-72563187D01*
X112877005Y-72586391D01*
X112929500Y-72677314D01*
X113022686Y-72770500D01*
X113136814Y-72836392D01*
X113136822Y-72836394D01*
X113142595Y-72838786D01*
X113197000Y-72882625D01*
X113219067Y-72948919D01*
X113201790Y-73016619D01*
X113157147Y-73060736D01*
X113072686Y-73109500D01*
X113072683Y-73109502D01*
X112979502Y-73202683D01*
X112979500Y-73202686D01*
X112913608Y-73316812D01*
X112879500Y-73444108D01*
X112879500Y-73575891D01*
X112913608Y-73703187D01*
X112946554Y-73760250D01*
X112979500Y-73817314D01*
X113072686Y-73910500D01*
X113186814Y-73976392D01*
X113314108Y-74010500D01*
X113314110Y-74010500D01*
X113445890Y-74010500D01*
X113445892Y-74010500D01*
X113573186Y-73976392D01*
X113687314Y-73910500D01*
X113780500Y-73817314D01*
X113846392Y-73703186D01*
X113856863Y-73664108D01*
X114174047Y-73664108D01*
X114174047Y-73795892D01*
X114191101Y-73859539D01*
X114208155Y-73923187D01*
X114228418Y-73958282D01*
X114274047Y-74037314D01*
X114367233Y-74130500D01*
X114481361Y-74196392D01*
X114608655Y-74230500D01*
X114608657Y-74230500D01*
X114740437Y-74230500D01*
X114740439Y-74230500D01*
X114867733Y-74196392D01*
X114981861Y-74130500D01*
X115075047Y-74037314D01*
X115140939Y-73923186D01*
X115175047Y-73795892D01*
X115175047Y-73664108D01*
X115140939Y-73536814D01*
X115075047Y-73422686D01*
X114981861Y-73329500D01*
X114900772Y-73282683D01*
X114867734Y-73263608D01*
X114775942Y-73239013D01*
X114740439Y-73229500D01*
X114608655Y-73229500D01*
X114481359Y-73263608D01*
X114367233Y-73329500D01*
X114367230Y-73329502D01*
X114274049Y-73422683D01*
X114274047Y-73422686D01*
X114208155Y-73536812D01*
X114184824Y-73623887D01*
X114174047Y-73664108D01*
X113856863Y-73664108D01*
X113880500Y-73575892D01*
X113880500Y-73444108D01*
X113846392Y-73316814D01*
X113780500Y-73202686D01*
X113687314Y-73109500D01*
X113609360Y-73064493D01*
X113573183Y-73043606D01*
X113567400Y-73041211D01*
X113512997Y-72997370D01*
X113490932Y-72931076D01*
X113508211Y-72863376D01*
X113552851Y-72819264D01*
X113637314Y-72770500D01*
X113730500Y-72677314D01*
X113796392Y-72563186D01*
X113830500Y-72435892D01*
X113830500Y-72304108D01*
X113796392Y-72176814D01*
X113730500Y-72062686D01*
X113721922Y-72054108D01*
X114774047Y-72054108D01*
X114774047Y-72185891D01*
X114808155Y-72313187D01*
X114841101Y-72370250D01*
X114874047Y-72427314D01*
X114967233Y-72520500D01*
X115081361Y-72586392D01*
X115208655Y-72620500D01*
X115208657Y-72620500D01*
X115340437Y-72620500D01*
X115340439Y-72620500D01*
X115467733Y-72586392D01*
X115581861Y-72520500D01*
X115675047Y-72427314D01*
X115740939Y-72313186D01*
X115775047Y-72185892D01*
X115775047Y-72054108D01*
X115740939Y-71926814D01*
X115675047Y-71812686D01*
X115581861Y-71719500D01*
X115581858Y-71719498D01*
X115581854Y-71719495D01*
X115560536Y-71707187D01*
X115560535Y-71707187D01*
X115467736Y-71653609D01*
X115467733Y-71653608D01*
X115340439Y-71619500D01*
X115208655Y-71619500D01*
X115081359Y-71653608D01*
X114967233Y-71719500D01*
X114967230Y-71719502D01*
X114874049Y-71812683D01*
X114874047Y-71812686D01*
X114808155Y-71926812D01*
X114774047Y-72054108D01*
X113721922Y-72054108D01*
X113637314Y-71969500D01*
X113563380Y-71926814D01*
X113523187Y-71903608D01*
X113459539Y-71886554D01*
X113395892Y-71869500D01*
X113264108Y-71869500D01*
X113136812Y-71903608D01*
X113022686Y-71969500D01*
X113022683Y-71969502D01*
X112929502Y-72062683D01*
X112929500Y-72062686D01*
X112863608Y-72176812D01*
X112829500Y-72304108D01*
X101440024Y-72304108D01*
X101440024Y-71607927D01*
X126303319Y-71607927D01*
X126303319Y-71739710D01*
X126337427Y-71867006D01*
X126341223Y-71873580D01*
X126403319Y-71981133D01*
X126496505Y-72074319D01*
X126610633Y-72140211D01*
X126737927Y-72174319D01*
X126737929Y-72174319D01*
X126869709Y-72174319D01*
X126869711Y-72174319D01*
X126997005Y-72140211D01*
X127111133Y-72074319D01*
X127204319Y-71981133D01*
X127270211Y-71867005D01*
X127304319Y-71739711D01*
X127304319Y-71607927D01*
X127270211Y-71480633D01*
X127204319Y-71366505D01*
X127111133Y-71273319D01*
X127054069Y-71240373D01*
X126997006Y-71207427D01*
X126933358Y-71190373D01*
X126869711Y-71173319D01*
X126737927Y-71173319D01*
X126610631Y-71207427D01*
X126496505Y-71273319D01*
X126496502Y-71273321D01*
X126403321Y-71366502D01*
X126403319Y-71366505D01*
X126337427Y-71480631D01*
X126303319Y-71607927D01*
X101440024Y-71607927D01*
X101440024Y-70298373D01*
X108755235Y-70298373D01*
X108755235Y-70430157D01*
X108772289Y-70493804D01*
X108789343Y-70557452D01*
X108797131Y-70570941D01*
X108855235Y-70671579D01*
X108948421Y-70764765D01*
X109062549Y-70830657D01*
X109189843Y-70864765D01*
X109189845Y-70864765D01*
X109321625Y-70864765D01*
X109321627Y-70864765D01*
X109448921Y-70830657D01*
X109563049Y-70764765D01*
X109656235Y-70671579D01*
X109722127Y-70557451D01*
X109756235Y-70430157D01*
X109756235Y-70298373D01*
X109722127Y-70171079D01*
X109656235Y-70056951D01*
X109563049Y-69963765D01*
X109465826Y-69907633D01*
X109465824Y-69907631D01*
X109448924Y-69897874D01*
X109448921Y-69897873D01*
X109321627Y-69863765D01*
X109189843Y-69863765D01*
X109062547Y-69897873D01*
X108948421Y-69963765D01*
X108948418Y-69963767D01*
X108855237Y-70056948D01*
X108855235Y-70056951D01*
X108789343Y-70171077D01*
X108786529Y-70181581D01*
X108755235Y-70298373D01*
X101440024Y-70298373D01*
X101440024Y-69808373D01*
X124933765Y-69808373D01*
X124933765Y-69940156D01*
X124967873Y-70067452D01*
X125000819Y-70124515D01*
X125033765Y-70181579D01*
X125126951Y-70274765D01*
X125241079Y-70340657D01*
X125368373Y-70374765D01*
X125368375Y-70374765D01*
X125500155Y-70374765D01*
X125500157Y-70374765D01*
X125627451Y-70340657D01*
X125741579Y-70274765D01*
X125834765Y-70181579D01*
X125900657Y-70067451D01*
X125934765Y-69940157D01*
X125934765Y-69808373D01*
X125934287Y-69806589D01*
X125934324Y-69805027D01*
X125933704Y-69800317D01*
X125934438Y-69800220D01*
X125935952Y-69736740D01*
X125975117Y-69678878D01*
X126039346Y-69651376D01*
X126054063Y-69650500D01*
X126145155Y-69650500D01*
X126145157Y-69650500D01*
X126272451Y-69616392D01*
X126386579Y-69550500D01*
X126479765Y-69457314D01*
X126479765Y-69457313D01*
X126485512Y-69451567D01*
X126486989Y-69453044D01*
X126534429Y-69418397D01*
X126604175Y-69414235D01*
X126665098Y-69448441D01*
X126671316Y-69455616D01*
X126673014Y-69457314D01*
X126766200Y-69550500D01*
X126880328Y-69616392D01*
X127007622Y-69650500D01*
X127007624Y-69650500D01*
X127139404Y-69650500D01*
X127139406Y-69650500D01*
X127266700Y-69616392D01*
X127380828Y-69550500D01*
X127394798Y-69536530D01*
X133809500Y-69536530D01*
X133809500Y-69743469D01*
X133849868Y-69946412D01*
X133849870Y-69946420D01*
X133929058Y-70137596D01*
X134044024Y-70309657D01*
X134190342Y-70455975D01*
X134190345Y-70455977D01*
X134362402Y-70570941D01*
X134553580Y-70650130D01*
X134756530Y-70690499D01*
X134756534Y-70690500D01*
X134756535Y-70690500D01*
X134963466Y-70690500D01*
X134963467Y-70690499D01*
X135166420Y-70650130D01*
X135357598Y-70570941D01*
X135529655Y-70455977D01*
X135675977Y-70309655D01*
X135790941Y-70137598D01*
X135870130Y-69946420D01*
X135910500Y-69743465D01*
X135910500Y-69536535D01*
X135870130Y-69333580D01*
X135790941Y-69142402D01*
X135675977Y-68970345D01*
X135675975Y-68970342D01*
X135529657Y-68824024D01*
X135374435Y-68720309D01*
X135357598Y-68709059D01*
X135343890Y-68703381D01*
X135166420Y-68629870D01*
X135166412Y-68629868D01*
X134963469Y-68589500D01*
X134963465Y-68589500D01*
X134756535Y-68589500D01*
X134756530Y-68589500D01*
X134553587Y-68629868D01*
X134553579Y-68629870D01*
X134362403Y-68709058D01*
X134190342Y-68824024D01*
X134044024Y-68970342D01*
X133929058Y-69142403D01*
X133849870Y-69333579D01*
X133849868Y-69333587D01*
X133809500Y-69536530D01*
X127394798Y-69536530D01*
X127474014Y-69457314D01*
X127539906Y-69343186D01*
X127574014Y-69215892D01*
X127574014Y-69084108D01*
X127539906Y-68956814D01*
X127474014Y-68842686D01*
X127380828Y-68749500D01*
X127323764Y-68716554D01*
X127266701Y-68683608D01*
X127203053Y-68666554D01*
X127139406Y-68649500D01*
X127007622Y-68649500D01*
X126880326Y-68683608D01*
X126766200Y-68749500D01*
X126766197Y-68749502D01*
X126667267Y-68848433D01*
X126665793Y-68846959D01*
X126618318Y-68881613D01*
X126548571Y-68885756D01*
X126487656Y-68851534D01*
X126481450Y-68844371D01*
X126386581Y-68749502D01*
X126386579Y-68749500D01*
X126329515Y-68716554D01*
X126272452Y-68683608D01*
X126208804Y-68666554D01*
X126145157Y-68649500D01*
X126013373Y-68649500D01*
X125886077Y-68683608D01*
X125771951Y-68749500D01*
X125771948Y-68749502D01*
X125678767Y-68842683D01*
X125678765Y-68842686D01*
X125612873Y-68956812D01*
X125578765Y-69084108D01*
X125578765Y-69215893D01*
X125579243Y-69217676D01*
X125579205Y-69219237D01*
X125579826Y-69223948D01*
X125579091Y-69224044D01*
X125577578Y-69287525D01*
X125538413Y-69345387D01*
X125474184Y-69372889D01*
X125459467Y-69373765D01*
X125368373Y-69373765D01*
X125241077Y-69407873D01*
X125126951Y-69473765D01*
X125126948Y-69473767D01*
X125033767Y-69566948D01*
X125033765Y-69566951D01*
X124967873Y-69681077D01*
X124933765Y-69808373D01*
X101440024Y-69808373D01*
X101440024Y-68136990D01*
X112539500Y-68136990D01*
X112539500Y-68268774D01*
X112552259Y-68316391D01*
X112573608Y-68396069D01*
X112597019Y-68436617D01*
X112639500Y-68510196D01*
X112732686Y-68603382D01*
X112846814Y-68669274D01*
X112974108Y-68703382D01*
X112974110Y-68703382D01*
X113105890Y-68703382D01*
X113105892Y-68703382D01*
X113233186Y-68669274D01*
X113347314Y-68603382D01*
X113440500Y-68510196D01*
X113506392Y-68396068D01*
X113540500Y-68268774D01*
X113540500Y-68136990D01*
X113527439Y-68088245D01*
X113529102Y-68018398D01*
X113568264Y-67960535D01*
X113632493Y-67933031D01*
X113701395Y-67944617D01*
X113734895Y-67968473D01*
X113769804Y-68003382D01*
X113883932Y-68069274D01*
X114011226Y-68103382D01*
X114011228Y-68103382D01*
X114143008Y-68103382D01*
X114143010Y-68103382D01*
X114270304Y-68069274D01*
X114384432Y-68003382D01*
X114477618Y-67910196D01*
X114486906Y-67894108D01*
X118659500Y-67894108D01*
X118659500Y-68025892D01*
X118660127Y-68028231D01*
X118693608Y-68153187D01*
X118695991Y-68157314D01*
X118759500Y-68267314D01*
X118852686Y-68360500D01*
X118966814Y-68426392D01*
X119094108Y-68460500D01*
X119094110Y-68460500D01*
X119225890Y-68460500D01*
X119225892Y-68460500D01*
X119353186Y-68426392D01*
X119467314Y-68360500D01*
X119560500Y-68267314D01*
X119626392Y-68153186D01*
X119660500Y-68025892D01*
X119660500Y-67894108D01*
X119626392Y-67766814D01*
X119560500Y-67652686D01*
X119467314Y-67559500D01*
X119426133Y-67535724D01*
X122621416Y-67535724D01*
X122621416Y-67667508D01*
X122625012Y-67680928D01*
X122655524Y-67794803D01*
X122681625Y-67840010D01*
X122721416Y-67908930D01*
X122814602Y-68002116D01*
X122928730Y-68068008D01*
X123056024Y-68102116D01*
X123056026Y-68102116D01*
X123187805Y-68102116D01*
X123187808Y-68102116D01*
X123221489Y-68093091D01*
X123291337Y-68094754D01*
X123349200Y-68133916D01*
X123376704Y-68198145D01*
X123377581Y-68212866D01*
X123377581Y-68213212D01*
X123387572Y-68250499D01*
X123411689Y-68340507D01*
X123443768Y-68396068D01*
X123477581Y-68454634D01*
X123570767Y-68547820D01*
X123684895Y-68613712D01*
X123812189Y-68647820D01*
X123812191Y-68647820D01*
X123850194Y-68647820D01*
X123917233Y-68667505D01*
X123962988Y-68720309D01*
X123974194Y-68771820D01*
X123974194Y-68809826D01*
X123982998Y-68842683D01*
X124008302Y-68937121D01*
X124041248Y-68994184D01*
X124074194Y-69051248D01*
X124167380Y-69144434D01*
X124281508Y-69210326D01*
X124408802Y-69244434D01*
X124408804Y-69244434D01*
X124540584Y-69244434D01*
X124540586Y-69244434D01*
X124667880Y-69210326D01*
X124782008Y-69144434D01*
X124875194Y-69051248D01*
X124941086Y-68937120D01*
X124975194Y-68809826D01*
X124975194Y-68678042D01*
X124941086Y-68550748D01*
X124875194Y-68436620D01*
X124782008Y-68343434D01*
X124724944Y-68310488D01*
X124667881Y-68277542D01*
X124604233Y-68260488D01*
X124540586Y-68243434D01*
X124502581Y-68243434D01*
X124435542Y-68223749D01*
X124389787Y-68170945D01*
X124378581Y-68119434D01*
X124378581Y-68081430D01*
X124378581Y-68081428D01*
X124344473Y-67954134D01*
X124338978Y-67944617D01*
X124297475Y-67872732D01*
X124278581Y-67840006D01*
X124222683Y-67784108D01*
X126878765Y-67784108D01*
X126878765Y-67915892D01*
X126886462Y-67944617D01*
X126912873Y-68043187D01*
X126927203Y-68068007D01*
X126978765Y-68157314D01*
X127071951Y-68250500D01*
X127186079Y-68316392D01*
X127313373Y-68350500D01*
X127313375Y-68350500D01*
X127445155Y-68350500D01*
X127445157Y-68350500D01*
X127572451Y-68316392D01*
X127686579Y-68250500D01*
X127779765Y-68157314D01*
X127845657Y-68043186D01*
X127879765Y-67915892D01*
X127879765Y-67784108D01*
X127845657Y-67656814D01*
X127779765Y-67542686D01*
X127686579Y-67449500D01*
X127615444Y-67408430D01*
X127572452Y-67383608D01*
X127508804Y-67366554D01*
X127445157Y-67349500D01*
X127313373Y-67349500D01*
X127186077Y-67383608D01*
X127071951Y-67449500D01*
X127071948Y-67449502D01*
X126978767Y-67542683D01*
X126978765Y-67542686D01*
X126912873Y-67656812D01*
X126900663Y-67702382D01*
X126878765Y-67784108D01*
X124222683Y-67784108D01*
X124185395Y-67746820D01*
X124128331Y-67713874D01*
X124071268Y-67680928D01*
X123965854Y-67652683D01*
X123943973Y-67646820D01*
X123812189Y-67646820D01*
X123812184Y-67646820D01*
X123778507Y-67655844D01*
X123708657Y-67654180D01*
X123650796Y-67615017D01*
X123623293Y-67550788D01*
X123622416Y-67536069D01*
X123622416Y-67535726D01*
X123622416Y-67535724D01*
X123588308Y-67408430D01*
X123522416Y-67294302D01*
X123429230Y-67201116D01*
X123372166Y-67168170D01*
X123315103Y-67135224D01*
X123251455Y-67118170D01*
X123187808Y-67101116D01*
X123056024Y-67101116D01*
X122928728Y-67135224D01*
X122814602Y-67201116D01*
X122814599Y-67201118D01*
X122721418Y-67294299D01*
X122721416Y-67294302D01*
X122655524Y-67408428D01*
X122644519Y-67449500D01*
X122621416Y-67535724D01*
X119426133Y-67535724D01*
X119410250Y-67526554D01*
X119353187Y-67493608D01*
X119289539Y-67476554D01*
X119225892Y-67459500D01*
X119094108Y-67459500D01*
X118966812Y-67493608D01*
X118852686Y-67559500D01*
X118852683Y-67559502D01*
X118759502Y-67652683D01*
X118759500Y-67652686D01*
X118693608Y-67766812D01*
X118674724Y-67837290D01*
X118659500Y-67894108D01*
X114486906Y-67894108D01*
X114543510Y-67796068D01*
X114577618Y-67668774D01*
X114577618Y-67536990D01*
X114543510Y-67409696D01*
X114477618Y-67295568D01*
X114384432Y-67202382D01*
X114327368Y-67169436D01*
X114270305Y-67136490D01*
X114206657Y-67119436D01*
X114143010Y-67102382D01*
X114011226Y-67102382D01*
X113883930Y-67136490D01*
X113769804Y-67202382D01*
X113769801Y-67202384D01*
X113676620Y-67295565D01*
X113676618Y-67295568D01*
X113610726Y-67409694D01*
X113576618Y-67536990D01*
X113576618Y-67668775D01*
X113589678Y-67717517D01*
X113588015Y-67787367D01*
X113548851Y-67845229D01*
X113484623Y-67872732D01*
X113415720Y-67861145D01*
X113382222Y-67837290D01*
X113347316Y-67802384D01*
X113347314Y-67802382D01*
X113251082Y-67746822D01*
X113233187Y-67736490D01*
X113162377Y-67717517D01*
X113105892Y-67702382D01*
X112974108Y-67702382D01*
X112846812Y-67736490D01*
X112732686Y-67802382D01*
X112732683Y-67802384D01*
X112639502Y-67895565D01*
X112639500Y-67895568D01*
X112573608Y-68009694D01*
X112548844Y-68102116D01*
X112539500Y-68136990D01*
X101440024Y-68136990D01*
X101440024Y-65384108D01*
X114599500Y-65384108D01*
X114599500Y-65515891D01*
X114633608Y-65643187D01*
X114650460Y-65672375D01*
X114699500Y-65757314D01*
X114792686Y-65850500D01*
X114906814Y-65916392D01*
X115034108Y-65950500D01*
X115034110Y-65950500D01*
X115165890Y-65950500D01*
X115165892Y-65950500D01*
X115293186Y-65916392D01*
X115407314Y-65850500D01*
X115500500Y-65757314D01*
X115515536Y-65731271D01*
X123509500Y-65731271D01*
X123509500Y-65863055D01*
X123526554Y-65926702D01*
X123543608Y-65990350D01*
X123576554Y-66047413D01*
X123609500Y-66104477D01*
X123702686Y-66197663D01*
X123816814Y-66263555D01*
X123944108Y-66297663D01*
X123944110Y-66297663D01*
X124075890Y-66297663D01*
X124075892Y-66297663D01*
X124203186Y-66263555D01*
X124260877Y-66230247D01*
X133809500Y-66230247D01*
X133809500Y-67969752D01*
X133821131Y-68028229D01*
X133821132Y-68028230D01*
X133865447Y-68094552D01*
X133931769Y-68138867D01*
X133931770Y-68138868D01*
X133990247Y-68150499D01*
X133990250Y-68150500D01*
X133990252Y-68150500D01*
X135729750Y-68150500D01*
X135729751Y-68150499D01*
X135744568Y-68147552D01*
X135788229Y-68138868D01*
X135788229Y-68138867D01*
X135788231Y-68138867D01*
X135854552Y-68094552D01*
X135898867Y-68028231D01*
X135898867Y-68028229D01*
X135898868Y-68028229D01*
X135910499Y-67969752D01*
X135910500Y-67969750D01*
X135910500Y-66230249D01*
X135910499Y-66230247D01*
X135898868Y-66171770D01*
X135898867Y-66171769D01*
X135854552Y-66105447D01*
X135788230Y-66061132D01*
X135788229Y-66061131D01*
X135729752Y-66049500D01*
X135729748Y-66049500D01*
X133990252Y-66049500D01*
X133990247Y-66049500D01*
X133931770Y-66061131D01*
X133931769Y-66061132D01*
X133865447Y-66105447D01*
X133821132Y-66171769D01*
X133821131Y-66171770D01*
X133809500Y-66230247D01*
X124260877Y-66230247D01*
X124317314Y-66197663D01*
X124410500Y-66104477D01*
X124476392Y-65990349D01*
X124510500Y-65863055D01*
X124510500Y-65731271D01*
X124476392Y-65603977D01*
X124410500Y-65489849D01*
X124317314Y-65396663D01*
X124260250Y-65363717D01*
X124203187Y-65330771D01*
X124139539Y-65313717D01*
X124075892Y-65296663D01*
X123944108Y-65296663D01*
X123816812Y-65330771D01*
X123702686Y-65396663D01*
X123702683Y-65396665D01*
X123609502Y-65489846D01*
X123609500Y-65489849D01*
X123543608Y-65603975D01*
X123525281Y-65672375D01*
X123509500Y-65731271D01*
X115515536Y-65731271D01*
X115566392Y-65643186D01*
X115600197Y-65517020D01*
X115601222Y-65513879D01*
X115619177Y-65487679D01*
X115635703Y-65460567D01*
X115638783Y-65459070D01*
X115640720Y-65456245D01*
X115669984Y-65443914D01*
X115698550Y-65430038D01*
X115703995Y-65429583D01*
X115705107Y-65429115D01*
X115706564Y-65429368D01*
X115719113Y-65428321D01*
X115771968Y-65428321D01*
X115771970Y-65428321D01*
X115899264Y-65394213D01*
X116013392Y-65328321D01*
X116106578Y-65235135D01*
X116172470Y-65121007D01*
X116200512Y-65016353D01*
X122011745Y-65016353D01*
X122011745Y-65148136D01*
X122045853Y-65275432D01*
X122058111Y-65296663D01*
X122111745Y-65389559D01*
X122204931Y-65482745D01*
X122319059Y-65548637D01*
X122446353Y-65582745D01*
X122446355Y-65582745D01*
X122578135Y-65582745D01*
X122578137Y-65582745D01*
X122705431Y-65548637D01*
X122819559Y-65482745D01*
X122912745Y-65389559D01*
X122978637Y-65275431D01*
X123012745Y-65148137D01*
X123012745Y-65016353D01*
X122978637Y-64889059D01*
X122912745Y-64774931D01*
X122819559Y-64681745D01*
X122762495Y-64648799D01*
X122705432Y-64615853D01*
X122641784Y-64598799D01*
X122578137Y-64581745D01*
X122446353Y-64581745D01*
X122319057Y-64615853D01*
X122204931Y-64681745D01*
X122204928Y-64681747D01*
X122111747Y-64774928D01*
X122111745Y-64774931D01*
X122045853Y-64889057D01*
X122011745Y-65016353D01*
X116200512Y-65016353D01*
X116206578Y-64993713D01*
X116206578Y-64993712D01*
X116207690Y-64989562D01*
X116218377Y-64972027D01*
X116224573Y-64952451D01*
X116236192Y-64942799D01*
X116244055Y-64929901D01*
X116262524Y-64920928D01*
X116278321Y-64907809D01*
X116297832Y-64903777D01*
X116306902Y-64899372D01*
X116312386Y-64898575D01*
X116319895Y-64897655D01*
X116370634Y-64897655D01*
X116497928Y-64863547D01*
X116612056Y-64797655D01*
X116705242Y-64704469D01*
X116771134Y-64590341D01*
X116805242Y-64463047D01*
X116805242Y-64331263D01*
X116771134Y-64203969D01*
X116761916Y-64188003D01*
X116734616Y-64140718D01*
X123569400Y-64140718D01*
X123569400Y-64272501D01*
X123603508Y-64399797D01*
X123624392Y-64435968D01*
X123669400Y-64513924D01*
X123762586Y-64607110D01*
X123876714Y-64673002D01*
X124004008Y-64707110D01*
X124004010Y-64707110D01*
X124135790Y-64707110D01*
X124135792Y-64707110D01*
X124263086Y-64673002D01*
X124377214Y-64607110D01*
X124470400Y-64513924D01*
X124536292Y-64399796D01*
X124570400Y-64272502D01*
X124570400Y-64140718D01*
X124536292Y-64013424D01*
X124470400Y-63899296D01*
X124377214Y-63806110D01*
X124320150Y-63773164D01*
X124263087Y-63740218D01*
X124199439Y-63723164D01*
X124135792Y-63706110D01*
X124004008Y-63706110D01*
X123876712Y-63740218D01*
X123762586Y-63806110D01*
X123762583Y-63806112D01*
X123669402Y-63899293D01*
X123669400Y-63899296D01*
X123603508Y-64013422D01*
X123569400Y-64140718D01*
X116734616Y-64140718D01*
X116705244Y-64089844D01*
X116705239Y-64089838D01*
X116612058Y-63996657D01*
X116612056Y-63996655D01*
X116554992Y-63963709D01*
X116497929Y-63930763D01*
X116380490Y-63899296D01*
X116370634Y-63896655D01*
X116238850Y-63896655D01*
X116111554Y-63930763D01*
X115997428Y-63996655D01*
X115997425Y-63996657D01*
X115904244Y-64089838D01*
X115904242Y-64089841D01*
X115838350Y-64203967D01*
X115803130Y-64335414D01*
X115766765Y-64395075D01*
X115703918Y-64425604D01*
X115683355Y-64427321D01*
X115640186Y-64427321D01*
X115512890Y-64461429D01*
X115398764Y-64527321D01*
X115398761Y-64527323D01*
X115305580Y-64620504D01*
X115305578Y-64620507D01*
X115239686Y-64734633D01*
X115206740Y-64857593D01*
X115170375Y-64917254D01*
X115107528Y-64947783D01*
X115086965Y-64949500D01*
X115034108Y-64949500D01*
X114906812Y-64983608D01*
X114792686Y-65049500D01*
X114792683Y-65049502D01*
X114699502Y-65142683D01*
X114699500Y-65142686D01*
X114633608Y-65256812D01*
X114599500Y-65384108D01*
X101440024Y-65384108D01*
X101440024Y-63779488D01*
X107124880Y-63779488D01*
X107124880Y-63911272D01*
X107127353Y-63920500D01*
X107158988Y-64038567D01*
X107188590Y-64089838D01*
X107224880Y-64152694D01*
X107318066Y-64245880D01*
X107432194Y-64311772D01*
X107559488Y-64345880D01*
X107559490Y-64345880D01*
X107691270Y-64345880D01*
X107691272Y-64345880D01*
X107818566Y-64311772D01*
X107932694Y-64245880D01*
X108025880Y-64152694D01*
X108091772Y-64038566D01*
X108125880Y-63911272D01*
X108125880Y-63779488D01*
X108091772Y-63652194D01*
X108025880Y-63538066D01*
X107941922Y-63454108D01*
X125120275Y-63454108D01*
X125120275Y-63585891D01*
X125154383Y-63713187D01*
X125169990Y-63740218D01*
X125220275Y-63827314D01*
X125313461Y-63920500D01*
X125427589Y-63986392D01*
X125554883Y-64020500D01*
X125554885Y-64020500D01*
X125686665Y-64020500D01*
X125686667Y-64020500D01*
X125813961Y-63986392D01*
X125928089Y-63920500D01*
X126021275Y-63827314D01*
X126087167Y-63713186D01*
X126121275Y-63585892D01*
X126121275Y-63454108D01*
X126087167Y-63326814D01*
X126021275Y-63212686D01*
X125928089Y-63119500D01*
X125871025Y-63086554D01*
X125813962Y-63053608D01*
X125750314Y-63036554D01*
X125686667Y-63019500D01*
X125554883Y-63019500D01*
X125427587Y-63053608D01*
X125313461Y-63119500D01*
X125313458Y-63119502D01*
X125220277Y-63212683D01*
X125220275Y-63212686D01*
X125154383Y-63326812D01*
X125120275Y-63454108D01*
X107941922Y-63454108D01*
X107932694Y-63444880D01*
X107875630Y-63411934D01*
X107818567Y-63378988D01*
X107754919Y-63361934D01*
X107691272Y-63344880D01*
X107559488Y-63344880D01*
X107432192Y-63378988D01*
X107318066Y-63444880D01*
X107318063Y-63444882D01*
X107224882Y-63538063D01*
X107224880Y-63538066D01*
X107158988Y-63652192D01*
X107144541Y-63706110D01*
X107124880Y-63779488D01*
X101440024Y-63779488D01*
X101440024Y-59634108D01*
X111269880Y-59634108D01*
X111269880Y-59765891D01*
X111303988Y-59893187D01*
X111335740Y-59948182D01*
X111369880Y-60007314D01*
X111463066Y-60100500D01*
X111549090Y-60150166D01*
X111568192Y-60161195D01*
X111577194Y-60166392D01*
X111704488Y-60200500D01*
X111704490Y-60200500D01*
X111836270Y-60200500D01*
X111836272Y-60200500D01*
X111963566Y-60166392D01*
X112077694Y-60100500D01*
X112170880Y-60007314D01*
X112236772Y-59893186D01*
X112270880Y-59765892D01*
X112270880Y-59634108D01*
X112236772Y-59506814D01*
X112228613Y-59492683D01*
X112202806Y-59447983D01*
X112202805Y-59447982D01*
X112171701Y-59394108D01*
X126939500Y-59394108D01*
X126939500Y-59525891D01*
X126973608Y-59653187D01*
X126979842Y-59663984D01*
X127039500Y-59767314D01*
X127039502Y-59767316D01*
X127092145Y-59819959D01*
X127125630Y-59881282D01*
X127120646Y-59950974D01*
X127111851Y-59969640D01*
X127058348Y-60062309D01*
X127058348Y-60062310D01*
X127058348Y-60062311D01*
X127058347Y-60062313D01*
X127046289Y-60107314D01*
X127024239Y-60189607D01*
X127024239Y-60321390D01*
X127058347Y-60448686D01*
X127083749Y-60492682D01*
X127124239Y-60562813D01*
X127217425Y-60655999D01*
X127331553Y-60721891D01*
X127458847Y-60755999D01*
X127458849Y-60755999D01*
X127590629Y-60755999D01*
X127590631Y-60755999D01*
X127717925Y-60721891D01*
X127832053Y-60655999D01*
X127925239Y-60562813D01*
X127991131Y-60448685D01*
X128025239Y-60321391D01*
X128025239Y-60189607D01*
X127991131Y-60062313D01*
X127925239Y-59948185D01*
X127872593Y-59895539D01*
X127859249Y-59871101D01*
X127843093Y-59848413D01*
X127842733Y-59840854D01*
X127839108Y-59834216D01*
X127841094Y-59806438D01*
X127839770Y-59778622D01*
X127843804Y-59768545D01*
X127844092Y-59764524D01*
X127852888Y-59745857D01*
X127859672Y-59734108D01*
X130209500Y-59734108D01*
X130209500Y-59865892D01*
X130216813Y-59893186D01*
X130243608Y-59993187D01*
X130251766Y-60007316D01*
X130309500Y-60107314D01*
X130402686Y-60200500D01*
X130467886Y-60238143D01*
X130496673Y-60254764D01*
X130544888Y-60305332D01*
X130558110Y-60373939D01*
X130532142Y-60438804D01*
X130522354Y-60449831D01*
X130479503Y-60492682D01*
X130479500Y-60492686D01*
X130413608Y-60606812D01*
X130379500Y-60734108D01*
X130379500Y-60865891D01*
X130413608Y-60993187D01*
X130446554Y-61050250D01*
X130479500Y-61107314D01*
X130572686Y-61200500D01*
X130686814Y-61266392D01*
X130814108Y-61300500D01*
X130814110Y-61300500D01*
X130945890Y-61300500D01*
X130945892Y-61300500D01*
X131073186Y-61266392D01*
X131187314Y-61200500D01*
X131280500Y-61107314D01*
X131346392Y-60993186D01*
X131380500Y-60865892D01*
X131380500Y-60734108D01*
X131346392Y-60606814D01*
X131280500Y-60492686D01*
X131187314Y-60399500D01*
X131187311Y-60399498D01*
X131187307Y-60399495D01*
X131093326Y-60345234D01*
X131045111Y-60294667D01*
X131031889Y-60226060D01*
X131057857Y-60161195D01*
X131067639Y-60150174D01*
X131110500Y-60107314D01*
X131176392Y-59993186D01*
X131210500Y-59865892D01*
X131210500Y-59734108D01*
X131176392Y-59606814D01*
X131110500Y-59492686D01*
X131017314Y-59399500D01*
X130960250Y-59366554D01*
X130903187Y-59333608D01*
X130839539Y-59316554D01*
X130775892Y-59299500D01*
X130644108Y-59299500D01*
X130516812Y-59333608D01*
X130402686Y-59399500D01*
X130402683Y-59399502D01*
X130309502Y-59492683D01*
X130309500Y-59492686D01*
X130243608Y-59606812D01*
X130228289Y-59663984D01*
X130209500Y-59734108D01*
X127859672Y-59734108D01*
X127906392Y-59653186D01*
X127940500Y-59525892D01*
X127940500Y-59394108D01*
X127906392Y-59266814D01*
X127840500Y-59152686D01*
X127747314Y-59059500D01*
X127690250Y-59026554D01*
X127633187Y-58993608D01*
X127569539Y-58976554D01*
X127505892Y-58959500D01*
X127374108Y-58959500D01*
X127246812Y-58993608D01*
X127132686Y-59059500D01*
X127132683Y-59059502D01*
X127039502Y-59152683D01*
X127039500Y-59152686D01*
X126973608Y-59266812D01*
X126939500Y-59394108D01*
X112171701Y-59394108D01*
X112170880Y-59392686D01*
X112077694Y-59299500D01*
X112020630Y-59266554D01*
X111963567Y-59233608D01*
X111899919Y-59216554D01*
X111836272Y-59199500D01*
X111704488Y-59199500D01*
X111577192Y-59233608D01*
X111463066Y-59299500D01*
X111463063Y-59299502D01*
X111369882Y-59392683D01*
X111369880Y-59392686D01*
X111303988Y-59506812D01*
X111269880Y-59634108D01*
X101440024Y-59634108D01*
X101440024Y-55845581D01*
X108539500Y-55845581D01*
X108539500Y-55977364D01*
X108573608Y-56104660D01*
X108606554Y-56161723D01*
X108639500Y-56218787D01*
X108732686Y-56311973D01*
X108846814Y-56377865D01*
X108974108Y-56411973D01*
X108974110Y-56411973D01*
X109105890Y-56411973D01*
X109105892Y-56411973D01*
X109233186Y-56377865D01*
X109347314Y-56311973D01*
X109440500Y-56218787D01*
X109506392Y-56104659D01*
X109540500Y-55977365D01*
X109540500Y-55845581D01*
X109506392Y-55718287D01*
X109440500Y-55604159D01*
X109347314Y-55510973D01*
X109290250Y-55478027D01*
X109233187Y-55445081D01*
X109169539Y-55428027D01*
X109105892Y-55410973D01*
X108974108Y-55410973D01*
X108846812Y-55445081D01*
X108732686Y-55510973D01*
X108732683Y-55510975D01*
X108639502Y-55604156D01*
X108639500Y-55604159D01*
X108573608Y-55718285D01*
X108539500Y-55845581D01*
X101440024Y-55845581D01*
X101440024Y-53894108D01*
X109139500Y-53894108D01*
X109139500Y-54025891D01*
X109173608Y-54153187D01*
X109206554Y-54210250D01*
X109239500Y-54267314D01*
X109332686Y-54360500D01*
X109446814Y-54426392D01*
X109574108Y-54460500D01*
X109574110Y-54460500D01*
X109705890Y-54460500D01*
X109705892Y-54460500D01*
X109833186Y-54426392D01*
X109947314Y-54360500D01*
X110040500Y-54267314D01*
X110106392Y-54153186D01*
X110140500Y-54025892D01*
X110140500Y-53894108D01*
X110106392Y-53766814D01*
X110040500Y-53652686D01*
X109947314Y-53559500D01*
X109890250Y-53526554D01*
X109833187Y-53493608D01*
X109769539Y-53476554D01*
X109705892Y-53459500D01*
X109574108Y-53459500D01*
X109446812Y-53493608D01*
X109332686Y-53559500D01*
X109332683Y-53559502D01*
X109239502Y-53652683D01*
X109239500Y-53652686D01*
X109173608Y-53766812D01*
X109139500Y-53894108D01*
X101440024Y-53894108D01*
X101440024Y-52064108D01*
X109939500Y-52064108D01*
X109939500Y-52195891D01*
X109973608Y-52323187D01*
X110006554Y-52380250D01*
X110039500Y-52437314D01*
X110132686Y-52530500D01*
X110246814Y-52596392D01*
X110374108Y-52630500D01*
X110374110Y-52630500D01*
X110505890Y-52630500D01*
X110505892Y-52630500D01*
X110633186Y-52596392D01*
X110747314Y-52530500D01*
X110840500Y-52437314D01*
X110906392Y-52323186D01*
X110940500Y-52195892D01*
X110940500Y-52064108D01*
X110906392Y-51936814D01*
X110840500Y-51822686D01*
X110747314Y-51729500D01*
X110690250Y-51696554D01*
X110633187Y-51663608D01*
X110569539Y-51646554D01*
X110505892Y-51629500D01*
X110374108Y-51629500D01*
X110246812Y-51663608D01*
X110132686Y-51729500D01*
X110132683Y-51729502D01*
X110039502Y-51822683D01*
X110039500Y-51822686D01*
X109973608Y-51936812D01*
X109939500Y-52064108D01*
X101440024Y-52064108D01*
X101440024Y-49574108D01*
X108329500Y-49574108D01*
X108329500Y-49705891D01*
X108363608Y-49833187D01*
X108396554Y-49890250D01*
X108429500Y-49947314D01*
X108522686Y-50040500D01*
X108636814Y-50106392D01*
X108764108Y-50140500D01*
X108764110Y-50140500D01*
X108895890Y-50140500D01*
X108895892Y-50140500D01*
X109023186Y-50106392D01*
X109137314Y-50040500D01*
X109230500Y-49947314D01*
X109296392Y-49833186D01*
X109330500Y-49705892D01*
X109330500Y-49574108D01*
X109296392Y-49446814D01*
X109230500Y-49332686D01*
X109137314Y-49239500D01*
X109080250Y-49206554D01*
X109023187Y-49173608D01*
X108959539Y-49156554D01*
X108895892Y-49139500D01*
X108764108Y-49139500D01*
X108636812Y-49173608D01*
X108522686Y-49239500D01*
X108522683Y-49239502D01*
X108429502Y-49332683D01*
X108429500Y-49332686D01*
X108363608Y-49446812D01*
X108329500Y-49574108D01*
X101440024Y-49574108D01*
X101440024Y-47249108D01*
X128284500Y-47249108D01*
X128284500Y-47380892D01*
X128298389Y-47432728D01*
X128318608Y-47508187D01*
X128351554Y-47565250D01*
X128384500Y-47622314D01*
X128477686Y-47715500D01*
X128591814Y-47781392D01*
X128719108Y-47815500D01*
X128719110Y-47815500D01*
X128850889Y-47815500D01*
X128850892Y-47815500D01*
X128905469Y-47800876D01*
X128975316Y-47802539D01*
X129033179Y-47841701D01*
X129044947Y-47858650D01*
X129077552Y-47915122D01*
X129106920Y-47965989D01*
X129200106Y-48059175D01*
X129314234Y-48125067D01*
X129441528Y-48159175D01*
X129441530Y-48159175D01*
X129573309Y-48159175D01*
X129573312Y-48159175D01*
X129687562Y-48128562D01*
X129757408Y-48130225D01*
X129815271Y-48169387D01*
X129827039Y-48186336D01*
X129858335Y-48240542D01*
X129951521Y-48333728D01*
X130065649Y-48399620D01*
X130192943Y-48433728D01*
X130192945Y-48433728D01*
X130324725Y-48433728D01*
X130324727Y-48433728D01*
X130452021Y-48399620D01*
X130566149Y-48333728D01*
X130659335Y-48240542D01*
X130725227Y-48126414D01*
X130759335Y-47999120D01*
X130759335Y-47867336D01*
X130725227Y-47740042D01*
X130659335Y-47625914D01*
X130566149Y-47532728D01*
X130509085Y-47499782D01*
X130452022Y-47466836D01*
X130388374Y-47449782D01*
X130324727Y-47432728D01*
X130192943Y-47432728D01*
X130078695Y-47463340D01*
X130008845Y-47461677D01*
X129950983Y-47422514D01*
X129939215Y-47405565D01*
X129907922Y-47351364D01*
X129907917Y-47351358D01*
X129814736Y-47258177D01*
X129814734Y-47258175D01*
X129757670Y-47225229D01*
X129700607Y-47192283D01*
X129621676Y-47171134D01*
X129573312Y-47158175D01*
X129441528Y-47158175D01*
X129441523Y-47158175D01*
X129386949Y-47172798D01*
X129317099Y-47171134D01*
X129259238Y-47131971D01*
X129247471Y-47115023D01*
X129185500Y-47007686D01*
X129092314Y-46914500D01*
X129035250Y-46881554D01*
X128978187Y-46848608D01*
X128914539Y-46831554D01*
X128850892Y-46814500D01*
X128719108Y-46814500D01*
X128591812Y-46848608D01*
X128477686Y-46914500D01*
X128477683Y-46914502D01*
X128384502Y-47007683D01*
X128384500Y-47007686D01*
X128318608Y-47121812D01*
X128284500Y-47249108D01*
X101440024Y-47249108D01*
X101440024Y-44752517D01*
X108137773Y-44752517D01*
X108137773Y-44884300D01*
X108171881Y-45011596D01*
X108173080Y-45013672D01*
X108237773Y-45125723D01*
X108330959Y-45218909D01*
X108445087Y-45284801D01*
X108572381Y-45318909D01*
X108572383Y-45318909D01*
X108704163Y-45318909D01*
X108704165Y-45318909D01*
X108831459Y-45284801D01*
X108945587Y-45218909D01*
X108972781Y-45191714D01*
X109034100Y-45158231D01*
X109103792Y-45163215D01*
X109148140Y-45191715D01*
X109175332Y-45218906D01*
X109177412Y-45220986D01*
X109276247Y-45278049D01*
X109287942Y-45284801D01*
X109291540Y-45286878D01*
X109418834Y-45320986D01*
X109418836Y-45320986D01*
X109550616Y-45320986D01*
X109550618Y-45320986D01*
X109677912Y-45286878D01*
X109792040Y-45220986D01*
X109885226Y-45127800D01*
X109887963Y-45123058D01*
X109938529Y-45074843D01*
X110007135Y-45061618D01*
X110072001Y-45087585D01*
X110083032Y-45097376D01*
X110116291Y-45130635D01*
X110230419Y-45196527D01*
X110357713Y-45230635D01*
X110357715Y-45230635D01*
X110489495Y-45230635D01*
X110489497Y-45230635D01*
X110616791Y-45196527D01*
X110730919Y-45130635D01*
X110824105Y-45037449D01*
X110889997Y-44923321D01*
X110924105Y-44796027D01*
X110924105Y-44664243D01*
X110889997Y-44536949D01*
X110824105Y-44422821D01*
X110730919Y-44329635D01*
X110673855Y-44296689D01*
X110616792Y-44263743D01*
X110553144Y-44246689D01*
X110489497Y-44229635D01*
X110357713Y-44229635D01*
X110230417Y-44263743D01*
X110116291Y-44329635D01*
X110116288Y-44329637D01*
X110023107Y-44422818D01*
X110023098Y-44422830D01*
X110020361Y-44427571D01*
X109969790Y-44475783D01*
X109901182Y-44489001D01*
X109836320Y-44463028D01*
X109825298Y-44453244D01*
X109792042Y-44419988D01*
X109792040Y-44419986D01*
X109734976Y-44387040D01*
X109677913Y-44354094D01*
X109586636Y-44329637D01*
X109550618Y-44319986D01*
X109418834Y-44319986D01*
X109291538Y-44354094D01*
X109177412Y-44419986D01*
X109150218Y-44447180D01*
X109088894Y-44480664D01*
X109019203Y-44475678D01*
X108974858Y-44447179D01*
X108945590Y-44417912D01*
X108945589Y-44417911D01*
X108945587Y-44417909D01*
X108888523Y-44384963D01*
X108831460Y-44352017D01*
X108747927Y-44329635D01*
X108704165Y-44317909D01*
X108572381Y-44317909D01*
X108445085Y-44352017D01*
X108330959Y-44417909D01*
X108330956Y-44417911D01*
X108237775Y-44511092D01*
X108237773Y-44511095D01*
X108171881Y-44625221D01*
X108137773Y-44752517D01*
X101440024Y-44752517D01*
X101440024Y-39784414D01*
X101440340Y-39775581D01*
X101454654Y-39575443D01*
X101457170Y-39557938D01*
X101498880Y-39366200D01*
X101503859Y-39349242D01*
X101572435Y-39165382D01*
X101579775Y-39149310D01*
X101673818Y-38977083D01*
X101683374Y-38962214D01*
X101800972Y-38805123D01*
X101812541Y-38791771D01*
X101951295Y-38653017D01*
X101964652Y-38641443D01*
X102121738Y-38523850D01*
X102136607Y-38514294D01*
X102308834Y-38420251D01*
X102324906Y-38412911D01*
X102508766Y-38344335D01*
X102525724Y-38339356D01*
X102717462Y-38297646D01*
X102734960Y-38295130D01*
X102935106Y-38280816D01*
X102943952Y-38280500D01*
X103005416Y-38280500D01*
X137234587Y-38280500D01*
X137234594Y-38280502D01*
G37*
%TD.AperFunction*%
%TD*%
M02*
