%TF.GenerationSoftware,KiCad,Pcbnew,10.0.1*%
%TF.CreationDate,2026-07-16T18:28:58+02:00*%
%TF.ProjectId,Horizon,486f7269-7a6f-46e2-9e6b-696361645f70,rev?*%
%TF.SameCoordinates,Original*%
%TF.FileFunction,Legend,Top*%
%TF.FilePolarity,Positive*%
%FSLAX46Y46*%
G04 Gerber Fmt 4.6, Leading zero omitted, Abs format (unit mm)*
G04 Created by KiCad (PCBNEW 10.0.1) date 2026-07-16 18:28:58*
%MOMM*%
%LPD*%
G01*
G04 APERTURE LIST*
%ADD10C,0.150000*%
%ADD11C,0.158750*%
%ADD12C,0.125000*%
%ADD13C,0.120000*%
%ADD14C,0.152400*%
%ADD15C,0.300000*%
%ADD16C,0.152000*%
%ADD17C,0.200000*%
%ADD18C,0.254000*%
%ADD19C,0.152500*%
G04 APERTURE END LIST*
D10*
X102694819Y-102848333D02*
X103409104Y-102848333D01*
X103409104Y-102848333D02*
X103551961Y-102895952D01*
X103551961Y-102895952D02*
X103647200Y-102991190D01*
X103647200Y-102991190D02*
X103694819Y-103134047D01*
X103694819Y-103134047D02*
X103694819Y-103229285D01*
X103694819Y-102324523D02*
X103694819Y-102134047D01*
X103694819Y-102134047D02*
X103647200Y-102038809D01*
X103647200Y-102038809D02*
X103599580Y-101991190D01*
X103599580Y-101991190D02*
X103456723Y-101895952D01*
X103456723Y-101895952D02*
X103266247Y-101848333D01*
X103266247Y-101848333D02*
X102885295Y-101848333D01*
X102885295Y-101848333D02*
X102790057Y-101895952D01*
X102790057Y-101895952D02*
X102742438Y-101943571D01*
X102742438Y-101943571D02*
X102694819Y-102038809D01*
X102694819Y-102038809D02*
X102694819Y-102229285D01*
X102694819Y-102229285D02*
X102742438Y-102324523D01*
X102742438Y-102324523D02*
X102790057Y-102372142D01*
X102790057Y-102372142D02*
X102885295Y-102419761D01*
X102885295Y-102419761D02*
X103123390Y-102419761D01*
X103123390Y-102419761D02*
X103218628Y-102372142D01*
X103218628Y-102372142D02*
X103266247Y-102324523D01*
X103266247Y-102324523D02*
X103313866Y-102229285D01*
X103313866Y-102229285D02*
X103313866Y-102038809D01*
X103313866Y-102038809D02*
X103266247Y-101943571D01*
X103266247Y-101943571D02*
X103218628Y-101895952D01*
X103218628Y-101895952D02*
X103123390Y-101848333D01*
X105094819Y-100087857D02*
X104618628Y-100421190D01*
X105094819Y-100659285D02*
X104094819Y-100659285D01*
X104094819Y-100659285D02*
X104094819Y-100278333D01*
X104094819Y-100278333D02*
X104142438Y-100183095D01*
X104142438Y-100183095D02*
X104190057Y-100135476D01*
X104190057Y-100135476D02*
X104285295Y-100087857D01*
X104285295Y-100087857D02*
X104428152Y-100087857D01*
X104428152Y-100087857D02*
X104523390Y-100135476D01*
X104523390Y-100135476D02*
X104571009Y-100183095D01*
X104571009Y-100183095D02*
X104618628Y-100278333D01*
X104618628Y-100278333D02*
X104618628Y-100659285D01*
X104190057Y-99706904D02*
X104142438Y-99659285D01*
X104142438Y-99659285D02*
X104094819Y-99564047D01*
X104094819Y-99564047D02*
X104094819Y-99325952D01*
X104094819Y-99325952D02*
X104142438Y-99230714D01*
X104142438Y-99230714D02*
X104190057Y-99183095D01*
X104190057Y-99183095D02*
X104285295Y-99135476D01*
X104285295Y-99135476D02*
X104380533Y-99135476D01*
X104380533Y-99135476D02*
X104523390Y-99183095D01*
X104523390Y-99183095D02*
X105094819Y-99754523D01*
X105094819Y-99754523D02*
X105094819Y-99135476D01*
X104094819Y-98278333D02*
X104094819Y-98468809D01*
X104094819Y-98468809D02*
X104142438Y-98564047D01*
X104142438Y-98564047D02*
X104190057Y-98611666D01*
X104190057Y-98611666D02*
X104332914Y-98706904D01*
X104332914Y-98706904D02*
X104523390Y-98754523D01*
X104523390Y-98754523D02*
X104904342Y-98754523D01*
X104904342Y-98754523D02*
X104999580Y-98706904D01*
X104999580Y-98706904D02*
X105047200Y-98659285D01*
X105047200Y-98659285D02*
X105094819Y-98564047D01*
X105094819Y-98564047D02*
X105094819Y-98373571D01*
X105094819Y-98373571D02*
X105047200Y-98278333D01*
X105047200Y-98278333D02*
X104999580Y-98230714D01*
X104999580Y-98230714D02*
X104904342Y-98183095D01*
X104904342Y-98183095D02*
X104666247Y-98183095D01*
X104666247Y-98183095D02*
X104571009Y-98230714D01*
X104571009Y-98230714D02*
X104523390Y-98278333D01*
X104523390Y-98278333D02*
X104475771Y-98373571D01*
X104475771Y-98373571D02*
X104475771Y-98564047D01*
X104475771Y-98564047D02*
X104523390Y-98659285D01*
X104523390Y-98659285D02*
X104571009Y-98706904D01*
X104571009Y-98706904D02*
X104666247Y-98754523D01*
X126704819Y-97637857D02*
X126228628Y-97971190D01*
X126704819Y-98209285D02*
X125704819Y-98209285D01*
X125704819Y-98209285D02*
X125704819Y-97828333D01*
X125704819Y-97828333D02*
X125752438Y-97733095D01*
X125752438Y-97733095D02*
X125800057Y-97685476D01*
X125800057Y-97685476D02*
X125895295Y-97637857D01*
X125895295Y-97637857D02*
X126038152Y-97637857D01*
X126038152Y-97637857D02*
X126133390Y-97685476D01*
X126133390Y-97685476D02*
X126181009Y-97733095D01*
X126181009Y-97733095D02*
X126228628Y-97828333D01*
X126228628Y-97828333D02*
X126228628Y-98209285D01*
X126704819Y-96685476D02*
X126704819Y-97256904D01*
X126704819Y-96971190D02*
X125704819Y-96971190D01*
X125704819Y-96971190D02*
X125847676Y-97066428D01*
X125847676Y-97066428D02*
X125942914Y-97161666D01*
X125942914Y-97161666D02*
X125990533Y-97256904D01*
X126704819Y-96209285D02*
X126704819Y-96018809D01*
X126704819Y-96018809D02*
X126657200Y-95923571D01*
X126657200Y-95923571D02*
X126609580Y-95875952D01*
X126609580Y-95875952D02*
X126466723Y-95780714D01*
X126466723Y-95780714D02*
X126276247Y-95733095D01*
X126276247Y-95733095D02*
X125895295Y-95733095D01*
X125895295Y-95733095D02*
X125800057Y-95780714D01*
X125800057Y-95780714D02*
X125752438Y-95828333D01*
X125752438Y-95828333D02*
X125704819Y-95923571D01*
X125704819Y-95923571D02*
X125704819Y-96114047D01*
X125704819Y-96114047D02*
X125752438Y-96209285D01*
X125752438Y-96209285D02*
X125800057Y-96256904D01*
X125800057Y-96256904D02*
X125895295Y-96304523D01*
X125895295Y-96304523D02*
X126133390Y-96304523D01*
X126133390Y-96304523D02*
X126228628Y-96256904D01*
X126228628Y-96256904D02*
X126276247Y-96209285D01*
X126276247Y-96209285D02*
X126323866Y-96114047D01*
X126323866Y-96114047D02*
X126323866Y-95923571D01*
X126323866Y-95923571D02*
X126276247Y-95828333D01*
X126276247Y-95828333D02*
X126228628Y-95780714D01*
X126228628Y-95780714D02*
X126133390Y-95733095D01*
X113447643Y-62866655D02*
X113380299Y-62866655D01*
X113380299Y-62866655D02*
X113245612Y-62799311D01*
X113245612Y-62799311D02*
X113178269Y-62731968D01*
X113178269Y-62731968D02*
X113110925Y-62597281D01*
X113110925Y-62597281D02*
X113110925Y-62462594D01*
X113110925Y-62462594D02*
X113144597Y-62361579D01*
X113144597Y-62361579D02*
X113245612Y-62193220D01*
X113245612Y-62193220D02*
X113346627Y-62092205D01*
X113346627Y-62092205D02*
X113514986Y-61991189D01*
X113514986Y-61991189D02*
X113616001Y-61957518D01*
X113616001Y-61957518D02*
X113750688Y-61957518D01*
X113750688Y-61957518D02*
X113885375Y-62024861D01*
X113885375Y-62024861D02*
X113952719Y-62092205D01*
X113952719Y-62092205D02*
X114020062Y-62226892D01*
X114020062Y-62226892D02*
X114020062Y-62294235D01*
X114693497Y-62832983D02*
X114558810Y-62698296D01*
X114558810Y-62698296D02*
X114457795Y-62664624D01*
X114457795Y-62664624D02*
X114390452Y-62664624D01*
X114390452Y-62664624D02*
X114222093Y-62698296D01*
X114222093Y-62698296D02*
X114053734Y-62799311D01*
X114053734Y-62799311D02*
X113784360Y-63068685D01*
X113784360Y-63068685D02*
X113750688Y-63169701D01*
X113750688Y-63169701D02*
X113750688Y-63237044D01*
X113750688Y-63237044D02*
X113784360Y-63338059D01*
X113784360Y-63338059D02*
X113919047Y-63472746D01*
X113919047Y-63472746D02*
X114020062Y-63506418D01*
X114020062Y-63506418D02*
X114087406Y-63506418D01*
X114087406Y-63506418D02*
X114188421Y-63472746D01*
X114188421Y-63472746D02*
X114356780Y-63304388D01*
X114356780Y-63304388D02*
X114390452Y-63203372D01*
X114390452Y-63203372D02*
X114390452Y-63136029D01*
X114390452Y-63136029D02*
X114356780Y-63035014D01*
X114356780Y-63035014D02*
X114222093Y-62900327D01*
X114222093Y-62900327D02*
X114121078Y-62866655D01*
X114121078Y-62866655D02*
X114053734Y-62866655D01*
X114053734Y-62866655D02*
X113952719Y-62900327D01*
X126597142Y-65439580D02*
X126549523Y-65487200D01*
X126549523Y-65487200D02*
X126406666Y-65534819D01*
X126406666Y-65534819D02*
X126311428Y-65534819D01*
X126311428Y-65534819D02*
X126168571Y-65487200D01*
X126168571Y-65487200D02*
X126073333Y-65391961D01*
X126073333Y-65391961D02*
X126025714Y-65296723D01*
X126025714Y-65296723D02*
X125978095Y-65106247D01*
X125978095Y-65106247D02*
X125978095Y-64963390D01*
X125978095Y-64963390D02*
X126025714Y-64772914D01*
X126025714Y-64772914D02*
X126073333Y-64677676D01*
X126073333Y-64677676D02*
X126168571Y-64582438D01*
X126168571Y-64582438D02*
X126311428Y-64534819D01*
X126311428Y-64534819D02*
X126406666Y-64534819D01*
X126406666Y-64534819D02*
X126549523Y-64582438D01*
X126549523Y-64582438D02*
X126597142Y-64630057D01*
X127454285Y-64534819D02*
X127263809Y-64534819D01*
X127263809Y-64534819D02*
X127168571Y-64582438D01*
X127168571Y-64582438D02*
X127120952Y-64630057D01*
X127120952Y-64630057D02*
X127025714Y-64772914D01*
X127025714Y-64772914D02*
X126978095Y-64963390D01*
X126978095Y-64963390D02*
X126978095Y-65344342D01*
X126978095Y-65344342D02*
X127025714Y-65439580D01*
X127025714Y-65439580D02*
X127073333Y-65487200D01*
X127073333Y-65487200D02*
X127168571Y-65534819D01*
X127168571Y-65534819D02*
X127359047Y-65534819D01*
X127359047Y-65534819D02*
X127454285Y-65487200D01*
X127454285Y-65487200D02*
X127501904Y-65439580D01*
X127501904Y-65439580D02*
X127549523Y-65344342D01*
X127549523Y-65344342D02*
X127549523Y-65106247D01*
X127549523Y-65106247D02*
X127501904Y-65011009D01*
X127501904Y-65011009D02*
X127454285Y-64963390D01*
X127454285Y-64963390D02*
X127359047Y-64915771D01*
X127359047Y-64915771D02*
X127168571Y-64915771D01*
X127168571Y-64915771D02*
X127073333Y-64963390D01*
X127073333Y-64963390D02*
X127025714Y-65011009D01*
X127025714Y-65011009D02*
X126978095Y-65106247D01*
X127930476Y-64630057D02*
X127978095Y-64582438D01*
X127978095Y-64582438D02*
X128073333Y-64534819D01*
X128073333Y-64534819D02*
X128311428Y-64534819D01*
X128311428Y-64534819D02*
X128406666Y-64582438D01*
X128406666Y-64582438D02*
X128454285Y-64630057D01*
X128454285Y-64630057D02*
X128501904Y-64725295D01*
X128501904Y-64725295D02*
X128501904Y-64820533D01*
X128501904Y-64820533D02*
X128454285Y-64963390D01*
X128454285Y-64963390D02*
X127882857Y-65534819D01*
X127882857Y-65534819D02*
X128501904Y-65534819D01*
X119351905Y-103084819D02*
X119351905Y-102084819D01*
X119351905Y-102084819D02*
X119590000Y-102084819D01*
X119590000Y-102084819D02*
X119732857Y-102132438D01*
X119732857Y-102132438D02*
X119828095Y-102227676D01*
X119828095Y-102227676D02*
X119875714Y-102322914D01*
X119875714Y-102322914D02*
X119923333Y-102513390D01*
X119923333Y-102513390D02*
X119923333Y-102656247D01*
X119923333Y-102656247D02*
X119875714Y-102846723D01*
X119875714Y-102846723D02*
X119828095Y-102941961D01*
X119828095Y-102941961D02*
X119732857Y-103037200D01*
X119732857Y-103037200D02*
X119590000Y-103084819D01*
X119590000Y-103084819D02*
X119351905Y-103084819D01*
X120256667Y-102084819D02*
X120923333Y-102084819D01*
X120923333Y-102084819D02*
X120494762Y-103084819D01*
X121555319Y-83860856D02*
X122262426Y-83153750D01*
X122262426Y-83153750D02*
X122430785Y-83322108D01*
X122430785Y-83322108D02*
X122498128Y-83456795D01*
X122498128Y-83456795D02*
X122498128Y-83591482D01*
X122498128Y-83591482D02*
X122464456Y-83692498D01*
X122464456Y-83692498D02*
X122363441Y-83860856D01*
X122363441Y-83860856D02*
X122262426Y-83961872D01*
X122262426Y-83961872D02*
X122094067Y-84062887D01*
X122094067Y-84062887D02*
X121993052Y-84096559D01*
X121993052Y-84096559D02*
X121858365Y-84096559D01*
X121858365Y-84096559D02*
X121723678Y-84029215D01*
X121723678Y-84029215D02*
X121555319Y-83860856D01*
X122868517Y-83894528D02*
X122935861Y-83894528D01*
X122935861Y-83894528D02*
X123036876Y-83928200D01*
X123036876Y-83928200D02*
X123205235Y-84096559D01*
X123205235Y-84096559D02*
X123238907Y-84197574D01*
X123238907Y-84197574D02*
X123238907Y-84264917D01*
X123238907Y-84264917D02*
X123205235Y-84365933D01*
X123205235Y-84365933D02*
X123137891Y-84433276D01*
X123137891Y-84433276D02*
X123003204Y-84500620D01*
X123003204Y-84500620D02*
X122195082Y-84500620D01*
X122195082Y-84500620D02*
X122632815Y-84938352D01*
X123669343Y-66878160D02*
X123096923Y-67450580D01*
X123096923Y-67450580D02*
X123063251Y-67551595D01*
X123063251Y-67551595D02*
X123063251Y-67618939D01*
X123063251Y-67618939D02*
X123096923Y-67719954D01*
X123096923Y-67719954D02*
X123231610Y-67854641D01*
X123231610Y-67854641D02*
X123332625Y-67888313D01*
X123332625Y-67888313D02*
X123399969Y-67888313D01*
X123399969Y-67888313D02*
X123500984Y-67854641D01*
X123500984Y-67854641D02*
X124073404Y-67282221D01*
X124713167Y-67921985D02*
X124578480Y-67787298D01*
X124578480Y-67787298D02*
X124477465Y-67753626D01*
X124477465Y-67753626D02*
X124410121Y-67753626D01*
X124410121Y-67753626D02*
X124241762Y-67787298D01*
X124241762Y-67787298D02*
X124073404Y-67888313D01*
X124073404Y-67888313D02*
X123804030Y-68157687D01*
X123804030Y-68157687D02*
X123770358Y-68258702D01*
X123770358Y-68258702D02*
X123770358Y-68326046D01*
X123770358Y-68326046D02*
X123804030Y-68427061D01*
X123804030Y-68427061D02*
X123938717Y-68561748D01*
X123938717Y-68561748D02*
X124039732Y-68595420D01*
X124039732Y-68595420D02*
X124107075Y-68595420D01*
X124107075Y-68595420D02*
X124208091Y-68561748D01*
X124208091Y-68561748D02*
X124376449Y-68393389D01*
X124376449Y-68393389D02*
X124410121Y-68292374D01*
X124410121Y-68292374D02*
X124410121Y-68225030D01*
X124410121Y-68225030D02*
X124376449Y-68124015D01*
X124376449Y-68124015D02*
X124241762Y-67989328D01*
X124241762Y-67989328D02*
X124140747Y-67955656D01*
X124140747Y-67955656D02*
X124073404Y-67955656D01*
X124073404Y-67955656D02*
X123972388Y-67989328D01*
X105094819Y-106307857D02*
X104618628Y-106641190D01*
X105094819Y-106879285D02*
X104094819Y-106879285D01*
X104094819Y-106879285D02*
X104094819Y-106498333D01*
X104094819Y-106498333D02*
X104142438Y-106403095D01*
X104142438Y-106403095D02*
X104190057Y-106355476D01*
X104190057Y-106355476D02*
X104285295Y-106307857D01*
X104285295Y-106307857D02*
X104428152Y-106307857D01*
X104428152Y-106307857D02*
X104523390Y-106355476D01*
X104523390Y-106355476D02*
X104571009Y-106403095D01*
X104571009Y-106403095D02*
X104618628Y-106498333D01*
X104618628Y-106498333D02*
X104618628Y-106879285D01*
X104190057Y-105926904D02*
X104142438Y-105879285D01*
X104142438Y-105879285D02*
X104094819Y-105784047D01*
X104094819Y-105784047D02*
X104094819Y-105545952D01*
X104094819Y-105545952D02*
X104142438Y-105450714D01*
X104142438Y-105450714D02*
X104190057Y-105403095D01*
X104190057Y-105403095D02*
X104285295Y-105355476D01*
X104285295Y-105355476D02*
X104380533Y-105355476D01*
X104380533Y-105355476D02*
X104523390Y-105403095D01*
X104523390Y-105403095D02*
X105094819Y-105974523D01*
X105094819Y-105974523D02*
X105094819Y-105355476D01*
X104428152Y-104498333D02*
X105094819Y-104498333D01*
X104047200Y-104736428D02*
X104761485Y-104974523D01*
X104761485Y-104974523D02*
X104761485Y-104355476D01*
X123625319Y-81789821D02*
X124332426Y-81082715D01*
X124332426Y-81082715D02*
X124500785Y-81251073D01*
X124500785Y-81251073D02*
X124568128Y-81385760D01*
X124568128Y-81385760D02*
X124568128Y-81520447D01*
X124568128Y-81520447D02*
X124534456Y-81621463D01*
X124534456Y-81621463D02*
X124433441Y-81789821D01*
X124433441Y-81789821D02*
X124332426Y-81890837D01*
X124332426Y-81890837D02*
X124164067Y-81991852D01*
X124164067Y-81991852D02*
X124063052Y-82025524D01*
X124063052Y-82025524D02*
X123928365Y-82025524D01*
X123928365Y-82025524D02*
X123793678Y-81958180D01*
X123793678Y-81958180D02*
X123625319Y-81789821D01*
X125342578Y-82092867D02*
X125207891Y-81958180D01*
X125207891Y-81958180D02*
X125106876Y-81924508D01*
X125106876Y-81924508D02*
X125039533Y-81924508D01*
X125039533Y-81924508D02*
X124871174Y-81958180D01*
X124871174Y-81958180D02*
X124702815Y-82059195D01*
X124702815Y-82059195D02*
X124433441Y-82328569D01*
X124433441Y-82328569D02*
X124399769Y-82429585D01*
X124399769Y-82429585D02*
X124399769Y-82496928D01*
X124399769Y-82496928D02*
X124433441Y-82597943D01*
X124433441Y-82597943D02*
X124568128Y-82732630D01*
X124568128Y-82732630D02*
X124669143Y-82766302D01*
X124669143Y-82766302D02*
X124736487Y-82766302D01*
X124736487Y-82766302D02*
X124837502Y-82732630D01*
X124837502Y-82732630D02*
X125005861Y-82564272D01*
X125005861Y-82564272D02*
X125039533Y-82463256D01*
X125039533Y-82463256D02*
X125039533Y-82395913D01*
X125039533Y-82395913D02*
X125005861Y-82294898D01*
X125005861Y-82294898D02*
X124871174Y-82160211D01*
X124871174Y-82160211D02*
X124770159Y-82126539D01*
X124770159Y-82126539D02*
X124702815Y-82126539D01*
X124702815Y-82126539D02*
X124601800Y-82160211D01*
X116010925Y-65999937D02*
X115943581Y-65999937D01*
X115943581Y-65999937D02*
X115808894Y-65932593D01*
X115808894Y-65932593D02*
X115741551Y-65865250D01*
X115741551Y-65865250D02*
X115674207Y-65730563D01*
X115674207Y-65730563D02*
X115674207Y-65595876D01*
X115674207Y-65595876D02*
X115707879Y-65494861D01*
X115707879Y-65494861D02*
X115808894Y-65326502D01*
X115808894Y-65326502D02*
X115909909Y-65225487D01*
X115909909Y-65225487D02*
X116078268Y-65124471D01*
X116078268Y-65124471D02*
X116179283Y-65090800D01*
X116179283Y-65090800D02*
X116313970Y-65090800D01*
X116313970Y-65090800D02*
X116448657Y-65158143D01*
X116448657Y-65158143D02*
X116516001Y-65225487D01*
X116516001Y-65225487D02*
X116583344Y-65360174D01*
X116583344Y-65360174D02*
X116583344Y-65427517D01*
X117290451Y-65999937D02*
X116953734Y-65663219D01*
X116953734Y-65663219D02*
X116583344Y-65966265D01*
X116583344Y-65966265D02*
X116650688Y-65966265D01*
X116650688Y-65966265D02*
X116751703Y-65999937D01*
X116751703Y-65999937D02*
X116920062Y-66168296D01*
X116920062Y-66168296D02*
X116953734Y-66269311D01*
X116953734Y-66269311D02*
X116953734Y-66336654D01*
X116953734Y-66336654D02*
X116920062Y-66437670D01*
X116920062Y-66437670D02*
X116751703Y-66606028D01*
X116751703Y-66606028D02*
X116650688Y-66639700D01*
X116650688Y-66639700D02*
X116583344Y-66639700D01*
X116583344Y-66639700D02*
X116482329Y-66606028D01*
X116482329Y-66606028D02*
X116313970Y-66437670D01*
X116313970Y-66437670D02*
X116280299Y-66336654D01*
X116280299Y-66336654D02*
X116280299Y-66269311D01*
X117761856Y-66471342D02*
X117829199Y-66538685D01*
X117829199Y-66538685D02*
X117862871Y-66639700D01*
X117862871Y-66639700D02*
X117862871Y-66707044D01*
X117862871Y-66707044D02*
X117829199Y-66808059D01*
X117829199Y-66808059D02*
X117728184Y-66976418D01*
X117728184Y-66976418D02*
X117559825Y-67144777D01*
X117559825Y-67144777D02*
X117391467Y-67245792D01*
X117391467Y-67245792D02*
X117290451Y-67279464D01*
X117290451Y-67279464D02*
X117223108Y-67279464D01*
X117223108Y-67279464D02*
X117122093Y-67245792D01*
X117122093Y-67245792D02*
X117054749Y-67178448D01*
X117054749Y-67178448D02*
X117021077Y-67077433D01*
X117021077Y-67077433D02*
X117021077Y-67010090D01*
X117021077Y-67010090D02*
X117054749Y-66909074D01*
X117054749Y-66909074D02*
X117155764Y-66740716D01*
X117155764Y-66740716D02*
X117324123Y-66572357D01*
X117324123Y-66572357D02*
X117492482Y-66471342D01*
X117492482Y-66471342D02*
X117593497Y-66437670D01*
X117593497Y-66437670D02*
X117660841Y-66437670D01*
X117660841Y-66437670D02*
X117761856Y-66471342D01*
X130194819Y-61109523D02*
X130909104Y-61109523D01*
X130909104Y-61109523D02*
X131051961Y-61157142D01*
X131051961Y-61157142D02*
X131147200Y-61252380D01*
X131147200Y-61252380D02*
X131194819Y-61395237D01*
X131194819Y-61395237D02*
X131194819Y-61490475D01*
X131194819Y-60109523D02*
X131194819Y-60680951D01*
X131194819Y-60395237D02*
X130194819Y-60395237D01*
X130194819Y-60395237D02*
X130337676Y-60490475D01*
X130337676Y-60490475D02*
X130432914Y-60585713D01*
X130432914Y-60585713D02*
X130480533Y-60680951D01*
X131194819Y-59157142D02*
X131194819Y-59728570D01*
X131194819Y-59442856D02*
X130194819Y-59442856D01*
X130194819Y-59442856D02*
X130337676Y-59538094D01*
X130337676Y-59538094D02*
X130432914Y-59633332D01*
X130432914Y-59633332D02*
X130480533Y-59728570D01*
X108347643Y-67966655D02*
X108280299Y-67966655D01*
X108280299Y-67966655D02*
X108145612Y-67899311D01*
X108145612Y-67899311D02*
X108078269Y-67831968D01*
X108078269Y-67831968D02*
X108010925Y-67697281D01*
X108010925Y-67697281D02*
X108010925Y-67562594D01*
X108010925Y-67562594D02*
X108044597Y-67461579D01*
X108044597Y-67461579D02*
X108145612Y-67293220D01*
X108145612Y-67293220D02*
X108246627Y-67192205D01*
X108246627Y-67192205D02*
X108414986Y-67091189D01*
X108414986Y-67091189D02*
X108516001Y-67057518D01*
X108516001Y-67057518D02*
X108650688Y-67057518D01*
X108650688Y-67057518D02*
X108785375Y-67124861D01*
X108785375Y-67124861D02*
X108852719Y-67192205D01*
X108852719Y-67192205D02*
X108920062Y-67326892D01*
X108920062Y-67326892D02*
X108920062Y-67394235D01*
X109627169Y-67966655D02*
X109290452Y-67629937D01*
X109290452Y-67629937D02*
X108920062Y-67932983D01*
X108920062Y-67932983D02*
X108987406Y-67932983D01*
X108987406Y-67932983D02*
X109088421Y-67966655D01*
X109088421Y-67966655D02*
X109256780Y-68135014D01*
X109256780Y-68135014D02*
X109290452Y-68236029D01*
X109290452Y-68236029D02*
X109290452Y-68303372D01*
X109290452Y-68303372D02*
X109256780Y-68404388D01*
X109256780Y-68404388D02*
X109088421Y-68572746D01*
X109088421Y-68572746D02*
X108987406Y-68606418D01*
X108987406Y-68606418D02*
X108920062Y-68606418D01*
X108920062Y-68606418D02*
X108819047Y-68572746D01*
X108819047Y-68572746D02*
X108650688Y-68404388D01*
X108650688Y-68404388D02*
X108617017Y-68303372D01*
X108617017Y-68303372D02*
X108617017Y-68236029D01*
X119949580Y-86812857D02*
X119997200Y-86860476D01*
X119997200Y-86860476D02*
X120044819Y-87003333D01*
X120044819Y-87003333D02*
X120044819Y-87098571D01*
X120044819Y-87098571D02*
X119997200Y-87241428D01*
X119997200Y-87241428D02*
X119901961Y-87336666D01*
X119901961Y-87336666D02*
X119806723Y-87384285D01*
X119806723Y-87384285D02*
X119616247Y-87431904D01*
X119616247Y-87431904D02*
X119473390Y-87431904D01*
X119473390Y-87431904D02*
X119282914Y-87384285D01*
X119282914Y-87384285D02*
X119187676Y-87336666D01*
X119187676Y-87336666D02*
X119092438Y-87241428D01*
X119092438Y-87241428D02*
X119044819Y-87098571D01*
X119044819Y-87098571D02*
X119044819Y-87003333D01*
X119044819Y-87003333D02*
X119092438Y-86860476D01*
X119092438Y-86860476D02*
X119140057Y-86812857D01*
X119044819Y-85908095D02*
X119044819Y-86384285D01*
X119044819Y-86384285D02*
X119521009Y-86431904D01*
X119521009Y-86431904D02*
X119473390Y-86384285D01*
X119473390Y-86384285D02*
X119425771Y-86289047D01*
X119425771Y-86289047D02*
X119425771Y-86050952D01*
X119425771Y-86050952D02*
X119473390Y-85955714D01*
X119473390Y-85955714D02*
X119521009Y-85908095D01*
X119521009Y-85908095D02*
X119616247Y-85860476D01*
X119616247Y-85860476D02*
X119854342Y-85860476D01*
X119854342Y-85860476D02*
X119949580Y-85908095D01*
X119949580Y-85908095D02*
X119997200Y-85955714D01*
X119997200Y-85955714D02*
X120044819Y-86050952D01*
X120044819Y-86050952D02*
X120044819Y-86289047D01*
X120044819Y-86289047D02*
X119997200Y-86384285D01*
X119997200Y-86384285D02*
X119949580Y-86431904D01*
X119044819Y-85527142D02*
X119044819Y-84860476D01*
X119044819Y-84860476D02*
X120044819Y-85289047D01*
D11*
X128273371Y-109625181D02*
X129301466Y-109625181D01*
X129301466Y-109625181D02*
X129422418Y-109564704D01*
X129422418Y-109564704D02*
X129482895Y-109504228D01*
X129482895Y-109504228D02*
X129543371Y-109383276D01*
X129543371Y-109383276D02*
X129543371Y-109141371D01*
X129543371Y-109141371D02*
X129482895Y-109020419D01*
X129482895Y-109020419D02*
X129422418Y-108959942D01*
X129422418Y-108959942D02*
X129301466Y-108899466D01*
X129301466Y-108899466D02*
X128273371Y-108899466D01*
X129543371Y-107629466D02*
X129543371Y-108355181D01*
X129543371Y-107992324D02*
X128273371Y-107992324D01*
X128273371Y-107992324D02*
X128454799Y-108113276D01*
X128454799Y-108113276D02*
X128575752Y-108234228D01*
X128575752Y-108234228D02*
X128636228Y-108355181D01*
X128696704Y-106540895D02*
X129543371Y-106540895D01*
X128212895Y-106843276D02*
X129120037Y-107145657D01*
X129120037Y-107145657D02*
X129120037Y-106359466D01*
D10*
X124927142Y-97674580D02*
X124879523Y-97722200D01*
X124879523Y-97722200D02*
X124736666Y-97769819D01*
X124736666Y-97769819D02*
X124641428Y-97769819D01*
X124641428Y-97769819D02*
X124498571Y-97722200D01*
X124498571Y-97722200D02*
X124403333Y-97626961D01*
X124403333Y-97626961D02*
X124355714Y-97531723D01*
X124355714Y-97531723D02*
X124308095Y-97341247D01*
X124308095Y-97341247D02*
X124308095Y-97198390D01*
X124308095Y-97198390D02*
X124355714Y-97007914D01*
X124355714Y-97007914D02*
X124403333Y-96912676D01*
X124403333Y-96912676D02*
X124498571Y-96817438D01*
X124498571Y-96817438D02*
X124641428Y-96769819D01*
X124641428Y-96769819D02*
X124736666Y-96769819D01*
X124736666Y-96769819D02*
X124879523Y-96817438D01*
X124879523Y-96817438D02*
X124927142Y-96865057D01*
X125831904Y-96769819D02*
X125355714Y-96769819D01*
X125355714Y-96769819D02*
X125308095Y-97246009D01*
X125308095Y-97246009D02*
X125355714Y-97198390D01*
X125355714Y-97198390D02*
X125450952Y-97150771D01*
X125450952Y-97150771D02*
X125689047Y-97150771D01*
X125689047Y-97150771D02*
X125784285Y-97198390D01*
X125784285Y-97198390D02*
X125831904Y-97246009D01*
X125831904Y-97246009D02*
X125879523Y-97341247D01*
X125879523Y-97341247D02*
X125879523Y-97579342D01*
X125879523Y-97579342D02*
X125831904Y-97674580D01*
X125831904Y-97674580D02*
X125784285Y-97722200D01*
X125784285Y-97722200D02*
X125689047Y-97769819D01*
X125689047Y-97769819D02*
X125450952Y-97769819D01*
X125450952Y-97769819D02*
X125355714Y-97722200D01*
X125355714Y-97722200D02*
X125308095Y-97674580D01*
X126355714Y-97769819D02*
X126546190Y-97769819D01*
X126546190Y-97769819D02*
X126641428Y-97722200D01*
X126641428Y-97722200D02*
X126689047Y-97674580D01*
X126689047Y-97674580D02*
X126784285Y-97531723D01*
X126784285Y-97531723D02*
X126831904Y-97341247D01*
X126831904Y-97341247D02*
X126831904Y-96960295D01*
X126831904Y-96960295D02*
X126784285Y-96865057D01*
X126784285Y-96865057D02*
X126736666Y-96817438D01*
X126736666Y-96817438D02*
X126641428Y-96769819D01*
X126641428Y-96769819D02*
X126450952Y-96769819D01*
X126450952Y-96769819D02*
X126355714Y-96817438D01*
X126355714Y-96817438D02*
X126308095Y-96865057D01*
X126308095Y-96865057D02*
X126260476Y-96960295D01*
X126260476Y-96960295D02*
X126260476Y-97198390D01*
X126260476Y-97198390D02*
X126308095Y-97293628D01*
X126308095Y-97293628D02*
X126355714Y-97341247D01*
X126355714Y-97341247D02*
X126450952Y-97388866D01*
X126450952Y-97388866D02*
X126641428Y-97388866D01*
X126641428Y-97388866D02*
X126736666Y-97341247D01*
X126736666Y-97341247D02*
X126784285Y-97293628D01*
X126784285Y-97293628D02*
X126831904Y-97198390D01*
D11*
X109199730Y-87199371D02*
X109199730Y-88227466D01*
X109199730Y-88227466D02*
X109260207Y-88348418D01*
X109260207Y-88348418D02*
X109320683Y-88408895D01*
X109320683Y-88408895D02*
X109441635Y-88469371D01*
X109441635Y-88469371D02*
X109683540Y-88469371D01*
X109683540Y-88469371D02*
X109804492Y-88408895D01*
X109804492Y-88408895D02*
X109864969Y-88348418D01*
X109864969Y-88348418D02*
X109925445Y-88227466D01*
X109925445Y-88227466D02*
X109925445Y-87199371D01*
X110590683Y-88469371D02*
X110832587Y-88469371D01*
X110832587Y-88469371D02*
X110953540Y-88408895D01*
X110953540Y-88408895D02*
X111014016Y-88348418D01*
X111014016Y-88348418D02*
X111134968Y-88166990D01*
X111134968Y-88166990D02*
X111195445Y-87925085D01*
X111195445Y-87925085D02*
X111195445Y-87441275D01*
X111195445Y-87441275D02*
X111134968Y-87320323D01*
X111134968Y-87320323D02*
X111074492Y-87259847D01*
X111074492Y-87259847D02*
X110953540Y-87199371D01*
X110953540Y-87199371D02*
X110711635Y-87199371D01*
X110711635Y-87199371D02*
X110590683Y-87259847D01*
X110590683Y-87259847D02*
X110530206Y-87320323D01*
X110530206Y-87320323D02*
X110469730Y-87441275D01*
X110469730Y-87441275D02*
X110469730Y-87743656D01*
X110469730Y-87743656D02*
X110530206Y-87864609D01*
X110530206Y-87864609D02*
X110590683Y-87925085D01*
X110590683Y-87925085D02*
X110711635Y-87985561D01*
X110711635Y-87985561D02*
X110953540Y-87985561D01*
X110953540Y-87985561D02*
X111074492Y-87925085D01*
X111074492Y-87925085D02*
X111134968Y-87864609D01*
X111134968Y-87864609D02*
X111195445Y-87743656D01*
D10*
X122513228Y-80311069D02*
X122614243Y-79738650D01*
X122109167Y-79907008D02*
X122816274Y-79199902D01*
X122816274Y-79199902D02*
X123085648Y-79469276D01*
X123085648Y-79469276D02*
X123119320Y-79570291D01*
X123119320Y-79570291D02*
X123119320Y-79637634D01*
X123119320Y-79637634D02*
X123085648Y-79738650D01*
X123085648Y-79738650D02*
X122984633Y-79839665D01*
X122984633Y-79839665D02*
X122883617Y-79873337D01*
X122883617Y-79873337D02*
X122816274Y-79873337D01*
X122816274Y-79873337D02*
X122715259Y-79839665D01*
X122715259Y-79839665D02*
X122445885Y-79570291D01*
X123321350Y-80311069D02*
X123287678Y-80210054D01*
X123287678Y-80210054D02*
X123287678Y-80142711D01*
X123287678Y-80142711D02*
X123321350Y-80041695D01*
X123321350Y-80041695D02*
X123355022Y-80008024D01*
X123355022Y-80008024D02*
X123456037Y-79974352D01*
X123456037Y-79974352D02*
X123523381Y-79974352D01*
X123523381Y-79974352D02*
X123624396Y-80008024D01*
X123624396Y-80008024D02*
X123759083Y-80142711D01*
X123759083Y-80142711D02*
X123792755Y-80243726D01*
X123792755Y-80243726D02*
X123792755Y-80311069D01*
X123792755Y-80311069D02*
X123759083Y-80412085D01*
X123759083Y-80412085D02*
X123725411Y-80445756D01*
X123725411Y-80445756D02*
X123624396Y-80479428D01*
X123624396Y-80479428D02*
X123557052Y-80479428D01*
X123557052Y-80479428D02*
X123456037Y-80445756D01*
X123456037Y-80445756D02*
X123321350Y-80311069D01*
X123321350Y-80311069D02*
X123220335Y-80277398D01*
X123220335Y-80277398D02*
X123152991Y-80277398D01*
X123152991Y-80277398D02*
X123051976Y-80311069D01*
X123051976Y-80311069D02*
X122917289Y-80445756D01*
X122917289Y-80445756D02*
X122883617Y-80546772D01*
X122883617Y-80546772D02*
X122883617Y-80614115D01*
X122883617Y-80614115D02*
X122917289Y-80715130D01*
X122917289Y-80715130D02*
X123051976Y-80849817D01*
X123051976Y-80849817D02*
X123152991Y-80883489D01*
X123152991Y-80883489D02*
X123220335Y-80883489D01*
X123220335Y-80883489D02*
X123321350Y-80849817D01*
X123321350Y-80849817D02*
X123456037Y-80715130D01*
X123456037Y-80715130D02*
X123489709Y-80614115D01*
X123489709Y-80614115D02*
X123489709Y-80546772D01*
X123489709Y-80546772D02*
X123456037Y-80445756D01*
X128084580Y-43162857D02*
X128132200Y-43210476D01*
X128132200Y-43210476D02*
X128179819Y-43353333D01*
X128179819Y-43353333D02*
X128179819Y-43448571D01*
X128179819Y-43448571D02*
X128132200Y-43591428D01*
X128132200Y-43591428D02*
X128036961Y-43686666D01*
X128036961Y-43686666D02*
X127941723Y-43734285D01*
X127941723Y-43734285D02*
X127751247Y-43781904D01*
X127751247Y-43781904D02*
X127608390Y-43781904D01*
X127608390Y-43781904D02*
X127417914Y-43734285D01*
X127417914Y-43734285D02*
X127322676Y-43686666D01*
X127322676Y-43686666D02*
X127227438Y-43591428D01*
X127227438Y-43591428D02*
X127179819Y-43448571D01*
X127179819Y-43448571D02*
X127179819Y-43353333D01*
X127179819Y-43353333D02*
X127227438Y-43210476D01*
X127227438Y-43210476D02*
X127275057Y-43162857D01*
X127179819Y-42305714D02*
X127179819Y-42496190D01*
X127179819Y-42496190D02*
X127227438Y-42591428D01*
X127227438Y-42591428D02*
X127275057Y-42639047D01*
X127275057Y-42639047D02*
X127417914Y-42734285D01*
X127417914Y-42734285D02*
X127608390Y-42781904D01*
X127608390Y-42781904D02*
X127989342Y-42781904D01*
X127989342Y-42781904D02*
X128084580Y-42734285D01*
X128084580Y-42734285D02*
X128132200Y-42686666D01*
X128132200Y-42686666D02*
X128179819Y-42591428D01*
X128179819Y-42591428D02*
X128179819Y-42400952D01*
X128179819Y-42400952D02*
X128132200Y-42305714D01*
X128132200Y-42305714D02*
X128084580Y-42258095D01*
X128084580Y-42258095D02*
X127989342Y-42210476D01*
X127989342Y-42210476D02*
X127751247Y-42210476D01*
X127751247Y-42210476D02*
X127656009Y-42258095D01*
X127656009Y-42258095D02*
X127608390Y-42305714D01*
X127608390Y-42305714D02*
X127560771Y-42400952D01*
X127560771Y-42400952D02*
X127560771Y-42591428D01*
X127560771Y-42591428D02*
X127608390Y-42686666D01*
X127608390Y-42686666D02*
X127656009Y-42734285D01*
X127656009Y-42734285D02*
X127751247Y-42781904D01*
X127179819Y-41877142D02*
X127179819Y-41258095D01*
X127179819Y-41258095D02*
X127560771Y-41591428D01*
X127560771Y-41591428D02*
X127560771Y-41448571D01*
X127560771Y-41448571D02*
X127608390Y-41353333D01*
X127608390Y-41353333D02*
X127656009Y-41305714D01*
X127656009Y-41305714D02*
X127751247Y-41258095D01*
X127751247Y-41258095D02*
X127989342Y-41258095D01*
X127989342Y-41258095D02*
X128084580Y-41305714D01*
X128084580Y-41305714D02*
X128132200Y-41353333D01*
X128132200Y-41353333D02*
X128179819Y-41448571D01*
X128179819Y-41448571D02*
X128179819Y-41734285D01*
X128179819Y-41734285D02*
X128132200Y-41829523D01*
X128132200Y-41829523D02*
X128084580Y-41877142D01*
X114777142Y-102344580D02*
X114729523Y-102392200D01*
X114729523Y-102392200D02*
X114586666Y-102439819D01*
X114586666Y-102439819D02*
X114491428Y-102439819D01*
X114491428Y-102439819D02*
X114348571Y-102392200D01*
X114348571Y-102392200D02*
X114253333Y-102296961D01*
X114253333Y-102296961D02*
X114205714Y-102201723D01*
X114205714Y-102201723D02*
X114158095Y-102011247D01*
X114158095Y-102011247D02*
X114158095Y-101868390D01*
X114158095Y-101868390D02*
X114205714Y-101677914D01*
X114205714Y-101677914D02*
X114253333Y-101582676D01*
X114253333Y-101582676D02*
X114348571Y-101487438D01*
X114348571Y-101487438D02*
X114491428Y-101439819D01*
X114491428Y-101439819D02*
X114586666Y-101439819D01*
X114586666Y-101439819D02*
X114729523Y-101487438D01*
X114729523Y-101487438D02*
X114777142Y-101535057D01*
X115158095Y-101535057D02*
X115205714Y-101487438D01*
X115205714Y-101487438D02*
X115300952Y-101439819D01*
X115300952Y-101439819D02*
X115539047Y-101439819D01*
X115539047Y-101439819D02*
X115634285Y-101487438D01*
X115634285Y-101487438D02*
X115681904Y-101535057D01*
X115681904Y-101535057D02*
X115729523Y-101630295D01*
X115729523Y-101630295D02*
X115729523Y-101725533D01*
X115729523Y-101725533D02*
X115681904Y-101868390D01*
X115681904Y-101868390D02*
X115110476Y-102439819D01*
X115110476Y-102439819D02*
X115729523Y-102439819D01*
X116300952Y-101868390D02*
X116205714Y-101820771D01*
X116205714Y-101820771D02*
X116158095Y-101773152D01*
X116158095Y-101773152D02*
X116110476Y-101677914D01*
X116110476Y-101677914D02*
X116110476Y-101630295D01*
X116110476Y-101630295D02*
X116158095Y-101535057D01*
X116158095Y-101535057D02*
X116205714Y-101487438D01*
X116205714Y-101487438D02*
X116300952Y-101439819D01*
X116300952Y-101439819D02*
X116491428Y-101439819D01*
X116491428Y-101439819D02*
X116586666Y-101487438D01*
X116586666Y-101487438D02*
X116634285Y-101535057D01*
X116634285Y-101535057D02*
X116681904Y-101630295D01*
X116681904Y-101630295D02*
X116681904Y-101677914D01*
X116681904Y-101677914D02*
X116634285Y-101773152D01*
X116634285Y-101773152D02*
X116586666Y-101820771D01*
X116586666Y-101820771D02*
X116491428Y-101868390D01*
X116491428Y-101868390D02*
X116300952Y-101868390D01*
X116300952Y-101868390D02*
X116205714Y-101916009D01*
X116205714Y-101916009D02*
X116158095Y-101963628D01*
X116158095Y-101963628D02*
X116110476Y-102058866D01*
X116110476Y-102058866D02*
X116110476Y-102249342D01*
X116110476Y-102249342D02*
X116158095Y-102344580D01*
X116158095Y-102344580D02*
X116205714Y-102392200D01*
X116205714Y-102392200D02*
X116300952Y-102439819D01*
X116300952Y-102439819D02*
X116491428Y-102439819D01*
X116491428Y-102439819D02*
X116586666Y-102392200D01*
X116586666Y-102392200D02*
X116634285Y-102344580D01*
X116634285Y-102344580D02*
X116681904Y-102249342D01*
X116681904Y-102249342D02*
X116681904Y-102058866D01*
X116681904Y-102058866D02*
X116634285Y-101963628D01*
X116634285Y-101963628D02*
X116586666Y-101916009D01*
X116586666Y-101916009D02*
X116491428Y-101868390D01*
X105094819Y-102597857D02*
X104618628Y-102931190D01*
X105094819Y-103169285D02*
X104094819Y-103169285D01*
X104094819Y-103169285D02*
X104094819Y-102788333D01*
X104094819Y-102788333D02*
X104142438Y-102693095D01*
X104142438Y-102693095D02*
X104190057Y-102645476D01*
X104190057Y-102645476D02*
X104285295Y-102597857D01*
X104285295Y-102597857D02*
X104428152Y-102597857D01*
X104428152Y-102597857D02*
X104523390Y-102645476D01*
X104523390Y-102645476D02*
X104571009Y-102693095D01*
X104571009Y-102693095D02*
X104618628Y-102788333D01*
X104618628Y-102788333D02*
X104618628Y-103169285D01*
X104094819Y-102264523D02*
X104094819Y-101645476D01*
X104094819Y-101645476D02*
X104475771Y-101978809D01*
X104475771Y-101978809D02*
X104475771Y-101835952D01*
X104475771Y-101835952D02*
X104523390Y-101740714D01*
X104523390Y-101740714D02*
X104571009Y-101693095D01*
X104571009Y-101693095D02*
X104666247Y-101645476D01*
X104666247Y-101645476D02*
X104904342Y-101645476D01*
X104904342Y-101645476D02*
X104999580Y-101693095D01*
X104999580Y-101693095D02*
X105047200Y-101740714D01*
X105047200Y-101740714D02*
X105094819Y-101835952D01*
X105094819Y-101835952D02*
X105094819Y-102121666D01*
X105094819Y-102121666D02*
X105047200Y-102216904D01*
X105047200Y-102216904D02*
X104999580Y-102264523D01*
X104094819Y-101026428D02*
X104094819Y-100931190D01*
X104094819Y-100931190D02*
X104142438Y-100835952D01*
X104142438Y-100835952D02*
X104190057Y-100788333D01*
X104190057Y-100788333D02*
X104285295Y-100740714D01*
X104285295Y-100740714D02*
X104475771Y-100693095D01*
X104475771Y-100693095D02*
X104713866Y-100693095D01*
X104713866Y-100693095D02*
X104904342Y-100740714D01*
X104904342Y-100740714D02*
X104999580Y-100788333D01*
X104999580Y-100788333D02*
X105047200Y-100835952D01*
X105047200Y-100835952D02*
X105094819Y-100931190D01*
X105094819Y-100931190D02*
X105094819Y-101026428D01*
X105094819Y-101026428D02*
X105047200Y-101121666D01*
X105047200Y-101121666D02*
X104999580Y-101169285D01*
X104999580Y-101169285D02*
X104904342Y-101216904D01*
X104904342Y-101216904D02*
X104713866Y-101264523D01*
X104713866Y-101264523D02*
X104475771Y-101264523D01*
X104475771Y-101264523D02*
X104285295Y-101216904D01*
X104285295Y-101216904D02*
X104190057Y-101169285D01*
X104190057Y-101169285D02*
X104142438Y-101121666D01*
X104142438Y-101121666D02*
X104094819Y-101026428D01*
X118140526Y-82198485D02*
X118140526Y-82265829D01*
X118140526Y-82265829D02*
X118073182Y-82400516D01*
X118073182Y-82400516D02*
X118005839Y-82467859D01*
X118005839Y-82467859D02*
X117871152Y-82535203D01*
X117871152Y-82535203D02*
X117736465Y-82535203D01*
X117736465Y-82535203D02*
X117635450Y-82501531D01*
X117635450Y-82501531D02*
X117467091Y-82400516D01*
X117467091Y-82400516D02*
X117366076Y-82299501D01*
X117366076Y-82299501D02*
X117265060Y-82131142D01*
X117265060Y-82131142D02*
X117231389Y-82030127D01*
X117231389Y-82030127D02*
X117231389Y-81895440D01*
X117231389Y-81895440D02*
X117298732Y-81760753D01*
X117298732Y-81760753D02*
X117366076Y-81693409D01*
X117366076Y-81693409D02*
X117500763Y-81626066D01*
X117500763Y-81626066D02*
X117568106Y-81626066D01*
X118342556Y-81188333D02*
X118813961Y-81659737D01*
X117904824Y-81087318D02*
X118241541Y-81760753D01*
X118241541Y-81760753D02*
X118679274Y-81323020D01*
X118409900Y-80649585D02*
X118881305Y-80178180D01*
X118881305Y-80178180D02*
X119285366Y-81188333D01*
D11*
X124201871Y-90917381D02*
X122931871Y-90917381D01*
X122931871Y-90917381D02*
X122931871Y-90615000D01*
X122931871Y-90615000D02*
X122992347Y-90433571D01*
X122992347Y-90433571D02*
X123113299Y-90312619D01*
X123113299Y-90312619D02*
X123234252Y-90252142D01*
X123234252Y-90252142D02*
X123476156Y-90191666D01*
X123476156Y-90191666D02*
X123657585Y-90191666D01*
X123657585Y-90191666D02*
X123899490Y-90252142D01*
X123899490Y-90252142D02*
X124020442Y-90312619D01*
X124020442Y-90312619D02*
X124141395Y-90433571D01*
X124141395Y-90433571D02*
X124201871Y-90615000D01*
X124201871Y-90615000D02*
X124201871Y-90917381D01*
X123355204Y-89103095D02*
X124201871Y-89103095D01*
X122871395Y-89405476D02*
X123778537Y-89707857D01*
X123778537Y-89707857D02*
X123778537Y-88921666D01*
X128008072Y-66602782D02*
X129036167Y-66602782D01*
X129036167Y-66602782D02*
X129157119Y-66542305D01*
X129157119Y-66542305D02*
X129217596Y-66481829D01*
X129217596Y-66481829D02*
X129278072Y-66360877D01*
X129278072Y-66360877D02*
X129278072Y-66118972D01*
X129278072Y-66118972D02*
X129217596Y-65998020D01*
X129217596Y-65998020D02*
X129157119Y-65937543D01*
X129157119Y-65937543D02*
X129036167Y-65877067D01*
X129036167Y-65877067D02*
X128008072Y-65877067D01*
X129278072Y-64607067D02*
X129278072Y-65332782D01*
X129278072Y-64969925D02*
X128008072Y-64969925D01*
X128008072Y-64969925D02*
X128189500Y-65090877D01*
X128189500Y-65090877D02*
X128310453Y-65211829D01*
X128310453Y-65211829D02*
X128370929Y-65332782D01*
D10*
X122273228Y-67921069D02*
X122374243Y-67348650D01*
X121869167Y-67517008D02*
X122576274Y-66809902D01*
X122576274Y-66809902D02*
X122845648Y-67079276D01*
X122845648Y-67079276D02*
X122879320Y-67180291D01*
X122879320Y-67180291D02*
X122879320Y-67247634D01*
X122879320Y-67247634D02*
X122845648Y-67348650D01*
X122845648Y-67348650D02*
X122744633Y-67449665D01*
X122744633Y-67449665D02*
X122643617Y-67483337D01*
X122643617Y-67483337D02*
X122576274Y-67483337D01*
X122576274Y-67483337D02*
X122475259Y-67449665D01*
X122475259Y-67449665D02*
X122205885Y-67180291D01*
X122946663Y-68594504D02*
X122542602Y-68190443D01*
X122744633Y-68392474D02*
X123451739Y-67685367D01*
X123451739Y-67685367D02*
X123283381Y-67719039D01*
X123283381Y-67719039D02*
X123148694Y-67719039D01*
X123148694Y-67719039D02*
X123047678Y-67685367D01*
X120463228Y-82361069D02*
X120564243Y-81788650D01*
X120059167Y-81957008D02*
X120766274Y-81249902D01*
X120766274Y-81249902D02*
X121035648Y-81519276D01*
X121035648Y-81519276D02*
X121069320Y-81620291D01*
X121069320Y-81620291D02*
X121069320Y-81687634D01*
X121069320Y-81687634D02*
X121035648Y-81788650D01*
X121035648Y-81788650D02*
X120934633Y-81889665D01*
X120934633Y-81889665D02*
X120833617Y-81923337D01*
X120833617Y-81923337D02*
X120766274Y-81923337D01*
X120766274Y-81923337D02*
X120665259Y-81889665D01*
X120665259Y-81889665D02*
X120395885Y-81620291D01*
X121810098Y-82293726D02*
X121473381Y-81957008D01*
X121473381Y-81957008D02*
X121102991Y-82260054D01*
X121102991Y-82260054D02*
X121170335Y-82260054D01*
X121170335Y-82260054D02*
X121271350Y-82293726D01*
X121271350Y-82293726D02*
X121439709Y-82462085D01*
X121439709Y-82462085D02*
X121473381Y-82563100D01*
X121473381Y-82563100D02*
X121473381Y-82630443D01*
X121473381Y-82630443D02*
X121439709Y-82731459D01*
X121439709Y-82731459D02*
X121271350Y-82899817D01*
X121271350Y-82899817D02*
X121170335Y-82933489D01*
X121170335Y-82933489D02*
X121102991Y-82933489D01*
X121102991Y-82933489D02*
X121001976Y-82899817D01*
X121001976Y-82899817D02*
X120833617Y-82731459D01*
X120833617Y-82731459D02*
X120799946Y-82630443D01*
X120799946Y-82630443D02*
X120799946Y-82563100D01*
X121697858Y-64316439D02*
X121798873Y-63744020D01*
X121293797Y-63912378D02*
X122000904Y-63205272D01*
X122000904Y-63205272D02*
X122270278Y-63474646D01*
X122270278Y-63474646D02*
X122303950Y-63575661D01*
X122303950Y-63575661D02*
X122303950Y-63643004D01*
X122303950Y-63643004D02*
X122270278Y-63744020D01*
X122270278Y-63744020D02*
X122169263Y-63845035D01*
X122169263Y-63845035D02*
X122068247Y-63878707D01*
X122068247Y-63878707D02*
X122000904Y-63878707D01*
X122000904Y-63878707D02*
X121899889Y-63845035D01*
X121899889Y-63845035D02*
X121630515Y-63575661D01*
X122606995Y-63946050D02*
X122674339Y-63946050D01*
X122674339Y-63946050D02*
X122775354Y-63979722D01*
X122775354Y-63979722D02*
X122943713Y-64148081D01*
X122943713Y-64148081D02*
X122977385Y-64249096D01*
X122977385Y-64249096D02*
X122977385Y-64316439D01*
X122977385Y-64316439D02*
X122943713Y-64417455D01*
X122943713Y-64417455D02*
X122876369Y-64484798D01*
X122876369Y-64484798D02*
X122741682Y-64552142D01*
X122741682Y-64552142D02*
X121933560Y-64552142D01*
X121933560Y-64552142D02*
X122371293Y-64989874D01*
X108554819Y-61724286D02*
X108078628Y-62057619D01*
X108554819Y-62295714D02*
X107554819Y-62295714D01*
X107554819Y-62295714D02*
X107554819Y-61914762D01*
X107554819Y-61914762D02*
X107602438Y-61819524D01*
X107602438Y-61819524D02*
X107650057Y-61771905D01*
X107650057Y-61771905D02*
X107745295Y-61724286D01*
X107745295Y-61724286D02*
X107888152Y-61724286D01*
X107888152Y-61724286D02*
X107983390Y-61771905D01*
X107983390Y-61771905D02*
X108031009Y-61819524D01*
X108031009Y-61819524D02*
X108078628Y-61914762D01*
X108078628Y-61914762D02*
X108078628Y-62295714D01*
X108507200Y-60914762D02*
X108554819Y-61010000D01*
X108554819Y-61010000D02*
X108554819Y-61200476D01*
X108554819Y-61200476D02*
X108507200Y-61295714D01*
X108507200Y-61295714D02*
X108411961Y-61343333D01*
X108411961Y-61343333D02*
X108031009Y-61343333D01*
X108031009Y-61343333D02*
X107935771Y-61295714D01*
X107935771Y-61295714D02*
X107888152Y-61200476D01*
X107888152Y-61200476D02*
X107888152Y-61010000D01*
X107888152Y-61010000D02*
X107935771Y-60914762D01*
X107935771Y-60914762D02*
X108031009Y-60867143D01*
X108031009Y-60867143D02*
X108126247Y-60867143D01*
X108126247Y-60867143D02*
X108221485Y-61343333D01*
X108507200Y-60486190D02*
X108554819Y-60390952D01*
X108554819Y-60390952D02*
X108554819Y-60200476D01*
X108554819Y-60200476D02*
X108507200Y-60105238D01*
X108507200Y-60105238D02*
X108411961Y-60057619D01*
X108411961Y-60057619D02*
X108364342Y-60057619D01*
X108364342Y-60057619D02*
X108269104Y-60105238D01*
X108269104Y-60105238D02*
X108221485Y-60200476D01*
X108221485Y-60200476D02*
X108221485Y-60343333D01*
X108221485Y-60343333D02*
X108173866Y-60438571D01*
X108173866Y-60438571D02*
X108078628Y-60486190D01*
X108078628Y-60486190D02*
X108031009Y-60486190D01*
X108031009Y-60486190D02*
X107935771Y-60438571D01*
X107935771Y-60438571D02*
X107888152Y-60343333D01*
X107888152Y-60343333D02*
X107888152Y-60200476D01*
X107888152Y-60200476D02*
X107935771Y-60105238D01*
X108507200Y-59248095D02*
X108554819Y-59343333D01*
X108554819Y-59343333D02*
X108554819Y-59533809D01*
X108554819Y-59533809D02*
X108507200Y-59629047D01*
X108507200Y-59629047D02*
X108411961Y-59676666D01*
X108411961Y-59676666D02*
X108031009Y-59676666D01*
X108031009Y-59676666D02*
X107935771Y-59629047D01*
X107935771Y-59629047D02*
X107888152Y-59533809D01*
X107888152Y-59533809D02*
X107888152Y-59343333D01*
X107888152Y-59343333D02*
X107935771Y-59248095D01*
X107935771Y-59248095D02*
X108031009Y-59200476D01*
X108031009Y-59200476D02*
X108126247Y-59200476D01*
X108126247Y-59200476D02*
X108221485Y-59676666D01*
X107888152Y-58914761D02*
X107888152Y-58533809D01*
X107554819Y-58771904D02*
X108411961Y-58771904D01*
X108411961Y-58771904D02*
X108507200Y-58724285D01*
X108507200Y-58724285D02*
X108554819Y-58629047D01*
X108554819Y-58629047D02*
X108554819Y-58533809D01*
X107650057Y-58248094D02*
X107602438Y-58200475D01*
X107602438Y-58200475D02*
X107554819Y-58105237D01*
X107554819Y-58105237D02*
X107554819Y-57867142D01*
X107554819Y-57867142D02*
X107602438Y-57771904D01*
X107602438Y-57771904D02*
X107650057Y-57724285D01*
X107650057Y-57724285D02*
X107745295Y-57676666D01*
X107745295Y-57676666D02*
X107840533Y-57676666D01*
X107840533Y-57676666D02*
X107983390Y-57724285D01*
X107983390Y-57724285D02*
X108554819Y-58295713D01*
X108554819Y-58295713D02*
X108554819Y-57676666D01*
X109770925Y-76650526D02*
X109703581Y-76650526D01*
X109703581Y-76650526D02*
X109568894Y-76583182D01*
X109568894Y-76583182D02*
X109501551Y-76515839D01*
X109501551Y-76515839D02*
X109434207Y-76381152D01*
X109434207Y-76381152D02*
X109434207Y-76246465D01*
X109434207Y-76246465D02*
X109467879Y-76145450D01*
X109467879Y-76145450D02*
X109568894Y-75977091D01*
X109568894Y-75977091D02*
X109669909Y-75876076D01*
X109669909Y-75876076D02*
X109838268Y-75775060D01*
X109838268Y-75775060D02*
X109939283Y-75741389D01*
X109939283Y-75741389D02*
X110073970Y-75741389D01*
X110073970Y-75741389D02*
X110208657Y-75808732D01*
X110208657Y-75808732D02*
X110276001Y-75876076D01*
X110276001Y-75876076D02*
X110343344Y-76010763D01*
X110343344Y-76010763D02*
X110343344Y-76078106D01*
X110781077Y-76852556D02*
X110309673Y-77323961D01*
X110882092Y-76414824D02*
X110208657Y-76751541D01*
X110208657Y-76751541D02*
X110646390Y-77189274D01*
X111185138Y-77391305D02*
X111151467Y-77290289D01*
X111151467Y-77290289D02*
X111151467Y-77222946D01*
X111151467Y-77222946D02*
X111185138Y-77121931D01*
X111185138Y-77121931D02*
X111218810Y-77088259D01*
X111218810Y-77088259D02*
X111319825Y-77054587D01*
X111319825Y-77054587D02*
X111387169Y-77054587D01*
X111387169Y-77054587D02*
X111488184Y-77088259D01*
X111488184Y-77088259D02*
X111622871Y-77222946D01*
X111622871Y-77222946D02*
X111656543Y-77323961D01*
X111656543Y-77323961D02*
X111656543Y-77391305D01*
X111656543Y-77391305D02*
X111622871Y-77492320D01*
X111622871Y-77492320D02*
X111589199Y-77525992D01*
X111589199Y-77525992D02*
X111488184Y-77559663D01*
X111488184Y-77559663D02*
X111420841Y-77559663D01*
X111420841Y-77559663D02*
X111319825Y-77525992D01*
X111319825Y-77525992D02*
X111185138Y-77391305D01*
X111185138Y-77391305D02*
X111084123Y-77357633D01*
X111084123Y-77357633D02*
X111016780Y-77357633D01*
X111016780Y-77357633D02*
X110915764Y-77391305D01*
X110915764Y-77391305D02*
X110781077Y-77525992D01*
X110781077Y-77525992D02*
X110747406Y-77627007D01*
X110747406Y-77627007D02*
X110747406Y-77694350D01*
X110747406Y-77694350D02*
X110781077Y-77795366D01*
X110781077Y-77795366D02*
X110915764Y-77930053D01*
X110915764Y-77930053D02*
X111016780Y-77963724D01*
X111016780Y-77963724D02*
X111084123Y-77963724D01*
X111084123Y-77963724D02*
X111185138Y-77930053D01*
X111185138Y-77930053D02*
X111319825Y-77795366D01*
X111319825Y-77795366D02*
X111353497Y-77694350D01*
X111353497Y-77694350D02*
X111353497Y-77627007D01*
X111353497Y-77627007D02*
X111319825Y-77525992D01*
X103187142Y-74829580D02*
X103139523Y-74877200D01*
X103139523Y-74877200D02*
X102996666Y-74924819D01*
X102996666Y-74924819D02*
X102901428Y-74924819D01*
X102901428Y-74924819D02*
X102758571Y-74877200D01*
X102758571Y-74877200D02*
X102663333Y-74781961D01*
X102663333Y-74781961D02*
X102615714Y-74686723D01*
X102615714Y-74686723D02*
X102568095Y-74496247D01*
X102568095Y-74496247D02*
X102568095Y-74353390D01*
X102568095Y-74353390D02*
X102615714Y-74162914D01*
X102615714Y-74162914D02*
X102663333Y-74067676D01*
X102663333Y-74067676D02*
X102758571Y-73972438D01*
X102758571Y-73972438D02*
X102901428Y-73924819D01*
X102901428Y-73924819D02*
X102996666Y-73924819D01*
X102996666Y-73924819D02*
X103139523Y-73972438D01*
X103139523Y-73972438D02*
X103187142Y-74020057D01*
X104044285Y-73924819D02*
X103853809Y-73924819D01*
X103853809Y-73924819D02*
X103758571Y-73972438D01*
X103758571Y-73972438D02*
X103710952Y-74020057D01*
X103710952Y-74020057D02*
X103615714Y-74162914D01*
X103615714Y-74162914D02*
X103568095Y-74353390D01*
X103568095Y-74353390D02*
X103568095Y-74734342D01*
X103568095Y-74734342D02*
X103615714Y-74829580D01*
X103615714Y-74829580D02*
X103663333Y-74877200D01*
X103663333Y-74877200D02*
X103758571Y-74924819D01*
X103758571Y-74924819D02*
X103949047Y-74924819D01*
X103949047Y-74924819D02*
X104044285Y-74877200D01*
X104044285Y-74877200D02*
X104091904Y-74829580D01*
X104091904Y-74829580D02*
X104139523Y-74734342D01*
X104139523Y-74734342D02*
X104139523Y-74496247D01*
X104139523Y-74496247D02*
X104091904Y-74401009D01*
X104091904Y-74401009D02*
X104044285Y-74353390D01*
X104044285Y-74353390D02*
X103949047Y-74305771D01*
X103949047Y-74305771D02*
X103758571Y-74305771D01*
X103758571Y-74305771D02*
X103663333Y-74353390D01*
X103663333Y-74353390D02*
X103615714Y-74401009D01*
X103615714Y-74401009D02*
X103568095Y-74496247D01*
X104996666Y-74258152D02*
X104996666Y-74924819D01*
X104758571Y-73877200D02*
X104520476Y-74591485D01*
X104520476Y-74591485D02*
X105139523Y-74591485D01*
X118629580Y-109302857D02*
X118677200Y-109350476D01*
X118677200Y-109350476D02*
X118724819Y-109493333D01*
X118724819Y-109493333D02*
X118724819Y-109588571D01*
X118724819Y-109588571D02*
X118677200Y-109731428D01*
X118677200Y-109731428D02*
X118581961Y-109826666D01*
X118581961Y-109826666D02*
X118486723Y-109874285D01*
X118486723Y-109874285D02*
X118296247Y-109921904D01*
X118296247Y-109921904D02*
X118153390Y-109921904D01*
X118153390Y-109921904D02*
X117962914Y-109874285D01*
X117962914Y-109874285D02*
X117867676Y-109826666D01*
X117867676Y-109826666D02*
X117772438Y-109731428D01*
X117772438Y-109731428D02*
X117724819Y-109588571D01*
X117724819Y-109588571D02*
X117724819Y-109493333D01*
X117724819Y-109493333D02*
X117772438Y-109350476D01*
X117772438Y-109350476D02*
X117820057Y-109302857D01*
X117724819Y-108398095D02*
X117724819Y-108874285D01*
X117724819Y-108874285D02*
X118201009Y-108921904D01*
X118201009Y-108921904D02*
X118153390Y-108874285D01*
X118153390Y-108874285D02*
X118105771Y-108779047D01*
X118105771Y-108779047D02*
X118105771Y-108540952D01*
X118105771Y-108540952D02*
X118153390Y-108445714D01*
X118153390Y-108445714D02*
X118201009Y-108398095D01*
X118201009Y-108398095D02*
X118296247Y-108350476D01*
X118296247Y-108350476D02*
X118534342Y-108350476D01*
X118534342Y-108350476D02*
X118629580Y-108398095D01*
X118629580Y-108398095D02*
X118677200Y-108445714D01*
X118677200Y-108445714D02*
X118724819Y-108540952D01*
X118724819Y-108540952D02*
X118724819Y-108779047D01*
X118724819Y-108779047D02*
X118677200Y-108874285D01*
X118677200Y-108874285D02*
X118629580Y-108921904D01*
X118153390Y-107779047D02*
X118105771Y-107874285D01*
X118105771Y-107874285D02*
X118058152Y-107921904D01*
X118058152Y-107921904D02*
X117962914Y-107969523D01*
X117962914Y-107969523D02*
X117915295Y-107969523D01*
X117915295Y-107969523D02*
X117820057Y-107921904D01*
X117820057Y-107921904D02*
X117772438Y-107874285D01*
X117772438Y-107874285D02*
X117724819Y-107779047D01*
X117724819Y-107779047D02*
X117724819Y-107588571D01*
X117724819Y-107588571D02*
X117772438Y-107493333D01*
X117772438Y-107493333D02*
X117820057Y-107445714D01*
X117820057Y-107445714D02*
X117915295Y-107398095D01*
X117915295Y-107398095D02*
X117962914Y-107398095D01*
X117962914Y-107398095D02*
X118058152Y-107445714D01*
X118058152Y-107445714D02*
X118105771Y-107493333D01*
X118105771Y-107493333D02*
X118153390Y-107588571D01*
X118153390Y-107588571D02*
X118153390Y-107779047D01*
X118153390Y-107779047D02*
X118201009Y-107874285D01*
X118201009Y-107874285D02*
X118248628Y-107921904D01*
X118248628Y-107921904D02*
X118343866Y-107969523D01*
X118343866Y-107969523D02*
X118534342Y-107969523D01*
X118534342Y-107969523D02*
X118629580Y-107921904D01*
X118629580Y-107921904D02*
X118677200Y-107874285D01*
X118677200Y-107874285D02*
X118724819Y-107779047D01*
X118724819Y-107779047D02*
X118724819Y-107588571D01*
X118724819Y-107588571D02*
X118677200Y-107493333D01*
X118677200Y-107493333D02*
X118629580Y-107445714D01*
X118629580Y-107445714D02*
X118534342Y-107398095D01*
X118534342Y-107398095D02*
X118343866Y-107398095D01*
X118343866Y-107398095D02*
X118248628Y-107445714D01*
X118248628Y-107445714D02*
X118201009Y-107493333D01*
X118201009Y-107493333D02*
X118153390Y-107588571D01*
D11*
X119336670Y-111042381D02*
X118066670Y-111042381D01*
X118066670Y-111042381D02*
X118066670Y-110740000D01*
X118066670Y-110740000D02*
X118127146Y-110558571D01*
X118127146Y-110558571D02*
X118248098Y-110437619D01*
X118248098Y-110437619D02*
X118369051Y-110377142D01*
X118369051Y-110377142D02*
X118610955Y-110316666D01*
X118610955Y-110316666D02*
X118792384Y-110316666D01*
X118792384Y-110316666D02*
X119034289Y-110377142D01*
X119034289Y-110377142D02*
X119155241Y-110437619D01*
X119155241Y-110437619D02*
X119276194Y-110558571D01*
X119276194Y-110558571D02*
X119336670Y-110740000D01*
X119336670Y-110740000D02*
X119336670Y-111042381D01*
X119336670Y-109107142D02*
X119336670Y-109832857D01*
X119336670Y-109470000D02*
X118066670Y-109470000D01*
X118066670Y-109470000D02*
X118248098Y-109590952D01*
X118248098Y-109590952D02*
X118369051Y-109711904D01*
X118369051Y-109711904D02*
X118429527Y-109832857D01*
D10*
X132123333Y-104774819D02*
X131647143Y-104774819D01*
X131647143Y-104774819D02*
X131647143Y-103774819D01*
X132980476Y-104774819D02*
X132409048Y-104774819D01*
X132694762Y-104774819D02*
X132694762Y-103774819D01*
X132694762Y-103774819D02*
X132599524Y-103917676D01*
X132599524Y-103917676D02*
X132504286Y-104012914D01*
X132504286Y-104012914D02*
X132409048Y-104060533D01*
D11*
X111099047Y-115060223D02*
X110978095Y-114999747D01*
X110978095Y-114999747D02*
X110857142Y-114878795D01*
X110857142Y-114878795D02*
X110675714Y-114697366D01*
X110675714Y-114697366D02*
X110554761Y-114636890D01*
X110554761Y-114636890D02*
X110433809Y-114636890D01*
X110494285Y-114939271D02*
X110373333Y-114878795D01*
X110373333Y-114878795D02*
X110252380Y-114757842D01*
X110252380Y-114757842D02*
X110191904Y-114515937D01*
X110191904Y-114515937D02*
X110191904Y-114092604D01*
X110191904Y-114092604D02*
X110252380Y-113850699D01*
X110252380Y-113850699D02*
X110373333Y-113729747D01*
X110373333Y-113729747D02*
X110494285Y-113669271D01*
X110494285Y-113669271D02*
X110736190Y-113669271D01*
X110736190Y-113669271D02*
X110857142Y-113729747D01*
X110857142Y-113729747D02*
X110978095Y-113850699D01*
X110978095Y-113850699D02*
X111038571Y-114092604D01*
X111038571Y-114092604D02*
X111038571Y-114515937D01*
X111038571Y-114515937D02*
X110978095Y-114757842D01*
X110978095Y-114757842D02*
X110857142Y-114878795D01*
X110857142Y-114878795D02*
X110736190Y-114939271D01*
X110736190Y-114939271D02*
X110494285Y-114939271D01*
X112187618Y-113669271D02*
X111582856Y-113669271D01*
X111582856Y-113669271D02*
X111522380Y-114274033D01*
X111522380Y-114274033D02*
X111582856Y-114213556D01*
X111582856Y-114213556D02*
X111703809Y-114153080D01*
X111703809Y-114153080D02*
X112006190Y-114153080D01*
X112006190Y-114153080D02*
X112127142Y-114213556D01*
X112127142Y-114213556D02*
X112187618Y-114274033D01*
X112187618Y-114274033D02*
X112248095Y-114394985D01*
X112248095Y-114394985D02*
X112248095Y-114697366D01*
X112248095Y-114697366D02*
X112187618Y-114818318D01*
X112187618Y-114818318D02*
X112127142Y-114878795D01*
X112127142Y-114878795D02*
X112006190Y-114939271D01*
X112006190Y-114939271D02*
X111703809Y-114939271D01*
X111703809Y-114939271D02*
X111582856Y-114878795D01*
X111582856Y-114878795D02*
X111522380Y-114818318D01*
D10*
X125827142Y-104504580D02*
X125779523Y-104552200D01*
X125779523Y-104552200D02*
X125636666Y-104599819D01*
X125636666Y-104599819D02*
X125541428Y-104599819D01*
X125541428Y-104599819D02*
X125398571Y-104552200D01*
X125398571Y-104552200D02*
X125303333Y-104456961D01*
X125303333Y-104456961D02*
X125255714Y-104361723D01*
X125255714Y-104361723D02*
X125208095Y-104171247D01*
X125208095Y-104171247D02*
X125208095Y-104028390D01*
X125208095Y-104028390D02*
X125255714Y-103837914D01*
X125255714Y-103837914D02*
X125303333Y-103742676D01*
X125303333Y-103742676D02*
X125398571Y-103647438D01*
X125398571Y-103647438D02*
X125541428Y-103599819D01*
X125541428Y-103599819D02*
X125636666Y-103599819D01*
X125636666Y-103599819D02*
X125779523Y-103647438D01*
X125779523Y-103647438D02*
X125827142Y-103695057D01*
X126731904Y-103599819D02*
X126255714Y-103599819D01*
X126255714Y-103599819D02*
X126208095Y-104076009D01*
X126208095Y-104076009D02*
X126255714Y-104028390D01*
X126255714Y-104028390D02*
X126350952Y-103980771D01*
X126350952Y-103980771D02*
X126589047Y-103980771D01*
X126589047Y-103980771D02*
X126684285Y-104028390D01*
X126684285Y-104028390D02*
X126731904Y-104076009D01*
X126731904Y-104076009D02*
X126779523Y-104171247D01*
X126779523Y-104171247D02*
X126779523Y-104409342D01*
X126779523Y-104409342D02*
X126731904Y-104504580D01*
X126731904Y-104504580D02*
X126684285Y-104552200D01*
X126684285Y-104552200D02*
X126589047Y-104599819D01*
X126589047Y-104599819D02*
X126350952Y-104599819D01*
X126350952Y-104599819D02*
X126255714Y-104552200D01*
X126255714Y-104552200D02*
X126208095Y-104504580D01*
X127636666Y-103599819D02*
X127446190Y-103599819D01*
X127446190Y-103599819D02*
X127350952Y-103647438D01*
X127350952Y-103647438D02*
X127303333Y-103695057D01*
X127303333Y-103695057D02*
X127208095Y-103837914D01*
X127208095Y-103837914D02*
X127160476Y-104028390D01*
X127160476Y-104028390D02*
X127160476Y-104409342D01*
X127160476Y-104409342D02*
X127208095Y-104504580D01*
X127208095Y-104504580D02*
X127255714Y-104552200D01*
X127255714Y-104552200D02*
X127350952Y-104599819D01*
X127350952Y-104599819D02*
X127541428Y-104599819D01*
X127541428Y-104599819D02*
X127636666Y-104552200D01*
X127636666Y-104552200D02*
X127684285Y-104504580D01*
X127684285Y-104504580D02*
X127731904Y-104409342D01*
X127731904Y-104409342D02*
X127731904Y-104171247D01*
X127731904Y-104171247D02*
X127684285Y-104076009D01*
X127684285Y-104076009D02*
X127636666Y-104028390D01*
X127636666Y-104028390D02*
X127541428Y-103980771D01*
X127541428Y-103980771D02*
X127350952Y-103980771D01*
X127350952Y-103980771D02*
X127255714Y-104028390D01*
X127255714Y-104028390D02*
X127208095Y-104076009D01*
X127208095Y-104076009D02*
X127160476Y-104171247D01*
X129449819Y-82253333D02*
X130164104Y-82253333D01*
X130164104Y-82253333D02*
X130306961Y-82300952D01*
X130306961Y-82300952D02*
X130402200Y-82396190D01*
X130402200Y-82396190D02*
X130449819Y-82539047D01*
X130449819Y-82539047D02*
X130449819Y-82634285D01*
X130449819Y-81253333D02*
X130449819Y-81824761D01*
X130449819Y-81539047D02*
X129449819Y-81539047D01*
X129449819Y-81539047D02*
X129592676Y-81634285D01*
X129592676Y-81634285D02*
X129687914Y-81729523D01*
X129687914Y-81729523D02*
X129735533Y-81824761D01*
X126704819Y-100567857D02*
X126228628Y-100901190D01*
X126704819Y-101139285D02*
X125704819Y-101139285D01*
X125704819Y-101139285D02*
X125704819Y-100758333D01*
X125704819Y-100758333D02*
X125752438Y-100663095D01*
X125752438Y-100663095D02*
X125800057Y-100615476D01*
X125800057Y-100615476D02*
X125895295Y-100567857D01*
X125895295Y-100567857D02*
X126038152Y-100567857D01*
X126038152Y-100567857D02*
X126133390Y-100615476D01*
X126133390Y-100615476D02*
X126181009Y-100663095D01*
X126181009Y-100663095D02*
X126228628Y-100758333D01*
X126228628Y-100758333D02*
X126228628Y-101139285D01*
X125800057Y-100186904D02*
X125752438Y-100139285D01*
X125752438Y-100139285D02*
X125704819Y-100044047D01*
X125704819Y-100044047D02*
X125704819Y-99805952D01*
X125704819Y-99805952D02*
X125752438Y-99710714D01*
X125752438Y-99710714D02*
X125800057Y-99663095D01*
X125800057Y-99663095D02*
X125895295Y-99615476D01*
X125895295Y-99615476D02*
X125990533Y-99615476D01*
X125990533Y-99615476D02*
X126133390Y-99663095D01*
X126133390Y-99663095D02*
X126704819Y-100234523D01*
X126704819Y-100234523D02*
X126704819Y-99615476D01*
X125704819Y-98996428D02*
X125704819Y-98901190D01*
X125704819Y-98901190D02*
X125752438Y-98805952D01*
X125752438Y-98805952D02*
X125800057Y-98758333D01*
X125800057Y-98758333D02*
X125895295Y-98710714D01*
X125895295Y-98710714D02*
X126085771Y-98663095D01*
X126085771Y-98663095D02*
X126323866Y-98663095D01*
X126323866Y-98663095D02*
X126514342Y-98710714D01*
X126514342Y-98710714D02*
X126609580Y-98758333D01*
X126609580Y-98758333D02*
X126657200Y-98805952D01*
X126657200Y-98805952D02*
X126704819Y-98901190D01*
X126704819Y-98901190D02*
X126704819Y-98996428D01*
X126704819Y-98996428D02*
X126657200Y-99091666D01*
X126657200Y-99091666D02*
X126609580Y-99139285D01*
X126609580Y-99139285D02*
X126514342Y-99186904D01*
X126514342Y-99186904D02*
X126323866Y-99234523D01*
X126323866Y-99234523D02*
X126085771Y-99234523D01*
X126085771Y-99234523D02*
X125895295Y-99186904D01*
X125895295Y-99186904D02*
X125800057Y-99139285D01*
X125800057Y-99139285D02*
X125752438Y-99091666D01*
X125752438Y-99091666D02*
X125704819Y-98996428D01*
X104513095Y-112899819D02*
X104513095Y-111899819D01*
X104513095Y-112376009D02*
X105084523Y-112376009D01*
X105084523Y-112899819D02*
X105084523Y-111899819D01*
X106036904Y-111899819D02*
X105560714Y-111899819D01*
X105560714Y-111899819D02*
X105513095Y-112376009D01*
X105513095Y-112376009D02*
X105560714Y-112328390D01*
X105560714Y-112328390D02*
X105655952Y-112280771D01*
X105655952Y-112280771D02*
X105894047Y-112280771D01*
X105894047Y-112280771D02*
X105989285Y-112328390D01*
X105989285Y-112328390D02*
X106036904Y-112376009D01*
X106036904Y-112376009D02*
X106084523Y-112471247D01*
X106084523Y-112471247D02*
X106084523Y-112709342D01*
X106084523Y-112709342D02*
X106036904Y-112804580D01*
X106036904Y-112804580D02*
X105989285Y-112852200D01*
X105989285Y-112852200D02*
X105894047Y-112899819D01*
X105894047Y-112899819D02*
X105655952Y-112899819D01*
X105655952Y-112899819D02*
X105560714Y-112852200D01*
X105560714Y-112852200D02*
X105513095Y-112804580D01*
X122595943Y-82821480D02*
X123303050Y-82114374D01*
X123303050Y-82114374D02*
X123471409Y-82282732D01*
X123471409Y-82282732D02*
X123538752Y-82417419D01*
X123538752Y-82417419D02*
X123538752Y-82552106D01*
X123538752Y-82552106D02*
X123505080Y-82653122D01*
X123505080Y-82653122D02*
X123404065Y-82821480D01*
X123404065Y-82821480D02*
X123303050Y-82922496D01*
X123303050Y-82922496D02*
X123134691Y-83023511D01*
X123134691Y-83023511D02*
X123033676Y-83057183D01*
X123033676Y-83057183D02*
X122898989Y-83057183D01*
X122898989Y-83057183D02*
X122764302Y-82989839D01*
X122764302Y-82989839D02*
X122595943Y-82821480D01*
X123942813Y-82754137D02*
X124380546Y-83191870D01*
X124380546Y-83191870D02*
X123875470Y-83225541D01*
X123875470Y-83225541D02*
X123976485Y-83326557D01*
X123976485Y-83326557D02*
X124010157Y-83427572D01*
X124010157Y-83427572D02*
X124010157Y-83494915D01*
X124010157Y-83494915D02*
X123976485Y-83595931D01*
X123976485Y-83595931D02*
X123808126Y-83764289D01*
X123808126Y-83764289D02*
X123707111Y-83797961D01*
X123707111Y-83797961D02*
X123639767Y-83797961D01*
X123639767Y-83797961D02*
X123538752Y-83764289D01*
X123538752Y-83764289D02*
X123336722Y-83562259D01*
X123336722Y-83562259D02*
X123303050Y-83461244D01*
X123303050Y-83461244D02*
X123303050Y-83393900D01*
X114189580Y-87192857D02*
X114237200Y-87240476D01*
X114237200Y-87240476D02*
X114284819Y-87383333D01*
X114284819Y-87383333D02*
X114284819Y-87478571D01*
X114284819Y-87478571D02*
X114237200Y-87621428D01*
X114237200Y-87621428D02*
X114141961Y-87716666D01*
X114141961Y-87716666D02*
X114046723Y-87764285D01*
X114046723Y-87764285D02*
X113856247Y-87811904D01*
X113856247Y-87811904D02*
X113713390Y-87811904D01*
X113713390Y-87811904D02*
X113522914Y-87764285D01*
X113522914Y-87764285D02*
X113427676Y-87716666D01*
X113427676Y-87716666D02*
X113332438Y-87621428D01*
X113332438Y-87621428D02*
X113284819Y-87478571D01*
X113284819Y-87478571D02*
X113284819Y-87383333D01*
X113284819Y-87383333D02*
X113332438Y-87240476D01*
X113332438Y-87240476D02*
X113380057Y-87192857D01*
X113284819Y-86335714D02*
X113284819Y-86526190D01*
X113284819Y-86526190D02*
X113332438Y-86621428D01*
X113332438Y-86621428D02*
X113380057Y-86669047D01*
X113380057Y-86669047D02*
X113522914Y-86764285D01*
X113522914Y-86764285D02*
X113713390Y-86811904D01*
X113713390Y-86811904D02*
X114094342Y-86811904D01*
X114094342Y-86811904D02*
X114189580Y-86764285D01*
X114189580Y-86764285D02*
X114237200Y-86716666D01*
X114237200Y-86716666D02*
X114284819Y-86621428D01*
X114284819Y-86621428D02*
X114284819Y-86430952D01*
X114284819Y-86430952D02*
X114237200Y-86335714D01*
X114237200Y-86335714D02*
X114189580Y-86288095D01*
X114189580Y-86288095D02*
X114094342Y-86240476D01*
X114094342Y-86240476D02*
X113856247Y-86240476D01*
X113856247Y-86240476D02*
X113761009Y-86288095D01*
X113761009Y-86288095D02*
X113713390Y-86335714D01*
X113713390Y-86335714D02*
X113665771Y-86430952D01*
X113665771Y-86430952D02*
X113665771Y-86621428D01*
X113665771Y-86621428D02*
X113713390Y-86716666D01*
X113713390Y-86716666D02*
X113761009Y-86764285D01*
X113761009Y-86764285D02*
X113856247Y-86811904D01*
X113284819Y-85383333D02*
X113284819Y-85573809D01*
X113284819Y-85573809D02*
X113332438Y-85669047D01*
X113332438Y-85669047D02*
X113380057Y-85716666D01*
X113380057Y-85716666D02*
X113522914Y-85811904D01*
X113522914Y-85811904D02*
X113713390Y-85859523D01*
X113713390Y-85859523D02*
X114094342Y-85859523D01*
X114094342Y-85859523D02*
X114189580Y-85811904D01*
X114189580Y-85811904D02*
X114237200Y-85764285D01*
X114237200Y-85764285D02*
X114284819Y-85669047D01*
X114284819Y-85669047D02*
X114284819Y-85478571D01*
X114284819Y-85478571D02*
X114237200Y-85383333D01*
X114237200Y-85383333D02*
X114189580Y-85335714D01*
X114189580Y-85335714D02*
X114094342Y-85288095D01*
X114094342Y-85288095D02*
X113856247Y-85288095D01*
X113856247Y-85288095D02*
X113761009Y-85335714D01*
X113761009Y-85335714D02*
X113713390Y-85383333D01*
X113713390Y-85383333D02*
X113665771Y-85478571D01*
X113665771Y-85478571D02*
X113665771Y-85669047D01*
X113665771Y-85669047D02*
X113713390Y-85764285D01*
X113713390Y-85764285D02*
X113761009Y-85811904D01*
X113761009Y-85811904D02*
X113856247Y-85859523D01*
X126727142Y-102669580D02*
X126679523Y-102717200D01*
X126679523Y-102717200D02*
X126536666Y-102764819D01*
X126536666Y-102764819D02*
X126441428Y-102764819D01*
X126441428Y-102764819D02*
X126298571Y-102717200D01*
X126298571Y-102717200D02*
X126203333Y-102621961D01*
X126203333Y-102621961D02*
X126155714Y-102526723D01*
X126155714Y-102526723D02*
X126108095Y-102336247D01*
X126108095Y-102336247D02*
X126108095Y-102193390D01*
X126108095Y-102193390D02*
X126155714Y-102002914D01*
X126155714Y-102002914D02*
X126203333Y-101907676D01*
X126203333Y-101907676D02*
X126298571Y-101812438D01*
X126298571Y-101812438D02*
X126441428Y-101764819D01*
X126441428Y-101764819D02*
X126536666Y-101764819D01*
X126536666Y-101764819D02*
X126679523Y-101812438D01*
X126679523Y-101812438D02*
X126727142Y-101860057D01*
X127631904Y-101764819D02*
X127155714Y-101764819D01*
X127155714Y-101764819D02*
X127108095Y-102241009D01*
X127108095Y-102241009D02*
X127155714Y-102193390D01*
X127155714Y-102193390D02*
X127250952Y-102145771D01*
X127250952Y-102145771D02*
X127489047Y-102145771D01*
X127489047Y-102145771D02*
X127584285Y-102193390D01*
X127584285Y-102193390D02*
X127631904Y-102241009D01*
X127631904Y-102241009D02*
X127679523Y-102336247D01*
X127679523Y-102336247D02*
X127679523Y-102574342D01*
X127679523Y-102574342D02*
X127631904Y-102669580D01*
X127631904Y-102669580D02*
X127584285Y-102717200D01*
X127584285Y-102717200D02*
X127489047Y-102764819D01*
X127489047Y-102764819D02*
X127250952Y-102764819D01*
X127250952Y-102764819D02*
X127155714Y-102717200D01*
X127155714Y-102717200D02*
X127108095Y-102669580D01*
X128012857Y-101764819D02*
X128631904Y-101764819D01*
X128631904Y-101764819D02*
X128298571Y-102145771D01*
X128298571Y-102145771D02*
X128441428Y-102145771D01*
X128441428Y-102145771D02*
X128536666Y-102193390D01*
X128536666Y-102193390D02*
X128584285Y-102241009D01*
X128584285Y-102241009D02*
X128631904Y-102336247D01*
X128631904Y-102336247D02*
X128631904Y-102574342D01*
X128631904Y-102574342D02*
X128584285Y-102669580D01*
X128584285Y-102669580D02*
X128536666Y-102717200D01*
X128536666Y-102717200D02*
X128441428Y-102764819D01*
X128441428Y-102764819D02*
X128155714Y-102764819D01*
X128155714Y-102764819D02*
X128060476Y-102717200D01*
X128060476Y-102717200D02*
X128012857Y-102669580D01*
X103792142Y-57544819D02*
X103458809Y-57068628D01*
X103220714Y-57544819D02*
X103220714Y-56544819D01*
X103220714Y-56544819D02*
X103601666Y-56544819D01*
X103601666Y-56544819D02*
X103696904Y-56592438D01*
X103696904Y-56592438D02*
X103744523Y-56640057D01*
X103744523Y-56640057D02*
X103792142Y-56735295D01*
X103792142Y-56735295D02*
X103792142Y-56878152D01*
X103792142Y-56878152D02*
X103744523Y-56973390D01*
X103744523Y-56973390D02*
X103696904Y-57021009D01*
X103696904Y-57021009D02*
X103601666Y-57068628D01*
X103601666Y-57068628D02*
X103220714Y-57068628D01*
X104744523Y-57544819D02*
X104173095Y-57544819D01*
X104458809Y-57544819D02*
X104458809Y-56544819D01*
X104458809Y-56544819D02*
X104363571Y-56687676D01*
X104363571Y-56687676D02*
X104268333Y-56782914D01*
X104268333Y-56782914D02*
X104173095Y-56830533D01*
X105125476Y-56640057D02*
X105173095Y-56592438D01*
X105173095Y-56592438D02*
X105268333Y-56544819D01*
X105268333Y-56544819D02*
X105506428Y-56544819D01*
X105506428Y-56544819D02*
X105601666Y-56592438D01*
X105601666Y-56592438D02*
X105649285Y-56640057D01*
X105649285Y-56640057D02*
X105696904Y-56735295D01*
X105696904Y-56735295D02*
X105696904Y-56830533D01*
X105696904Y-56830533D02*
X105649285Y-56973390D01*
X105649285Y-56973390D02*
X105077857Y-57544819D01*
X105077857Y-57544819D02*
X105696904Y-57544819D01*
X118659449Y-65308586D02*
X118659449Y-65375930D01*
X118659449Y-65375930D02*
X118592105Y-65510617D01*
X118592105Y-65510617D02*
X118524762Y-65577960D01*
X118524762Y-65577960D02*
X118390075Y-65645304D01*
X118390075Y-65645304D02*
X118255388Y-65645304D01*
X118255388Y-65645304D02*
X118154373Y-65611632D01*
X118154373Y-65611632D02*
X117986014Y-65510617D01*
X117986014Y-65510617D02*
X117884999Y-65409602D01*
X117884999Y-65409602D02*
X117783983Y-65241243D01*
X117783983Y-65241243D02*
X117750312Y-65140228D01*
X117750312Y-65140228D02*
X117750312Y-65005541D01*
X117750312Y-65005541D02*
X117817655Y-64870854D01*
X117817655Y-64870854D02*
X117884999Y-64803510D01*
X117884999Y-64803510D02*
X118019686Y-64736167D01*
X118019686Y-64736167D02*
X118087029Y-64736167D01*
X118659449Y-64029060D02*
X118322731Y-64365777D01*
X118322731Y-64365777D02*
X118625777Y-64736167D01*
X118625777Y-64736167D02*
X118625777Y-64668823D01*
X118625777Y-64668823D02*
X118659449Y-64567808D01*
X118659449Y-64567808D02*
X118827808Y-64399449D01*
X118827808Y-64399449D02*
X118928823Y-64365777D01*
X118928823Y-64365777D02*
X118996166Y-64365777D01*
X118996166Y-64365777D02*
X119097182Y-64399449D01*
X119097182Y-64399449D02*
X119265540Y-64567808D01*
X119265540Y-64567808D02*
X119299212Y-64668823D01*
X119299212Y-64668823D02*
X119299212Y-64736167D01*
X119299212Y-64736167D02*
X119265540Y-64837182D01*
X119265540Y-64837182D02*
X119097182Y-65005541D01*
X119097182Y-65005541D02*
X118996166Y-65039212D01*
X118996166Y-65039212D02*
X118928823Y-65039212D01*
X120073663Y-64029060D02*
X119669602Y-64433121D01*
X119871632Y-64231090D02*
X119164525Y-63523983D01*
X119164525Y-63523983D02*
X119198197Y-63692342D01*
X119198197Y-63692342D02*
X119198197Y-63827029D01*
X119198197Y-63827029D02*
X119164525Y-63928044D01*
X123834819Y-104196666D02*
X123358628Y-104529999D01*
X123834819Y-104768094D02*
X122834819Y-104768094D01*
X122834819Y-104768094D02*
X122834819Y-104387142D01*
X122834819Y-104387142D02*
X122882438Y-104291904D01*
X122882438Y-104291904D02*
X122930057Y-104244285D01*
X122930057Y-104244285D02*
X123025295Y-104196666D01*
X123025295Y-104196666D02*
X123168152Y-104196666D01*
X123168152Y-104196666D02*
X123263390Y-104244285D01*
X123263390Y-104244285D02*
X123311009Y-104291904D01*
X123311009Y-104291904D02*
X123358628Y-104387142D01*
X123358628Y-104387142D02*
X123358628Y-104768094D01*
X123834819Y-103720475D02*
X123834819Y-103529999D01*
X123834819Y-103529999D02*
X123787200Y-103434761D01*
X123787200Y-103434761D02*
X123739580Y-103387142D01*
X123739580Y-103387142D02*
X123596723Y-103291904D01*
X123596723Y-103291904D02*
X123406247Y-103244285D01*
X123406247Y-103244285D02*
X123025295Y-103244285D01*
X123025295Y-103244285D02*
X122930057Y-103291904D01*
X122930057Y-103291904D02*
X122882438Y-103339523D01*
X122882438Y-103339523D02*
X122834819Y-103434761D01*
X122834819Y-103434761D02*
X122834819Y-103625237D01*
X122834819Y-103625237D02*
X122882438Y-103720475D01*
X122882438Y-103720475D02*
X122930057Y-103768094D01*
X122930057Y-103768094D02*
X123025295Y-103815713D01*
X123025295Y-103815713D02*
X123263390Y-103815713D01*
X123263390Y-103815713D02*
X123358628Y-103768094D01*
X123358628Y-103768094D02*
X123406247Y-103720475D01*
X123406247Y-103720475D02*
X123453866Y-103625237D01*
X123453866Y-103625237D02*
X123453866Y-103434761D01*
X123453866Y-103434761D02*
X123406247Y-103339523D01*
X123406247Y-103339523D02*
X123358628Y-103291904D01*
X123358628Y-103291904D02*
X123263390Y-103244285D01*
X119273033Y-107865119D02*
X118939700Y-107388928D01*
X118701605Y-107865119D02*
X118701605Y-106865119D01*
X118701605Y-106865119D02*
X119082557Y-106865119D01*
X119082557Y-106865119D02*
X119177795Y-106912738D01*
X119177795Y-106912738D02*
X119225414Y-106960357D01*
X119225414Y-106960357D02*
X119273033Y-107055595D01*
X119273033Y-107055595D02*
X119273033Y-107198452D01*
X119273033Y-107198452D02*
X119225414Y-107293690D01*
X119225414Y-107293690D02*
X119177795Y-107341309D01*
X119177795Y-107341309D02*
X119082557Y-107388928D01*
X119082557Y-107388928D02*
X118701605Y-107388928D01*
X119606367Y-106865119D02*
X120225414Y-106865119D01*
X120225414Y-106865119D02*
X119892081Y-107246071D01*
X119892081Y-107246071D02*
X120034938Y-107246071D01*
X120034938Y-107246071D02*
X120130176Y-107293690D01*
X120130176Y-107293690D02*
X120177795Y-107341309D01*
X120177795Y-107341309D02*
X120225414Y-107436547D01*
X120225414Y-107436547D02*
X120225414Y-107674642D01*
X120225414Y-107674642D02*
X120177795Y-107769880D01*
X120177795Y-107769880D02*
X120130176Y-107817500D01*
X120130176Y-107817500D02*
X120034938Y-107865119D01*
X120034938Y-107865119D02*
X119749224Y-107865119D01*
X119749224Y-107865119D02*
X119653986Y-107817500D01*
X119653986Y-107817500D02*
X119606367Y-107769880D01*
X131398095Y-113384819D02*
X131398095Y-112384819D01*
X131398095Y-112861009D02*
X131969523Y-112861009D01*
X131969523Y-113384819D02*
X131969523Y-112384819D01*
X132874285Y-112384819D02*
X132683809Y-112384819D01*
X132683809Y-112384819D02*
X132588571Y-112432438D01*
X132588571Y-112432438D02*
X132540952Y-112480057D01*
X132540952Y-112480057D02*
X132445714Y-112622914D01*
X132445714Y-112622914D02*
X132398095Y-112813390D01*
X132398095Y-112813390D02*
X132398095Y-113194342D01*
X132398095Y-113194342D02*
X132445714Y-113289580D01*
X132445714Y-113289580D02*
X132493333Y-113337200D01*
X132493333Y-113337200D02*
X132588571Y-113384819D01*
X132588571Y-113384819D02*
X132779047Y-113384819D01*
X132779047Y-113384819D02*
X132874285Y-113337200D01*
X132874285Y-113337200D02*
X132921904Y-113289580D01*
X132921904Y-113289580D02*
X132969523Y-113194342D01*
X132969523Y-113194342D02*
X132969523Y-112956247D01*
X132969523Y-112956247D02*
X132921904Y-112861009D01*
X132921904Y-112861009D02*
X132874285Y-112813390D01*
X132874285Y-112813390D02*
X132779047Y-112765771D01*
X132779047Y-112765771D02*
X132588571Y-112765771D01*
X132588571Y-112765771D02*
X132493333Y-112813390D01*
X132493333Y-112813390D02*
X132445714Y-112861009D01*
X132445714Y-112861009D02*
X132398095Y-112956247D01*
X108162142Y-87689580D02*
X108114523Y-87737200D01*
X108114523Y-87737200D02*
X107971666Y-87784819D01*
X107971666Y-87784819D02*
X107876428Y-87784819D01*
X107876428Y-87784819D02*
X107733571Y-87737200D01*
X107733571Y-87737200D02*
X107638333Y-87641961D01*
X107638333Y-87641961D02*
X107590714Y-87546723D01*
X107590714Y-87546723D02*
X107543095Y-87356247D01*
X107543095Y-87356247D02*
X107543095Y-87213390D01*
X107543095Y-87213390D02*
X107590714Y-87022914D01*
X107590714Y-87022914D02*
X107638333Y-86927676D01*
X107638333Y-86927676D02*
X107733571Y-86832438D01*
X107733571Y-86832438D02*
X107876428Y-86784819D01*
X107876428Y-86784819D02*
X107971666Y-86784819D01*
X107971666Y-86784819D02*
X108114523Y-86832438D01*
X108114523Y-86832438D02*
X108162142Y-86880057D01*
X108543095Y-86880057D02*
X108590714Y-86832438D01*
X108590714Y-86832438D02*
X108685952Y-86784819D01*
X108685952Y-86784819D02*
X108924047Y-86784819D01*
X108924047Y-86784819D02*
X109019285Y-86832438D01*
X109019285Y-86832438D02*
X109066904Y-86880057D01*
X109066904Y-86880057D02*
X109114523Y-86975295D01*
X109114523Y-86975295D02*
X109114523Y-87070533D01*
X109114523Y-87070533D02*
X109066904Y-87213390D01*
X109066904Y-87213390D02*
X108495476Y-87784819D01*
X108495476Y-87784819D02*
X109114523Y-87784819D01*
X109971666Y-86784819D02*
X109781190Y-86784819D01*
X109781190Y-86784819D02*
X109685952Y-86832438D01*
X109685952Y-86832438D02*
X109638333Y-86880057D01*
X109638333Y-86880057D02*
X109543095Y-87022914D01*
X109543095Y-87022914D02*
X109495476Y-87213390D01*
X109495476Y-87213390D02*
X109495476Y-87594342D01*
X109495476Y-87594342D02*
X109543095Y-87689580D01*
X109543095Y-87689580D02*
X109590714Y-87737200D01*
X109590714Y-87737200D02*
X109685952Y-87784819D01*
X109685952Y-87784819D02*
X109876428Y-87784819D01*
X109876428Y-87784819D02*
X109971666Y-87737200D01*
X109971666Y-87737200D02*
X110019285Y-87689580D01*
X110019285Y-87689580D02*
X110066904Y-87594342D01*
X110066904Y-87594342D02*
X110066904Y-87356247D01*
X110066904Y-87356247D02*
X110019285Y-87261009D01*
X110019285Y-87261009D02*
X109971666Y-87213390D01*
X109971666Y-87213390D02*
X109876428Y-87165771D01*
X109876428Y-87165771D02*
X109685952Y-87165771D01*
X109685952Y-87165771D02*
X109590714Y-87213390D01*
X109590714Y-87213390D02*
X109543095Y-87261009D01*
X109543095Y-87261009D02*
X109495476Y-87356247D01*
X127579580Y-66422857D02*
X127627200Y-66470476D01*
X127627200Y-66470476D02*
X127674819Y-66613333D01*
X127674819Y-66613333D02*
X127674819Y-66708571D01*
X127674819Y-66708571D02*
X127627200Y-66851428D01*
X127627200Y-66851428D02*
X127531961Y-66946666D01*
X127531961Y-66946666D02*
X127436723Y-66994285D01*
X127436723Y-66994285D02*
X127246247Y-67041904D01*
X127246247Y-67041904D02*
X127103390Y-67041904D01*
X127103390Y-67041904D02*
X126912914Y-66994285D01*
X126912914Y-66994285D02*
X126817676Y-66946666D01*
X126817676Y-66946666D02*
X126722438Y-66851428D01*
X126722438Y-66851428D02*
X126674819Y-66708571D01*
X126674819Y-66708571D02*
X126674819Y-66613333D01*
X126674819Y-66613333D02*
X126722438Y-66470476D01*
X126722438Y-66470476D02*
X126770057Y-66422857D01*
X126674819Y-65565714D02*
X126674819Y-65756190D01*
X126674819Y-65756190D02*
X126722438Y-65851428D01*
X126722438Y-65851428D02*
X126770057Y-65899047D01*
X126770057Y-65899047D02*
X126912914Y-65994285D01*
X126912914Y-65994285D02*
X127103390Y-66041904D01*
X127103390Y-66041904D02*
X127484342Y-66041904D01*
X127484342Y-66041904D02*
X127579580Y-65994285D01*
X127579580Y-65994285D02*
X127627200Y-65946666D01*
X127627200Y-65946666D02*
X127674819Y-65851428D01*
X127674819Y-65851428D02*
X127674819Y-65660952D01*
X127674819Y-65660952D02*
X127627200Y-65565714D01*
X127627200Y-65565714D02*
X127579580Y-65518095D01*
X127579580Y-65518095D02*
X127484342Y-65470476D01*
X127484342Y-65470476D02*
X127246247Y-65470476D01*
X127246247Y-65470476D02*
X127151009Y-65518095D01*
X127151009Y-65518095D02*
X127103390Y-65565714D01*
X127103390Y-65565714D02*
X127055771Y-65660952D01*
X127055771Y-65660952D02*
X127055771Y-65851428D01*
X127055771Y-65851428D02*
X127103390Y-65946666D01*
X127103390Y-65946666D02*
X127151009Y-65994285D01*
X127151009Y-65994285D02*
X127246247Y-66041904D01*
X127674819Y-64518095D02*
X127674819Y-65089523D01*
X127674819Y-64803809D02*
X126674819Y-64803809D01*
X126674819Y-64803809D02*
X126817676Y-64899047D01*
X126817676Y-64899047D02*
X126912914Y-64994285D01*
X126912914Y-64994285D02*
X126960533Y-65089523D01*
X134526666Y-64174819D02*
X134526666Y-64889104D01*
X134526666Y-64889104D02*
X134479047Y-65031961D01*
X134479047Y-65031961D02*
X134383809Y-65127200D01*
X134383809Y-65127200D02*
X134240952Y-65174819D01*
X134240952Y-65174819D02*
X134145714Y-65174819D01*
X135431428Y-64174819D02*
X135240952Y-64174819D01*
X135240952Y-64174819D02*
X135145714Y-64222438D01*
X135145714Y-64222438D02*
X135098095Y-64270057D01*
X135098095Y-64270057D02*
X135002857Y-64412914D01*
X135002857Y-64412914D02*
X134955238Y-64603390D01*
X134955238Y-64603390D02*
X134955238Y-64984342D01*
X134955238Y-64984342D02*
X135002857Y-65079580D01*
X135002857Y-65079580D02*
X135050476Y-65127200D01*
X135050476Y-65127200D02*
X135145714Y-65174819D01*
X135145714Y-65174819D02*
X135336190Y-65174819D01*
X135336190Y-65174819D02*
X135431428Y-65127200D01*
X135431428Y-65127200D02*
X135479047Y-65079580D01*
X135479047Y-65079580D02*
X135526666Y-64984342D01*
X135526666Y-64984342D02*
X135526666Y-64746247D01*
X135526666Y-64746247D02*
X135479047Y-64651009D01*
X135479047Y-64651009D02*
X135431428Y-64603390D01*
X135431428Y-64603390D02*
X135336190Y-64555771D01*
X135336190Y-64555771D02*
X135145714Y-64555771D01*
X135145714Y-64555771D02*
X135050476Y-64603390D01*
X135050476Y-64603390D02*
X135002857Y-64651009D01*
X135002857Y-64651009D02*
X134955238Y-64746247D01*
X104434819Y-108752857D02*
X103958628Y-109086190D01*
X104434819Y-109324285D02*
X103434819Y-109324285D01*
X103434819Y-109324285D02*
X103434819Y-108943333D01*
X103434819Y-108943333D02*
X103482438Y-108848095D01*
X103482438Y-108848095D02*
X103530057Y-108800476D01*
X103530057Y-108800476D02*
X103625295Y-108752857D01*
X103625295Y-108752857D02*
X103768152Y-108752857D01*
X103768152Y-108752857D02*
X103863390Y-108800476D01*
X103863390Y-108800476D02*
X103911009Y-108848095D01*
X103911009Y-108848095D02*
X103958628Y-108943333D01*
X103958628Y-108943333D02*
X103958628Y-109324285D01*
X103530057Y-108371904D02*
X103482438Y-108324285D01*
X103482438Y-108324285D02*
X103434819Y-108229047D01*
X103434819Y-108229047D02*
X103434819Y-107990952D01*
X103434819Y-107990952D02*
X103482438Y-107895714D01*
X103482438Y-107895714D02*
X103530057Y-107848095D01*
X103530057Y-107848095D02*
X103625295Y-107800476D01*
X103625295Y-107800476D02*
X103720533Y-107800476D01*
X103720533Y-107800476D02*
X103863390Y-107848095D01*
X103863390Y-107848095D02*
X104434819Y-108419523D01*
X104434819Y-108419523D02*
X104434819Y-107800476D01*
X103434819Y-106895714D02*
X103434819Y-107371904D01*
X103434819Y-107371904D02*
X103911009Y-107419523D01*
X103911009Y-107419523D02*
X103863390Y-107371904D01*
X103863390Y-107371904D02*
X103815771Y-107276666D01*
X103815771Y-107276666D02*
X103815771Y-107038571D01*
X103815771Y-107038571D02*
X103863390Y-106943333D01*
X103863390Y-106943333D02*
X103911009Y-106895714D01*
X103911009Y-106895714D02*
X104006247Y-106848095D01*
X104006247Y-106848095D02*
X104244342Y-106848095D01*
X104244342Y-106848095D02*
X104339580Y-106895714D01*
X104339580Y-106895714D02*
X104387200Y-106943333D01*
X104387200Y-106943333D02*
X104434819Y-107038571D01*
X104434819Y-107038571D02*
X104434819Y-107276666D01*
X104434819Y-107276666D02*
X104387200Y-107371904D01*
X104387200Y-107371904D02*
X104339580Y-107419523D01*
D11*
X113179371Y-87207619D02*
X114207466Y-87207619D01*
X114207466Y-87207619D02*
X114328418Y-87147142D01*
X114328418Y-87147142D02*
X114388895Y-87086666D01*
X114388895Y-87086666D02*
X114449371Y-86965714D01*
X114449371Y-86965714D02*
X114449371Y-86723809D01*
X114449371Y-86723809D02*
X114388895Y-86602857D01*
X114388895Y-86602857D02*
X114328418Y-86542380D01*
X114328418Y-86542380D02*
X114207466Y-86481904D01*
X114207466Y-86481904D02*
X113179371Y-86481904D01*
X113179371Y-85272381D02*
X113179371Y-85877143D01*
X113179371Y-85877143D02*
X113784133Y-85937619D01*
X113784133Y-85937619D02*
X113723656Y-85877143D01*
X113723656Y-85877143D02*
X113663180Y-85756190D01*
X113663180Y-85756190D02*
X113663180Y-85453809D01*
X113663180Y-85453809D02*
X113723656Y-85332857D01*
X113723656Y-85332857D02*
X113784133Y-85272381D01*
X113784133Y-85272381D02*
X113905085Y-85211904D01*
X113905085Y-85211904D02*
X114207466Y-85211904D01*
X114207466Y-85211904D02*
X114328418Y-85272381D01*
X114328418Y-85272381D02*
X114388895Y-85332857D01*
X114388895Y-85332857D02*
X114449371Y-85453809D01*
X114449371Y-85453809D02*
X114449371Y-85756190D01*
X114449371Y-85756190D02*
X114388895Y-85877143D01*
X114388895Y-85877143D02*
X114328418Y-85937619D01*
D12*
X129023751Y-100331680D02*
X129074259Y-100045470D01*
X128821721Y-100129649D02*
X129175274Y-99776096D01*
X129175274Y-99776096D02*
X129309961Y-99910783D01*
X129309961Y-99910783D02*
X129326797Y-99961291D01*
X129326797Y-99961291D02*
X129326797Y-99994962D01*
X129326797Y-99994962D02*
X129309961Y-100045470D01*
X129309961Y-100045470D02*
X129259453Y-100095978D01*
X129259453Y-100095978D02*
X129208946Y-100112813D01*
X129208946Y-100112813D02*
X129175274Y-100112813D01*
X129175274Y-100112813D02*
X129124766Y-100095978D01*
X129124766Y-100095978D02*
X128990079Y-99961291D01*
X129360469Y-100668397D02*
X129158438Y-100466367D01*
X129259453Y-100567382D02*
X129613007Y-100213829D01*
X129613007Y-100213829D02*
X129528827Y-100230665D01*
X129528827Y-100230665D02*
X129461484Y-100230665D01*
X129461484Y-100230665D02*
X129410976Y-100213829D01*
X129932888Y-100533710D02*
X129966560Y-100567382D01*
X129966560Y-100567382D02*
X129983396Y-100617889D01*
X129983396Y-100617889D02*
X129983396Y-100651561D01*
X129983396Y-100651561D02*
X129966560Y-100702069D01*
X129966560Y-100702069D02*
X129916052Y-100786248D01*
X129916052Y-100786248D02*
X129831873Y-100870428D01*
X129831873Y-100870428D02*
X129747693Y-100920935D01*
X129747693Y-100920935D02*
X129697186Y-100937771D01*
X129697186Y-100937771D02*
X129663514Y-100937771D01*
X129663514Y-100937771D02*
X129613006Y-100920935D01*
X129613006Y-100920935D02*
X129579335Y-100887263D01*
X129579335Y-100887263D02*
X129562499Y-100836756D01*
X129562499Y-100836756D02*
X129562499Y-100803084D01*
X129562499Y-100803084D02*
X129579335Y-100752576D01*
X129579335Y-100752576D02*
X129629842Y-100668397D01*
X129629842Y-100668397D02*
X129714022Y-100584218D01*
X129714022Y-100584218D02*
X129798201Y-100533710D01*
X129798201Y-100533710D02*
X129848709Y-100516874D01*
X129848709Y-100516874D02*
X129882381Y-100516874D01*
X129882381Y-100516874D02*
X129932888Y-100533710D01*
D10*
X118109580Y-59932857D02*
X118157200Y-59980476D01*
X118157200Y-59980476D02*
X118204819Y-60123333D01*
X118204819Y-60123333D02*
X118204819Y-60218571D01*
X118204819Y-60218571D02*
X118157200Y-60361428D01*
X118157200Y-60361428D02*
X118061961Y-60456666D01*
X118061961Y-60456666D02*
X117966723Y-60504285D01*
X117966723Y-60504285D02*
X117776247Y-60551904D01*
X117776247Y-60551904D02*
X117633390Y-60551904D01*
X117633390Y-60551904D02*
X117442914Y-60504285D01*
X117442914Y-60504285D02*
X117347676Y-60456666D01*
X117347676Y-60456666D02*
X117252438Y-60361428D01*
X117252438Y-60361428D02*
X117204819Y-60218571D01*
X117204819Y-60218571D02*
X117204819Y-60123333D01*
X117204819Y-60123333D02*
X117252438Y-59980476D01*
X117252438Y-59980476D02*
X117300057Y-59932857D01*
X117204819Y-59075714D02*
X117204819Y-59266190D01*
X117204819Y-59266190D02*
X117252438Y-59361428D01*
X117252438Y-59361428D02*
X117300057Y-59409047D01*
X117300057Y-59409047D02*
X117442914Y-59504285D01*
X117442914Y-59504285D02*
X117633390Y-59551904D01*
X117633390Y-59551904D02*
X118014342Y-59551904D01*
X118014342Y-59551904D02*
X118109580Y-59504285D01*
X118109580Y-59504285D02*
X118157200Y-59456666D01*
X118157200Y-59456666D02*
X118204819Y-59361428D01*
X118204819Y-59361428D02*
X118204819Y-59170952D01*
X118204819Y-59170952D02*
X118157200Y-59075714D01*
X118157200Y-59075714D02*
X118109580Y-59028095D01*
X118109580Y-59028095D02*
X118014342Y-58980476D01*
X118014342Y-58980476D02*
X117776247Y-58980476D01*
X117776247Y-58980476D02*
X117681009Y-59028095D01*
X117681009Y-59028095D02*
X117633390Y-59075714D01*
X117633390Y-59075714D02*
X117585771Y-59170952D01*
X117585771Y-59170952D02*
X117585771Y-59361428D01*
X117585771Y-59361428D02*
X117633390Y-59456666D01*
X117633390Y-59456666D02*
X117681009Y-59504285D01*
X117681009Y-59504285D02*
X117776247Y-59551904D01*
X117633390Y-58409047D02*
X117585771Y-58504285D01*
X117585771Y-58504285D02*
X117538152Y-58551904D01*
X117538152Y-58551904D02*
X117442914Y-58599523D01*
X117442914Y-58599523D02*
X117395295Y-58599523D01*
X117395295Y-58599523D02*
X117300057Y-58551904D01*
X117300057Y-58551904D02*
X117252438Y-58504285D01*
X117252438Y-58504285D02*
X117204819Y-58409047D01*
X117204819Y-58409047D02*
X117204819Y-58218571D01*
X117204819Y-58218571D02*
X117252438Y-58123333D01*
X117252438Y-58123333D02*
X117300057Y-58075714D01*
X117300057Y-58075714D02*
X117395295Y-58028095D01*
X117395295Y-58028095D02*
X117442914Y-58028095D01*
X117442914Y-58028095D02*
X117538152Y-58075714D01*
X117538152Y-58075714D02*
X117585771Y-58123333D01*
X117585771Y-58123333D02*
X117633390Y-58218571D01*
X117633390Y-58218571D02*
X117633390Y-58409047D01*
X117633390Y-58409047D02*
X117681009Y-58504285D01*
X117681009Y-58504285D02*
X117728628Y-58551904D01*
X117728628Y-58551904D02*
X117823866Y-58599523D01*
X117823866Y-58599523D02*
X118014342Y-58599523D01*
X118014342Y-58599523D02*
X118109580Y-58551904D01*
X118109580Y-58551904D02*
X118157200Y-58504285D01*
X118157200Y-58504285D02*
X118204819Y-58409047D01*
X118204819Y-58409047D02*
X118204819Y-58218571D01*
X118204819Y-58218571D02*
X118157200Y-58123333D01*
X118157200Y-58123333D02*
X118109580Y-58075714D01*
X118109580Y-58075714D02*
X118014342Y-58028095D01*
X118014342Y-58028095D02*
X117823866Y-58028095D01*
X117823866Y-58028095D02*
X117728628Y-58075714D01*
X117728628Y-58075714D02*
X117681009Y-58123333D01*
X117681009Y-58123333D02*
X117633390Y-58218571D01*
X127006009Y-93210952D02*
X127053628Y-93068095D01*
X127053628Y-93068095D02*
X127101247Y-93020476D01*
X127101247Y-93020476D02*
X127196485Y-92972857D01*
X127196485Y-92972857D02*
X127339342Y-92972857D01*
X127339342Y-92972857D02*
X127434580Y-93020476D01*
X127434580Y-93020476D02*
X127482200Y-93068095D01*
X127482200Y-93068095D02*
X127529819Y-93163333D01*
X127529819Y-93163333D02*
X127529819Y-93544285D01*
X127529819Y-93544285D02*
X126529819Y-93544285D01*
X126529819Y-93544285D02*
X126529819Y-93210952D01*
X126529819Y-93210952D02*
X126577438Y-93115714D01*
X126577438Y-93115714D02*
X126625057Y-93068095D01*
X126625057Y-93068095D02*
X126720295Y-93020476D01*
X126720295Y-93020476D02*
X126815533Y-93020476D01*
X126815533Y-93020476D02*
X126910771Y-93068095D01*
X126910771Y-93068095D02*
X126958390Y-93115714D01*
X126958390Y-93115714D02*
X127006009Y-93210952D01*
X127006009Y-93210952D02*
X127006009Y-93544285D01*
X126529819Y-92639523D02*
X126529819Y-91972857D01*
X126529819Y-91972857D02*
X127529819Y-92639523D01*
X127529819Y-92639523D02*
X127529819Y-91972857D01*
X127529819Y-91068095D02*
X127529819Y-91639523D01*
X127529819Y-91353809D02*
X126529819Y-91353809D01*
X126529819Y-91353809D02*
X126672676Y-91449047D01*
X126672676Y-91449047D02*
X126767914Y-91544285D01*
X126767914Y-91544285D02*
X126815533Y-91639523D01*
X114616724Y-82607574D02*
X114549380Y-82607574D01*
X114549380Y-82607574D02*
X114414693Y-82540230D01*
X114414693Y-82540230D02*
X114347350Y-82472887D01*
X114347350Y-82472887D02*
X114280006Y-82338200D01*
X114280006Y-82338200D02*
X114280006Y-82203513D01*
X114280006Y-82203513D02*
X114313678Y-82102498D01*
X114313678Y-82102498D02*
X114414693Y-81934139D01*
X114414693Y-81934139D02*
X114515708Y-81833124D01*
X114515708Y-81833124D02*
X114684067Y-81732108D01*
X114684067Y-81732108D02*
X114785082Y-81698437D01*
X114785082Y-81698437D02*
X114919769Y-81698437D01*
X114919769Y-81698437D02*
X115054456Y-81765780D01*
X115054456Y-81765780D02*
X115121800Y-81833124D01*
X115121800Y-81833124D02*
X115189143Y-81967811D01*
X115189143Y-81967811D02*
X115189143Y-82035154D01*
X115492189Y-82203513D02*
X115963594Y-82674917D01*
X115963594Y-82674917D02*
X114953441Y-83078978D01*
D12*
X137387190Y-104991428D02*
X137411000Y-105015237D01*
X137411000Y-105015237D02*
X137434809Y-105086666D01*
X137434809Y-105086666D02*
X137434809Y-105134285D01*
X137434809Y-105134285D02*
X137411000Y-105205713D01*
X137411000Y-105205713D02*
X137363380Y-105253332D01*
X137363380Y-105253332D02*
X137315761Y-105277142D01*
X137315761Y-105277142D02*
X137220523Y-105300951D01*
X137220523Y-105300951D02*
X137149095Y-105300951D01*
X137149095Y-105300951D02*
X137053857Y-105277142D01*
X137053857Y-105277142D02*
X137006238Y-105253332D01*
X137006238Y-105253332D02*
X136958619Y-105205713D01*
X136958619Y-105205713D02*
X136934809Y-105134285D01*
X136934809Y-105134285D02*
X136934809Y-105086666D01*
X136934809Y-105086666D02*
X136958619Y-105015237D01*
X136958619Y-105015237D02*
X136982428Y-104991428D01*
X136934809Y-104824761D02*
X136934809Y-104515237D01*
X136934809Y-104515237D02*
X137125285Y-104681904D01*
X137125285Y-104681904D02*
X137125285Y-104610475D01*
X137125285Y-104610475D02*
X137149095Y-104562856D01*
X137149095Y-104562856D02*
X137172904Y-104539047D01*
X137172904Y-104539047D02*
X137220523Y-104515237D01*
X137220523Y-104515237D02*
X137339571Y-104515237D01*
X137339571Y-104515237D02*
X137387190Y-104539047D01*
X137387190Y-104539047D02*
X137411000Y-104562856D01*
X137411000Y-104562856D02*
X137434809Y-104610475D01*
X137434809Y-104610475D02*
X137434809Y-104753332D01*
X137434809Y-104753332D02*
X137411000Y-104800951D01*
X137411000Y-104800951D02*
X137387190Y-104824761D01*
X137101476Y-104086666D02*
X137434809Y-104086666D01*
X136911000Y-104205714D02*
X137268142Y-104324761D01*
X137268142Y-104324761D02*
X137268142Y-104015238D01*
D10*
X133304819Y-99268094D02*
X132304819Y-99268094D01*
X132304819Y-99268094D02*
X132304819Y-99029999D01*
X132304819Y-99029999D02*
X132352438Y-98887142D01*
X132352438Y-98887142D02*
X132447676Y-98791904D01*
X132447676Y-98791904D02*
X132542914Y-98744285D01*
X132542914Y-98744285D02*
X132733390Y-98696666D01*
X132733390Y-98696666D02*
X132876247Y-98696666D01*
X132876247Y-98696666D02*
X133066723Y-98744285D01*
X133066723Y-98744285D02*
X133161961Y-98791904D01*
X133161961Y-98791904D02*
X133257200Y-98887142D01*
X133257200Y-98887142D02*
X133304819Y-99029999D01*
X133304819Y-99029999D02*
X133304819Y-99268094D01*
X132304819Y-97791904D02*
X132304819Y-98268094D01*
X132304819Y-98268094D02*
X132781009Y-98315713D01*
X132781009Y-98315713D02*
X132733390Y-98268094D01*
X132733390Y-98268094D02*
X132685771Y-98172856D01*
X132685771Y-98172856D02*
X132685771Y-97934761D01*
X132685771Y-97934761D02*
X132733390Y-97839523D01*
X132733390Y-97839523D02*
X132781009Y-97791904D01*
X132781009Y-97791904D02*
X132876247Y-97744285D01*
X132876247Y-97744285D02*
X133114342Y-97744285D01*
X133114342Y-97744285D02*
X133209580Y-97791904D01*
X133209580Y-97791904D02*
X133257200Y-97839523D01*
X133257200Y-97839523D02*
X133304819Y-97934761D01*
X133304819Y-97934761D02*
X133304819Y-98172856D01*
X133304819Y-98172856D02*
X133257200Y-98268094D01*
X133257200Y-98268094D02*
X133209580Y-98315713D01*
X108091009Y-53494762D02*
X108091009Y-53828095D01*
X108614819Y-53828095D02*
X107614819Y-53828095D01*
X107614819Y-53828095D02*
X107614819Y-53351905D01*
X108614819Y-52828095D02*
X108567200Y-52923333D01*
X108567200Y-52923333D02*
X108471961Y-52970952D01*
X108471961Y-52970952D02*
X107614819Y-52970952D01*
X108614819Y-52018571D02*
X108091009Y-52018571D01*
X108091009Y-52018571D02*
X107995771Y-52066190D01*
X107995771Y-52066190D02*
X107948152Y-52161428D01*
X107948152Y-52161428D02*
X107948152Y-52351904D01*
X107948152Y-52351904D02*
X107995771Y-52447142D01*
X108567200Y-52018571D02*
X108614819Y-52113809D01*
X108614819Y-52113809D02*
X108614819Y-52351904D01*
X108614819Y-52351904D02*
X108567200Y-52447142D01*
X108567200Y-52447142D02*
X108471961Y-52494761D01*
X108471961Y-52494761D02*
X108376723Y-52494761D01*
X108376723Y-52494761D02*
X108281485Y-52447142D01*
X108281485Y-52447142D02*
X108233866Y-52351904D01*
X108233866Y-52351904D02*
X108233866Y-52113809D01*
X108233866Y-52113809D02*
X108186247Y-52018571D01*
X108567200Y-51589999D02*
X108614819Y-51494761D01*
X108614819Y-51494761D02*
X108614819Y-51304285D01*
X108614819Y-51304285D02*
X108567200Y-51209047D01*
X108567200Y-51209047D02*
X108471961Y-51161428D01*
X108471961Y-51161428D02*
X108424342Y-51161428D01*
X108424342Y-51161428D02*
X108329104Y-51209047D01*
X108329104Y-51209047D02*
X108281485Y-51304285D01*
X108281485Y-51304285D02*
X108281485Y-51447142D01*
X108281485Y-51447142D02*
X108233866Y-51542380D01*
X108233866Y-51542380D02*
X108138628Y-51589999D01*
X108138628Y-51589999D02*
X108091009Y-51589999D01*
X108091009Y-51589999D02*
X107995771Y-51542380D01*
X107995771Y-51542380D02*
X107948152Y-51447142D01*
X107948152Y-51447142D02*
X107948152Y-51304285D01*
X107948152Y-51304285D02*
X107995771Y-51209047D01*
X108614819Y-50732856D02*
X107614819Y-50732856D01*
X108614819Y-50304285D02*
X108091009Y-50304285D01*
X108091009Y-50304285D02*
X107995771Y-50351904D01*
X107995771Y-50351904D02*
X107948152Y-50447142D01*
X107948152Y-50447142D02*
X107948152Y-50589999D01*
X107948152Y-50589999D02*
X107995771Y-50685237D01*
X107995771Y-50685237D02*
X108043390Y-50732856D01*
X108614819Y-49304285D02*
X108614819Y-49875713D01*
X108614819Y-49589999D02*
X107614819Y-49589999D01*
X107614819Y-49589999D02*
X107757676Y-49685237D01*
X107757676Y-49685237D02*
X107852914Y-49780475D01*
X107852914Y-49780475D02*
X107900533Y-49875713D01*
X119439666Y-90696019D02*
X119439666Y-91410304D01*
X119439666Y-91410304D02*
X119392047Y-91553161D01*
X119392047Y-91553161D02*
X119296809Y-91648400D01*
X119296809Y-91648400D02*
X119153952Y-91696019D01*
X119153952Y-91696019D02*
X119058714Y-91696019D01*
X119820619Y-90696019D02*
X120487285Y-90696019D01*
X120487285Y-90696019D02*
X120058714Y-91696019D01*
X118586666Y-112139819D02*
X118586666Y-112854104D01*
X118586666Y-112854104D02*
X118539047Y-112996961D01*
X118539047Y-112996961D02*
X118443809Y-113092200D01*
X118443809Y-113092200D02*
X118300952Y-113139819D01*
X118300952Y-113139819D02*
X118205714Y-113139819D01*
X119015238Y-112235057D02*
X119062857Y-112187438D01*
X119062857Y-112187438D02*
X119158095Y-112139819D01*
X119158095Y-112139819D02*
X119396190Y-112139819D01*
X119396190Y-112139819D02*
X119491428Y-112187438D01*
X119491428Y-112187438D02*
X119539047Y-112235057D01*
X119539047Y-112235057D02*
X119586666Y-112330295D01*
X119586666Y-112330295D02*
X119586666Y-112425533D01*
X119586666Y-112425533D02*
X119539047Y-112568390D01*
X119539047Y-112568390D02*
X118967619Y-113139819D01*
X118967619Y-113139819D02*
X119586666Y-113139819D01*
X111848571Y-116799700D02*
X112991429Y-116799700D01*
X124848571Y-116799700D02*
X125991429Y-116799700D01*
X125420000Y-117371128D02*
X125420000Y-116228271D01*
X127498333Y-101129580D02*
X127450714Y-101177200D01*
X127450714Y-101177200D02*
X127307857Y-101224819D01*
X127307857Y-101224819D02*
X127212619Y-101224819D01*
X127212619Y-101224819D02*
X127069762Y-101177200D01*
X127069762Y-101177200D02*
X126974524Y-101081961D01*
X126974524Y-101081961D02*
X126926905Y-100986723D01*
X126926905Y-100986723D02*
X126879286Y-100796247D01*
X126879286Y-100796247D02*
X126879286Y-100653390D01*
X126879286Y-100653390D02*
X126926905Y-100462914D01*
X126926905Y-100462914D02*
X126974524Y-100367676D01*
X126974524Y-100367676D02*
X127069762Y-100272438D01*
X127069762Y-100272438D02*
X127212619Y-100224819D01*
X127212619Y-100224819D02*
X127307857Y-100224819D01*
X127307857Y-100224819D02*
X127450714Y-100272438D01*
X127450714Y-100272438D02*
X127498333Y-100320057D01*
X128069762Y-100653390D02*
X127974524Y-100605771D01*
X127974524Y-100605771D02*
X127926905Y-100558152D01*
X127926905Y-100558152D02*
X127879286Y-100462914D01*
X127879286Y-100462914D02*
X127879286Y-100415295D01*
X127879286Y-100415295D02*
X127926905Y-100320057D01*
X127926905Y-100320057D02*
X127974524Y-100272438D01*
X127974524Y-100272438D02*
X128069762Y-100224819D01*
X128069762Y-100224819D02*
X128260238Y-100224819D01*
X128260238Y-100224819D02*
X128355476Y-100272438D01*
X128355476Y-100272438D02*
X128403095Y-100320057D01*
X128403095Y-100320057D02*
X128450714Y-100415295D01*
X128450714Y-100415295D02*
X128450714Y-100462914D01*
X128450714Y-100462914D02*
X128403095Y-100558152D01*
X128403095Y-100558152D02*
X128355476Y-100605771D01*
X128355476Y-100605771D02*
X128260238Y-100653390D01*
X128260238Y-100653390D02*
X128069762Y-100653390D01*
X128069762Y-100653390D02*
X127974524Y-100701009D01*
X127974524Y-100701009D02*
X127926905Y-100748628D01*
X127926905Y-100748628D02*
X127879286Y-100843866D01*
X127879286Y-100843866D02*
X127879286Y-101034342D01*
X127879286Y-101034342D02*
X127926905Y-101129580D01*
X127926905Y-101129580D02*
X127974524Y-101177200D01*
X127974524Y-101177200D02*
X128069762Y-101224819D01*
X128069762Y-101224819D02*
X128260238Y-101224819D01*
X128260238Y-101224819D02*
X128355476Y-101177200D01*
X128355476Y-101177200D02*
X128403095Y-101129580D01*
X128403095Y-101129580D02*
X128450714Y-101034342D01*
X128450714Y-101034342D02*
X128450714Y-100843866D01*
X128450714Y-100843866D02*
X128403095Y-100748628D01*
X128403095Y-100748628D02*
X128355476Y-100701009D01*
X128355476Y-100701009D02*
X128260238Y-100653390D01*
X108457142Y-89039580D02*
X108409523Y-89087200D01*
X108409523Y-89087200D02*
X108266666Y-89134819D01*
X108266666Y-89134819D02*
X108171428Y-89134819D01*
X108171428Y-89134819D02*
X108028571Y-89087200D01*
X108028571Y-89087200D02*
X107933333Y-88991961D01*
X107933333Y-88991961D02*
X107885714Y-88896723D01*
X107885714Y-88896723D02*
X107838095Y-88706247D01*
X107838095Y-88706247D02*
X107838095Y-88563390D01*
X107838095Y-88563390D02*
X107885714Y-88372914D01*
X107885714Y-88372914D02*
X107933333Y-88277676D01*
X107933333Y-88277676D02*
X108028571Y-88182438D01*
X108028571Y-88182438D02*
X108171428Y-88134819D01*
X108171428Y-88134819D02*
X108266666Y-88134819D01*
X108266666Y-88134819D02*
X108409523Y-88182438D01*
X108409523Y-88182438D02*
X108457142Y-88230057D01*
X109314285Y-88134819D02*
X109123809Y-88134819D01*
X109123809Y-88134819D02*
X109028571Y-88182438D01*
X109028571Y-88182438D02*
X108980952Y-88230057D01*
X108980952Y-88230057D02*
X108885714Y-88372914D01*
X108885714Y-88372914D02*
X108838095Y-88563390D01*
X108838095Y-88563390D02*
X108838095Y-88944342D01*
X108838095Y-88944342D02*
X108885714Y-89039580D01*
X108885714Y-89039580D02*
X108933333Y-89087200D01*
X108933333Y-89087200D02*
X109028571Y-89134819D01*
X109028571Y-89134819D02*
X109219047Y-89134819D01*
X109219047Y-89134819D02*
X109314285Y-89087200D01*
X109314285Y-89087200D02*
X109361904Y-89039580D01*
X109361904Y-89039580D02*
X109409523Y-88944342D01*
X109409523Y-88944342D02*
X109409523Y-88706247D01*
X109409523Y-88706247D02*
X109361904Y-88611009D01*
X109361904Y-88611009D02*
X109314285Y-88563390D01*
X109314285Y-88563390D02*
X109219047Y-88515771D01*
X109219047Y-88515771D02*
X109028571Y-88515771D01*
X109028571Y-88515771D02*
X108933333Y-88563390D01*
X108933333Y-88563390D02*
X108885714Y-88611009D01*
X108885714Y-88611009D02*
X108838095Y-88706247D01*
X110314285Y-88134819D02*
X109838095Y-88134819D01*
X109838095Y-88134819D02*
X109790476Y-88611009D01*
X109790476Y-88611009D02*
X109838095Y-88563390D01*
X109838095Y-88563390D02*
X109933333Y-88515771D01*
X109933333Y-88515771D02*
X110171428Y-88515771D01*
X110171428Y-88515771D02*
X110266666Y-88563390D01*
X110266666Y-88563390D02*
X110314285Y-88611009D01*
X110314285Y-88611009D02*
X110361904Y-88706247D01*
X110361904Y-88706247D02*
X110361904Y-88944342D01*
X110361904Y-88944342D02*
X110314285Y-89039580D01*
X110314285Y-89039580D02*
X110266666Y-89087200D01*
X110266666Y-89087200D02*
X110171428Y-89134819D01*
X110171428Y-89134819D02*
X109933333Y-89134819D01*
X109933333Y-89134819D02*
X109838095Y-89087200D01*
X109838095Y-89087200D02*
X109790476Y-89039580D01*
X114777142Y-104304580D02*
X114729523Y-104352200D01*
X114729523Y-104352200D02*
X114586666Y-104399819D01*
X114586666Y-104399819D02*
X114491428Y-104399819D01*
X114491428Y-104399819D02*
X114348571Y-104352200D01*
X114348571Y-104352200D02*
X114253333Y-104256961D01*
X114253333Y-104256961D02*
X114205714Y-104161723D01*
X114205714Y-104161723D02*
X114158095Y-103971247D01*
X114158095Y-103971247D02*
X114158095Y-103828390D01*
X114158095Y-103828390D02*
X114205714Y-103637914D01*
X114205714Y-103637914D02*
X114253333Y-103542676D01*
X114253333Y-103542676D02*
X114348571Y-103447438D01*
X114348571Y-103447438D02*
X114491428Y-103399819D01*
X114491428Y-103399819D02*
X114586666Y-103399819D01*
X114586666Y-103399819D02*
X114729523Y-103447438D01*
X114729523Y-103447438D02*
X114777142Y-103495057D01*
X115158095Y-103495057D02*
X115205714Y-103447438D01*
X115205714Y-103447438D02*
X115300952Y-103399819D01*
X115300952Y-103399819D02*
X115539047Y-103399819D01*
X115539047Y-103399819D02*
X115634285Y-103447438D01*
X115634285Y-103447438D02*
X115681904Y-103495057D01*
X115681904Y-103495057D02*
X115729523Y-103590295D01*
X115729523Y-103590295D02*
X115729523Y-103685533D01*
X115729523Y-103685533D02*
X115681904Y-103828390D01*
X115681904Y-103828390D02*
X115110476Y-104399819D01*
X115110476Y-104399819D02*
X115729523Y-104399819D01*
X116062857Y-103399819D02*
X116729523Y-103399819D01*
X116729523Y-103399819D02*
X116300952Y-104399819D01*
X129124819Y-104428094D02*
X128124819Y-104428094D01*
X128124819Y-104428094D02*
X128124819Y-104189999D01*
X128124819Y-104189999D02*
X128172438Y-104047142D01*
X128172438Y-104047142D02*
X128267676Y-103951904D01*
X128267676Y-103951904D02*
X128362914Y-103904285D01*
X128362914Y-103904285D02*
X128553390Y-103856666D01*
X128553390Y-103856666D02*
X128696247Y-103856666D01*
X128696247Y-103856666D02*
X128886723Y-103904285D01*
X128886723Y-103904285D02*
X128981961Y-103951904D01*
X128981961Y-103951904D02*
X129077200Y-104047142D01*
X129077200Y-104047142D02*
X129124819Y-104189999D01*
X129124819Y-104189999D02*
X129124819Y-104428094D01*
X128553390Y-103285237D02*
X128505771Y-103380475D01*
X128505771Y-103380475D02*
X128458152Y-103428094D01*
X128458152Y-103428094D02*
X128362914Y-103475713D01*
X128362914Y-103475713D02*
X128315295Y-103475713D01*
X128315295Y-103475713D02*
X128220057Y-103428094D01*
X128220057Y-103428094D02*
X128172438Y-103380475D01*
X128172438Y-103380475D02*
X128124819Y-103285237D01*
X128124819Y-103285237D02*
X128124819Y-103094761D01*
X128124819Y-103094761D02*
X128172438Y-102999523D01*
X128172438Y-102999523D02*
X128220057Y-102951904D01*
X128220057Y-102951904D02*
X128315295Y-102904285D01*
X128315295Y-102904285D02*
X128362914Y-102904285D01*
X128362914Y-102904285D02*
X128458152Y-102951904D01*
X128458152Y-102951904D02*
X128505771Y-102999523D01*
X128505771Y-102999523D02*
X128553390Y-103094761D01*
X128553390Y-103094761D02*
X128553390Y-103285237D01*
X128553390Y-103285237D02*
X128601009Y-103380475D01*
X128601009Y-103380475D02*
X128648628Y-103428094D01*
X128648628Y-103428094D02*
X128743866Y-103475713D01*
X128743866Y-103475713D02*
X128934342Y-103475713D01*
X128934342Y-103475713D02*
X129029580Y-103428094D01*
X129029580Y-103428094D02*
X129077200Y-103380475D01*
X129077200Y-103380475D02*
X129124819Y-103285237D01*
X129124819Y-103285237D02*
X129124819Y-103094761D01*
X129124819Y-103094761D02*
X129077200Y-102999523D01*
X129077200Y-102999523D02*
X129029580Y-102951904D01*
X129029580Y-102951904D02*
X128934342Y-102904285D01*
X128934342Y-102904285D02*
X128743866Y-102904285D01*
X128743866Y-102904285D02*
X128648628Y-102951904D01*
X128648628Y-102951904D02*
X128601009Y-102999523D01*
X128601009Y-102999523D02*
X128553390Y-103094761D01*
X116944819Y-106307857D02*
X116468628Y-106641190D01*
X116944819Y-106879285D02*
X115944819Y-106879285D01*
X115944819Y-106879285D02*
X115944819Y-106498333D01*
X115944819Y-106498333D02*
X115992438Y-106403095D01*
X115992438Y-106403095D02*
X116040057Y-106355476D01*
X116040057Y-106355476D02*
X116135295Y-106307857D01*
X116135295Y-106307857D02*
X116278152Y-106307857D01*
X116278152Y-106307857D02*
X116373390Y-106355476D01*
X116373390Y-106355476D02*
X116421009Y-106403095D01*
X116421009Y-106403095D02*
X116468628Y-106498333D01*
X116468628Y-106498333D02*
X116468628Y-106879285D01*
X116944819Y-105355476D02*
X116944819Y-105926904D01*
X116944819Y-105641190D02*
X115944819Y-105641190D01*
X115944819Y-105641190D02*
X116087676Y-105736428D01*
X116087676Y-105736428D02*
X116182914Y-105831666D01*
X116182914Y-105831666D02*
X116230533Y-105926904D01*
X116944819Y-104403095D02*
X116944819Y-104974523D01*
X116944819Y-104688809D02*
X115944819Y-104688809D01*
X115944819Y-104688809D02*
X116087676Y-104784047D01*
X116087676Y-104784047D02*
X116182914Y-104879285D01*
X116182914Y-104879285D02*
X116230533Y-104974523D01*
D11*
X121230736Y-64129271D02*
X121230736Y-65157366D01*
X121230736Y-65157366D02*
X121291213Y-65278318D01*
X121291213Y-65278318D02*
X121351689Y-65338795D01*
X121351689Y-65338795D02*
X121472641Y-65399271D01*
X121472641Y-65399271D02*
X121714546Y-65399271D01*
X121714546Y-65399271D02*
X121835498Y-65338795D01*
X121835498Y-65338795D02*
X121895975Y-65278318D01*
X121895975Y-65278318D02*
X121956451Y-65157366D01*
X121956451Y-65157366D02*
X121956451Y-64129271D01*
X122440260Y-64129271D02*
X123226451Y-64129271D01*
X123226451Y-64129271D02*
X122803117Y-64613080D01*
X122803117Y-64613080D02*
X122984546Y-64613080D01*
X122984546Y-64613080D02*
X123105498Y-64673556D01*
X123105498Y-64673556D02*
X123165974Y-64734033D01*
X123165974Y-64734033D02*
X123226451Y-64854985D01*
X123226451Y-64854985D02*
X123226451Y-65157366D01*
X123226451Y-65157366D02*
X123165974Y-65278318D01*
X123165974Y-65278318D02*
X123105498Y-65338795D01*
X123105498Y-65338795D02*
X122984546Y-65399271D01*
X122984546Y-65399271D02*
X122621689Y-65399271D01*
X122621689Y-65399271D02*
X122500736Y-65338795D01*
X122500736Y-65338795D02*
X122440260Y-65278318D01*
D10*
X107994819Y-81892857D02*
X107518628Y-82226190D01*
X107994819Y-82464285D02*
X106994819Y-82464285D01*
X106994819Y-82464285D02*
X106994819Y-82083333D01*
X106994819Y-82083333D02*
X107042438Y-81988095D01*
X107042438Y-81988095D02*
X107090057Y-81940476D01*
X107090057Y-81940476D02*
X107185295Y-81892857D01*
X107185295Y-81892857D02*
X107328152Y-81892857D01*
X107328152Y-81892857D02*
X107423390Y-81940476D01*
X107423390Y-81940476D02*
X107471009Y-81988095D01*
X107471009Y-81988095D02*
X107518628Y-82083333D01*
X107518628Y-82083333D02*
X107518628Y-82464285D01*
X107994819Y-80940476D02*
X107994819Y-81511904D01*
X107994819Y-81226190D02*
X106994819Y-81226190D01*
X106994819Y-81226190D02*
X107137676Y-81321428D01*
X107137676Y-81321428D02*
X107232914Y-81416666D01*
X107232914Y-81416666D02*
X107280533Y-81511904D01*
X106994819Y-80083333D02*
X106994819Y-80273809D01*
X106994819Y-80273809D02*
X107042438Y-80369047D01*
X107042438Y-80369047D02*
X107090057Y-80416666D01*
X107090057Y-80416666D02*
X107232914Y-80511904D01*
X107232914Y-80511904D02*
X107423390Y-80559523D01*
X107423390Y-80559523D02*
X107804342Y-80559523D01*
X107804342Y-80559523D02*
X107899580Y-80511904D01*
X107899580Y-80511904D02*
X107947200Y-80464285D01*
X107947200Y-80464285D02*
X107994819Y-80369047D01*
X107994819Y-80369047D02*
X107994819Y-80178571D01*
X107994819Y-80178571D02*
X107947200Y-80083333D01*
X107947200Y-80083333D02*
X107899580Y-80035714D01*
X107899580Y-80035714D02*
X107804342Y-79988095D01*
X107804342Y-79988095D02*
X107566247Y-79988095D01*
X107566247Y-79988095D02*
X107471009Y-80035714D01*
X107471009Y-80035714D02*
X107423390Y-80083333D01*
X107423390Y-80083333D02*
X107375771Y-80178571D01*
X107375771Y-80178571D02*
X107375771Y-80369047D01*
X107375771Y-80369047D02*
X107423390Y-80464285D01*
X107423390Y-80464285D02*
X107471009Y-80511904D01*
X107471009Y-80511904D02*
X107566247Y-80559523D01*
X126311413Y-73109449D02*
X126244069Y-73109449D01*
X126244069Y-73109449D02*
X126109382Y-73042105D01*
X126109382Y-73042105D02*
X126042039Y-72974762D01*
X126042039Y-72974762D02*
X125974695Y-72840075D01*
X125974695Y-72840075D02*
X125974695Y-72705388D01*
X125974695Y-72705388D02*
X126008367Y-72604373D01*
X126008367Y-72604373D02*
X126109382Y-72436014D01*
X126109382Y-72436014D02*
X126210397Y-72334999D01*
X126210397Y-72334999D02*
X126378756Y-72233983D01*
X126378756Y-72233983D02*
X126479771Y-72200312D01*
X126479771Y-72200312D02*
X126614458Y-72200312D01*
X126614458Y-72200312D02*
X126749145Y-72267655D01*
X126749145Y-72267655D02*
X126816489Y-72334999D01*
X126816489Y-72334999D02*
X126883832Y-72469686D01*
X126883832Y-72469686D02*
X126883832Y-72537029D01*
X127590939Y-73109449D02*
X127254222Y-72772731D01*
X127254222Y-72772731D02*
X126883832Y-73075777D01*
X126883832Y-73075777D02*
X126951176Y-73075777D01*
X126951176Y-73075777D02*
X127052191Y-73109449D01*
X127052191Y-73109449D02*
X127220550Y-73277808D01*
X127220550Y-73277808D02*
X127254222Y-73378823D01*
X127254222Y-73378823D02*
X127254222Y-73446166D01*
X127254222Y-73446166D02*
X127220550Y-73547182D01*
X127220550Y-73547182D02*
X127052191Y-73715540D01*
X127052191Y-73715540D02*
X126951176Y-73749212D01*
X126951176Y-73749212D02*
X126883832Y-73749212D01*
X126883832Y-73749212D02*
X126782817Y-73715540D01*
X126782817Y-73715540D02*
X126614458Y-73547182D01*
X126614458Y-73547182D02*
X126580787Y-73446166D01*
X126580787Y-73446166D02*
X126580787Y-73378823D01*
X127826642Y-73479838D02*
X127893985Y-73479838D01*
X127893985Y-73479838D02*
X127995000Y-73513510D01*
X127995000Y-73513510D02*
X128163359Y-73681869D01*
X128163359Y-73681869D02*
X128197031Y-73782884D01*
X128197031Y-73782884D02*
X128197031Y-73850228D01*
X128197031Y-73850228D02*
X128163359Y-73951243D01*
X128163359Y-73951243D02*
X128096016Y-74018586D01*
X128096016Y-74018586D02*
X127961329Y-74085930D01*
X127961329Y-74085930D02*
X127153207Y-74085930D01*
X127153207Y-74085930D02*
X127590939Y-74523663D01*
D12*
X137387190Y-103301428D02*
X137411000Y-103325237D01*
X137411000Y-103325237D02*
X137434809Y-103396666D01*
X137434809Y-103396666D02*
X137434809Y-103444285D01*
X137434809Y-103444285D02*
X137411000Y-103515713D01*
X137411000Y-103515713D02*
X137363380Y-103563332D01*
X137363380Y-103563332D02*
X137315761Y-103587142D01*
X137315761Y-103587142D02*
X137220523Y-103610951D01*
X137220523Y-103610951D02*
X137149095Y-103610951D01*
X137149095Y-103610951D02*
X137053857Y-103587142D01*
X137053857Y-103587142D02*
X137006238Y-103563332D01*
X137006238Y-103563332D02*
X136958619Y-103515713D01*
X136958619Y-103515713D02*
X136934809Y-103444285D01*
X136934809Y-103444285D02*
X136934809Y-103396666D01*
X136934809Y-103396666D02*
X136958619Y-103325237D01*
X136958619Y-103325237D02*
X136982428Y-103301428D01*
X136934809Y-102872856D02*
X136934809Y-102968094D01*
X136934809Y-102968094D02*
X136958619Y-103015713D01*
X136958619Y-103015713D02*
X136982428Y-103039523D01*
X136982428Y-103039523D02*
X137053857Y-103087142D01*
X137053857Y-103087142D02*
X137149095Y-103110951D01*
X137149095Y-103110951D02*
X137339571Y-103110951D01*
X137339571Y-103110951D02*
X137387190Y-103087142D01*
X137387190Y-103087142D02*
X137411000Y-103063332D01*
X137411000Y-103063332D02*
X137434809Y-103015713D01*
X137434809Y-103015713D02*
X137434809Y-102920475D01*
X137434809Y-102920475D02*
X137411000Y-102872856D01*
X137411000Y-102872856D02*
X137387190Y-102849047D01*
X137387190Y-102849047D02*
X137339571Y-102825237D01*
X137339571Y-102825237D02*
X137220523Y-102825237D01*
X137220523Y-102825237D02*
X137172904Y-102849047D01*
X137172904Y-102849047D02*
X137149095Y-102872856D01*
X137149095Y-102872856D02*
X137125285Y-102920475D01*
X137125285Y-102920475D02*
X137125285Y-103015713D01*
X137125285Y-103015713D02*
X137149095Y-103063332D01*
X137149095Y-103063332D02*
X137172904Y-103087142D01*
X137172904Y-103087142D02*
X137220523Y-103110951D01*
X136934809Y-102658571D02*
X136934809Y-102325238D01*
X136934809Y-102325238D02*
X137434809Y-102539523D01*
D10*
X130994819Y-78502857D02*
X130518628Y-78836190D01*
X130994819Y-79074285D02*
X129994819Y-79074285D01*
X129994819Y-79074285D02*
X129994819Y-78693333D01*
X129994819Y-78693333D02*
X130042438Y-78598095D01*
X130042438Y-78598095D02*
X130090057Y-78550476D01*
X130090057Y-78550476D02*
X130185295Y-78502857D01*
X130185295Y-78502857D02*
X130328152Y-78502857D01*
X130328152Y-78502857D02*
X130423390Y-78550476D01*
X130423390Y-78550476D02*
X130471009Y-78598095D01*
X130471009Y-78598095D02*
X130518628Y-78693333D01*
X130518628Y-78693333D02*
X130518628Y-79074285D01*
X130994819Y-77550476D02*
X130994819Y-78121904D01*
X130994819Y-77836190D02*
X129994819Y-77836190D01*
X129994819Y-77836190D02*
X130137676Y-77931428D01*
X130137676Y-77931428D02*
X130232914Y-78026666D01*
X130232914Y-78026666D02*
X130280533Y-78121904D01*
X129994819Y-77217142D02*
X129994819Y-76550476D01*
X129994819Y-76550476D02*
X130994819Y-76979047D01*
X121493228Y-81321069D02*
X121594243Y-80748650D01*
X121089167Y-80917008D02*
X121796274Y-80209902D01*
X121796274Y-80209902D02*
X122065648Y-80479276D01*
X122065648Y-80479276D02*
X122099320Y-80580291D01*
X122099320Y-80580291D02*
X122099320Y-80647634D01*
X122099320Y-80647634D02*
X122065648Y-80748650D01*
X122065648Y-80748650D02*
X121964633Y-80849665D01*
X121964633Y-80849665D02*
X121863617Y-80883337D01*
X121863617Y-80883337D02*
X121796274Y-80883337D01*
X121796274Y-80883337D02*
X121695259Y-80849665D01*
X121695259Y-80849665D02*
X121425885Y-80580291D01*
X122436037Y-80849665D02*
X122907442Y-81321069D01*
X122907442Y-81321069D02*
X121897289Y-81725130D01*
X129047142Y-82454819D02*
X128713809Y-81978628D01*
X128475714Y-82454819D02*
X128475714Y-81454819D01*
X128475714Y-81454819D02*
X128856666Y-81454819D01*
X128856666Y-81454819D02*
X128951904Y-81502438D01*
X128951904Y-81502438D02*
X128999523Y-81550057D01*
X128999523Y-81550057D02*
X129047142Y-81645295D01*
X129047142Y-81645295D02*
X129047142Y-81788152D01*
X129047142Y-81788152D02*
X128999523Y-81883390D01*
X128999523Y-81883390D02*
X128951904Y-81931009D01*
X128951904Y-81931009D02*
X128856666Y-81978628D01*
X128856666Y-81978628D02*
X128475714Y-81978628D01*
X129999523Y-82454819D02*
X129428095Y-82454819D01*
X129713809Y-82454819D02*
X129713809Y-81454819D01*
X129713809Y-81454819D02*
X129618571Y-81597676D01*
X129618571Y-81597676D02*
X129523333Y-81692914D01*
X129523333Y-81692914D02*
X129428095Y-81740533D01*
X130856666Y-81788152D02*
X130856666Y-82454819D01*
X130618571Y-81407200D02*
X130380476Y-82121485D01*
X130380476Y-82121485D02*
X130999523Y-82121485D01*
X134513095Y-38434819D02*
X134513095Y-37434819D01*
X134513095Y-37911009D02*
X135084523Y-37911009D01*
X135084523Y-38434819D02*
X135084523Y-37434819D01*
X135465476Y-37434819D02*
X136132142Y-37434819D01*
X136132142Y-37434819D02*
X135703571Y-38434819D01*
X130349580Y-107041666D02*
X130397200Y-107089285D01*
X130397200Y-107089285D02*
X130444819Y-107232142D01*
X130444819Y-107232142D02*
X130444819Y-107327380D01*
X130444819Y-107327380D02*
X130397200Y-107470237D01*
X130397200Y-107470237D02*
X130301961Y-107565475D01*
X130301961Y-107565475D02*
X130206723Y-107613094D01*
X130206723Y-107613094D02*
X130016247Y-107660713D01*
X130016247Y-107660713D02*
X129873390Y-107660713D01*
X129873390Y-107660713D02*
X129682914Y-107613094D01*
X129682914Y-107613094D02*
X129587676Y-107565475D01*
X129587676Y-107565475D02*
X129492438Y-107470237D01*
X129492438Y-107470237D02*
X129444819Y-107327380D01*
X129444819Y-107327380D02*
X129444819Y-107232142D01*
X129444819Y-107232142D02*
X129492438Y-107089285D01*
X129492438Y-107089285D02*
X129540057Y-107041666D01*
X129540057Y-106660713D02*
X129492438Y-106613094D01*
X129492438Y-106613094D02*
X129444819Y-106517856D01*
X129444819Y-106517856D02*
X129444819Y-106279761D01*
X129444819Y-106279761D02*
X129492438Y-106184523D01*
X129492438Y-106184523D02*
X129540057Y-106136904D01*
X129540057Y-106136904D02*
X129635295Y-106089285D01*
X129635295Y-106089285D02*
X129730533Y-106089285D01*
X129730533Y-106089285D02*
X129873390Y-106136904D01*
X129873390Y-106136904D02*
X130444819Y-106708332D01*
X130444819Y-106708332D02*
X130444819Y-106089285D01*
X104513095Y-38434819D02*
X104513095Y-37434819D01*
X104513095Y-37911009D02*
X105084523Y-37911009D01*
X105084523Y-38434819D02*
X105084523Y-37434819D01*
X105703571Y-37863390D02*
X105608333Y-37815771D01*
X105608333Y-37815771D02*
X105560714Y-37768152D01*
X105560714Y-37768152D02*
X105513095Y-37672914D01*
X105513095Y-37672914D02*
X105513095Y-37625295D01*
X105513095Y-37625295D02*
X105560714Y-37530057D01*
X105560714Y-37530057D02*
X105608333Y-37482438D01*
X105608333Y-37482438D02*
X105703571Y-37434819D01*
X105703571Y-37434819D02*
X105894047Y-37434819D01*
X105894047Y-37434819D02*
X105989285Y-37482438D01*
X105989285Y-37482438D02*
X106036904Y-37530057D01*
X106036904Y-37530057D02*
X106084523Y-37625295D01*
X106084523Y-37625295D02*
X106084523Y-37672914D01*
X106084523Y-37672914D02*
X106036904Y-37768152D01*
X106036904Y-37768152D02*
X105989285Y-37815771D01*
X105989285Y-37815771D02*
X105894047Y-37863390D01*
X105894047Y-37863390D02*
X105703571Y-37863390D01*
X105703571Y-37863390D02*
X105608333Y-37911009D01*
X105608333Y-37911009D02*
X105560714Y-37958628D01*
X105560714Y-37958628D02*
X105513095Y-38053866D01*
X105513095Y-38053866D02*
X105513095Y-38244342D01*
X105513095Y-38244342D02*
X105560714Y-38339580D01*
X105560714Y-38339580D02*
X105608333Y-38387200D01*
X105608333Y-38387200D02*
X105703571Y-38434819D01*
X105703571Y-38434819D02*
X105894047Y-38434819D01*
X105894047Y-38434819D02*
X105989285Y-38387200D01*
X105989285Y-38387200D02*
X106036904Y-38339580D01*
X106036904Y-38339580D02*
X106084523Y-38244342D01*
X106084523Y-38244342D02*
X106084523Y-38053866D01*
X106084523Y-38053866D02*
X106036904Y-37958628D01*
X106036904Y-37958628D02*
X105989285Y-37911009D01*
X105989285Y-37911009D02*
X105894047Y-37863390D01*
X113330142Y-90676019D02*
X112996809Y-90199828D01*
X112758714Y-90676019D02*
X112758714Y-89676019D01*
X112758714Y-89676019D02*
X113139666Y-89676019D01*
X113139666Y-89676019D02*
X113234904Y-89723638D01*
X113234904Y-89723638D02*
X113282523Y-89771257D01*
X113282523Y-89771257D02*
X113330142Y-89866495D01*
X113330142Y-89866495D02*
X113330142Y-90009352D01*
X113330142Y-90009352D02*
X113282523Y-90104590D01*
X113282523Y-90104590D02*
X113234904Y-90152209D01*
X113234904Y-90152209D02*
X113139666Y-90199828D01*
X113139666Y-90199828D02*
X112758714Y-90199828D01*
X113711095Y-89771257D02*
X113758714Y-89723638D01*
X113758714Y-89723638D02*
X113853952Y-89676019D01*
X113853952Y-89676019D02*
X114092047Y-89676019D01*
X114092047Y-89676019D02*
X114187285Y-89723638D01*
X114187285Y-89723638D02*
X114234904Y-89771257D01*
X114234904Y-89771257D02*
X114282523Y-89866495D01*
X114282523Y-89866495D02*
X114282523Y-89961733D01*
X114282523Y-89961733D02*
X114234904Y-90104590D01*
X114234904Y-90104590D02*
X113663476Y-90676019D01*
X113663476Y-90676019D02*
X114282523Y-90676019D01*
X114615857Y-89676019D02*
X115234904Y-89676019D01*
X115234904Y-89676019D02*
X114901571Y-90056971D01*
X114901571Y-90056971D02*
X115044428Y-90056971D01*
X115044428Y-90056971D02*
X115139666Y-90104590D01*
X115139666Y-90104590D02*
X115187285Y-90152209D01*
X115187285Y-90152209D02*
X115234904Y-90247447D01*
X115234904Y-90247447D02*
X115234904Y-90485542D01*
X115234904Y-90485542D02*
X115187285Y-90580780D01*
X115187285Y-90580780D02*
X115139666Y-90628400D01*
X115139666Y-90628400D02*
X115044428Y-90676019D01*
X115044428Y-90676019D02*
X114758714Y-90676019D01*
X114758714Y-90676019D02*
X114663476Y-90628400D01*
X114663476Y-90628400D02*
X114615857Y-90580780D01*
X105044819Y-94072857D02*
X104568628Y-94406190D01*
X105044819Y-94644285D02*
X104044819Y-94644285D01*
X104044819Y-94644285D02*
X104044819Y-94263333D01*
X104044819Y-94263333D02*
X104092438Y-94168095D01*
X104092438Y-94168095D02*
X104140057Y-94120476D01*
X104140057Y-94120476D02*
X104235295Y-94072857D01*
X104235295Y-94072857D02*
X104378152Y-94072857D01*
X104378152Y-94072857D02*
X104473390Y-94120476D01*
X104473390Y-94120476D02*
X104521009Y-94168095D01*
X104521009Y-94168095D02*
X104568628Y-94263333D01*
X104568628Y-94263333D02*
X104568628Y-94644285D01*
X104140057Y-93691904D02*
X104092438Y-93644285D01*
X104092438Y-93644285D02*
X104044819Y-93549047D01*
X104044819Y-93549047D02*
X104044819Y-93310952D01*
X104044819Y-93310952D02*
X104092438Y-93215714D01*
X104092438Y-93215714D02*
X104140057Y-93168095D01*
X104140057Y-93168095D02*
X104235295Y-93120476D01*
X104235295Y-93120476D02*
X104330533Y-93120476D01*
X104330533Y-93120476D02*
X104473390Y-93168095D01*
X104473390Y-93168095D02*
X105044819Y-93739523D01*
X105044819Y-93739523D02*
X105044819Y-93120476D01*
X105044819Y-92168095D02*
X105044819Y-92739523D01*
X105044819Y-92453809D02*
X104044819Y-92453809D01*
X104044819Y-92453809D02*
X104187676Y-92549047D01*
X104187676Y-92549047D02*
X104282914Y-92644285D01*
X104282914Y-92644285D02*
X104330533Y-92739523D01*
D11*
X119307380Y-36807271D02*
X119307380Y-37835366D01*
X119307380Y-37835366D02*
X119367857Y-37956318D01*
X119367857Y-37956318D02*
X119428333Y-38016795D01*
X119428333Y-38016795D02*
X119549285Y-38077271D01*
X119549285Y-38077271D02*
X119791190Y-38077271D01*
X119791190Y-38077271D02*
X119912142Y-38016795D01*
X119912142Y-38016795D02*
X119972619Y-37956318D01*
X119972619Y-37956318D02*
X120033095Y-37835366D01*
X120033095Y-37835366D02*
X120033095Y-36807271D01*
X120577380Y-36928223D02*
X120637856Y-36867747D01*
X120637856Y-36867747D02*
X120758809Y-36807271D01*
X120758809Y-36807271D02*
X121061190Y-36807271D01*
X121061190Y-36807271D02*
X121182142Y-36867747D01*
X121182142Y-36867747D02*
X121242618Y-36928223D01*
X121242618Y-36928223D02*
X121303095Y-37049175D01*
X121303095Y-37049175D02*
X121303095Y-37170128D01*
X121303095Y-37170128D02*
X121242618Y-37351556D01*
X121242618Y-37351556D02*
X120516904Y-38077271D01*
X120516904Y-38077271D02*
X121303095Y-38077271D01*
D12*
X132292309Y-55374285D02*
X132292309Y-55040952D01*
X132816119Y-54898095D02*
X132816119Y-55374285D01*
X132816119Y-55374285D02*
X131816119Y-55374285D01*
X131816119Y-55374285D02*
X131816119Y-54898095D01*
X131911357Y-54517142D02*
X131863738Y-54469523D01*
X131863738Y-54469523D02*
X131816119Y-54374285D01*
X131816119Y-54374285D02*
X131816119Y-54136190D01*
X131816119Y-54136190D02*
X131863738Y-54040952D01*
X131863738Y-54040952D02*
X131911357Y-53993333D01*
X131911357Y-53993333D02*
X132006595Y-53945714D01*
X132006595Y-53945714D02*
X132101833Y-53945714D01*
X132101833Y-53945714D02*
X132244690Y-53993333D01*
X132244690Y-53993333D02*
X132816119Y-54564761D01*
X132816119Y-54564761D02*
X132816119Y-53945714D01*
X131911357Y-53564761D02*
X131863738Y-53517142D01*
X131863738Y-53517142D02*
X131816119Y-53421904D01*
X131816119Y-53421904D02*
X131816119Y-53183809D01*
X131816119Y-53183809D02*
X131863738Y-53088571D01*
X131863738Y-53088571D02*
X131911357Y-53040952D01*
X131911357Y-53040952D02*
X132006595Y-52993333D01*
X132006595Y-52993333D02*
X132101833Y-52993333D01*
X132101833Y-52993333D02*
X132244690Y-53040952D01*
X132244690Y-53040952D02*
X132816119Y-53612380D01*
X132816119Y-53612380D02*
X132816119Y-52993333D01*
X132435166Y-52564761D02*
X132435166Y-51802857D01*
X132816119Y-51279047D02*
X132816119Y-51088571D01*
X132816119Y-51088571D02*
X132768500Y-50993333D01*
X132768500Y-50993333D02*
X132720880Y-50945714D01*
X132720880Y-50945714D02*
X132578023Y-50850476D01*
X132578023Y-50850476D02*
X132387547Y-50802857D01*
X132387547Y-50802857D02*
X132006595Y-50802857D01*
X132006595Y-50802857D02*
X131911357Y-50850476D01*
X131911357Y-50850476D02*
X131863738Y-50898095D01*
X131863738Y-50898095D02*
X131816119Y-50993333D01*
X131816119Y-50993333D02*
X131816119Y-51183809D01*
X131816119Y-51183809D02*
X131863738Y-51279047D01*
X131863738Y-51279047D02*
X131911357Y-51326666D01*
X131911357Y-51326666D02*
X132006595Y-51374285D01*
X132006595Y-51374285D02*
X132244690Y-51374285D01*
X132244690Y-51374285D02*
X132339928Y-51326666D01*
X132339928Y-51326666D02*
X132387547Y-51279047D01*
X132387547Y-51279047D02*
X132435166Y-51183809D01*
X132435166Y-51183809D02*
X132435166Y-50993333D01*
X132435166Y-50993333D02*
X132387547Y-50898095D01*
X132387547Y-50898095D02*
X132339928Y-50850476D01*
X132339928Y-50850476D02*
X132244690Y-50802857D01*
X131816119Y-50183809D02*
X131816119Y-50088571D01*
X131816119Y-50088571D02*
X131863738Y-49993333D01*
X131863738Y-49993333D02*
X131911357Y-49945714D01*
X131911357Y-49945714D02*
X132006595Y-49898095D01*
X132006595Y-49898095D02*
X132197071Y-49850476D01*
X132197071Y-49850476D02*
X132435166Y-49850476D01*
X132435166Y-49850476D02*
X132625642Y-49898095D01*
X132625642Y-49898095D02*
X132720880Y-49945714D01*
X132720880Y-49945714D02*
X132768500Y-49993333D01*
X132768500Y-49993333D02*
X132816119Y-50088571D01*
X132816119Y-50088571D02*
X132816119Y-50183809D01*
X132816119Y-50183809D02*
X132768500Y-50279047D01*
X132768500Y-50279047D02*
X132720880Y-50326666D01*
X132720880Y-50326666D02*
X132625642Y-50374285D01*
X132625642Y-50374285D02*
X132435166Y-50421904D01*
X132435166Y-50421904D02*
X132197071Y-50421904D01*
X132197071Y-50421904D02*
X132006595Y-50374285D01*
X132006595Y-50374285D02*
X131911357Y-50326666D01*
X131911357Y-50326666D02*
X131863738Y-50279047D01*
X131863738Y-50279047D02*
X131816119Y-50183809D01*
X131816119Y-49231428D02*
X131816119Y-49136190D01*
X131816119Y-49136190D02*
X131863738Y-49040952D01*
X131863738Y-49040952D02*
X131911357Y-48993333D01*
X131911357Y-48993333D02*
X132006595Y-48945714D01*
X132006595Y-48945714D02*
X132197071Y-48898095D01*
X132197071Y-48898095D02*
X132435166Y-48898095D01*
X132435166Y-48898095D02*
X132625642Y-48945714D01*
X132625642Y-48945714D02*
X132720880Y-48993333D01*
X132720880Y-48993333D02*
X132768500Y-49040952D01*
X132768500Y-49040952D02*
X132816119Y-49136190D01*
X132816119Y-49136190D02*
X132816119Y-49231428D01*
X132816119Y-49231428D02*
X132768500Y-49326666D01*
X132768500Y-49326666D02*
X132720880Y-49374285D01*
X132720880Y-49374285D02*
X132625642Y-49421904D01*
X132625642Y-49421904D02*
X132435166Y-49469523D01*
X132435166Y-49469523D02*
X132197071Y-49469523D01*
X132197071Y-49469523D02*
X132006595Y-49421904D01*
X132006595Y-49421904D02*
X131911357Y-49374285D01*
X131911357Y-49374285D02*
X131863738Y-49326666D01*
X131863738Y-49326666D02*
X131816119Y-49231428D01*
X132816119Y-48469523D02*
X131816119Y-48469523D01*
X131816119Y-48469523D02*
X132530404Y-48136190D01*
X132530404Y-48136190D02*
X131816119Y-47802857D01*
X131816119Y-47802857D02*
X132816119Y-47802857D01*
X131911357Y-47374285D02*
X131863738Y-47326666D01*
X131863738Y-47326666D02*
X131816119Y-47231428D01*
X131816119Y-47231428D02*
X131816119Y-46993333D01*
X131816119Y-46993333D02*
X131863738Y-46898095D01*
X131863738Y-46898095D02*
X131911357Y-46850476D01*
X131911357Y-46850476D02*
X132006595Y-46802857D01*
X132006595Y-46802857D02*
X132101833Y-46802857D01*
X132101833Y-46802857D02*
X132244690Y-46850476D01*
X132244690Y-46850476D02*
X132816119Y-47421904D01*
X132816119Y-47421904D02*
X132816119Y-46802857D01*
X131911357Y-46421904D02*
X131863738Y-46374285D01*
X131863738Y-46374285D02*
X131816119Y-46279047D01*
X131816119Y-46279047D02*
X131816119Y-46040952D01*
X131816119Y-46040952D02*
X131863738Y-45945714D01*
X131863738Y-45945714D02*
X131911357Y-45898095D01*
X131911357Y-45898095D02*
X132006595Y-45850476D01*
X132006595Y-45850476D02*
X132101833Y-45850476D01*
X132101833Y-45850476D02*
X132244690Y-45898095D01*
X132244690Y-45898095D02*
X132816119Y-46469523D01*
X132816119Y-46469523D02*
X132816119Y-45850476D01*
X132768500Y-45469523D02*
X132816119Y-45326666D01*
X132816119Y-45326666D02*
X132816119Y-45088571D01*
X132816119Y-45088571D02*
X132768500Y-44993333D01*
X132768500Y-44993333D02*
X132720880Y-44945714D01*
X132720880Y-44945714D02*
X132625642Y-44898095D01*
X132625642Y-44898095D02*
X132530404Y-44898095D01*
X132530404Y-44898095D02*
X132435166Y-44945714D01*
X132435166Y-44945714D02*
X132387547Y-44993333D01*
X132387547Y-44993333D02*
X132339928Y-45088571D01*
X132339928Y-45088571D02*
X132292309Y-45279047D01*
X132292309Y-45279047D02*
X132244690Y-45374285D01*
X132244690Y-45374285D02*
X132197071Y-45421904D01*
X132197071Y-45421904D02*
X132101833Y-45469523D01*
X132101833Y-45469523D02*
X132006595Y-45469523D01*
X132006595Y-45469523D02*
X131911357Y-45421904D01*
X131911357Y-45421904D02*
X131863738Y-45374285D01*
X131863738Y-45374285D02*
X131816119Y-45279047D01*
X131816119Y-45279047D02*
X131816119Y-45040952D01*
X131816119Y-45040952D02*
X131863738Y-44898095D01*
D10*
X131964580Y-42867857D02*
X132012200Y-42915476D01*
X132012200Y-42915476D02*
X132059819Y-43058333D01*
X132059819Y-43058333D02*
X132059819Y-43153571D01*
X132059819Y-43153571D02*
X132012200Y-43296428D01*
X132012200Y-43296428D02*
X131916961Y-43391666D01*
X131916961Y-43391666D02*
X131821723Y-43439285D01*
X131821723Y-43439285D02*
X131631247Y-43486904D01*
X131631247Y-43486904D02*
X131488390Y-43486904D01*
X131488390Y-43486904D02*
X131297914Y-43439285D01*
X131297914Y-43439285D02*
X131202676Y-43391666D01*
X131202676Y-43391666D02*
X131107438Y-43296428D01*
X131107438Y-43296428D02*
X131059819Y-43153571D01*
X131059819Y-43153571D02*
X131059819Y-43058333D01*
X131059819Y-43058333D02*
X131107438Y-42915476D01*
X131107438Y-42915476D02*
X131155057Y-42867857D01*
X131155057Y-42486904D02*
X131107438Y-42439285D01*
X131107438Y-42439285D02*
X131059819Y-42344047D01*
X131059819Y-42344047D02*
X131059819Y-42105952D01*
X131059819Y-42105952D02*
X131107438Y-42010714D01*
X131107438Y-42010714D02*
X131155057Y-41963095D01*
X131155057Y-41963095D02*
X131250295Y-41915476D01*
X131250295Y-41915476D02*
X131345533Y-41915476D01*
X131345533Y-41915476D02*
X131488390Y-41963095D01*
X131488390Y-41963095D02*
X132059819Y-42534523D01*
X132059819Y-42534523D02*
X132059819Y-41915476D01*
X131059819Y-41010714D02*
X131059819Y-41486904D01*
X131059819Y-41486904D02*
X131536009Y-41534523D01*
X131536009Y-41534523D02*
X131488390Y-41486904D01*
X131488390Y-41486904D02*
X131440771Y-41391666D01*
X131440771Y-41391666D02*
X131440771Y-41153571D01*
X131440771Y-41153571D02*
X131488390Y-41058333D01*
X131488390Y-41058333D02*
X131536009Y-41010714D01*
X131536009Y-41010714D02*
X131631247Y-40963095D01*
X131631247Y-40963095D02*
X131869342Y-40963095D01*
X131869342Y-40963095D02*
X131964580Y-41010714D01*
X131964580Y-41010714D02*
X132012200Y-41058333D01*
X132012200Y-41058333D02*
X132059819Y-41153571D01*
X132059819Y-41153571D02*
X132059819Y-41391666D01*
X132059819Y-41391666D02*
X132012200Y-41486904D01*
X132012200Y-41486904D02*
X131964580Y-41534523D01*
X107693333Y-92564819D02*
X107360000Y-92088628D01*
X107121905Y-92564819D02*
X107121905Y-91564819D01*
X107121905Y-91564819D02*
X107502857Y-91564819D01*
X107502857Y-91564819D02*
X107598095Y-91612438D01*
X107598095Y-91612438D02*
X107645714Y-91660057D01*
X107645714Y-91660057D02*
X107693333Y-91755295D01*
X107693333Y-91755295D02*
X107693333Y-91898152D01*
X107693333Y-91898152D02*
X107645714Y-91993390D01*
X107645714Y-91993390D02*
X107598095Y-92041009D01*
X107598095Y-92041009D02*
X107502857Y-92088628D01*
X107502857Y-92088628D02*
X107121905Y-92088628D01*
X108550476Y-91898152D02*
X108550476Y-92564819D01*
X108312381Y-91517200D02*
X108074286Y-92231485D01*
X108074286Y-92231485D02*
X108693333Y-92231485D01*
X116917142Y-83019580D02*
X116869523Y-83067200D01*
X116869523Y-83067200D02*
X116726666Y-83114819D01*
X116726666Y-83114819D02*
X116631428Y-83114819D01*
X116631428Y-83114819D02*
X116488571Y-83067200D01*
X116488571Y-83067200D02*
X116393333Y-82971961D01*
X116393333Y-82971961D02*
X116345714Y-82876723D01*
X116345714Y-82876723D02*
X116298095Y-82686247D01*
X116298095Y-82686247D02*
X116298095Y-82543390D01*
X116298095Y-82543390D02*
X116345714Y-82352914D01*
X116345714Y-82352914D02*
X116393333Y-82257676D01*
X116393333Y-82257676D02*
X116488571Y-82162438D01*
X116488571Y-82162438D02*
X116631428Y-82114819D01*
X116631428Y-82114819D02*
X116726666Y-82114819D01*
X116726666Y-82114819D02*
X116869523Y-82162438D01*
X116869523Y-82162438D02*
X116917142Y-82210057D01*
X117774285Y-82114819D02*
X117583809Y-82114819D01*
X117583809Y-82114819D02*
X117488571Y-82162438D01*
X117488571Y-82162438D02*
X117440952Y-82210057D01*
X117440952Y-82210057D02*
X117345714Y-82352914D01*
X117345714Y-82352914D02*
X117298095Y-82543390D01*
X117298095Y-82543390D02*
X117298095Y-82924342D01*
X117298095Y-82924342D02*
X117345714Y-83019580D01*
X117345714Y-83019580D02*
X117393333Y-83067200D01*
X117393333Y-83067200D02*
X117488571Y-83114819D01*
X117488571Y-83114819D02*
X117679047Y-83114819D01*
X117679047Y-83114819D02*
X117774285Y-83067200D01*
X117774285Y-83067200D02*
X117821904Y-83019580D01*
X117821904Y-83019580D02*
X117869523Y-82924342D01*
X117869523Y-82924342D02*
X117869523Y-82686247D01*
X117869523Y-82686247D02*
X117821904Y-82591009D01*
X117821904Y-82591009D02*
X117774285Y-82543390D01*
X117774285Y-82543390D02*
X117679047Y-82495771D01*
X117679047Y-82495771D02*
X117488571Y-82495771D01*
X117488571Y-82495771D02*
X117393333Y-82543390D01*
X117393333Y-82543390D02*
X117345714Y-82591009D01*
X117345714Y-82591009D02*
X117298095Y-82686247D01*
X118488571Y-82114819D02*
X118583809Y-82114819D01*
X118583809Y-82114819D02*
X118679047Y-82162438D01*
X118679047Y-82162438D02*
X118726666Y-82210057D01*
X118726666Y-82210057D02*
X118774285Y-82305295D01*
X118774285Y-82305295D02*
X118821904Y-82495771D01*
X118821904Y-82495771D02*
X118821904Y-82733866D01*
X118821904Y-82733866D02*
X118774285Y-82924342D01*
X118774285Y-82924342D02*
X118726666Y-83019580D01*
X118726666Y-83019580D02*
X118679047Y-83067200D01*
X118679047Y-83067200D02*
X118583809Y-83114819D01*
X118583809Y-83114819D02*
X118488571Y-83114819D01*
X118488571Y-83114819D02*
X118393333Y-83067200D01*
X118393333Y-83067200D02*
X118345714Y-83019580D01*
X118345714Y-83019580D02*
X118298095Y-82924342D01*
X118298095Y-82924342D02*
X118250476Y-82733866D01*
X118250476Y-82733866D02*
X118250476Y-82495771D01*
X118250476Y-82495771D02*
X118298095Y-82305295D01*
X118298095Y-82305295D02*
X118345714Y-82210057D01*
X118345714Y-82210057D02*
X118393333Y-82162438D01*
X118393333Y-82162438D02*
X118488571Y-82114819D01*
X122367142Y-92213582D02*
X122319523Y-92261202D01*
X122319523Y-92261202D02*
X122176666Y-92308821D01*
X122176666Y-92308821D02*
X122081428Y-92308821D01*
X122081428Y-92308821D02*
X121938571Y-92261202D01*
X121938571Y-92261202D02*
X121843333Y-92165963D01*
X121843333Y-92165963D02*
X121795714Y-92070725D01*
X121795714Y-92070725D02*
X121748095Y-91880249D01*
X121748095Y-91880249D02*
X121748095Y-91737392D01*
X121748095Y-91737392D02*
X121795714Y-91546916D01*
X121795714Y-91546916D02*
X121843333Y-91451678D01*
X121843333Y-91451678D02*
X121938571Y-91356440D01*
X121938571Y-91356440D02*
X122081428Y-91308821D01*
X122081428Y-91308821D02*
X122176666Y-91308821D01*
X122176666Y-91308821D02*
X122319523Y-91356440D01*
X122319523Y-91356440D02*
X122367142Y-91404059D01*
X122748095Y-91404059D02*
X122795714Y-91356440D01*
X122795714Y-91356440D02*
X122890952Y-91308821D01*
X122890952Y-91308821D02*
X123129047Y-91308821D01*
X123129047Y-91308821D02*
X123224285Y-91356440D01*
X123224285Y-91356440D02*
X123271904Y-91404059D01*
X123271904Y-91404059D02*
X123319523Y-91499297D01*
X123319523Y-91499297D02*
X123319523Y-91594535D01*
X123319523Y-91594535D02*
X123271904Y-91737392D01*
X123271904Y-91737392D02*
X122700476Y-92308821D01*
X122700476Y-92308821D02*
X123319523Y-92308821D01*
X124176666Y-91642154D02*
X124176666Y-92308821D01*
X123938571Y-91261202D02*
X123700476Y-91975487D01*
X123700476Y-91975487D02*
X124319523Y-91975487D01*
X116759580Y-101632857D02*
X116807200Y-101680476D01*
X116807200Y-101680476D02*
X116854819Y-101823333D01*
X116854819Y-101823333D02*
X116854819Y-101918571D01*
X116854819Y-101918571D02*
X116807200Y-102061428D01*
X116807200Y-102061428D02*
X116711961Y-102156666D01*
X116711961Y-102156666D02*
X116616723Y-102204285D01*
X116616723Y-102204285D02*
X116426247Y-102251904D01*
X116426247Y-102251904D02*
X116283390Y-102251904D01*
X116283390Y-102251904D02*
X116092914Y-102204285D01*
X116092914Y-102204285D02*
X115997676Y-102156666D01*
X115997676Y-102156666D02*
X115902438Y-102061428D01*
X115902438Y-102061428D02*
X115854819Y-101918571D01*
X115854819Y-101918571D02*
X115854819Y-101823333D01*
X115854819Y-101823333D02*
X115902438Y-101680476D01*
X115902438Y-101680476D02*
X115950057Y-101632857D01*
X115854819Y-101299523D02*
X115854819Y-100680476D01*
X115854819Y-100680476D02*
X116235771Y-101013809D01*
X116235771Y-101013809D02*
X116235771Y-100870952D01*
X116235771Y-100870952D02*
X116283390Y-100775714D01*
X116283390Y-100775714D02*
X116331009Y-100728095D01*
X116331009Y-100728095D02*
X116426247Y-100680476D01*
X116426247Y-100680476D02*
X116664342Y-100680476D01*
X116664342Y-100680476D02*
X116759580Y-100728095D01*
X116759580Y-100728095D02*
X116807200Y-100775714D01*
X116807200Y-100775714D02*
X116854819Y-100870952D01*
X116854819Y-100870952D02*
X116854819Y-101156666D01*
X116854819Y-101156666D02*
X116807200Y-101251904D01*
X116807200Y-101251904D02*
X116759580Y-101299523D01*
X115854819Y-100347142D02*
X115854819Y-99680476D01*
X115854819Y-99680476D02*
X116854819Y-100109047D01*
D11*
X111199047Y-91670223D02*
X111078095Y-91609747D01*
X111078095Y-91609747D02*
X110957142Y-91488795D01*
X110957142Y-91488795D02*
X110775714Y-91307366D01*
X110775714Y-91307366D02*
X110654761Y-91246890D01*
X110654761Y-91246890D02*
X110533809Y-91246890D01*
X110594285Y-91549271D02*
X110473333Y-91488795D01*
X110473333Y-91488795D02*
X110352380Y-91367842D01*
X110352380Y-91367842D02*
X110291904Y-91125937D01*
X110291904Y-91125937D02*
X110291904Y-90702604D01*
X110291904Y-90702604D02*
X110352380Y-90460699D01*
X110352380Y-90460699D02*
X110473333Y-90339747D01*
X110473333Y-90339747D02*
X110594285Y-90279271D01*
X110594285Y-90279271D02*
X110836190Y-90279271D01*
X110836190Y-90279271D02*
X110957142Y-90339747D01*
X110957142Y-90339747D02*
X111078095Y-90460699D01*
X111078095Y-90460699D02*
X111138571Y-90702604D01*
X111138571Y-90702604D02*
X111138571Y-91125937D01*
X111138571Y-91125937D02*
X111078095Y-91367842D01*
X111078095Y-91367842D02*
X110957142Y-91488795D01*
X110957142Y-91488795D02*
X110836190Y-91549271D01*
X110836190Y-91549271D02*
X110594285Y-91549271D01*
X112348095Y-91549271D02*
X111622380Y-91549271D01*
X111985237Y-91549271D02*
X111985237Y-90279271D01*
X111985237Y-90279271D02*
X111864285Y-90460699D01*
X111864285Y-90460699D02*
X111743333Y-90581652D01*
X111743333Y-90581652D02*
X111622380Y-90642128D01*
D10*
X105096069Y-86872857D02*
X104619878Y-87206190D01*
X105096069Y-87444285D02*
X104096069Y-87444285D01*
X104096069Y-87444285D02*
X104096069Y-87063333D01*
X104096069Y-87063333D02*
X104143688Y-86968095D01*
X104143688Y-86968095D02*
X104191307Y-86920476D01*
X104191307Y-86920476D02*
X104286545Y-86872857D01*
X104286545Y-86872857D02*
X104429402Y-86872857D01*
X104429402Y-86872857D02*
X104524640Y-86920476D01*
X104524640Y-86920476D02*
X104572259Y-86968095D01*
X104572259Y-86968095D02*
X104619878Y-87063333D01*
X104619878Y-87063333D02*
X104619878Y-87444285D01*
X105096069Y-85920476D02*
X105096069Y-86491904D01*
X105096069Y-86206190D02*
X104096069Y-86206190D01*
X104096069Y-86206190D02*
X104238926Y-86301428D01*
X104238926Y-86301428D02*
X104334164Y-86396666D01*
X104334164Y-86396666D02*
X104381783Y-86491904D01*
X104096069Y-85015714D02*
X104096069Y-85491904D01*
X104096069Y-85491904D02*
X104572259Y-85539523D01*
X104572259Y-85539523D02*
X104524640Y-85491904D01*
X104524640Y-85491904D02*
X104477021Y-85396666D01*
X104477021Y-85396666D02*
X104477021Y-85158571D01*
X104477021Y-85158571D02*
X104524640Y-85063333D01*
X104524640Y-85063333D02*
X104572259Y-85015714D01*
X104572259Y-85015714D02*
X104667497Y-84968095D01*
X104667497Y-84968095D02*
X104905592Y-84968095D01*
X104905592Y-84968095D02*
X105000830Y-85015714D01*
X105000830Y-85015714D02*
X105048450Y-85063333D01*
X105048450Y-85063333D02*
X105096069Y-85158571D01*
X105096069Y-85158571D02*
X105096069Y-85396666D01*
X105096069Y-85396666D02*
X105048450Y-85491904D01*
X105048450Y-85491904D02*
X105000830Y-85539523D01*
X110128271Y-63111706D02*
X110464989Y-63448424D01*
X109522180Y-62977019D02*
X110128271Y-63111706D01*
X110128271Y-63111706D02*
X109993584Y-62505615D01*
X110262958Y-62370928D02*
X110262958Y-62303584D01*
X110262958Y-62303584D02*
X110296630Y-62202569D01*
X110296630Y-62202569D02*
X110464989Y-62034210D01*
X110464989Y-62034210D02*
X110566004Y-62000538D01*
X110566004Y-62000538D02*
X110633347Y-62000538D01*
X110633347Y-62000538D02*
X110734363Y-62034210D01*
X110734363Y-62034210D02*
X110801706Y-62101554D01*
X110801706Y-62101554D02*
X110869050Y-62236241D01*
X110869050Y-62236241D02*
X110869050Y-63044363D01*
X110869050Y-63044363D02*
X111306782Y-62606630D01*
X111028860Y-69199175D02*
X111028860Y-69266519D01*
X111028860Y-69266519D02*
X110961516Y-69401206D01*
X110961516Y-69401206D02*
X110894173Y-69468549D01*
X110894173Y-69468549D02*
X110759486Y-69535893D01*
X110759486Y-69535893D02*
X110624799Y-69535893D01*
X110624799Y-69535893D02*
X110523784Y-69502221D01*
X110523784Y-69502221D02*
X110355425Y-69401206D01*
X110355425Y-69401206D02*
X110254410Y-69300191D01*
X110254410Y-69300191D02*
X110153394Y-69131832D01*
X110153394Y-69131832D02*
X110119723Y-69030817D01*
X110119723Y-69030817D02*
X110119723Y-68896130D01*
X110119723Y-68896130D02*
X110187066Y-68761443D01*
X110187066Y-68761443D02*
X110254410Y-68694099D01*
X110254410Y-68694099D02*
X110389097Y-68626756D01*
X110389097Y-68626756D02*
X110456440Y-68626756D01*
X111230890Y-68189023D02*
X111702295Y-68660427D01*
X110793158Y-68088008D02*
X111129875Y-68761443D01*
X111129875Y-68761443D02*
X111567608Y-68323710D01*
X112106356Y-68256366D02*
X112241043Y-68121679D01*
X112241043Y-68121679D02*
X112274715Y-68020664D01*
X112274715Y-68020664D02*
X112274715Y-67953320D01*
X112274715Y-67953320D02*
X112241043Y-67784962D01*
X112241043Y-67784962D02*
X112140028Y-67616603D01*
X112140028Y-67616603D02*
X111870654Y-67347229D01*
X111870654Y-67347229D02*
X111769639Y-67313557D01*
X111769639Y-67313557D02*
X111702295Y-67313557D01*
X111702295Y-67313557D02*
X111601280Y-67347229D01*
X111601280Y-67347229D02*
X111466593Y-67481916D01*
X111466593Y-67481916D02*
X111432921Y-67582931D01*
X111432921Y-67582931D02*
X111432921Y-67650275D01*
X111432921Y-67650275D02*
X111466593Y-67751290D01*
X111466593Y-67751290D02*
X111634952Y-67919649D01*
X111634952Y-67919649D02*
X111735967Y-67953320D01*
X111735967Y-67953320D02*
X111803310Y-67953320D01*
X111803310Y-67953320D02*
X111904326Y-67919649D01*
X111904326Y-67919649D02*
X112039013Y-67784962D01*
X112039013Y-67784962D02*
X112072684Y-67683946D01*
X112072684Y-67683946D02*
X112072684Y-67616603D01*
X112072684Y-67616603D02*
X112039013Y-67515588D01*
X135130057Y-99465238D02*
X135082438Y-99560476D01*
X135082438Y-99560476D02*
X134987200Y-99655714D01*
X134987200Y-99655714D02*
X134844342Y-99798571D01*
X134844342Y-99798571D02*
X134796723Y-99893809D01*
X134796723Y-99893809D02*
X134796723Y-99989047D01*
X135034819Y-99941428D02*
X134987200Y-100036666D01*
X134987200Y-100036666D02*
X134891961Y-100131904D01*
X134891961Y-100131904D02*
X134701485Y-100179523D01*
X134701485Y-100179523D02*
X134368152Y-100179523D01*
X134368152Y-100179523D02*
X134177676Y-100131904D01*
X134177676Y-100131904D02*
X134082438Y-100036666D01*
X134082438Y-100036666D02*
X134034819Y-99941428D01*
X134034819Y-99941428D02*
X134034819Y-99750952D01*
X134034819Y-99750952D02*
X134082438Y-99655714D01*
X134082438Y-99655714D02*
X134177676Y-99560476D01*
X134177676Y-99560476D02*
X134368152Y-99512857D01*
X134368152Y-99512857D02*
X134701485Y-99512857D01*
X134701485Y-99512857D02*
X134891961Y-99560476D01*
X134891961Y-99560476D02*
X134987200Y-99655714D01*
X134987200Y-99655714D02*
X135034819Y-99750952D01*
X135034819Y-99750952D02*
X135034819Y-99941428D01*
X134130057Y-99131904D02*
X134082438Y-99084285D01*
X134082438Y-99084285D02*
X134034819Y-98989047D01*
X134034819Y-98989047D02*
X134034819Y-98750952D01*
X134034819Y-98750952D02*
X134082438Y-98655714D01*
X134082438Y-98655714D02*
X134130057Y-98608095D01*
X134130057Y-98608095D02*
X134225295Y-98560476D01*
X134225295Y-98560476D02*
X134320533Y-98560476D01*
X134320533Y-98560476D02*
X134463390Y-98608095D01*
X134463390Y-98608095D02*
X135034819Y-99179523D01*
X135034819Y-99179523D02*
X135034819Y-98560476D01*
X127513333Y-77639580D02*
X127465714Y-77687200D01*
X127465714Y-77687200D02*
X127322857Y-77734819D01*
X127322857Y-77734819D02*
X127227619Y-77734819D01*
X127227619Y-77734819D02*
X127084762Y-77687200D01*
X127084762Y-77687200D02*
X126989524Y-77591961D01*
X126989524Y-77591961D02*
X126941905Y-77496723D01*
X126941905Y-77496723D02*
X126894286Y-77306247D01*
X126894286Y-77306247D02*
X126894286Y-77163390D01*
X126894286Y-77163390D02*
X126941905Y-76972914D01*
X126941905Y-76972914D02*
X126989524Y-76877676D01*
X126989524Y-76877676D02*
X127084762Y-76782438D01*
X127084762Y-76782438D02*
X127227619Y-76734819D01*
X127227619Y-76734819D02*
X127322857Y-76734819D01*
X127322857Y-76734819D02*
X127465714Y-76782438D01*
X127465714Y-76782438D02*
X127513333Y-76830057D01*
X128370476Y-77068152D02*
X128370476Y-77734819D01*
X128132381Y-76687200D02*
X127894286Y-77401485D01*
X127894286Y-77401485D02*
X128513333Y-77401485D01*
X134183333Y-99594819D02*
X133850000Y-99118628D01*
X133611905Y-99594819D02*
X133611905Y-98594819D01*
X133611905Y-98594819D02*
X133992857Y-98594819D01*
X133992857Y-98594819D02*
X134088095Y-98642438D01*
X134088095Y-98642438D02*
X134135714Y-98690057D01*
X134135714Y-98690057D02*
X134183333Y-98785295D01*
X134183333Y-98785295D02*
X134183333Y-98928152D01*
X134183333Y-98928152D02*
X134135714Y-99023390D01*
X134135714Y-99023390D02*
X134088095Y-99071009D01*
X134088095Y-99071009D02*
X133992857Y-99118628D01*
X133992857Y-99118628D02*
X133611905Y-99118628D01*
X135040476Y-98594819D02*
X134850000Y-98594819D01*
X134850000Y-98594819D02*
X134754762Y-98642438D01*
X134754762Y-98642438D02*
X134707143Y-98690057D01*
X134707143Y-98690057D02*
X134611905Y-98832914D01*
X134611905Y-98832914D02*
X134564286Y-99023390D01*
X134564286Y-99023390D02*
X134564286Y-99404342D01*
X134564286Y-99404342D02*
X134611905Y-99499580D01*
X134611905Y-99499580D02*
X134659524Y-99547200D01*
X134659524Y-99547200D02*
X134754762Y-99594819D01*
X134754762Y-99594819D02*
X134945238Y-99594819D01*
X134945238Y-99594819D02*
X135040476Y-99547200D01*
X135040476Y-99547200D02*
X135088095Y-99499580D01*
X135088095Y-99499580D02*
X135135714Y-99404342D01*
X135135714Y-99404342D02*
X135135714Y-99166247D01*
X135135714Y-99166247D02*
X135088095Y-99071009D01*
X135088095Y-99071009D02*
X135040476Y-99023390D01*
X135040476Y-99023390D02*
X134945238Y-98975771D01*
X134945238Y-98975771D02*
X134754762Y-98975771D01*
X134754762Y-98975771D02*
X134659524Y-99023390D01*
X134659524Y-99023390D02*
X134611905Y-99071009D01*
X134611905Y-99071009D02*
X134564286Y-99166247D01*
X119889580Y-108186666D02*
X119937200Y-108234285D01*
X119937200Y-108234285D02*
X119984819Y-108377142D01*
X119984819Y-108377142D02*
X119984819Y-108472380D01*
X119984819Y-108472380D02*
X119937200Y-108615237D01*
X119937200Y-108615237D02*
X119841961Y-108710475D01*
X119841961Y-108710475D02*
X119746723Y-108758094D01*
X119746723Y-108758094D02*
X119556247Y-108805713D01*
X119556247Y-108805713D02*
X119413390Y-108805713D01*
X119413390Y-108805713D02*
X119222914Y-108758094D01*
X119222914Y-108758094D02*
X119127676Y-108710475D01*
X119127676Y-108710475D02*
X119032438Y-108615237D01*
X119032438Y-108615237D02*
X118984819Y-108472380D01*
X118984819Y-108472380D02*
X118984819Y-108377142D01*
X118984819Y-108377142D02*
X119032438Y-108234285D01*
X119032438Y-108234285D02*
X119080057Y-108186666D01*
X119984819Y-107234285D02*
X119984819Y-107805713D01*
X119984819Y-107519999D02*
X118984819Y-107519999D01*
X118984819Y-107519999D02*
X119127676Y-107615237D01*
X119127676Y-107615237D02*
X119222914Y-107710475D01*
X119222914Y-107710475D02*
X119270533Y-107805713D01*
X103792142Y-48994819D02*
X103458809Y-48518628D01*
X103220714Y-48994819D02*
X103220714Y-47994819D01*
X103220714Y-47994819D02*
X103601666Y-47994819D01*
X103601666Y-47994819D02*
X103696904Y-48042438D01*
X103696904Y-48042438D02*
X103744523Y-48090057D01*
X103744523Y-48090057D02*
X103792142Y-48185295D01*
X103792142Y-48185295D02*
X103792142Y-48328152D01*
X103792142Y-48328152D02*
X103744523Y-48423390D01*
X103744523Y-48423390D02*
X103696904Y-48471009D01*
X103696904Y-48471009D02*
X103601666Y-48518628D01*
X103601666Y-48518628D02*
X103220714Y-48518628D01*
X104744523Y-48994819D02*
X104173095Y-48994819D01*
X104458809Y-48994819D02*
X104458809Y-47994819D01*
X104458809Y-47994819D02*
X104363571Y-48137676D01*
X104363571Y-48137676D02*
X104268333Y-48232914D01*
X104268333Y-48232914D02*
X104173095Y-48280533D01*
X105077857Y-47994819D02*
X105696904Y-47994819D01*
X105696904Y-47994819D02*
X105363571Y-48375771D01*
X105363571Y-48375771D02*
X105506428Y-48375771D01*
X105506428Y-48375771D02*
X105601666Y-48423390D01*
X105601666Y-48423390D02*
X105649285Y-48471009D01*
X105649285Y-48471009D02*
X105696904Y-48566247D01*
X105696904Y-48566247D02*
X105696904Y-48804342D01*
X105696904Y-48804342D02*
X105649285Y-48899580D01*
X105649285Y-48899580D02*
X105601666Y-48947200D01*
X105601666Y-48947200D02*
X105506428Y-48994819D01*
X105506428Y-48994819D02*
X105220714Y-48994819D01*
X105220714Y-48994819D02*
X105125476Y-48947200D01*
X105125476Y-48947200D02*
X105077857Y-48899580D01*
D11*
X104283630Y-73844171D02*
X104283630Y-74872266D01*
X104283630Y-74872266D02*
X104344107Y-74993218D01*
X104344107Y-74993218D02*
X104404583Y-75053695D01*
X104404583Y-75053695D02*
X104525535Y-75114171D01*
X104525535Y-75114171D02*
X104767440Y-75114171D01*
X104767440Y-75114171D02*
X104888392Y-75053695D01*
X104888392Y-75053695D02*
X104948869Y-74993218D01*
X104948869Y-74993218D02*
X105009345Y-74872266D01*
X105009345Y-74872266D02*
X105009345Y-73844171D01*
X106158392Y-74267504D02*
X106158392Y-75114171D01*
X105856011Y-73783695D02*
X105553630Y-74690837D01*
X105553630Y-74690837D02*
X106339821Y-74690837D01*
D10*
X115980142Y-90676019D02*
X115646809Y-90199828D01*
X115408714Y-90676019D02*
X115408714Y-89676019D01*
X115408714Y-89676019D02*
X115789666Y-89676019D01*
X115789666Y-89676019D02*
X115884904Y-89723638D01*
X115884904Y-89723638D02*
X115932523Y-89771257D01*
X115932523Y-89771257D02*
X115980142Y-89866495D01*
X115980142Y-89866495D02*
X115980142Y-90009352D01*
X115980142Y-90009352D02*
X115932523Y-90104590D01*
X115932523Y-90104590D02*
X115884904Y-90152209D01*
X115884904Y-90152209D02*
X115789666Y-90199828D01*
X115789666Y-90199828D02*
X115408714Y-90199828D01*
X116361095Y-89771257D02*
X116408714Y-89723638D01*
X116408714Y-89723638D02*
X116503952Y-89676019D01*
X116503952Y-89676019D02*
X116742047Y-89676019D01*
X116742047Y-89676019D02*
X116837285Y-89723638D01*
X116837285Y-89723638D02*
X116884904Y-89771257D01*
X116884904Y-89771257D02*
X116932523Y-89866495D01*
X116932523Y-89866495D02*
X116932523Y-89961733D01*
X116932523Y-89961733D02*
X116884904Y-90104590D01*
X116884904Y-90104590D02*
X116313476Y-90676019D01*
X116313476Y-90676019D02*
X116932523Y-90676019D01*
X117313476Y-89771257D02*
X117361095Y-89723638D01*
X117361095Y-89723638D02*
X117456333Y-89676019D01*
X117456333Y-89676019D02*
X117694428Y-89676019D01*
X117694428Y-89676019D02*
X117789666Y-89723638D01*
X117789666Y-89723638D02*
X117837285Y-89771257D01*
X117837285Y-89771257D02*
X117884904Y-89866495D01*
X117884904Y-89866495D02*
X117884904Y-89961733D01*
X117884904Y-89961733D02*
X117837285Y-90104590D01*
X117837285Y-90104590D02*
X117265857Y-90676019D01*
X117265857Y-90676019D02*
X117884904Y-90676019D01*
X122369580Y-104252857D02*
X122417200Y-104300476D01*
X122417200Y-104300476D02*
X122464819Y-104443333D01*
X122464819Y-104443333D02*
X122464819Y-104538571D01*
X122464819Y-104538571D02*
X122417200Y-104681428D01*
X122417200Y-104681428D02*
X122321961Y-104776666D01*
X122321961Y-104776666D02*
X122226723Y-104824285D01*
X122226723Y-104824285D02*
X122036247Y-104871904D01*
X122036247Y-104871904D02*
X121893390Y-104871904D01*
X121893390Y-104871904D02*
X121702914Y-104824285D01*
X121702914Y-104824285D02*
X121607676Y-104776666D01*
X121607676Y-104776666D02*
X121512438Y-104681428D01*
X121512438Y-104681428D02*
X121464819Y-104538571D01*
X121464819Y-104538571D02*
X121464819Y-104443333D01*
X121464819Y-104443333D02*
X121512438Y-104300476D01*
X121512438Y-104300476D02*
X121560057Y-104252857D01*
X121464819Y-103919523D02*
X121464819Y-103300476D01*
X121464819Y-103300476D02*
X121845771Y-103633809D01*
X121845771Y-103633809D02*
X121845771Y-103490952D01*
X121845771Y-103490952D02*
X121893390Y-103395714D01*
X121893390Y-103395714D02*
X121941009Y-103348095D01*
X121941009Y-103348095D02*
X122036247Y-103300476D01*
X122036247Y-103300476D02*
X122274342Y-103300476D01*
X122274342Y-103300476D02*
X122369580Y-103348095D01*
X122369580Y-103348095D02*
X122417200Y-103395714D01*
X122417200Y-103395714D02*
X122464819Y-103490952D01*
X122464819Y-103490952D02*
X122464819Y-103776666D01*
X122464819Y-103776666D02*
X122417200Y-103871904D01*
X122417200Y-103871904D02*
X122369580Y-103919523D01*
X121464819Y-102443333D02*
X121464819Y-102633809D01*
X121464819Y-102633809D02*
X121512438Y-102729047D01*
X121512438Y-102729047D02*
X121560057Y-102776666D01*
X121560057Y-102776666D02*
X121702914Y-102871904D01*
X121702914Y-102871904D02*
X121893390Y-102919523D01*
X121893390Y-102919523D02*
X122274342Y-102919523D01*
X122274342Y-102919523D02*
X122369580Y-102871904D01*
X122369580Y-102871904D02*
X122417200Y-102824285D01*
X122417200Y-102824285D02*
X122464819Y-102729047D01*
X122464819Y-102729047D02*
X122464819Y-102538571D01*
X122464819Y-102538571D02*
X122417200Y-102443333D01*
X122417200Y-102443333D02*
X122369580Y-102395714D01*
X122369580Y-102395714D02*
X122274342Y-102348095D01*
X122274342Y-102348095D02*
X122036247Y-102348095D01*
X122036247Y-102348095D02*
X121941009Y-102395714D01*
X121941009Y-102395714D02*
X121893390Y-102443333D01*
X121893390Y-102443333D02*
X121845771Y-102538571D01*
X121845771Y-102538571D02*
X121845771Y-102729047D01*
X121845771Y-102729047D02*
X121893390Y-102824285D01*
X121893390Y-102824285D02*
X121941009Y-102871904D01*
X121941009Y-102871904D02*
X122036247Y-102919523D01*
X103792142Y-65989580D02*
X103744523Y-66037200D01*
X103744523Y-66037200D02*
X103601666Y-66084819D01*
X103601666Y-66084819D02*
X103506428Y-66084819D01*
X103506428Y-66084819D02*
X103363571Y-66037200D01*
X103363571Y-66037200D02*
X103268333Y-65941961D01*
X103268333Y-65941961D02*
X103220714Y-65846723D01*
X103220714Y-65846723D02*
X103173095Y-65656247D01*
X103173095Y-65656247D02*
X103173095Y-65513390D01*
X103173095Y-65513390D02*
X103220714Y-65322914D01*
X103220714Y-65322914D02*
X103268333Y-65227676D01*
X103268333Y-65227676D02*
X103363571Y-65132438D01*
X103363571Y-65132438D02*
X103506428Y-65084819D01*
X103506428Y-65084819D02*
X103601666Y-65084819D01*
X103601666Y-65084819D02*
X103744523Y-65132438D01*
X103744523Y-65132438D02*
X103792142Y-65180057D01*
X104125476Y-65084819D02*
X104744523Y-65084819D01*
X104744523Y-65084819D02*
X104411190Y-65465771D01*
X104411190Y-65465771D02*
X104554047Y-65465771D01*
X104554047Y-65465771D02*
X104649285Y-65513390D01*
X104649285Y-65513390D02*
X104696904Y-65561009D01*
X104696904Y-65561009D02*
X104744523Y-65656247D01*
X104744523Y-65656247D02*
X104744523Y-65894342D01*
X104744523Y-65894342D02*
X104696904Y-65989580D01*
X104696904Y-65989580D02*
X104649285Y-66037200D01*
X104649285Y-66037200D02*
X104554047Y-66084819D01*
X104554047Y-66084819D02*
X104268333Y-66084819D01*
X104268333Y-66084819D02*
X104173095Y-66037200D01*
X104173095Y-66037200D02*
X104125476Y-65989580D01*
X105649285Y-65084819D02*
X105173095Y-65084819D01*
X105173095Y-65084819D02*
X105125476Y-65561009D01*
X105125476Y-65561009D02*
X105173095Y-65513390D01*
X105173095Y-65513390D02*
X105268333Y-65465771D01*
X105268333Y-65465771D02*
X105506428Y-65465771D01*
X105506428Y-65465771D02*
X105601666Y-65513390D01*
X105601666Y-65513390D02*
X105649285Y-65561009D01*
X105649285Y-65561009D02*
X105696904Y-65656247D01*
X105696904Y-65656247D02*
X105696904Y-65894342D01*
X105696904Y-65894342D02*
X105649285Y-65989580D01*
X105649285Y-65989580D02*
X105601666Y-66037200D01*
X105601666Y-66037200D02*
X105506428Y-66084819D01*
X105506428Y-66084819D02*
X105268333Y-66084819D01*
X105268333Y-66084819D02*
X105173095Y-66037200D01*
X105173095Y-66037200D02*
X105125476Y-65989580D01*
%TO.C,J9*%
D13*
X104330000Y-98830000D02*
X110080000Y-98830000D01*
X104330000Y-100250000D02*
X104330000Y-98830000D01*
X104330000Y-104780000D02*
X104830000Y-104780000D01*
X104330000Y-106200000D02*
X104330000Y-104780000D01*
X104830000Y-100250000D02*
X104330000Y-100250000D01*
X104830000Y-104780000D02*
X104830000Y-100250000D01*
X110080000Y-106200000D02*
X104330000Y-106200000D01*
X111620000Y-106200000D02*
X111920000Y-106200000D01*
X111920000Y-98830000D02*
X111620000Y-98830000D01*
X111920000Y-106200000D02*
X111920000Y-98830000D01*
%TO.C,R26*%
X103120000Y-99337164D02*
X103120000Y-99552836D01*
X103840000Y-99337164D02*
X103840000Y-99552836D01*
%TO.C,R19*%
X124730000Y-96887164D02*
X124730000Y-97102836D01*
X125450000Y-96887164D02*
X125450000Y-97102836D01*
%TO.C,C6*%
X114461693Y-62240810D02*
X114309190Y-62088307D01*
X114970810Y-61731693D02*
X114818307Y-61579190D01*
%TO.C,C62*%
X127347836Y-63560000D02*
X127132164Y-63560000D01*
X127347836Y-64280000D02*
X127132164Y-64280000D01*
%TO.C,D7*%
X118605000Y-103325000D02*
X118605000Y-104795000D01*
X118605000Y-104795000D02*
X120890000Y-104795000D01*
X120890000Y-103325000D02*
X118605000Y-103325000D01*
%TO.C,D2*%
X122324591Y-83004038D02*
X123940330Y-84619777D01*
X123940330Y-84619777D02*
X124979777Y-83580330D01*
X124979777Y-83580330D02*
X123364038Y-81964591D01*
%TO.C,U6*%
X111363369Y-73035000D02*
X112035120Y-72363249D01*
X112035120Y-73706751D02*
X111363369Y-73035000D01*
X117918249Y-66480120D02*
X118590000Y-65808369D01*
X118590000Y-65808369D02*
X119261751Y-66480120D01*
X118590000Y-80261631D02*
X117918249Y-79589880D01*
X119261751Y-79589880D02*
X118590000Y-80261631D01*
X125144880Y-72363249D02*
X125816631Y-73035000D01*
X125816631Y-73035000D02*
X125144880Y-73706751D01*
X118038457Y-65935648D02*
X117465700Y-66027572D01*
X117557624Y-65454815D01*
X118038457Y-65935648D01*
G36*
X118038457Y-65935648D02*
G01*
X117465700Y-66027572D01*
X117557624Y-65454815D01*
X118038457Y-65935648D01*
G37*
%TO.C,R24*%
X103120000Y-105557164D02*
X103120000Y-105772836D01*
X103840000Y-105557164D02*
X103840000Y-105772836D01*
%TO.C,D6*%
X124394591Y-80933003D02*
X126010330Y-82548742D01*
X126010330Y-82548742D02*
X127049777Y-81509295D01*
X127049777Y-81509295D02*
X125434038Y-79893556D01*
%TO.C,C50*%
X117361693Y-65710810D02*
X117209190Y-65558307D01*
X117870810Y-65201693D02*
X117718307Y-65049190D01*
%TO.C,J11*%
X132935000Y-56190000D02*
X132935000Y-57240000D01*
X132935000Y-63360000D02*
X131945000Y-63360000D01*
X132935000Y-64410000D02*
X132935000Y-63360000D01*
X135435000Y-56190000D02*
X132935000Y-56190000D01*
X135435000Y-64410000D02*
X132935000Y-64410000D01*
X137405000Y-63240000D02*
X137405000Y-57360000D01*
%TO.C,C5*%
X109361693Y-67340810D02*
X109209190Y-67188307D01*
X109870810Y-66831693D02*
X109718307Y-66679190D01*
%TO.C,C57*%
X118070000Y-86062164D02*
X118070000Y-86277836D01*
X118790000Y-86062164D02*
X118790000Y-86277836D01*
%TO.C,U14*%
D14*
X122773600Y-105664100D02*
X125816400Y-105664100D01*
X122773600Y-110716500D02*
X122773600Y-105664100D01*
X125816400Y-105664100D02*
X125816400Y-110716500D01*
X125816400Y-110716500D02*
X122773600Y-110716500D01*
D15*
X121790500Y-105613000D02*
G75*
G02*
X121490300Y-105613000I-150100J0D01*
G01*
X121490300Y-105613000D02*
G75*
G02*
X121790500Y-105613000I150100J0D01*
G01*
X123676000Y-106240300D02*
G75*
G02*
X123375800Y-106240300I-150100J0D01*
G01*
X123375800Y-106240300D02*
G75*
G02*
X123676000Y-106240300I150100J0D01*
G01*
%TO.C,C59*%
D13*
X125462164Y-98115000D02*
X125677836Y-98115000D01*
X125462164Y-98835000D02*
X125677836Y-98835000D01*
%TO.C,U9*%
D14*
X108391300Y-83493800D02*
X108391300Y-83739500D01*
X108391300Y-86646200D02*
X108391300Y-86400500D01*
X109249500Y-83493800D02*
X108391300Y-83493800D01*
X109249500Y-86646200D02*
X108391300Y-86646200D01*
X110910500Y-83493800D02*
X111768700Y-83493800D01*
X110910500Y-86646200D02*
X111768700Y-86646200D01*
X111768700Y-83493800D02*
X111768700Y-83739500D01*
X111768700Y-86646200D02*
X111768700Y-86400500D01*
D10*
X112277300Y-86070000D02*
G75*
G02*
X112127500Y-86070000I-74900J0D01*
G01*
X112127500Y-86070000D02*
G75*
G02*
X112277300Y-86070000I74900J0D01*
G01*
%TO.C,R8*%
D13*
X123619940Y-79657341D02*
X123402659Y-79440060D01*
X124157341Y-79119940D02*
X123940060Y-78902659D01*
%TO.C,C63*%
X128525000Y-42627836D02*
X128525000Y-42412164D01*
X129245000Y-42627836D02*
X129245000Y-42412164D01*
%TO.C,C28*%
X115158748Y-102930000D02*
X115681252Y-102930000D01*
X115158748Y-104400000D02*
X115681252Y-104400000D01*
%TO.C,R30*%
X103120000Y-101847164D02*
X103120000Y-102062836D01*
X103840000Y-101847164D02*
X103840000Y-102062836D01*
%TO.C,C47*%
X117342282Y-80338601D02*
X117189779Y-80491104D01*
X117851399Y-80847718D02*
X117698896Y-81000221D01*
%TO.C,D4*%
D14*
X124533800Y-87383800D02*
X124773000Y-87377100D01*
X124533800Y-90863900D02*
X127386200Y-90863900D01*
X124533800Y-92576200D02*
X124533800Y-87383800D01*
X127135600Y-87386700D02*
X127374800Y-87380000D01*
X127386200Y-92576200D02*
X127386200Y-87383800D01*
%TO.C,U1*%
D16*
X126611801Y-64297163D02*
X127011801Y-64297163D01*
X127011801Y-64297163D02*
X126911801Y-64197063D01*
D17*
X126865901Y-66051163D02*
G75*
G02*
X126665701Y-66051163I-100100J0D01*
G01*
X126665701Y-66051163D02*
G75*
G02*
X126865901Y-66051163I100100J0D01*
G01*
D18*
X127736801Y-67022263D02*
X125286701Y-67022263D01*
X125286701Y-64572163D01*
X127736801Y-64572163D01*
X127736801Y-67022263D01*
%TO.C,R1*%
D13*
X123379940Y-67267341D02*
X123162659Y-67050060D01*
X123917341Y-66729940D02*
X123700060Y-66512659D01*
%TO.C,R5*%
X121569940Y-81707341D02*
X121352659Y-81490060D01*
X122107341Y-81169940D02*
X121890060Y-80952659D01*
%TO.C,R2*%
X120932659Y-65100060D02*
X121149940Y-65317341D01*
X121470060Y-64562659D02*
X121687341Y-64779940D01*
%TO.C,Reset2*%
X101685000Y-61480000D02*
X101685000Y-58880000D01*
X102135000Y-58430000D02*
X101685000Y-58880000D01*
X102135000Y-61930000D02*
X101685000Y-61480000D01*
X103435000Y-57430000D02*
X105435000Y-57430000D01*
X103435000Y-62930000D02*
X105435000Y-62930000D01*
X106735000Y-58430000D02*
X107185000Y-58880000D01*
X106735000Y-61930000D02*
X107185000Y-61480000D01*
X107185000Y-61480000D02*
X107185000Y-58880000D01*
%TO.C,C48*%
X111121693Y-76361399D02*
X110969190Y-76208896D01*
X111630810Y-75852282D02*
X111478307Y-75699779D01*
%TO.C,C64*%
X102070000Y-76397836D02*
X102070000Y-76182164D01*
X102790000Y-76397836D02*
X102790000Y-76182164D01*
%TO.C,C58*%
X119070000Y-108767836D02*
X119070000Y-108552164D01*
X119790000Y-108767836D02*
X119790000Y-108552164D01*
%TO.C,D1*%
D14*
X114993800Y-107508800D02*
X114993800Y-112701200D01*
X115244400Y-112698300D02*
X115005200Y-112705000D01*
X117846200Y-107508800D02*
X117846200Y-112701200D01*
X117846200Y-109221100D02*
X114993800Y-109221100D01*
X117846200Y-112701200D02*
X117607000Y-112707900D01*
%TO.C,L1*%
D19*
X130307000Y-105749000D02*
X136459000Y-105749000D01*
X130307000Y-106162500D02*
X130307000Y-105749000D01*
X130307000Y-111487500D02*
X130307000Y-111901000D01*
X130307000Y-111901000D02*
X136459000Y-111901000D01*
X136459000Y-105749000D02*
X136459000Y-106162500D01*
X136459000Y-111901000D02*
X136459000Y-111487500D01*
%TO.C,Q5*%
D14*
X106858700Y-106528800D02*
X106858700Y-113221200D01*
X112826200Y-106528800D02*
X106858700Y-106528800D01*
X112826200Y-113221200D02*
X106858700Y-113221200D01*
%TO.C,C56*%
D13*
X126362164Y-104945000D02*
X126577836Y-104945000D01*
X126362164Y-105665000D02*
X126577836Y-105665000D01*
%TO.C,J1*%
X130940000Y-84720000D02*
X130940000Y-85520000D01*
X133860000Y-77220000D02*
X135640000Y-77220000D01*
X133860000Y-86620000D02*
X135640000Y-86620000D01*
%TO.C,R20*%
X124730000Y-99817164D02*
X124730000Y-100032836D01*
X125450000Y-99817164D02*
X125450000Y-100032836D01*
%TO.C,D3*%
X123365215Y-81964662D02*
X124980954Y-83580401D01*
X124980954Y-83580401D02*
X126020401Y-82540954D01*
X126020401Y-82540954D02*
X124404662Y-80925215D01*
%TO.C,C66*%
X112310000Y-86442164D02*
X112310000Y-86657836D01*
X113030000Y-86442164D02*
X113030000Y-86657836D01*
%TO.C,C53*%
X127262164Y-103110000D02*
X127477836Y-103110000D01*
X127262164Y-103830000D02*
X127477836Y-103830000D01*
%TO.C,R12*%
X104588641Y-55540000D02*
X104281359Y-55540000D01*
X104588641Y-56300000D02*
X104281359Y-56300000D01*
%TO.C,C51*%
X119349190Y-65241693D02*
X119501693Y-65089190D01*
X119858307Y-65750810D02*
X120010810Y-65598307D01*
%TO.C,R9*%
X121830000Y-103876359D02*
X121830000Y-104183641D01*
X122590000Y-103876359D02*
X122590000Y-104183641D01*
%TO.C,R3*%
X119593341Y-105860300D02*
X119286059Y-105860300D01*
X119593341Y-106620300D02*
X119286059Y-106620300D01*
%TO.C,C26*%
X108664420Y-88250000D02*
X108945580Y-88250000D01*
X108664420Y-89270000D02*
X108945580Y-89270000D01*
%TO.C,C61*%
X128020000Y-65887836D02*
X128020000Y-65672164D01*
X128740000Y-65887836D02*
X128740000Y-65672164D01*
%TO.C,J6*%
X133480000Y-65720000D02*
X134860000Y-65720000D01*
X133480000Y-67100000D02*
X133480000Y-65720000D01*
X133480000Y-68370000D02*
X133480000Y-76100000D01*
X133480000Y-68370000D02*
X136240000Y-68370000D01*
X133480000Y-76100000D02*
X136240000Y-76100000D01*
X136240000Y-68370000D02*
X136240000Y-76100000D01*
%TO.C,R25*%
X102430000Y-107956359D02*
X102430000Y-108263641D01*
X103190000Y-107956359D02*
X103190000Y-108263641D01*
%TO.C,U5*%
D14*
X115003800Y-84573650D02*
X115249500Y-84573650D01*
X115003800Y-85319350D02*
X115003800Y-84573650D01*
X115003800Y-86980350D02*
X115003800Y-87726050D01*
X115003800Y-87726050D02*
X115249500Y-87726050D01*
X117656200Y-84573650D02*
X117410500Y-84573650D01*
X117656200Y-85319350D02*
X117656200Y-84573650D01*
X117656200Y-86980350D02*
X117656200Y-87726050D01*
X117656200Y-87726050D02*
X117410500Y-87726050D01*
D10*
X115642900Y-88054850D02*
G75*
G02*
X115493100Y-88054850I-74900J0D01*
G01*
X115493100Y-88054850D02*
G75*
G02*
X115642900Y-88054850I74900J0D01*
G01*
%TO.C,R10*%
D13*
X130463641Y-101310000D02*
X130156359Y-101310000D01*
X130463641Y-102070000D02*
X130156359Y-102070000D01*
%TO.C,C68*%
X118550000Y-59397836D02*
X118550000Y-59182164D01*
X119270000Y-59397836D02*
X119270000Y-59182164D01*
%TO.C,BZ1*%
D18*
X128550000Y-94530000D02*
X128550000Y-90130000D01*
X130650000Y-88130000D02*
X135050000Y-88130000D01*
X130750000Y-96530000D02*
X134950000Y-96530000D01*
X131850000Y-89830500D02*
X133850000Y-89830500D01*
X132850000Y-88830500D02*
X131850000Y-89830500D01*
X133850000Y-89830500D02*
X132850000Y-88830500D01*
X137150000Y-94430000D02*
X137150000Y-90230000D01*
%TO.C,C7*%
D13*
X115738781Y-81920030D02*
X115539970Y-81721219D01*
X116460030Y-81198781D02*
X116261219Y-80999970D01*
%TO.C,C34*%
X135297252Y-103720000D02*
X134774748Y-103720000D01*
X135297252Y-105190000D02*
X134774748Y-105190000D01*
%TO.C,D5*%
X130512500Y-97530000D02*
X130512500Y-99530000D01*
X130512500Y-97530000D02*
X134522500Y-97530000D01*
X130512500Y-99530000D02*
X134522500Y-99530000D01*
%TO.C,Flash1*%
X101685000Y-52970000D02*
X101685000Y-50370000D01*
X102135000Y-49920000D02*
X101685000Y-50370000D01*
X102135000Y-53420000D02*
X101685000Y-52970000D01*
X103435000Y-48920000D02*
X105435000Y-48920000D01*
X103435000Y-54420000D02*
X105435000Y-54420000D01*
X106735000Y-49920000D02*
X107185000Y-50370000D01*
X106735000Y-53420000D02*
X107185000Y-52970000D01*
X107185000Y-52970000D02*
X107185000Y-50370000D01*
%TO.C,J7*%
X116088000Y-92331200D02*
X117508000Y-92331200D01*
X116088000Y-98081200D02*
X116088000Y-92331200D01*
X116088000Y-99621200D02*
X116088000Y-99921200D01*
X116088000Y-99921200D02*
X123458000Y-99921200D01*
X117508000Y-92331200D02*
X117508000Y-92831200D01*
X117508000Y-92831200D02*
X122038000Y-92831200D01*
X122038000Y-92331200D02*
X123458000Y-92331200D01*
X122038000Y-92831200D02*
X122038000Y-92331200D01*
X123458000Y-92331200D02*
X123458000Y-98081200D01*
X123458000Y-99921200D02*
X123458000Y-99621200D01*
%TO.C,J2*%
X113710000Y-115275000D02*
X113710000Y-118095000D01*
X113710000Y-115275000D02*
X115410000Y-113975000D01*
X113710000Y-118095000D02*
X115410000Y-119395000D01*
X115410000Y-113975000D02*
X124130000Y-113975000D01*
X115410000Y-119395000D02*
X124130000Y-119395000D01*
X124130000Y-113975000D02*
X124130000Y-119395000D01*
%TO.C,C8*%
X127524420Y-101690000D02*
X127805580Y-101690000D01*
X127524420Y-102710000D02*
X127805580Y-102710000D01*
%TO.C,C65*%
X109207836Y-87160000D02*
X108992164Y-87160000D01*
X109207836Y-87880000D02*
X108992164Y-87880000D01*
%TO.C,C27*%
X115158748Y-104890000D02*
X115681252Y-104890000D01*
X115158748Y-106360000D02*
X115681252Y-106360000D01*
%TO.C,D8*%
X129365000Y-102890000D02*
X129365000Y-105175000D01*
X129365000Y-105175000D02*
X130835000Y-105175000D01*
X130835000Y-105175000D02*
X130835000Y-102890000D01*
%TO.C,R11*%
X117280000Y-105818641D02*
X117280000Y-105511359D01*
X118040000Y-105818641D02*
X118040000Y-105511359D01*
%TO.C,U3*%
D17*
X119495000Y-59960100D02*
X119495000Y-63360100D01*
X119495000Y-63360100D02*
X119770000Y-63360100D01*
X119770000Y-59960100D02*
X119495000Y-59960100D01*
X124620000Y-59960100D02*
X124895000Y-59960100D01*
X124895000Y-59960100D02*
X124895000Y-63360100D01*
X124895000Y-63360100D02*
X124620000Y-63360100D01*
D18*
X124793400Y-59640800D02*
G75*
G02*
X124795999Y-59640800I1300J80000D01*
G01*
%TO.C,R16*%
D13*
X108330000Y-81403641D02*
X108330000Y-81096359D01*
X109090000Y-81403641D02*
X109090000Y-81096359D01*
%TO.C,C52*%
X125869190Y-74308307D02*
X126021693Y-74460810D01*
X126378307Y-73799190D02*
X126530810Y-73951693D01*
%TO.C,C67*%
X135613836Y-102655000D02*
X135398164Y-102655000D01*
X135613836Y-103375000D02*
X135398164Y-103375000D01*
%TO.C,R17*%
X128990000Y-77706359D02*
X128990000Y-78013641D01*
X129750000Y-77706359D02*
X129750000Y-78013641D01*
%TO.C,R7*%
X122599940Y-80667341D02*
X122382659Y-80450060D01*
X123137341Y-80129940D02*
X122920060Y-79912659D01*
%TO.C,R14*%
X129536359Y-82790000D02*
X129843641Y-82790000D01*
X129536359Y-83550000D02*
X129843641Y-83550000D01*
%TO.C,C2*%
X128470000Y-106767164D02*
X128470000Y-106982836D01*
X129190000Y-106767164D02*
X129190000Y-106982836D01*
%TO.C,R23*%
X113865164Y-91021200D02*
X114080836Y-91021200D01*
X113865164Y-91741200D02*
X114080836Y-91741200D01*
%TO.C,R21*%
X103040000Y-93276359D02*
X103040000Y-93583641D01*
X103800000Y-93276359D02*
X103800000Y-93583641D01*
%TO.C,U2*%
D18*
X113275000Y-38460000D02*
X113275000Y-39778900D01*
X113275000Y-38460000D02*
X127275000Y-38460000D01*
X113275000Y-50031200D02*
X113275000Y-54238900D01*
X113275000Y-58141200D02*
X113275000Y-58460000D01*
X113275000Y-58460000D02*
X127260000Y-58460000D01*
X115195000Y-39825000D02*
X125355000Y-39825000D01*
X115195000Y-52525000D02*
X115195000Y-39825000D01*
X119005000Y-52525000D02*
X115195000Y-52525000D01*
X119005000Y-56335000D02*
X119005000Y-52525000D01*
X125355000Y-39825000D02*
X125355000Y-56335000D01*
X125355000Y-56335000D02*
X119005000Y-56335000D01*
X127275000Y-38460000D02*
X127275000Y-39778900D01*
X127275000Y-50031200D02*
X127275000Y-54238900D01*
X127275000Y-58141200D02*
X127275000Y-58460000D01*
X127815000Y-58387300D02*
G75*
G02*
X127652000Y-58387300I-81500J0D01*
G01*
X127652000Y-58387300D02*
G75*
G02*
X127815000Y-58387300I81500J0D01*
G01*
%TO.C,C25*%
D13*
X129665000Y-42084420D02*
X129665000Y-42365580D01*
X130685000Y-42084420D02*
X130685000Y-42365580D01*
%TO.C,R4*%
X107967836Y-90590000D02*
X107752164Y-90590000D01*
X107967836Y-91310000D02*
X107752164Y-91310000D01*
%TO.C,C60*%
X117452164Y-83460000D02*
X117667836Y-83460000D01*
X117452164Y-84180000D02*
X117667836Y-84180000D01*
%TO.C,C24*%
X123271253Y-89439003D02*
X122748747Y-89439003D01*
X123271253Y-90909003D02*
X122748747Y-90909003D01*
%TO.C,C37*%
X113985000Y-100728748D02*
X113985000Y-101251252D01*
X115455000Y-100728748D02*
X115455000Y-101251252D01*
%TO.C,Q1*%
D14*
X107428700Y-91848800D02*
X107428700Y-98541200D01*
X113396200Y-91848800D02*
X107428700Y-91848800D01*
X113396200Y-98541200D02*
X107428700Y-98541200D01*
%TO.C,R15*%
D13*
X103091250Y-86076359D02*
X103091250Y-86383641D01*
X103851250Y-86076359D02*
X103851250Y-86383641D01*
%TO.C,Y2*%
X108945679Y-65653883D02*
X111576117Y-68284321D01*
X111576117Y-68284321D02*
X115726833Y-64133604D01*
X113096396Y-61503167D02*
X108945679Y-65653883D01*
%TO.C,C49*%
X111718601Y-69132282D02*
X111871104Y-68979779D01*
X112227718Y-69641399D02*
X112380221Y-69488896D01*
%TO.C,Q2*%
X135420000Y-98610000D02*
X136420000Y-98610000D01*
X135420000Y-100130000D02*
X135420000Y-98610000D01*
X135470000Y-100130000D02*
X135420000Y-100130000D01*
X137370000Y-100130000D02*
X136590000Y-100130000D01*
X137540000Y-98610000D02*
X138540000Y-98610000D01*
X138540000Y-98610000D02*
X138540000Y-100130000D01*
X138540000Y-100130000D02*
X138490000Y-100130000D01*
X136930000Y-100910000D02*
X136600000Y-100670000D01*
X136930000Y-100430000D01*
X136930000Y-100910000D01*
G36*
X136930000Y-100910000D02*
G01*
X136600000Y-100670000D01*
X136930000Y-100430000D01*
X136930000Y-100910000D01*
G37*
%TO.C,C4*%
X127820580Y-75340000D02*
X127539420Y-75340000D01*
X127820580Y-76360000D02*
X127539420Y-76360000D01*
%TO.C,R6*%
X134196359Y-99930000D02*
X134503641Y-99930000D01*
X134196359Y-100690000D02*
X134503641Y-100690000D01*
%TO.C,C1*%
X118010000Y-107912164D02*
X118010000Y-108127836D01*
X118730000Y-107912164D02*
X118730000Y-108127836D01*
%TO.C,R13*%
X104588641Y-46990000D02*
X104281359Y-46990000D01*
X104588641Y-47750000D02*
X104281359Y-47750000D01*
%TO.C,U4*%
D14*
X102741300Y-78123600D02*
X108018700Y-78123600D01*
X102741300Y-82476400D02*
X102741300Y-78123600D01*
X108018700Y-78123600D02*
X108018700Y-82476400D01*
X108018700Y-82476400D02*
X102741300Y-82476400D01*
D15*
X102857800Y-83830100D02*
G75*
G02*
X102557600Y-83830100I-150100J0D01*
G01*
X102557600Y-83830100D02*
G75*
G02*
X102857800Y-83830100I150100J0D01*
G01*
X103625100Y-81723900D02*
G75*
G02*
X103324900Y-81723900I-150100J0D01*
G01*
X103324900Y-81723900D02*
G75*
G02*
X103625100Y-81723900I150100J0D01*
G01*
%TO.C,R22*%
D13*
X116515164Y-91021200D02*
X116730836Y-91021200D01*
X116515164Y-91741200D02*
X116730836Y-91741200D01*
%TO.C,C36*%
X122955000Y-103871252D02*
X122955000Y-103348748D01*
X124425000Y-103871252D02*
X124425000Y-103348748D01*
%TO.C,C35*%
X104542836Y-64110000D02*
X104327164Y-64110000D01*
X104542836Y-64830000D02*
X104327164Y-64830000D01*
%TD*%
M02*
