%TF.GenerationSoftware,KiCad,Pcbnew,10.0.1*%
%TF.CreationDate,2026-07-16T18:28:58+02:00*%
%TF.ProjectId,Horizon,486f7269-7a6f-46e2-9e6b-696361645f70,rev?*%
%TF.SameCoordinates,Original*%
%TF.FileFunction,Soldermask,Bot*%
%TF.FilePolarity,Negative*%
%FSLAX46Y46*%
G04 Gerber Fmt 4.6, Leading zero omitted, Abs format (unit mm)*
G04 Created by KiCad (PCBNEW 10.0.1) date 2026-07-16 18:28:58*
%MOMM*%
%LPD*%
G01*
G04 APERTURE LIST*
G04 Aperture macros list*
%AMRoundRect*
0 Rectangle with rounded corners*
0 $1 Rounding radius*
0 $2 $3 $4 $5 $6 $7 $8 $9 X,Y pos of 4 corners*
0 Add a 4 corners polygon primitive as box body*
4,1,4,$2,$3,$4,$5,$6,$7,$8,$9,$2,$3,0*
0 Add four circle primitives for the rounded corners*
1,1,$1+$1,$2,$3*
1,1,$1+$1,$4,$5*
1,1,$1+$1,$6,$7*
1,1,$1+$1,$8,$9*
0 Add four rect primitives between the rounded corners*
20,1,$1+$1,$2,$3,$4,$5,0*
20,1,$1+$1,$4,$5,$6,$7,0*
20,1,$1+$1,$6,$7,$8,$9,0*
20,1,$1+$1,$8,$9,$2,$3,0*%
G04 Aperture macros list end*
%ADD10C,1.020000*%
%ADD11RoundRect,0.250001X0.499999X-0.499999X0.499999X0.499999X-0.499999X0.499999X-0.499999X-0.499999X0*%
%ADD12C,1.500000*%
%ADD13C,0.609600*%
%ADD14C,0.650000*%
%ADD15O,2.100000X1.000000*%
%ADD16O,1.600000X1.000000*%
%ADD17C,0.800000*%
%ADD18C,6.400000*%
%ADD19R,1.700000X1.700000*%
%ADD20C,1.700000*%
%ADD21RoundRect,0.250001X-0.499999X-0.499999X0.499999X-0.499999X0.499999X0.499999X-0.499999X0.499999X0*%
%ADD22RoundRect,0.750000X-0.750000X-0.750000X0.750000X-0.750000X0.750000X0.750000X-0.750000X0.750000X0*%
%ADD23C,3.000000*%
G04 APERTURE END LIST*
D10*
%TO.C,J9*%
X110850000Y-105515000D03*
X110850000Y-99515000D03*
D11*
X106910000Y-102515000D03*
D12*
X109910000Y-102515000D03*
%TD*%
D13*
%TO.C,U14*%
X123800000Y-107695000D03*
X124790300Y-107695300D03*
X123799700Y-108685300D03*
X124790000Y-108685600D03*
%TD*%
D14*
%TO.C,J1*%
X133035000Y-84810000D03*
X133035000Y-79030000D03*
D15*
X132535000Y-86240000D03*
D16*
X136715000Y-86240000D03*
D15*
X132535000Y-77600000D03*
D16*
X136715000Y-77600000D03*
%TD*%
D17*
%TO.C,H5*%
X102875000Y-116595000D03*
X103577944Y-114897944D03*
X103577944Y-118292056D03*
X105275000Y-114195000D03*
D18*
X105275000Y-116595000D03*
D17*
X105275000Y-118995000D03*
X106972056Y-114897944D03*
X106972056Y-118292056D03*
X107675000Y-116595000D03*
%TD*%
%TO.C,H6*%
X132875000Y-116595000D03*
X133577944Y-114897944D03*
X133577944Y-118292056D03*
X135275000Y-114195000D03*
D18*
X135275000Y-116595000D03*
D17*
X135275000Y-118995000D03*
X136972056Y-114897944D03*
X136972056Y-118292056D03*
X137675000Y-116595000D03*
%TD*%
D19*
%TO.C,J6*%
X134860000Y-67100000D03*
D20*
X134860000Y-69640000D03*
X134860000Y-72180000D03*
X134860000Y-74720000D03*
%TD*%
D10*
%TO.C,J7*%
X116773000Y-98851200D03*
X122773000Y-98851200D03*
D21*
X119773000Y-94911200D03*
D12*
X119773000Y-97911200D03*
%TD*%
D22*
%TO.C,J2*%
X116420000Y-116685000D03*
D23*
X121420000Y-116685000D03*
%TD*%
D17*
%TO.C,H7*%
X132875000Y-42130000D03*
X133577944Y-40432944D03*
X133577944Y-43827056D03*
X135275000Y-39730000D03*
D18*
X135275000Y-42130000D03*
D17*
X135275000Y-44530000D03*
X136972056Y-40432944D03*
X136972056Y-43827056D03*
X137675000Y-42130000D03*
%TD*%
%TO.C,H8*%
X102875000Y-42130000D03*
X103577944Y-40432944D03*
X103577944Y-43827056D03*
X105275000Y-39730000D03*
D18*
X105275000Y-42130000D03*
D17*
X105275000Y-44530000D03*
X106972056Y-40432944D03*
X106972056Y-43827056D03*
X107675000Y-42130000D03*
%TD*%
M02*
